<?xml version="1.0" encoding="utf-8"?>
<!-- Generator: Adobe Illustrator 28.2.0, SVG Export Plug-In . SVG Version: 6.00 Build 0)  -->
<svg version="1.1" id="Layer_1" xmlns="http://www.w3.org/2000/svg" xmlns:xlink="http://www.w3.org/1999/xlink" x="0px" y="0px"
	 viewBox="0 0 215 150" style="enable-background:new 0 0 215 150;" xml:space="preserve">
<style type="text/css">
	.st0{fill:#01779B;}
	.st1{fill:#010101;}
	.st2{fill:none;stroke:#010101;stroke-width:0.216;stroke-miterlimit:22.9256;}
</style>
<path class="st0" d="M40.94,44.14l-0.14,0.53c-0.22,0.77-0.53,1.15-0.94,1.15c-0.21,0-0.39-0.11-0.55-0.33
	c-0.16-0.22-0.25-0.47-0.25-0.75c0-0.27,0.07-0.62,0.22-1.07l1-3.11c0.25-0.75,0.55-1.12,0.92-1.12c0.19,0,0.36,0.1,0.5,0.29
	c0.14,0.2,0.21,0.43,0.21,0.69c0,0.07-0.02,0.22-0.05,0.45c-0.02,0.17-0.03,0.32-0.03,0.45c0,0.48,0.12,0.98,0.36,1.48l0.43,0.91
	c0.44,0.93,0.66,1.83,0.66,2.69c0,0.97-0.24,1.77-0.71,2.42c-0.47,0.65-1.05,0.97-1.76,0.97h-1.57c-0.63,0-0.95-0.34-0.95-1.01
	c0-0.46,0.11-0.83,0.34-1.09c0.23-0.26,0.53-0.4,0.93-0.4h0.87c0.7,0,1.05-0.39,1.05-1.17c0-0.28-0.07-0.62-0.2-1L40.94,44.14z
	 M183.36,14.4l-0.14,0.53c-0.22,0.77-0.53,1.15-0.94,1.15c-0.21,0-0.39-0.11-0.55-0.33c-0.16-0.22-0.25-0.47-0.25-0.75
	c0-0.27,0.07-0.62,0.22-1.07l1-3.11c0.25-0.75,0.55-1.12,0.92-1.12c0.19,0,0.36,0.1,0.5,0.29c0.14,0.2,0.21,0.43,0.21,0.69
	c0,0.07-0.02,0.22-0.05,0.45c-0.02,0.17-0.03,0.32-0.03,0.45c0,0.48,0.12,0.98,0.36,1.48l0.43,0.91c0.44,0.93,0.66,1.83,0.66,2.69
	c0,0.97-0.24,1.77-0.71,2.42c-0.47,0.65-1.05,0.97-1.76,0.97h-1.57c-0.63,0-0.95-0.34-0.95-1.01c0-0.46,0.11-0.83,0.34-1.09
	c0.23-0.26,0.53-0.4,0.93-0.4h0.87c0.7,0,1.05-0.39,1.05-1.17c0-0.28-0.07-0.62-0.2-1L183.36,14.4z M176.09,17.61h0.19
	c0.41,0,0.69-0.26,0.82-0.77l0.53-1.99c0.07-0.26,0.1-0.48,0.1-0.66c0-0.21-0.07-0.39-0.2-0.54c-0.13-0.15-0.29-0.23-0.48-0.23
	c-0.37,0-0.73,0.33-1.07,0.98c-0.35,0.66-0.52,1.33-0.52,2.03C175.46,17.22,175.67,17.61,176.09,17.61z M178.81,17.57h0.83
	c0.63,0,0.95,0.34,0.95,1.01c0,0.46-0.11,0.83-0.34,1.09c-0.23,0.26-0.54,0.4-0.93,0.4h-0.96c-0.43,0-0.72-0.26-0.88-0.77
	c-0.38,0.51-0.74,0.77-1.09,0.77h-0.85c-0.55,0-1-0.3-1.34-0.9c-0.34-0.6-0.51-1.39-0.51-2.36c0-1.47,0.33-2.79,1-3.95
	c0.66-1.16,1.41-1.74,2.25-1.74c0.64,0,1.11,0.33,1.41,1.01c0.25-0.58,0.58-0.86,0.98-0.86c0.22,0,0.4,0.11,0.55,0.32
	c0.15,0.22,0.22,0.48,0.22,0.8c0,0.22-0.04,0.48-0.12,0.77l-0.08,0.31L178.81,17.57z M169.29,13.77l-0.25,0.97
	c-0.23,0.86-0.53,1.29-0.9,1.29c-0.22,0-0.41-0.1-0.56-0.31c-0.15-0.21-0.23-0.47-0.23-0.77c0-0.18,0.05-0.48,0.16-0.9l0.85-3.22
	c0.2-0.77,0.49-1.16,0.87-1.16c0.37,0,0.59,0.27,0.68,0.8l0.06,0.36c0.03,0.18,0.07,0.3,0.14,0.35c0.06,0.05,0.2,0.07,0.44,0.07
	h1.76c0.65,0,0.98,0.35,0.98,1.06c0,0.97-0.41,1.46-1.24,1.46l-0.08,0.11c-0.79,1.17-1.18,2.08-1.18,2.72
	c0,0.64,0.23,0.96,0.68,0.96h0.95c0.64,0,0.96,0.34,0.96,1.01c0,0.47-0.11,0.84-0.34,1.1c-0.22,0.26-0.53,0.39-0.94,0.39h-1.47
	c-0.5,0-0.9-0.26-1.22-0.79c-0.32-0.53-0.47-1.22-0.47-2.07c0-0.54,0.08-1.06,0.25-1.57c0.17-0.51,0.47-1.13,0.9-1.86H169.29z
	 M162.6,22.89h-1.3c-0.45,0-0.8,0.15-1.05,0.44c-0.25,0.29-0.37,0.71-0.37,1.24c0,0.37,0.08,0.68,0.26,0.93
	c0.17,0.26,0.38,0.38,0.63,0.38c0.36,0,0.68-0.22,0.95-0.66C161.98,24.78,162.28,24,162.6,22.89z M164.18,16.93l0.61-2.27
	c0.05-0.19,0.07-0.35,0.07-0.47c0-0.23-0.07-0.42-0.2-0.57c-0.13-0.15-0.3-0.23-0.5-0.23c-0.36,0-0.71,0.31-1.03,0.95
	c-0.33,0.63-0.49,1.3-0.49,2c0,0.8,0.25,1.2,0.74,1.2C163.8,17.54,164.07,17.34,164.18,16.93z M165.15,20.39h0.9
	c0.63,0,0.95,0.34,0.95,1.01c0,0.46-0.11,0.83-0.34,1.09c-0.22,0.26-0.53,0.4-0.93,0.4h-1.24l-0.32,1.19
	c-0.77,2.88-1.88,4.32-3.36,4.32c-0.77,0-1.41-0.37-1.92-1.09c-0.51-0.73-0.77-1.64-0.77-2.74c0-0.71,0.12-1.38,0.37-2.01
	c0.25-0.62,0.59-1.12,1.02-1.49c0.53-0.45,1.24-0.68,2.14-0.68h1.61l0.23-0.91c-0.31,0.29-0.61,0.44-0.89,0.44
	c-0.53,0-0.97-0.28-1.3-0.85c-0.33-0.57-0.5-1.3-0.5-2.21c0-1.47,0.34-2.79,1.01-3.97c0.68-1.18,1.43-1.77,2.27-1.77
	c0.61,0,1.08,0.3,1.38,0.9c0.24-0.6,0.57-0.9,1-0.9c0.21,0,0.39,0.11,0.54,0.32c0.15,0.21,0.22,0.46,0.22,0.76
	c0,0.24-0.06,0.6-0.19,1.1L165.15,20.39z M156.79,14.6h0.82c0.53,0,0.8-0.18,0.78-0.53c-0.02-0.4-0.19-0.6-0.52-0.6
	C157.41,13.47,157.05,13.84,156.79,14.6z M156.43,16.69c0,0.58,0.28,0.87,0.85,0.87h2.23c0.63,0,0.95,0.34,0.95,1.02
	c0,0.46-0.11,0.83-0.34,1.09c-0.22,0.26-0.54,0.39-0.93,0.39h-2.12c-0.79,0-1.39-0.3-1.81-0.9c-0.41-0.6-0.62-1.47-0.62-2.62
	c0-1.48,0.33-2.75,0.98-3.82c0.65-1.07,1.43-1.61,2.33-1.61c0.66,0,1.18,0.26,1.58,0.79c0.4,0.53,0.6,1.22,0.6,2.08
	c0,1.03-0.27,1.8-0.82,2.3c-0.3,0.28-0.76,0.42-1.36,0.42H156.43z M152.53,17.57h0.87c0.35,0,0.59,0.08,0.74,0.24
	c0.15,0.16,0.22,0.41,0.22,0.77c0,0.46-0.11,0.83-0.34,1.09c-0.22,0.26-0.54,0.4-0.93,0.4h-1.34c-0.42,0-0.7-0.25-0.84-0.75
	c-0.27,0.5-0.62,0.75-1.03,0.75h-1.1c-0.44,0-0.8-0.21-1.09-0.63c-0.29-0.42-0.44-0.95-0.44-1.6c0-0.37,0.06-0.8,0.19-1.29
	l1.02-3.84c0.28-1.06,0.67-1.6,1.17-1.6c0.21,0,0.4,0.11,0.55,0.32c0.15,0.21,0.23,0.47,0.23,0.77c0,0.23-0.04,0.49-0.12,0.79
	l-0.08,0.31l-0.78,2.96l-0.08,0.34c-0.05,0.2-0.07,0.35-0.07,0.45c-0.01,0.34,0.14,0.51,0.44,0.51c0.62,0,1.03-0.38,1.24-1.15
	l0.94-3.55c0.28-1.08,0.68-1.61,1.18-1.61c0.21,0,0.39,0.11,0.54,0.32c0.15,0.22,0.23,0.48,0.23,0.77c0,0.24-0.06,0.61-0.19,1.11
	L152.53,17.57z M144.38,14.4l-0.14,0.53c-0.22,0.77-0.54,1.15-0.94,1.15c-0.21,0-0.39-0.11-0.55-0.33
	c-0.16-0.22-0.25-0.47-0.25-0.75c0-0.27,0.07-0.62,0.22-1.07l1-3.11c0.25-0.75,0.55-1.12,0.92-1.12c0.19,0,0.36,0.1,0.5,0.29
	c0.14,0.2,0.21,0.43,0.21,0.69c0,0.07-0.02,0.22-0.05,0.45c-0.02,0.17-0.03,0.32-0.03,0.45c0,0.48,0.12,0.98,0.36,1.48l0.43,0.91
	c0.44,0.93,0.66,1.83,0.66,2.69c0,0.97-0.24,1.77-0.71,2.42c-0.47,0.65-1.05,0.97-1.76,0.97h-1.57c-0.63,0-0.95-0.34-0.95-1.01
	c0-0.46,0.11-0.83,0.34-1.09c0.23-0.26,0.53-0.4,0.93-0.4h0.87c0.7,0,1.05-0.39,1.05-1.17c0-0.28-0.07-0.62-0.2-1L144.38,14.4z
	 M135.17,14.4l-0.14,0.53c-0.22,0.77-0.53,1.15-0.94,1.15c-0.21,0-0.39-0.11-0.55-0.33c-0.16-0.22-0.25-0.47-0.25-0.75
	c0-0.27,0.07-0.62,0.22-1.07l1-3.11c0.25-0.75,0.55-1.12,0.92-1.12c0.19,0,0.36,0.1,0.5,0.29c0.14,0.2,0.21,0.43,0.21,0.69
	c0,0.07-0.02,0.22-0.05,0.45c-0.02,0.17-0.03,0.32-0.03,0.45c0,0.48,0.12,0.98,0.36,1.48l0.43,0.91c0.44,0.93,0.66,1.83,0.66,2.69
	c0,0.97-0.24,1.77-0.71,2.42c-0.47,0.65-1.05,0.97-1.76,0.97h-1.57c-0.63,0-0.95-0.34-0.95-1.01c0-0.46,0.11-0.83,0.34-1.09
	c0.23-0.26,0.53-0.4,0.93-0.4h0.87c0.7,0,1.05-0.39,1.05-1.17c0-0.28-0.07-0.62-0.2-1L135.17,14.4z M127.9,17.61h0.19
	c0.41,0,0.69-0.26,0.82-0.77l0.53-1.99c0.07-0.26,0.1-0.48,0.1-0.66c0-0.21-0.07-0.39-0.2-0.54c-0.13-0.15-0.29-0.23-0.48-0.23
	c-0.37,0-0.73,0.33-1.07,0.98c-0.35,0.66-0.52,1.33-0.52,2.03C127.27,17.22,127.48,17.61,127.9,17.61z M130.62,17.57h0.83
	c0.63,0,0.95,0.34,0.95,1.01c0,0.46-0.11,0.83-0.34,1.09c-0.23,0.26-0.54,0.4-0.93,0.4h-0.96c-0.43,0-0.72-0.26-0.88-0.77
	c-0.38,0.51-0.74,0.77-1.09,0.77h-0.85c-0.55,0-1-0.3-1.34-0.9c-0.34-0.6-0.51-1.39-0.51-2.36c0-1.47,0.33-2.79,1-3.95
	c0.66-1.16,1.41-1.74,2.25-1.74c0.64,0,1.11,0.33,1.41,1.01c0.25-0.58,0.58-0.86,0.98-0.86c0.22,0,0.4,0.11,0.55,0.32
	c0.15,0.22,0.22,0.48,0.22,0.8c0,0.22-0.04,0.48-0.12,0.77l-0.08,0.31L130.62,17.57z M123.43,17.57h0.79c0.63,0,0.95,0.34,0.95,1.02
	c0,0.46-0.11,0.83-0.33,1.09c-0.22,0.26-0.54,0.39-0.93,0.39h-1.35c-0.37,0-0.66-0.13-0.87-0.4c-0.21-0.27-0.32-0.63-0.32-1.08
	c0-0.24,0.07-0.63,0.22-1.19l3.02-11.44l0.08-0.31c0.23-0.86,0.6-1.29,1.1-1.29c0.21,0,0.39,0.11,0.54,0.32
	c0.15,0.22,0.22,0.47,0.22,0.77c0,0.23-0.04,0.49-0.11,0.78l-0.08,0.31L123.43,17.57z M113.64,14.6h0.82c0.53,0,0.8-0.18,0.78-0.53
	c-0.02-0.4-0.19-0.6-0.52-0.6C114.26,13.47,113.9,13.84,113.64,14.6z M113.28,16.69c0,0.58,0.28,0.87,0.85,0.87h2.23
	c0.63,0,0.95,0.34,0.95,1.02c0,0.46-0.11,0.83-0.34,1.09c-0.22,0.26-0.54,0.39-0.93,0.39h-2.12c-0.79,0-1.4-0.3-1.81-0.9
	c-0.41-0.6-0.62-1.47-0.62-2.62c0-1.48,0.32-2.75,0.98-3.82c0.65-1.07,1.43-1.61,2.33-1.61c0.66,0,1.18,0.26,1.58,0.79
	c0.4,0.53,0.6,1.22,0.6,2.08c0,1.03-0.27,1.8-0.82,2.3c-0.3,0.28-0.76,0.42-1.36,0.42H113.28z M109.38,17.57h0.87
	c0.35,0,0.59,0.08,0.74,0.24c0.15,0.16,0.22,0.41,0.22,0.77c0,0.46-0.11,0.83-0.34,1.09c-0.22,0.26-0.53,0.4-0.93,0.4h-1.34
	c-0.42,0-0.7-0.25-0.84-0.75c-0.27,0.5-0.62,0.75-1.03,0.75h-1.1c-0.44,0-0.8-0.21-1.09-0.63c-0.29-0.42-0.44-0.95-0.44-1.6
	c0-0.37,0.06-0.8,0.19-1.29l1.02-3.84c0.28-1.06,0.67-1.6,1.17-1.6c0.21,0,0.4,0.11,0.55,0.32c0.15,0.21,0.23,0.47,0.23,0.77
	c0,0.23-0.04,0.49-0.12,0.79l-0.08,0.31l-0.78,2.96l-0.08,0.34c-0.05,0.2-0.07,0.35-0.07,0.45c-0.01,0.34,0.14,0.51,0.44,0.51
	c0.62,0,1.03-0.38,1.24-1.15l0.94-3.55c0.28-1.08,0.68-1.61,1.18-1.61c0.21,0,0.39,0.11,0.54,0.32c0.15,0.22,0.23,0.48,0.23,0.77
	c0,0.24-0.06,0.61-0.19,1.11L109.38,17.57z M101.14,17.03l0.52-1.97c0.05-0.22,0.08-0.42,0.08-0.63c0-0.23-0.07-0.43-0.2-0.59
	c-0.14-0.16-0.31-0.24-0.51-0.24c-0.34,0-0.66,0.3-0.96,0.9c-0.3,0.6-0.46,1.24-0.46,1.9c0,0.75,0.26,1.13,0.78,1.13
	c0.16,0,0.31-0.05,0.47-0.16C101.01,17.27,101.11,17.16,101.14,17.03z M100.74,25.57h0.82c0.63,0,0.94,0.35,0.94,1.03
	c0,0.46-0.11,0.82-0.33,1.08c-0.22,0.26-0.53,0.38-0.93,0.38h-1.39c-0.34,0-0.61-0.13-0.82-0.39c-0.21-0.26-0.32-0.6-0.32-1.02
	c0-0.31,0.07-0.72,0.21-1.25l1.54-5.83c-0.27,0.33-0.58,0.49-0.94,0.49c-0.5,0-0.92-0.29-1.25-0.88c-0.33-0.59-0.5-1.32-0.5-2.19
	c0-0.8,0.12-1.63,0.36-2.48c0.24-0.85,0.54-1.55,0.91-2.09c0.6-0.88,1.31-1.31,2.12-1.31c0.69,0,1.24,0.3,1.68,0.9
	c0.43,0.6,0.65,1.38,0.65,2.34c0,0.54-0.1,1.17-0.29,1.9L100.74,25.57z M89.14,17.61h0.19c0.41,0,0.69-0.26,0.82-0.77l0.53-1.99
	c0.07-0.26,0.1-0.48,0.1-0.66c0-0.21-0.07-0.39-0.2-0.54c-0.13-0.15-0.29-0.23-0.48-0.23c-0.37,0-0.73,0.33-1.07,0.98
	c-0.35,0.66-0.52,1.33-0.52,2.03C88.51,17.22,88.72,17.61,89.14,17.61z M91.87,17.57h0.83c0.63,0,0.95,0.34,0.95,1.01
	c0,0.46-0.11,0.83-0.34,1.09c-0.23,0.26-0.54,0.4-0.93,0.4h-0.96c-0.43,0-0.72-0.26-0.88-0.77c-0.38,0.51-0.74,0.77-1.09,0.77h-0.85
	c-0.55,0-1-0.3-1.34-0.9c-0.34-0.6-0.51-1.39-0.51-2.36c0-1.47,0.33-2.79,1-3.95c0.66-1.16,1.41-1.74,2.25-1.74
	c0.64,0,1.11,0.33,1.41,1.01c0.25-0.58,0.58-0.86,0.98-0.86c0.22,0,0.4,0.11,0.55,0.32c0.15,0.22,0.22,0.48,0.22,0.8
	c0,0.22-0.04,0.48-0.12,0.77l-0.08,0.31L91.87,17.57z M82.35,13.77l-0.25,0.97c-0.23,0.86-0.53,1.29-0.9,1.29
	c-0.22,0-0.41-0.1-0.56-0.31c-0.15-0.21-0.23-0.47-0.23-0.77c0-0.18,0.05-0.48,0.16-0.9l0.85-3.22c0.2-0.77,0.49-1.16,0.87-1.16
	c0.37,0,0.59,0.27,0.68,0.8l0.06,0.36c0.03,0.18,0.07,0.3,0.14,0.35c0.06,0.05,0.2,0.07,0.44,0.07h1.76c0.65,0,0.98,0.35,0.98,1.06
	c0,0.97-0.41,1.46-1.24,1.46l-0.08,0.11c-0.79,1.17-1.18,2.08-1.18,2.72c0,0.64,0.23,0.96,0.68,0.96h0.95
	c0.64,0,0.96,0.34,0.96,1.01c0,0.47-0.11,0.84-0.34,1.1c-0.22,0.26-0.53,0.39-0.94,0.39h-1.47c-0.5,0-0.9-0.26-1.22-0.79
	c-0.31-0.53-0.47-1.22-0.47-2.07c0-0.54,0.08-1.06,0.25-1.57c0.17-0.51,0.47-1.13,0.9-1.86H82.35z M76.53,14.6h0.82
	c0.53,0,0.8-0.18,0.78-0.53c-0.02-0.4-0.19-0.6-0.52-0.6C77.16,13.47,76.8,13.84,76.53,14.6z M76.17,16.69
	c0,0.58,0.28,0.87,0.85,0.87h2.23c0.63,0,0.95,0.34,0.95,1.02c0,0.46-0.11,0.83-0.34,1.09c-0.22,0.26-0.54,0.39-0.93,0.39H76.8
	c-0.79,0-1.39-0.3-1.81-0.9c-0.41-0.6-0.62-1.47-0.62-2.62c0-1.48,0.33-2.75,0.98-3.82c0.65-1.07,1.43-1.61,2.33-1.61
	c0.66,0,1.18,0.26,1.58,0.79c0.4,0.53,0.6,1.22,0.6,2.08c0,1.03-0.27,1.8-0.82,2.3c-0.3,0.28-0.76,0.42-1.36,0.42H76.17z
	 M73.28,7.58c0.29,0,0.54,0.16,0.74,0.47c0.2,0.31,0.3,0.69,0.3,1.13c0,0.44-0.1,0.82-0.3,1.13c-0.2,0.31-0.45,0.47-0.74,0.47
	c-0.29,0-0.54-0.16-0.74-0.47c-0.2-0.31-0.3-0.69-0.3-1.13c0-0.45,0.1-0.82,0.3-1.13C72.75,7.74,72.99,7.58,73.28,7.58z M72.3,17.57
	h0.85c0.63,0,0.94,0.34,0.94,1.02c0,0.46-0.11,0.83-0.33,1.09c-0.22,0.26-0.53,0.39-0.93,0.39h-1.19c-0.44,0-0.79-0.14-1.04-0.42
	c-0.25-0.27-0.38-0.65-0.38-1.13c0-0.26,0.05-0.58,0.16-0.97l1.24-4.68l0.08-0.33c0.23-0.87,0.6-1.3,1.11-1.3
	c0.21,0,0.39,0.11,0.54,0.32c0.15,0.22,0.23,0.48,0.23,0.77c0,0.25-0.07,0.62-0.2,1.13L72.3,17.57z M67.35,14.4l-0.14,0.53
	c-0.22,0.77-0.54,1.15-0.94,1.15c-0.21,0-0.39-0.11-0.55-0.33c-0.16-0.22-0.25-0.47-0.25-0.75c0-0.27,0.07-0.62,0.22-1.07l1-3.11
	c0.25-0.75,0.55-1.12,0.92-1.12c0.19,0,0.36,0.1,0.5,0.29c0.14,0.2,0.21,0.43,0.21,0.69c0,0.07-0.02,0.22-0.05,0.45
	c-0.02,0.17-0.03,0.32-0.03,0.45c0,0.48,0.12,0.98,0.36,1.48l0.43,0.91c0.44,0.93,0.66,1.83,0.66,2.69c0,0.97-0.24,1.77-0.71,2.42
	c-0.47,0.65-1.05,0.97-1.76,0.97h-1.57c-0.63,0-0.95-0.34-0.95-1.01c0-0.46,0.11-0.83,0.34-1.09c0.23-0.26,0.53-0.4,0.93-0.4h0.87
	c0.7,0,1.05-0.39,1.05-1.17c0-0.28-0.07-0.62-0.2-1L67.35,14.4z M63.76,7.58c0.29,0,0.54,0.16,0.74,0.47c0.2,0.31,0.3,0.69,0.3,1.13
	c0,0.44-0.1,0.82-0.3,1.13c-0.2,0.31-0.45,0.47-0.74,0.47c-0.29,0-0.54-0.16-0.74-0.47c-0.2-0.31-0.3-0.69-0.3-1.13
	c0-0.45,0.1-0.82,0.3-1.13C63.22,7.74,63.47,7.58,63.76,7.58z M62.77,17.57h0.85c0.63,0,0.94,0.34,0.94,1.02
	c0,0.46-0.11,0.83-0.33,1.09c-0.22,0.26-0.53,0.39-0.93,0.39H62.1c-0.44,0-0.79-0.14-1.04-0.42c-0.25-0.27-0.38-0.65-0.38-1.13
	c0-0.26,0.05-0.58,0.16-0.97l1.24-4.68l0.08-0.33c0.23-0.87,0.6-1.3,1.11-1.3c0.21,0,0.39,0.11,0.55,0.32
	c0.15,0.22,0.23,0.48,0.23,0.77c0,0.25-0.07,0.62-0.2,1.13L62.77,17.57z M58.59,17.57h0.87c0.35,0,0.59,0.08,0.74,0.24
	c0.15,0.16,0.22,0.41,0.22,0.77c0,0.46-0.11,0.83-0.33,1.09c-0.22,0.26-0.54,0.4-0.93,0.4H57.8c-0.42,0-0.7-0.25-0.84-0.75
	c-0.27,0.5-0.62,0.75-1.03,0.75h-1.1c-0.44,0-0.8-0.21-1.09-0.63c-0.29-0.42-0.44-0.95-0.44-1.6c0-0.37,0.06-0.8,0.19-1.29
	l1.02-3.84c0.28-1.06,0.67-1.6,1.17-1.6c0.22,0,0.4,0.11,0.55,0.32c0.15,0.21,0.23,0.47,0.23,0.77c0,0.23-0.04,0.49-0.12,0.79
	l-0.08,0.31l-0.78,2.96l-0.08,0.34c-0.05,0.2-0.07,0.35-0.07,0.45c-0.01,0.34,0.14,0.51,0.44,0.51c0.62,0,1.03-0.38,1.24-1.15
	l0.94-3.55c0.28-1.08,0.68-1.61,1.19-1.61c0.21,0,0.39,0.11,0.54,0.32c0.15,0.22,0.23,0.48,0.23,0.77c0,0.24-0.06,0.61-0.19,1.11
	L58.59,17.57z M50.35,17.03l0.52-1.97c0.05-0.22,0.08-0.42,0.08-0.63c0-0.23-0.07-0.43-0.2-0.59c-0.14-0.16-0.31-0.24-0.51-0.24
	c-0.34,0-0.66,0.3-0.96,0.9c-0.3,0.6-0.46,1.24-0.46,1.9c0,0.75,0.26,1.13,0.78,1.13c0.16,0,0.31-0.05,0.47-0.16
	C50.22,17.27,50.32,17.16,50.35,17.03z M49.95,25.57h0.82c0.63,0,0.94,0.35,0.94,1.03c0,0.46-0.11,0.82-0.33,1.08
	c-0.22,0.26-0.53,0.38-0.93,0.38h-1.39c-0.34,0-0.61-0.13-0.82-0.39c-0.21-0.26-0.31-0.6-0.31-1.02c0-0.31,0.07-0.72,0.21-1.25
	l1.54-5.83c-0.27,0.33-0.58,0.49-0.94,0.49c-0.5,0-0.92-0.29-1.25-0.88c-0.33-0.59-0.5-1.32-0.5-2.19c0-0.8,0.12-1.63,0.36-2.48
	c0.24-0.85,0.54-1.55,0.91-2.09c0.6-0.88,1.31-1.31,2.12-1.31c0.69,0,1.24,0.3,1.68,0.9c0.43,0.6,0.65,1.38,0.65,2.34
	c0,0.54-0.1,1.17-0.29,1.9L49.95,25.57z M40.06,13.56c-0.37,0-0.7,0.28-1.01,0.84c-0.3,0.56-0.46,1.18-0.46,1.85
	c0,0.89,0.32,1.33,0.97,1.33c0.38,0,0.67-0.18,0.87-0.54c0.34-0.59,0.51-1.26,0.51-2.03c0-0.44-0.08-0.79-0.25-1.06
	C40.54,13.69,40.33,13.56,40.06,13.56z M40.25,11.11c0.72,0,1.32,0.35,1.79,1.06c0.47,0.71,0.7,1.6,0.7,2.69
	c0,0.82-0.12,1.63-0.37,2.44c-0.25,0.81-0.56,1.45-0.95,1.94c-0.26,0.31-0.53,0.53-0.81,0.65c-0.28,0.12-0.67,0.18-1.16,0.18
	c-0.82,0-1.36-0.15-1.65-0.45c-0.67-0.71-1-1.75-1-3.12c0-1.46,0.34-2.72,1.03-3.78C38.5,11.65,39.31,11.11,40.25,11.11z
	 M30.68,20.06c-1.05,0-1.85,0.15-2.41,0.46c-0.52,0.28-0.94,0.69-1.23,1.22c-0.3,0.54-0.45,1.13-0.45,1.77
	c0,0.6,0.13,1.11,0.39,1.52c0.26,0.42,0.57,0.62,0.94,0.62c0.46,0,0.87-0.31,1.23-0.93c0.37-0.62,0.73-1.63,1.1-3.02L30.68,20.06z
	 M36.17,7.11l-2.7,10.2h1.01c0.69,0,1.03,0.38,1.03,1.13c0,0.51-0.12,0.9-0.36,1.19c-0.24,0.29-0.58,0.43-1.01,0.43h-1.4l-0.55,2.12
	c-0.61,2.34-1.24,4-1.9,4.96c-0.66,0.96-1.48,1.44-2.47,1.44c-0.93,0-1.7-0.48-2.32-1.43c-0.62-0.95-0.93-2.14-0.93-3.56
	c0-1.08,0.18-2.07,0.55-2.96c0.37-0.9,0.89-1.63,1.56-2.21c0.85-0.73,2.04-1.1,3.55-1.1l1.19-0.02l0.26-0.95
	c-0.26,0.2-0.56,0.29-0.88,0.29c-0.71,0-1.3-0.33-1.76-1c-0.47-0.66-0.7-1.5-0.7-2.51c0-0.53,0.12-1.3,0.35-2.3l0.16-0.68L29,9.48
	c0.12-0.48,0.17-0.88,0.17-1.21c0-0.37-0.1-0.68-0.32-0.94c-0.21-0.26-0.47-0.39-0.77-0.39c-0.48,0-0.93,0.34-1.33,1.01
	c-0.4,0.68-0.6,1.41-0.6,2.21c0,0.46,0.07,0.82,0.2,1.09c0.14,0.26,0.38,0.49,0.72,0.69c0.36,0.22,0.55,0.57,0.55,1.06
	c0,0.44-0.11,0.8-0.32,1.09c-0.22,0.29-0.48,0.44-0.8,0.44c-0.64,0-1.18-0.4-1.63-1.22c-0.45-0.81-0.67-1.79-0.67-2.94
	c0-1.67,0.41-3.12,1.24-4.37c0.82-1.24,1.79-1.86,2.89-1.86c0.83,0,1.51,0.38,2.05,1.14c0.54,0.76,0.81,1.72,0.81,2.87
	c0,0.55-0.06,1.09-0.19,1.61l-0.29,1.22c-0.18,0.76-0.28,1.3-0.28,1.62c0,0.36,0.09,0.67,0.26,0.92c0.18,0.26,0.38,0.38,0.63,0.38
	c0.36,0,0.67-0.2,0.92-0.58c0.25-0.39,0.5-1.08,0.76-2.05l1.44-5.48c0.14-0.53,0.31-0.9,0.51-1.11c0.2-0.21,0.49-0.32,0.87-0.32
	h1.77c0.69,0,1.04,0.36,1.04,1.08c0,0.53-0.12,0.94-0.36,1.23c-0.24,0.29-0.58,0.44-1.02,0.44H36.17z"/>
<path class="st0" d="M59.3,76.52l0.52-1.97c0.05-0.22,0.08-0.42,0.08-0.63c0-0.23-0.07-0.43-0.2-0.59
	c-0.14-0.16-0.31-0.24-0.51-0.24c-0.34,0-0.66,0.3-0.96,0.9c-0.3,0.6-0.46,1.24-0.46,1.9c0,0.75,0.26,1.13,0.78,1.13
	c0.16,0,0.31-0.06,0.47-0.16C59.17,76.75,59.27,76.64,59.3,76.52 M58.9,85.06h0.82c0.63,0,0.94,0.35,0.94,1.03
	c0,0.46-0.11,0.82-0.33,1.08c-0.22,0.26-0.53,0.38-0.93,0.38h-1.39c-0.34,0-0.61-0.13-0.82-0.39c-0.21-0.26-0.31-0.6-0.31-1.02
	c0-0.31,0.07-0.72,0.21-1.25l1.54-5.83c-0.27,0.33-0.58,0.49-0.94,0.49c-0.5,0-0.92-0.29-1.25-0.88c-0.33-0.59-0.5-1.32-0.5-2.19
	c0-0.8,0.12-1.63,0.36-2.48c0.24-0.85,0.54-1.55,0.91-2.09c0.6-0.88,1.31-1.31,2.12-1.31c0.69,0,1.24,0.3,1.68,0.9
	c0.43,0.6,0.65,1.38,0.65,2.34c0,0.54-0.1,1.17-0.29,1.9L58.9,85.06z M47.31,77.09h0.19c0.41,0,0.69-0.26,0.82-0.77l0.53-1.99
	c0.07-0.26,0.11-0.48,0.11-0.66c0-0.21-0.07-0.39-0.2-0.54c-0.13-0.15-0.29-0.23-0.48-0.23c-0.37,0-0.73,0.33-1.07,0.98
	c-0.35,0.66-0.52,1.33-0.52,2.03C46.68,76.7,46.89,77.09,47.31,77.09z M50.03,77.05h0.83c0.63,0,0.95,0.34,0.95,1.01
	c0,0.46-0.11,0.83-0.34,1.09c-0.23,0.26-0.54,0.4-0.93,0.4h-0.96c-0.43,0-0.72-0.26-0.88-0.77c-0.38,0.51-0.74,0.77-1.09,0.77h-0.85
	c-0.55,0-1-0.3-1.34-0.9c-0.34-0.6-0.51-1.39-0.51-2.36c0-1.47,0.33-2.79,1-3.95c0.66-1.16,1.41-1.74,2.25-1.74
	c0.64,0,1.11,0.33,1.41,1.01c0.25-0.58,0.58-0.86,0.98-0.86c0.22,0,0.4,0.11,0.55,0.32c0.15,0.22,0.22,0.48,0.22,0.8
	c0,0.22-0.04,0.48-0.12,0.77l-0.08,0.31L50.03,77.05z M40.52,73.26l-0.25,0.97c-0.23,0.86-0.53,1.29-0.9,1.29
	c-0.22,0-0.41-0.1-0.56-0.31c-0.15-0.21-0.23-0.47-0.23-0.77c0-0.18,0.05-0.48,0.16-0.9l0.85-3.22c0.2-0.77,0.49-1.16,0.87-1.16
	c0.37,0,0.59,0.27,0.68,0.8l0.06,0.36c0.03,0.18,0.07,0.3,0.14,0.35c0.06,0.05,0.2,0.07,0.44,0.07h1.76c0.65,0,0.98,0.35,0.98,1.06
	c0,0.97-0.41,1.46-1.24,1.46l-0.08,0.11C42.4,74.54,42,75.45,42,76.09c0,0.64,0.23,0.96,0.68,0.96h0.95c0.64,0,0.96,0.34,0.96,1.01
	c0,0.47-0.11,0.84-0.34,1.1c-0.22,0.26-0.53,0.39-0.94,0.39h-1.47c-0.5,0-0.9-0.26-1.22-0.79c-0.31-0.53-0.47-1.22-0.47-2.07
	c0-0.54,0.08-1.06,0.25-1.57c0.17-0.51,0.47-1.13,0.9-1.86H40.52z M33.86,77.09h0.19c0.41,0,0.69-0.26,0.82-0.77l0.53-1.99
	c0.07-0.26,0.1-0.48,0.1-0.66c0-0.21-0.07-0.39-0.2-0.54c-0.13-0.15-0.29-0.23-0.48-0.23c-0.37,0-0.73,0.33-1.07,0.98
	c-0.35,0.66-0.52,1.33-0.52,2.03C33.23,76.7,33.44,77.09,33.86,77.09z M36.58,77.05h0.83c0.63,0,0.95,0.34,0.95,1.01
	c0,0.46-0.11,0.83-0.34,1.09c-0.23,0.26-0.54,0.4-0.93,0.4h-0.96c-0.43,0-0.72-0.26-0.88-0.77c-0.38,0.51-0.74,0.77-1.09,0.77h-0.85
	c-0.55,0-1-0.3-1.34-0.9c-0.34-0.6-0.51-1.39-0.51-2.36c0-1.47,0.33-2.79,1-3.95c0.66-1.16,1.41-1.74,2.25-1.74
	c0.64,0,1.11,0.33,1.41,1.01c0.25-0.58,0.58-0.86,0.98-0.86c0.22,0,0.4,0.11,0.55,0.32c0.15,0.22,0.22,0.48,0.22,0.8
	c0,0.22-0.04,0.48-0.12,0.77l-0.08,0.31L36.58,77.05z M27,76.3c0.13,0.33,0.25,0.55,0.36,0.65c0.11,0.1,0.29,0.15,0.54,0.15
	c0.35,0,0.63-0.2,0.83-0.61c0.41-0.82,0.61-1.66,0.61-2.53c0-0.75-0.23-1.12-0.69-1.12c-0.51,0-0.87,0.45-1.09,1.35
	c-0.02,0.1-0.04,0.18-0.06,0.26L27,76.3z M26.39,78.65l-1.96,7.38c-0.27,1.02-0.67,1.53-1.19,1.53c-0.2,0-0.37-0.1-0.51-0.31
	c-0.14-0.2-0.21-0.44-0.21-0.73c0-0.24,0.06-0.6,0.19-1.08l3.61-13.67c0.18-0.69,0.5-1.04,0.96-1.04c0.31,0,0.57,0.23,0.75,0.69
	c0.35-0.55,0.78-0.83,1.29-0.83c0.52,0,0.95,0.31,1.27,0.91c0.32,0.61,0.48,1.41,0.48,2.41c0,1.88-0.38,3.42-1.15,4.6
	c-0.25,0.39-0.51,0.66-0.77,0.8c-0.27,0.15-0.64,0.22-1.11,0.22c-0.51,0-0.86-0.06-1.06-0.16C26.79,79.28,26.59,79.03,26.39,78.65z
	 M167.66,49.55c-0.17-0.43-0.26-0.8-0.26-1.11c0-0.43,0.1-0.79,0.3-1.09c0.2-0.29,0.45-0.44,0.74-0.44c0.3,0,0.55,0.15,0.74,0.45
	c0.19,0.3,0.29,0.68,0.29,1.15c0,0.71-0.33,1.49-0.98,2.32c-0.5,0.64-0.87,0.96-1.09,0.96c-0.28,0-0.42-0.19-0.42-0.57
	c0-0.15,0.06-0.36,0.19-0.63l0.15-0.33L167.66,49.55z M164.07,44.14l-0.14,0.53c-0.22,0.77-0.53,1.15-0.94,1.15
	c-0.21,0-0.39-0.11-0.55-0.33c-0.16-0.22-0.25-0.47-0.25-0.75c0-0.27,0.07-0.62,0.22-1.07l1-3.11c0.25-0.75,0.55-1.12,0.92-1.12
	c0.19,0,0.36,0.1,0.5,0.29c0.14,0.2,0.21,0.43,0.21,0.69c0,0.07-0.02,0.22-0.05,0.45c-0.02,0.17-0.03,0.32-0.03,0.45
	c0,0.48,0.12,0.98,0.36,1.48l0.43,0.91c0.44,0.93,0.66,1.83,0.66,2.69c0,0.97-0.24,1.77-0.71,2.42c-0.47,0.65-1.05,0.97-1.76,0.97
	h-1.57c-0.63,0-0.95-0.34-0.95-1.01c0-0.46,0.11-0.83,0.34-1.09c0.23-0.26,0.53-0.4,0.93-0.4h0.87c0.7,0,1.05-0.39,1.05-1.17
	c0-0.28-0.07-0.62-0.2-1L164.07,44.14z M156.8,47.35h0.19c0.41,0,0.69-0.26,0.82-0.77l0.53-1.99c0.07-0.26,0.1-0.48,0.1-0.66
	c0-0.21-0.07-0.39-0.2-0.54c-0.13-0.15-0.29-0.23-0.48-0.23c-0.37,0-0.73,0.33-1.07,0.98c-0.35,0.66-0.52,1.33-0.52,2.03
	C156.17,46.96,156.38,47.35,156.8,47.35z M159.52,47.31h0.83c0.63,0,0.95,0.34,0.95,1.01c0,0.46-0.11,0.83-0.34,1.09
	c-0.23,0.26-0.54,0.4-0.93,0.4h-0.96c-0.43,0-0.72-0.26-0.88-0.77c-0.38,0.51-0.74,0.77-1.09,0.77h-0.85c-0.55,0-1-0.3-1.34-0.9
	c-0.34-0.6-0.51-1.39-0.51-2.36c0-1.47,0.33-2.79,1-3.95c0.66-1.16,1.41-1.74,2.25-1.74c0.64,0,1.11,0.33,1.41,1.01
	c0.25-0.58,0.58-0.86,0.98-0.86c0.22,0,0.4,0.11,0.55,0.32c0.15,0.22,0.22,0.48,0.22,0.8c0,0.22-0.04,0.48-0.12,0.77l-0.08,0.31
	L159.52,47.31z M153.98,37.32c0.29,0,0.54,0.16,0.74,0.47c0.2,0.31,0.3,0.69,0.3,1.13c0,0.44-0.1,0.82-0.3,1.13
	c-0.2,0.31-0.45,0.47-0.74,0.47c-0.29,0-0.54-0.16-0.74-0.47c-0.2-0.31-0.3-0.69-0.3-1.13c0-0.45,0.1-0.82,0.3-1.13
	C153.44,37.48,153.69,37.32,153.98,37.32z M149.53,52.77h-1.05c-1.14,0-1.71,0.57-1.71,1.71c0,0.37,0.08,0.67,0.24,0.91
	c0.16,0.24,0.37,0.35,0.62,0.35c0.36,0,0.69-0.22,0.97-0.65C148.88,54.65,149.19,53.88,149.53,52.77z M152.11,50.27h0.82
	c0.63,0,0.95,0.34,0.95,1.02c0,0.46-0.11,0.82-0.34,1.08c-0.22,0.26-0.54,0.4-0.94,0.4h-1.17l-0.53,1.65l-0.22,0.68
	c-0.69,2.12-1.68,3.18-2.97,3.18c-0.77,0-1.42-0.36-1.95-1.09c-0.52-0.73-0.79-1.63-0.79-2.71c0-0.64,0.1-1.26,0.31-1.87
	c0.2-0.61,0.47-1.09,0.81-1.45c0.54-0.59,1.38-0.89,2.52-0.89h1.56l1.7-6.45h-0.81c-0.63,0-0.94-0.34-0.94-1.02
	c0-0.46,0.11-0.83,0.33-1.09c0.22-0.26,0.53-0.39,0.93-0.39h1.79c0.6,0,0.9,0.39,0.9,1.16c0,0.3-0.05,0.64-0.16,1.04L152.11,50.27z
	 M148.8,37.32c0.29,0,0.54,0.16,0.74,0.47c0.2,0.31,0.3,0.69,0.3,1.13c0,0.44-0.1,0.82-0.3,1.13c-0.2,0.31-0.45,0.47-0.74,0.47
	c-0.29,0-0.54-0.16-0.74-0.47c-0.2-0.31-0.3-0.69-0.3-1.13c0-0.45,0.1-0.82,0.3-1.13C148.27,37.48,148.52,37.32,148.8,37.32z
	 M147.82,47.31h0.85c0.63,0,0.94,0.34,0.94,1.02c0,0.46-0.11,0.83-0.33,1.09c-0.22,0.26-0.53,0.39-0.93,0.39h-1.19
	c-0.44,0-0.79-0.14-1.04-0.42c-0.25-0.27-0.38-0.65-0.38-1.13c0-0.26,0.05-0.58,0.16-0.97l1.24-4.68l0.08-0.33
	c0.23-0.87,0.6-1.3,1.11-1.3c0.21,0,0.39,0.11,0.54,0.32c0.15,0.22,0.23,0.48,0.23,0.77c0,0.25-0.07,0.62-0.2,1.13L147.82,47.31z
	 M144.86,40.99h0.23c0.63,0,0.95,0.34,0.95,1.03c0,0.47-0.11,0.84-0.34,1.1c-0.22,0.26-0.53,0.39-0.93,0.39h-0.55l-1,3.79h0.84
	c0.63,0,0.95,0.34,0.95,1.02c0,0.46-0.11,0.83-0.33,1.09c-0.22,0.26-0.53,0.39-0.93,0.39h-1.34c-0.38,0-0.68-0.13-0.9-0.4
	c-0.22-0.27-0.33-0.63-0.33-1.09c0-0.28,0.05-0.6,0.14-0.94l0.14-0.51l0.88-3.34h-0.11c-0.57,0-0.85-0.33-0.85-1
	c0-0.48,0.11-0.85,0.34-1.12c0.23-0.27,0.54-0.4,0.94-0.4h0.35l0.4-1.5l0.08-0.31c0.23-0.85,0.6-1.27,1.11-1.27
	c0.2,0,0.38,0.11,0.53,0.31c0.15,0.21,0.22,0.47,0.22,0.77c0,0.29-0.07,0.66-0.2,1.1L144.86,40.99z M136.72,43.51l-0.25,0.97
	c-0.23,0.86-0.53,1.29-0.9,1.29c-0.22,0-0.41-0.1-0.56-0.31c-0.15-0.21-0.23-0.47-0.23-0.77c0-0.18,0.05-0.48,0.16-0.9l0.85-3.22
	c0.2-0.77,0.49-1.16,0.87-1.16c0.37,0,0.59,0.27,0.68,0.8l0.06,0.36c0.03,0.18,0.07,0.3,0.14,0.35c0.06,0.05,0.2,0.07,0.44,0.07
	h1.76c0.65,0,0.98,0.35,0.98,1.06c0,0.97-0.41,1.46-1.24,1.46l-0.08,0.11c-0.79,1.17-1.18,2.08-1.18,2.72
	c0,0.64,0.23,0.96,0.68,0.96h0.95c0.64,0,0.96,0.34,0.96,1.01c0,0.47-0.11,0.84-0.34,1.1c-0.22,0.26-0.53,0.39-0.94,0.39h-1.47
	c-0.5,0-0.9-0.26-1.22-0.79c-0.31-0.53-0.47-1.22-0.47-2.07c0-0.54,0.08-1.06,0.25-1.57c0.17-0.51,0.47-1.13,0.9-1.86H136.72z
	 M130.07,47.35h0.19c0.41,0,0.69-0.26,0.82-0.77l0.53-1.99c0.07-0.26,0.11-0.48,0.11-0.66c0-0.21-0.07-0.39-0.2-0.54
	c-0.13-0.15-0.29-0.23-0.48-0.23c-0.37,0-0.73,0.33-1.07,0.98c-0.35,0.66-0.52,1.33-0.52,2.03
	C129.43,46.96,129.64,47.35,130.07,47.35z M132.79,47.31h0.83c0.63,0,0.95,0.34,0.95,1.01c0,0.46-0.11,0.83-0.34,1.09
	c-0.23,0.26-0.54,0.4-0.93,0.4h-0.96c-0.43,0-0.72-0.26-0.88-0.77c-0.38,0.51-0.74,0.77-1.09,0.77h-0.85c-0.55,0-1-0.3-1.34-0.9
	c-0.34-0.6-0.51-1.39-0.51-2.36c0-1.47,0.33-2.79,1-3.95c0.66-1.16,1.41-1.74,2.25-1.74c0.64,0,1.11,0.33,1.41,1.01
	c0.25-0.58,0.58-0.86,0.98-0.86c0.22,0,0.4,0.11,0.55,0.32c0.15,0.22,0.22,0.48,0.22,0.8c0,0.22-0.04,0.48-0.12,0.77l-0.08,0.31
	L132.79,47.31z M122.85,52.63h-1.3c-0.45,0-0.8,0.15-1.05,0.44c-0.25,0.29-0.37,0.71-0.37,1.24c0,0.37,0.08,0.68,0.26,0.93
	c0.17,0.26,0.38,0.38,0.63,0.38c0.36,0,0.68-0.22,0.95-0.66C122.23,54.52,122.52,53.74,122.85,52.63z M124.43,46.67l0.61-2.27
	c0.05-0.19,0.07-0.35,0.07-0.47c0-0.23-0.07-0.42-0.2-0.57c-0.13-0.15-0.3-0.23-0.5-0.23c-0.36,0-0.71,0.31-1.03,0.95
	c-0.33,0.63-0.49,1.3-0.49,2c0,0.8,0.25,1.2,0.74,1.2C124.05,47.28,124.32,47.08,124.43,46.67z M125.4,50.13h0.9
	c0.63,0,0.95,0.34,0.95,1.01c0,0.46-0.11,0.83-0.34,1.09c-0.22,0.26-0.53,0.4-0.93,0.4h-1.24l-0.31,1.19
	c-0.77,2.88-1.88,4.32-3.36,4.32c-0.77,0-1.41-0.37-1.92-1.09c-0.51-0.73-0.77-1.64-0.77-2.74c0-0.71,0.12-1.38,0.37-2.01
	c0.25-0.62,0.59-1.12,1.02-1.49c0.53-0.45,1.24-0.68,2.14-0.68h1.61l0.23-0.91c-0.31,0.29-0.61,0.44-0.89,0.44
	c-0.53,0-0.97-0.28-1.3-0.85c-0.33-0.57-0.5-1.3-0.5-2.21c0-1.47,0.34-2.79,1.01-3.97c0.68-1.18,1.43-1.77,2.27-1.77
	c0.61,0,1.07,0.3,1.38,0.9c0.24-0.6,0.57-0.9,1-0.9c0.21,0,0.39,0.11,0.54,0.32c0.15,0.21,0.22,0.46,0.22,0.76
	c0,0.24-0.06,0.6-0.19,1.1L125.4,50.13z M116.2,47.35h0.19c0.41,0,0.69-0.26,0.82-0.77l0.53-1.99c0.07-0.26,0.11-0.48,0.11-0.66
	c0-0.21-0.07-0.39-0.2-0.54c-0.13-0.15-0.29-0.23-0.48-0.23c-0.37,0-0.73,0.33-1.07,0.98c-0.35,0.66-0.52,1.33-0.52,2.03
	C115.57,46.96,115.78,47.35,116.2,47.35z M118.92,47.31h0.83c0.63,0,0.95,0.34,0.95,1.01c0,0.46-0.11,0.83-0.34,1.09
	c-0.23,0.26-0.54,0.4-0.93,0.4h-0.96c-0.43,0-0.72-0.26-0.88-0.77c-0.38,0.51-0.74,0.77-1.09,0.77h-0.85c-0.55,0-1-0.3-1.34-0.9
	c-0.34-0.6-0.51-1.39-0.51-2.36c0-1.47,0.33-2.79,1-3.95c0.66-1.16,1.41-1.74,2.25-1.74c0.64,0,1.11,0.33,1.41,1.01
	c0.25-0.58,0.58-0.86,0.98-0.86c0.22,0,0.4,0.11,0.55,0.32c0.15,0.22,0.22,0.48,0.22,0.8c0,0.22-0.04,0.48-0.12,0.77l-0.08,0.31
	L118.92,47.31z M111.73,47.31h0.79c0.63,0,0.95,0.34,0.95,1.02c0,0.46-0.11,0.83-0.33,1.09c-0.22,0.26-0.53,0.39-0.93,0.39h-1.35
	c-0.37,0-0.66-0.13-0.87-0.4c-0.21-0.27-0.32-0.63-0.32-1.08c0-0.24,0.07-0.63,0.22-1.19l3.02-11.44l0.08-0.31
	c0.23-0.86,0.6-1.29,1.1-1.29c0.21,0,0.39,0.11,0.53,0.32c0.15,0.22,0.22,0.47,0.22,0.77c0,0.23-0.04,0.49-0.11,0.78l-0.08,0.31
	L111.73,47.31z M103.75,47.31h0.9c0.63,0,0.95,0.34,0.95,1.02c0,0.46-0.11,0.83-0.34,1.09c-0.23,0.26-0.53,0.39-0.93,0.39h-1.57
	c-0.31,0-0.57-0.14-0.78-0.42c-0.21-0.29-0.31-0.64-0.31-1.07c0-0.26,0.07-0.65,0.21-1.17l0.67-2.51c0.07-0.26,0.11-0.47,0.12-0.63
	c0-0.18-0.04-0.34-0.15-0.47c-0.1-0.13-0.24-0.2-0.39-0.2c-0.52,0-0.93,0.59-1.25,1.78l-0.89,3.34c-0.27,1.01-0.66,1.52-1.19,1.52
	c-0.22,0-0.4-0.1-0.55-0.3c-0.15-0.2-0.23-0.45-0.23-0.74c0-0.22,0.04-0.47,0.12-0.77l0.08-0.31l1.52-5.74
	c0.2-0.75,0.53-1.12,1-1.12c0.39,0,0.66,0.26,0.83,0.79c0.53-0.62,1.05-0.93,1.53-0.93c0.47,0,0.86,0.21,1.16,0.62
	c0.3,0.42,0.46,0.94,0.46,1.58c0,0.35-0.06,0.74-0.17,1.16L103.75,47.31z M93.42,47.35h0.19c0.41,0,0.69-0.26,0.82-0.77l0.53-1.99
	c0.07-0.26,0.1-0.48,0.1-0.66c0-0.21-0.07-0.39-0.2-0.54c-0.13-0.15-0.29-0.23-0.48-0.23c-0.37,0-0.73,0.33-1.07,0.98
	c-0.35,0.66-0.52,1.33-0.52,2.03C92.79,46.96,93,47.35,93.42,47.35z M96.14,47.31h0.83c0.63,0,0.95,0.34,0.95,1.01
	c0,0.46-0.11,0.83-0.34,1.09c-0.23,0.26-0.54,0.4-0.93,0.4h-0.96c-0.43,0-0.72-0.26-0.88-0.77c-0.38,0.51-0.74,0.77-1.09,0.77h-0.85
	c-0.55,0-1-0.3-1.34-0.9c-0.34-0.6-0.51-1.39-0.51-2.36c0-1.47,0.33-2.79,1-3.95c0.66-1.16,1.41-1.74,2.25-1.74
	c0.64,0,1.11,0.33,1.41,1.01c0.25-0.58,0.58-0.86,0.98-0.86c0.22,0,0.4,0.11,0.55,0.32c0.15,0.22,0.22,0.48,0.22,0.8
	c0,0.22-0.04,0.48-0.12,0.77l-0.08,0.31L96.14,47.31z M86.63,43.51l-0.25,0.97c-0.23,0.86-0.53,1.29-0.9,1.29
	c-0.22,0-0.41-0.1-0.56-0.31c-0.15-0.21-0.23-0.47-0.23-0.77c0-0.18,0.05-0.48,0.16-0.9l0.85-3.22c0.2-0.77,0.49-1.16,0.87-1.16
	c0.37,0,0.59,0.27,0.68,0.8l0.06,0.36c0.03,0.18,0.07,0.3,0.14,0.35c0.06,0.05,0.2,0.07,0.44,0.07h1.76c0.65,0,0.98,0.35,0.98,1.06
	c0,0.97-0.41,1.46-1.24,1.46l-0.08,0.11c-0.79,1.17-1.18,2.08-1.18,2.72c0,0.64,0.23,0.96,0.68,0.96h0.95
	c0.64,0,0.96,0.34,0.96,1.01c0,0.47-0.11,0.84-0.34,1.1c-0.22,0.26-0.53,0.39-0.94,0.39h-1.47c-0.5,0-0.9-0.26-1.22-0.79
	c-0.31-0.53-0.47-1.22-0.47-2.07c0-0.54,0.08-1.06,0.25-1.57c0.17-0.51,0.47-1.13,0.9-1.86H86.63z M80.81,44.34h0.82
	c0.53,0,0.8-0.18,0.78-0.53c-0.02-0.4-0.19-0.6-0.52-0.6C81.43,43.21,81.07,43.58,80.81,44.34z M80.45,46.43
	c0,0.58,0.28,0.87,0.85,0.87h2.23c0.63,0,0.95,0.34,0.95,1.02c0,0.46-0.11,0.83-0.34,1.09c-0.22,0.26-0.54,0.39-0.93,0.39h-2.12
	c-0.79,0-1.39-0.3-1.81-0.9c-0.41-0.6-0.62-1.47-0.62-2.62c0-1.48,0.33-2.75,0.98-3.82c0.65-1.07,1.43-1.61,2.33-1.61
	c0.66,0,1.18,0.26,1.58,0.79c0.4,0.53,0.6,1.22,0.6,2.08c0,1.03-0.27,1.8-0.82,2.3c-0.3,0.28-0.76,0.42-1.36,0.42H80.45z
	 M77.56,37.32c0.29,0,0.54,0.16,0.74,0.47c0.2,0.31,0.3,0.69,0.3,1.13c0,0.44-0.1,0.82-0.3,1.13c-0.2,0.31-0.45,0.47-0.74,0.47
	c-0.29,0-0.54-0.16-0.74-0.47c-0.2-0.31-0.3-0.69-0.3-1.13c0-0.45,0.1-0.82,0.3-1.13C77.02,37.48,77.27,37.32,77.56,37.32z
	 M76.57,47.31h0.85c0.63,0,0.94,0.34,0.94,1.02c0,0.46-0.11,0.83-0.33,1.09c-0.22,0.26-0.53,0.39-0.93,0.39H75.9
	c-0.44,0-0.79-0.14-1.04-0.42c-0.25-0.27-0.38-0.65-0.38-1.13c0-0.26,0.05-0.58,0.16-0.97l1.24-4.68l0.08-0.33
	c0.23-0.87,0.6-1.3,1.11-1.3c0.21,0,0.39,0.11,0.54,0.32c0.15,0.22,0.23,0.48,0.23,0.77c0,0.25-0.07,0.62-0.2,1.13L76.57,47.31z
	 M71.23,45.75l1.74-3.62l0.14-0.31c0.29-0.64,0.61-0.96,0.98-0.96c0.24,0,0.43,0.11,0.58,0.34c0.15,0.23,0.23,0.52,0.23,0.87
	c0,0.38-0.15,0.88-0.45,1.47l-2.77,5.51c-0.31,0.62-0.68,0.93-1.1,0.93c-0.35,0-0.63-0.19-0.84-0.57c-0.2-0.38-0.31-0.9-0.31-1.56
	c0-0.14,0-0.25,0.01-0.33l0.27-4.6c0.03-0.62,0.14-1.1,0.33-1.42c0.18-0.33,0.43-0.49,0.74-0.49c0.48,0,0.71,0.37,0.71,1.11
	c0,0.11-0.01,0.29-0.03,0.55L71.23,45.75z M67.27,47.31h0.79c0.64,0,0.95,0.34,0.95,1.02c0,0.46-0.11,0.83-0.33,1.09
	c-0.22,0.26-0.54,0.39-0.93,0.39h-1.35c-0.37,0-0.66-0.13-0.87-0.4c-0.21-0.27-0.32-0.63-0.32-1.08c0-0.24,0.07-0.63,0.22-1.19
	l3.02-11.44l0.08-0.31c0.23-0.86,0.6-1.29,1.1-1.29c0.21,0,0.39,0.11,0.54,0.32c0.15,0.22,0.22,0.47,0.22,0.77
	c0,0.23-0.04,0.49-0.11,0.78l-0.08,0.31L67.27,47.31z M62.19,43.3c-0.37,0-0.7,0.28-1.01,0.84c-0.3,0.56-0.46,1.18-0.46,1.85
	c0,0.89,0.32,1.33,0.97,1.33c0.38,0,0.67-0.18,0.87-0.54c0.34-0.59,0.51-1.26,0.51-2.03c0-0.44-0.08-0.79-0.25-1.06
	C62.67,43.44,62.45,43.3,62.19,43.3z M62.37,40.85c0.72,0,1.32,0.35,1.79,1.06c0.47,0.71,0.7,1.6,0.7,2.69
	c0,0.82-0.12,1.63-0.37,2.44c-0.25,0.81-0.56,1.45-0.95,1.94c-0.26,0.31-0.53,0.53-0.81,0.65c-0.28,0.12-0.67,0.18-1.16,0.18
	c-0.82,0-1.36-0.15-1.65-0.45c-0.67-0.71-1-1.75-1-3.12c0-1.46,0.34-2.72,1.03-3.78C60.63,41.39,61.44,40.85,62.37,40.85z
	 M55.64,45.75l1.74-3.62l0.14-0.31c0.29-0.64,0.61-0.96,0.98-0.96c0.24,0,0.43,0.11,0.58,0.34c0.15,0.23,0.23,0.52,0.23,0.87
	c0,0.38-0.15,0.88-0.45,1.47l-2.77,5.51c-0.31,0.62-0.68,0.93-1.1,0.93c-0.35,0-0.63-0.19-0.84-0.57c-0.2-0.38-0.31-0.9-0.31-1.56
	c0-0.14,0-0.25,0.01-0.33l0.27-4.6c0.03-0.62,0.14-1.1,0.33-1.42c0.18-0.33,0.43-0.49,0.74-0.49c0.48,0,0.71,0.37,0.71,1.11
	c0,0.11-0.01,0.29-0.03,0.55L55.64,45.75z M45.96,44.34h0.82c0.54,0,0.8-0.18,0.78-0.53c-0.02-0.4-0.19-0.6-0.52-0.6
	C46.59,43.21,46.23,43.58,45.96,44.34z M45.6,46.43c0,0.58,0.28,0.87,0.85,0.87h2.23c0.63,0,0.95,0.34,0.95,1.02
	c0,0.46-0.11,0.83-0.34,1.09c-0.22,0.26-0.53,0.39-0.93,0.39h-2.12c-0.79,0-1.39-0.3-1.81-0.9c-0.41-0.6-0.62-1.47-0.62-2.62
	c0-1.48,0.32-2.75,0.98-3.82c0.65-1.07,1.43-1.61,2.33-1.61c0.66,0,1.18,0.26,1.58,0.79c0.4,0.53,0.6,1.22,0.6,2.08
	c0,1.03-0.27,1.8-0.82,2.3c-0.3,0.28-0.76,0.42-1.36,0.42H45.6z"/>
<path class="st0" d="M78.82,103l-0.25,0.97c-0.23,0.86-0.53,1.29-0.9,1.29c-0.22,0-0.41-0.1-0.56-0.31
	c-0.15-0.21-0.22-0.47-0.22-0.77c0-0.18,0.05-0.47,0.16-0.9l0.85-3.22c0.2-0.77,0.49-1.16,0.87-1.16c0.37,0,0.59,0.27,0.68,0.8
	l0.06,0.36c0.03,0.18,0.07,0.3,0.14,0.35c0.06,0.05,0.2,0.07,0.44,0.07h1.76c0.65,0,0.98,0.35,0.98,1.06c0,0.97-0.41,1.46-1.24,1.46
	l-0.08,0.11c-0.79,1.17-1.18,2.08-1.18,2.72c0,0.64,0.23,0.96,0.68,0.96h0.95c0.64,0,0.96,0.34,0.96,1.01c0,0.47-0.11,0.84-0.34,1.1
	c-0.22,0.26-0.53,0.39-0.94,0.39h-1.47c-0.5,0-0.9-0.26-1.22-0.79c-0.32-0.53-0.47-1.22-0.47-2.06c0-0.54,0.08-1.06,0.25-1.57
	c0.17-0.51,0.47-1.13,0.9-1.86H78.82z M72.17,106.84h0.19c0.41,0,0.69-0.26,0.82-0.77l0.53-1.99c0.07-0.26,0.1-0.48,0.1-0.66
	c0-0.21-0.07-0.39-0.2-0.54c-0.13-0.15-0.29-0.23-0.48-0.23c-0.37,0-0.73,0.33-1.07,0.98c-0.35,0.66-0.52,1.33-0.52,2.03
	C71.54,106.44,71.75,106.84,72.17,106.84z M74.89,106.79h0.83c0.63,0,0.95,0.34,0.95,1.01c0,0.46-0.11,0.83-0.34,1.09
	c-0.23,0.26-0.54,0.4-0.93,0.4h-0.96c-0.43,0-0.72-0.26-0.88-0.77c-0.38,0.51-0.74,0.77-1.09,0.77h-0.85c-0.55,0-1-0.3-1.34-0.9
	c-0.34-0.6-0.51-1.39-0.51-2.36c0-1.47,0.33-2.79,1-3.95c0.66-1.16,1.41-1.74,2.25-1.74c0.64,0,1.11,0.33,1.41,1.01
	c0.25-0.58,0.58-0.86,0.98-0.86c0.22,0,0.4,0.11,0.55,0.32c0.15,0.22,0.22,0.48,0.22,0.8c0,0.22-0.04,0.48-0.12,0.77l-0.08,0.31
	L74.89,106.79z M64.92,106.84h0.28c0.35,0,0.57-0.21,0.68-0.63l0.56-2.12c0.07-0.26,0.1-0.46,0.1-0.6c0-0.23-0.06-0.42-0.19-0.59
	c-0.13-0.16-0.29-0.24-0.48-0.24c-0.39,0-0.75,0.33-1.09,1c-0.34,0.66-0.5,1.38-0.5,2.15C64.29,106.49,64.5,106.84,64.92,106.84z
	 M67.66,106.79h0.85c0.63,0,0.95,0.34,0.95,1.02c0,0.46-0.11,0.83-0.34,1.09c-0.23,0.26-0.54,0.39-0.93,0.39h-1.01
	c-0.39,0-0.68-0.25-0.85-0.74c-0.32,0.49-0.66,0.74-1.03,0.74h-0.95c-0.55,0-1-0.29-1.33-0.87c-0.33-0.59-0.5-1.36-0.5-2.32
	c0-1.48,0.33-2.81,0.99-3.98c0.66-1.18,1.39-1.77,2.21-1.77c0.61,0,1.09,0.33,1.45,0.99l1.67-6.28c0.28-1.07,0.68-1.61,1.19-1.61
	c0.22,0,0.4,0.11,0.55,0.32c0.15,0.21,0.23,0.47,0.23,0.77c0,0.24-0.04,0.51-0.11,0.8l-0.09,0.31L67.66,106.79z M58.57,103.82h0.82
	c0.54,0,0.8-0.18,0.78-0.53c-0.02-0.4-0.19-0.6-0.52-0.6C59.19,102.69,58.83,103.07,58.57,103.82z M58.21,105.92
	c0,0.58,0.28,0.87,0.85,0.87h2.23c0.63,0,0.95,0.34,0.95,1.02c0,0.46-0.11,0.83-0.34,1.09c-0.22,0.26-0.53,0.39-0.93,0.39h-2.12
	c-0.79,0-1.39-0.3-1.81-0.9c-0.41-0.6-0.62-1.47-0.62-2.62c0-1.48,0.33-2.75,0.98-3.82c0.65-1.07,1.43-1.61,2.33-1.61
	c0.66,0,1.18,0.26,1.58,0.79c0.4,0.53,0.6,1.22,0.6,2.08c0,1.03-0.27,1.8-0.82,2.3c-0.3,0.28-0.76,0.42-1.36,0.42H58.21z
	 M54.31,106.79h0.87c0.35,0,0.59,0.08,0.74,0.24c0.15,0.16,0.22,0.41,0.22,0.77c0,0.46-0.11,0.83-0.34,1.09
	c-0.22,0.26-0.53,0.4-0.93,0.4h-1.34c-0.42,0-0.7-0.25-0.84-0.75c-0.27,0.5-0.62,0.75-1.03,0.75h-1.1c-0.44,0-0.8-0.21-1.09-0.63
	c-0.29-0.42-0.44-0.95-0.44-1.6c0-0.37,0.06-0.8,0.19-1.29l1.02-3.84c0.28-1.06,0.67-1.6,1.17-1.6c0.21,0,0.4,0.11,0.55,0.32
	c0.15,0.21,0.23,0.47,0.23,0.77c0,0.23-0.04,0.49-0.12,0.79l-0.08,0.31l-0.78,2.96l-0.08,0.34c-0.05,0.2-0.07,0.35-0.07,0.45
	c-0.01,0.34,0.14,0.51,0.43,0.51c0.62,0,1.03-0.38,1.24-1.15l0.94-3.55c0.28-1.08,0.68-1.61,1.19-1.61c0.21,0,0.39,0.11,0.54,0.32
	c0.15,0.22,0.23,0.48,0.23,0.77c0,0.24-0.06,0.61-0.19,1.11L54.31,106.79z M46.07,106.26l0.52-1.97c0.05-0.22,0.08-0.42,0.08-0.63
	c0-0.23-0.07-0.43-0.2-0.59c-0.14-0.16-0.31-0.24-0.51-0.24c-0.34,0-0.66,0.3-0.96,0.9c-0.3,0.6-0.46,1.24-0.46,1.9
	c0,0.75,0.26,1.13,0.78,1.13c0.16,0,0.31-0.06,0.47-0.16C45.94,106.49,46.03,106.38,46.07,106.26z M45.67,114.8h0.82
	c0.63,0,0.94,0.35,0.94,1.03c0,0.46-0.11,0.82-0.33,1.08c-0.22,0.26-0.53,0.38-0.93,0.38h-1.39c-0.34,0-0.61-0.13-0.82-0.39
	c-0.21-0.26-0.31-0.6-0.31-1.02c0-0.31,0.07-0.72,0.21-1.25l1.54-5.83c-0.27,0.33-0.58,0.49-0.94,0.49c-0.5,0-0.92-0.29-1.25-0.88
	c-0.33-0.59-0.5-1.32-0.5-2.19c0-0.8,0.12-1.63,0.36-2.48c0.24-0.85,0.54-1.55,0.91-2.09c0.6-0.88,1.31-1.31,2.12-1.31
	c0.69,0,1.24,0.3,1.68,0.9c0.43,0.6,0.65,1.38,0.65,2.34c0,0.54-0.1,1.17-0.29,1.9L45.67,114.8z M35.78,102.78
	c-0.37,0-0.7,0.28-1.01,0.84c-0.3,0.56-0.46,1.18-0.46,1.85c0,0.89,0.32,1.33,0.97,1.33c0.38,0,0.67-0.18,0.87-0.54
	c0.34-0.59,0.51-1.26,0.51-2.03c0-0.44-0.08-0.79-0.25-1.06C36.26,102.92,36.05,102.78,35.78,102.78z M35.97,100.33
	c0.72,0,1.32,0.35,1.79,1.06c0.47,0.71,0.7,1.6,0.7,2.69c0,0.82-0.12,1.63-0.37,2.44c-0.25,0.81-0.56,1.45-0.95,1.94
	c-0.26,0.31-0.53,0.53-0.81,0.65c-0.28,0.12-0.67,0.18-1.16,0.18c-0.82,0-1.36-0.15-1.65-0.45c-0.67-0.71-1-1.75-1-3.12
	c0-1.46,0.34-2.72,1.03-3.78C34.22,100.87,35.03,100.33,35.97,100.33z M27.74,112.25h-1.05c-1.14,0-1.71,0.55-1.71,1.66
	c0,0.39,0.08,0.71,0.24,0.95c0.16,0.24,0.37,0.36,0.63,0.36c0.36,0,0.69-0.22,0.97-0.66C27.09,114.13,27.4,113.35,27.74,112.25z
	 M30.19,109.76h0.87c0.63,0,0.95,0.34,0.95,1.02c0,0.46-0.11,0.83-0.33,1.09c-0.22,0.26-0.53,0.39-0.93,0.39h-1.22
	c-0.14,0.66-0.41,1.54-0.79,2.63c-0.66,1.92-1.62,2.88-2.88,2.88c-0.77,0-1.41-0.37-1.93-1.1c-0.52-0.74-0.78-1.65-0.78-2.74
	c0-0.76,0.14-1.47,0.42-2.12c0.28-0.66,0.65-1.15,1.11-1.48c0.53-0.38,1.31-0.57,2.34-0.57h1.22l0.22-0.83
	c-0.37,0.24-0.71,0.36-1.02,0.36c-0.53,0-0.97-0.21-1.3-0.63c-0.33-0.42-0.5-0.96-0.5-1.63c0-0.41,0.11-1.02,0.32-1.83l0.81-3.1
	l0.08-0.33c0.24-0.87,0.61-1.3,1.11-1.3c0.22,0,0.4,0.11,0.55,0.32c0.15,0.22,0.22,0.49,0.22,0.82c0,0.22-0.06,0.58-0.19,1.08
	l-0.73,2.75c-0.12,0.45-0.17,0.73-0.18,0.86c-0.02,0.38,0.14,0.57,0.46,0.57c0.23,0,0.47-0.1,0.71-0.31
	c0.24-0.21,0.39-0.44,0.46-0.7l1-3.77l0.07-0.32c0.24-0.87,0.61-1.3,1.12-1.3c0.22,0,0.4,0.11,0.55,0.33
	c0.15,0.22,0.22,0.49,0.22,0.81c0,0.22-0.04,0.48-0.11,0.77l-0.09,0.31L30.19,109.76z M179.7,82.51h-1.05
	c-1.14,0-1.71,0.55-1.71,1.66c0,0.39,0.08,0.71,0.24,0.95c0.16,0.24,0.37,0.36,0.63,0.36c0.36,0,0.69-0.22,0.97-0.66
	C179.05,84.38,179.36,83.61,179.7,82.51z M182.15,80.02h0.87c0.63,0,0.95,0.34,0.95,1.02c0,0.46-0.11,0.83-0.33,1.09
	c-0.22,0.26-0.53,0.39-0.93,0.39h-1.22c-0.14,0.66-0.41,1.54-0.79,2.63c-0.66,1.92-1.62,2.88-2.88,2.88c-0.77,0-1.41-0.37-1.93-1.1
	c-0.52-0.74-0.78-1.65-0.78-2.74c0-0.76,0.14-1.47,0.42-2.12c0.28-0.66,0.65-1.15,1.11-1.48c0.53-0.38,1.31-0.57,2.34-0.57h1.22
	l0.22-0.83c-0.37,0.24-0.71,0.36-1.02,0.36c-0.53,0-0.97-0.21-1.3-0.63c-0.33-0.42-0.5-0.96-0.5-1.63c0-0.41,0.11-1.02,0.32-1.83
	l0.81-3.1l0.08-0.33c0.24-0.87,0.61-1.3,1.11-1.3c0.22,0,0.4,0.11,0.55,0.32c0.15,0.22,0.22,0.49,0.22,0.82
	c0,0.22-0.06,0.58-0.19,1.08l-0.73,2.75c-0.12,0.45-0.17,0.73-0.18,0.86c-0.02,0.38,0.14,0.57,0.46,0.57c0.23,0,0.47-0.1,0.71-0.31
	c0.24-0.21,0.39-0.44,0.46-0.7l1-3.77l0.07-0.32c0.24-0.87,0.61-1.3,1.12-1.3c0.22,0,0.4,0.11,0.55,0.33
	c0.15,0.22,0.22,0.49,0.22,0.81c0,0.22-0.04,0.48-0.11,0.77l-0.09,0.31L182.15,80.02z M170.08,74.08h0.82c0.53,0,0.8-0.18,0.78-0.53
	c-0.02-0.4-0.19-0.6-0.52-0.6C170.71,72.95,170.35,73.33,170.08,74.08z M169.72,76.18c0,0.58,0.28,0.87,0.85,0.87h2.23
	c0.63,0,0.95,0.34,0.95,1.02c0,0.46-0.11,0.83-0.33,1.09c-0.22,0.26-0.54,0.39-0.93,0.39h-2.12c-0.79,0-1.4-0.3-1.81-0.9
	c-0.41-0.6-0.62-1.47-0.62-2.62c0-1.48,0.33-2.75,0.98-3.82c0.65-1.07,1.43-1.61,2.33-1.61c0.66,0,1.18,0.26,1.58,0.79
	c0.4,0.53,0.6,1.22,0.6,2.08c0,1.03-0.27,1.8-0.82,2.3c-0.3,0.28-0.76,0.42-1.36,0.42H169.72z M167.05,70.73h0.23
	c0.63,0,0.95,0.34,0.95,1.03c0,0.47-0.11,0.84-0.34,1.1c-0.22,0.26-0.53,0.39-0.93,0.39h-0.55l-1,3.79h0.84
	c0.63,0,0.95,0.34,0.95,1.02c0,0.46-0.11,0.83-0.33,1.09c-0.22,0.26-0.53,0.39-0.93,0.39h-1.34c-0.38,0-0.68-0.13-0.9-0.4
	c-0.22-0.27-0.33-0.63-0.33-1.09c0-0.28,0.05-0.6,0.14-0.94l0.14-0.51l0.88-3.34h-0.11c-0.57,0-0.85-0.33-0.85-1
	c0-0.48,0.11-0.85,0.34-1.12c0.23-0.27,0.54-0.4,0.94-0.4h0.35l0.4-1.5l0.08-0.31c0.23-0.85,0.6-1.27,1.11-1.27
	c0.2,0,0.38,0.11,0.53,0.31c0.15,0.21,0.22,0.47,0.22,0.77c0,0.29-0.07,0.66-0.2,1.1L167.05,70.73z M161.17,77.05h0.9
	c0.63,0,0.95,0.34,0.95,1.02c0,0.46-0.11,0.83-0.34,1.09c-0.23,0.26-0.53,0.39-0.93,0.39h-1.57c-0.31,0-0.57-0.14-0.78-0.42
	c-0.21-0.29-0.31-0.64-0.31-1.07c0-0.26,0.07-0.65,0.21-1.17l0.67-2.51c0.07-0.26,0.11-0.47,0.12-0.63
	c0.01-0.18-0.04-0.34-0.15-0.47c-0.1-0.13-0.24-0.2-0.39-0.2c-0.52,0-0.93,0.59-1.25,1.78l-0.89,3.34
	c-0.27,1.01-0.66,1.52-1.19,1.52c-0.22,0-0.4-0.1-0.55-0.3c-0.15-0.2-0.22-0.45-0.22-0.74c0-0.22,0.04-0.47,0.12-0.77l0.08-0.31
	l1.52-5.74c0.2-0.75,0.53-1.12,1-1.12c0.39,0,0.66,0.26,0.83,0.79c0.54-0.62,1.05-0.93,1.53-0.93c0.47,0,0.86,0.21,1.16,0.62
	c0.3,0.42,0.46,0.94,0.46,1.58c0,0.35-0.06,0.74-0.17,1.16L161.17,77.05z M152.55,73.04c-0.37,0-0.7,0.28-1.01,0.84
	c-0.3,0.56-0.46,1.18-0.46,1.85c0,0.89,0.32,1.33,0.97,1.33c0.38,0,0.67-0.18,0.87-0.54c0.34-0.59,0.51-1.26,0.51-2.03
	c0-0.44-0.08-0.79-0.25-1.06C153.03,73.18,152.81,73.04,152.55,73.04z M152.73,70.59c0.72,0,1.32,0.35,1.79,1.06
	c0.47,0.71,0.7,1.6,0.7,2.69c0,0.82-0.12,1.63-0.37,2.44c-0.25,0.81-0.56,1.45-0.95,1.94c-0.26,0.31-0.53,0.53-0.81,0.65
	c-0.28,0.12-0.67,0.18-1.16,0.18c-0.82,0-1.36-0.15-1.65-0.45c-0.67-0.71-1-1.75-1-3.12c0-1.46,0.34-2.72,1.03-3.78
	C150.99,71.13,151.8,70.59,152.73,70.59z M147.14,77.05h0.89c0.63,0,0.95,0.34,0.95,1.02c0,0.46-0.11,0.83-0.33,1.09
	c-0.22,0.26-0.53,0.39-0.93,0.39h-1.52c-0.33,0-0.59-0.13-0.8-0.4c-0.2-0.27-0.3-0.62-0.3-1.06c0-0.3,0.07-0.7,0.2-1.22l0.69-2.63
	c0.04-0.15,0.06-0.29,0.06-0.42c0-0.5-0.16-0.75-0.49-0.75c-0.25,0-0.51,0.18-0.76,0.53c-0.25,0.35-0.45,0.82-0.6,1.4l-0.84,3.17
	c-0.27,1.02-0.67,1.54-1.2,1.54c-0.2,0-0.38-0.1-0.52-0.31c-0.15-0.21-0.22-0.45-0.22-0.73c0-0.22,0.04-0.48,0.11-0.78l0.08-0.31
	l0.84-3.2c0.07-0.28,0.11-0.51,0.11-0.67c0-0.17-0.05-0.32-0.15-0.44c-0.1-0.13-0.22-0.19-0.35-0.19c-0.54,0-0.97,0.6-1.28,1.79
	l-0.88,3.3c-0.27,1.03-0.67,1.55-1.19,1.55c-0.2,0-0.38-0.1-0.53-0.31c-0.15-0.2-0.22-0.45-0.22-0.74c0-0.23,0.04-0.49,0.11-0.79
	l0.08-0.31l1.49-5.65c0.21-0.79,0.52-1.19,0.94-1.19c0.44,0,0.7,0.31,0.81,0.95c0.34-0.44,0.61-0.73,0.83-0.87
	c0.21-0.15,0.47-0.22,0.78-0.22c0.67,0,1.17,0.44,1.51,1.33c0.56-0.89,1.19-1.33,1.89-1.33c0.48,0,0.88,0.21,1.2,0.64
	c0.32,0.42,0.48,0.95,0.48,1.57c0,0.39-0.05,0.79-0.16,1.21L147.14,77.05z M132.21,77.05h0.79c0.63,0,0.95,0.34,0.95,1.02
	c0,0.46-0.11,0.83-0.33,1.09c-0.22,0.26-0.53,0.39-0.93,0.39h-1.35c-0.37,0-0.66-0.13-0.87-0.4c-0.21-0.27-0.32-0.63-0.32-1.08
	c0-0.24,0.07-0.63,0.22-1.19l3.02-11.44l0.08-0.31c0.23-0.86,0.6-1.29,1.1-1.29c0.21,0,0.39,0.11,0.53,0.32
	c0.15,0.22,0.22,0.47,0.22,0.77c0,0.23-0.04,0.49-0.11,0.78l-0.08,0.31L132.21,77.05z M125.42,77.09h0.19
	c0.41,0,0.69-0.26,0.82-0.77l0.53-1.99c0.07-0.26,0.1-0.48,0.1-0.66c0-0.21-0.07-0.39-0.2-0.54c-0.13-0.15-0.29-0.23-0.48-0.23
	c-0.37,0-0.73,0.33-1.07,0.98c-0.35,0.66-0.52,1.33-0.52,2.03C124.79,76.7,125,77.09,125.42,77.09z M128.14,77.05h0.83
	c0.63,0,0.95,0.34,0.95,1.01c0,0.46-0.11,0.83-0.34,1.09c-0.23,0.26-0.54,0.4-0.93,0.4h-0.96c-0.43,0-0.72-0.26-0.88-0.77
	c-0.38,0.51-0.74,0.77-1.09,0.77h-0.85c-0.55,0-1-0.3-1.34-0.9c-0.34-0.6-0.51-1.39-0.51-2.36c0-1.47,0.33-2.79,1-3.95
	c0.66-1.16,1.41-1.74,2.25-1.74c0.64,0,1.11,0.33,1.41,1.01c0.25-0.58,0.58-0.86,0.98-0.86c0.22,0,0.4,0.11,0.55,0.32
	c0.15,0.22,0.22,0.48,0.22,0.8c0,0.22-0.04,0.48-0.12,0.77l-0.08,0.31L128.14,77.05z M117.05,77.05h0.9c0.63,0,0.95,0.34,0.95,1.02
	c0,0.46-0.11,0.83-0.34,1.09c-0.23,0.26-0.53,0.39-0.93,0.39h-1.57c-0.31,0-0.57-0.14-0.78-0.42c-0.21-0.29-0.31-0.64-0.31-1.07
	c0-0.26,0.07-0.65,0.21-1.17l0.67-2.51c0.07-0.26,0.11-0.47,0.12-0.63c0.01-0.18-0.04-0.34-0.15-0.47c-0.1-0.13-0.24-0.2-0.39-0.2
	c-0.52,0-0.93,0.59-1.25,1.78l-0.89,3.34c-0.27,1.01-0.66,1.52-1.19,1.52c-0.22,0-0.4-0.1-0.55-0.3c-0.15-0.2-0.23-0.45-0.23-0.74
	c0-0.22,0.04-0.47,0.12-0.77l0.08-0.31l1.52-5.74c0.2-0.75,0.53-1.12,1-1.12c0.39,0,0.66,0.26,0.83,0.79
	c0.54-0.62,1.05-0.93,1.53-0.93c0.47,0,0.86,0.21,1.16,0.62c0.3,0.42,0.46,0.94,0.46,1.58c0,0.35-0.06,0.74-0.17,1.16L117.05,77.05z
	 M106.72,77.09h0.19c0.41,0,0.69-0.26,0.82-0.77l0.53-1.99c0.07-0.26,0.1-0.48,0.1-0.66c0-0.21-0.07-0.39-0.2-0.54
	c-0.13-0.15-0.29-0.23-0.48-0.23c-0.37,0-0.73,0.33-1.07,0.98c-0.35,0.66-0.52,1.33-0.52,2.03C106.09,76.7,106.3,77.09,106.72,77.09
	z M109.44,77.05h0.83c0.63,0,0.95,0.34,0.95,1.01c0,0.46-0.11,0.83-0.34,1.09c-0.23,0.26-0.54,0.4-0.93,0.4h-0.96
	c-0.43,0-0.72-0.26-0.88-0.77c-0.38,0.51-0.74,0.77-1.09,0.77h-0.85c-0.55,0-1-0.3-1.34-0.9c-0.34-0.6-0.51-1.39-0.51-2.36
	c0-1.47,0.33-2.79,1-3.95c0.66-1.16,1.41-1.74,2.25-1.74c0.64,0,1.11,0.33,1.41,1.01c0.25-0.58,0.58-0.86,0.98-0.86
	c0.22,0,0.4,0.11,0.55,0.32c0.15,0.22,0.22,0.48,0.22,0.8c0,0.22-0.04,0.48-0.12,0.77l-0.08,0.31L109.44,77.05z M99.93,73.26
	l-0.25,0.97c-0.23,0.86-0.53,1.29-0.9,1.29c-0.22,0-0.41-0.1-0.56-0.31c-0.15-0.21-0.23-0.47-0.23-0.77c0-0.18,0.05-0.48,0.16-0.9
	L99,70.32c0.2-0.77,0.49-1.16,0.87-1.16c0.37,0,0.59,0.27,0.68,0.8l0.06,0.36c0.03,0.18,0.07,0.3,0.14,0.35
	c0.06,0.05,0.2,0.07,0.44,0.07h1.76c0.65,0,0.98,0.35,0.98,1.06c0,0.97-0.41,1.46-1.24,1.46l-0.08,0.11
	c-0.79,1.17-1.18,2.08-1.18,2.72c0,0.64,0.23,0.96,0.68,0.96h0.95c0.64,0,0.96,0.34,0.96,1.01c0,0.47-0.11,0.84-0.34,1.1
	c-0.22,0.26-0.53,0.39-0.94,0.39h-1.47c-0.5,0-0.9-0.26-1.22-0.79c-0.31-0.53-0.47-1.22-0.47-2.07c0-0.54,0.08-1.06,0.25-1.57
	c0.17-0.51,0.47-1.13,0.9-1.86H99.93z M93.66,73.26l-0.25,0.97c-0.23,0.86-0.53,1.29-0.9,1.29c-0.22,0-0.41-0.1-0.56-0.31
	c-0.15-0.21-0.23-0.47-0.23-0.77c0-0.18,0.05-0.48,0.16-0.9l0.85-3.22c0.2-0.77,0.49-1.16,0.87-1.16c0.37,0,0.59,0.27,0.68,0.8
	l0.06,0.36c0.03,0.18,0.07,0.3,0.14,0.35c0.06,0.05,0.2,0.07,0.44,0.07h1.76c0.65,0,0.98,0.35,0.98,1.06c0,0.97-0.41,1.46-1.24,1.46
	l-0.08,0.11c-0.79,1.17-1.18,2.08-1.18,2.72c0,0.64,0.22,0.96,0.68,0.96h0.95c0.64,0,0.96,0.34,0.96,1.01c0,0.47-0.11,0.84-0.34,1.1
	c-0.22,0.26-0.53,0.39-0.94,0.39h-1.47c-0.5,0-0.9-0.26-1.22-0.79c-0.31-0.53-0.47-1.22-0.47-2.07c0-0.54,0.08-1.06,0.25-1.57
	c0.17-0.51,0.47-1.13,0.9-1.86H93.66z M88.71,73.04c-0.37,0-0.7,0.28-1.01,0.84c-0.3,0.56-0.46,1.18-0.46,1.85
	c0,0.89,0.32,1.33,0.97,1.33c0.38,0,0.67-0.18,0.87-0.54c0.34-0.59,0.51-1.26,0.51-2.03c0-0.44-0.08-0.79-0.25-1.06
	C89.19,73.18,88.98,73.04,88.71,73.04z M88.9,70.59c0.72,0,1.32,0.35,1.79,1.06c0.47,0.71,0.7,1.6,0.7,2.69
	c0,0.82-0.12,1.63-0.37,2.44c-0.25,0.81-0.56,1.45-0.95,1.94c-0.26,0.31-0.53,0.53-0.81,0.65c-0.28,0.12-0.67,0.18-1.16,0.18
	c-0.82,0-1.36-0.15-1.65-0.45c-0.67-0.71-1-1.75-1-3.12c0-1.46,0.34-2.72,1.03-3.78C87.15,71.13,87.96,70.59,88.9,70.59z
	 M83.88,79.54H81.7c-0.62,0-1.14-0.34-1.53-1.01c-0.39-0.67-0.59-1.55-0.59-2.62c0-1.43,0.32-2.68,0.97-3.73
	c0.65-1.06,1.4-1.59,2.27-1.59c0.59,0,1.07,0.26,1.44,0.76c0.37,0.51,0.56,1.17,0.56,1.98c0,0.57-0.09,1.04-0.28,1.4
	c-0.18,0.37-0.42,0.55-0.71,0.55c-0.46,0-0.69-0.33-0.69-0.99c0-0.1,0-0.18,0-0.25c0-0.08,0-0.16,0-0.24c0-0.54-0.17-0.8-0.52-0.8
	c-0.33,0-0.62,0.26-0.89,0.79c-0.27,0.53-0.4,1.11-0.4,1.77c0,0.54,0.11,0.93,0.33,1.15c0.22,0.22,0.59,0.34,1.11,0.34h1.42
	c0.63,0,0.95,0.34,0.95,1.02c0,0.46-0.11,0.82-0.34,1.08C84.58,79.41,84.27,79.54,83.88,79.54z M71.8,74.08h0.82
	c0.54,0,0.8-0.18,0.78-0.53c-0.02-0.4-0.19-0.6-0.52-0.6C72.43,72.95,72.07,73.33,71.8,74.08z M71.44,76.18
	c0,0.58,0.28,0.87,0.85,0.87h2.23c0.63,0,0.95,0.34,0.95,1.02c0,0.46-0.11,0.83-0.34,1.09c-0.22,0.26-0.53,0.39-0.93,0.39h-2.12
	c-0.79,0-1.39-0.3-1.81-0.9c-0.41-0.6-0.62-1.47-0.62-2.62c0-1.48,0.33-2.75,0.98-3.82c0.65-1.07,1.43-1.61,2.33-1.61
	c0.66,0,1.18,0.26,1.58,0.79c0.4,0.53,0.6,1.22,0.6,2.08c0,1.03-0.27,1.8-0.82,2.3c-0.3,0.28-0.76,0.42-1.36,0.42H71.44z
	 M67.54,77.05h0.87c0.35,0,0.59,0.08,0.74,0.24c0.15,0.16,0.22,0.41,0.22,0.77c0,0.46-0.11,0.83-0.34,1.09
	c-0.22,0.26-0.54,0.4-0.93,0.4h-1.34c-0.42,0-0.7-0.25-0.84-0.75c-0.27,0.5-0.62,0.75-1.03,0.75h-1.1c-0.44,0-0.8-0.21-1.09-0.63
	c-0.29-0.42-0.44-0.95-0.44-1.6c0-0.37,0.06-0.8,0.19-1.29l1.02-3.84c0.28-1.06,0.67-1.6,1.17-1.6c0.21,0,0.4,0.11,0.55,0.32
	c0.15,0.21,0.23,0.47,0.23,0.77c0,0.23-0.04,0.49-0.12,0.79l-0.08,0.31l-0.78,2.96l-0.08,0.34c-0.05,0.2-0.07,0.35-0.07,0.45
	c-0.01,0.34,0.14,0.51,0.43,0.51c0.62,0,1.03-0.38,1.24-1.15l0.94-3.55c0.28-1.08,0.68-1.61,1.19-1.61c0.21,0,0.39,0.11,0.54,0.32
	c0.15,0.22,0.23,0.48,0.23,0.77c0,0.24-0.06,0.61-0.19,1.11L67.54,77.05z"/>
<path class="st0" d="M183.89,97.15l-1.65,6.81c-0.28,1.17-0.61,1.75-1.01,1.75c-0.19,0-0.36-0.11-0.5-0.31
	c-0.14-0.21-0.21-0.47-0.21-0.78c0-0.19,0.03-0.44,0.08-0.75l1.42-7.86c0.18-0.98,0.53-1.47,1.06-1.47c0.28,0,0.51,0.14,0.7,0.41
	c0.19,0.28,0.29,0.61,0.29,1.01C184.08,96.23,184.02,96.63,183.89,97.15 M180.52,106.39c0.28,0,0.53,0.16,0.73,0.47
	c0.2,0.31,0.31,0.69,0.31,1.12c0,0.45-0.1,0.82-0.31,1.14c-0.2,0.31-0.45,0.47-0.73,0.47c-0.29,0-0.54-0.16-0.74-0.47
	c-0.2-0.31-0.31-0.69-0.31-1.14c0-0.44,0.1-0.81,0.31-1.12C179.98,106.54,180.23,106.39,180.52,106.39z M175.99,103.62l-0.14,0.53
	c-0.22,0.77-0.54,1.15-0.94,1.15c-0.21,0-0.39-0.11-0.55-0.33c-0.16-0.22-0.25-0.47-0.25-0.75c0-0.27,0.07-0.62,0.22-1.07l1-3.11
	c0.25-0.75,0.55-1.12,0.92-1.12c0.19,0,0.36,0.1,0.5,0.29c0.14,0.2,0.21,0.43,0.21,0.69c0,0.07-0.02,0.22-0.05,0.45
	c-0.02,0.17-0.03,0.32-0.03,0.45c0,0.48,0.12,0.98,0.36,1.48l0.43,0.91c0.44,0.93,0.66,1.83,0.66,2.69c0,0.97-0.24,1.77-0.71,2.42
	c-0.47,0.65-1.05,0.97-1.76,0.97h-1.57c-0.63,0-0.95-0.34-0.95-1.01c0-0.46,0.11-0.83,0.34-1.09c0.23-0.26,0.53-0.4,0.93-0.4h0.87
	c0.7,0,1.05-0.39,1.05-1.17c0-0.28-0.07-0.62-0.2-1L175.99,103.62z M168.71,106.84h0.19c0.41,0,0.69-0.26,0.82-0.77l0.53-1.99
	c0.07-0.26,0.11-0.48,0.11-0.66c0-0.21-0.07-0.39-0.2-0.54c-0.13-0.15-0.29-0.23-0.48-0.23c-0.37,0-0.73,0.33-1.07,0.98
	c-0.35,0.66-0.52,1.33-0.52,2.03C168.08,106.44,168.29,106.84,168.71,106.84z M171.44,106.79h0.83c0.63,0,0.95,0.34,0.95,1.01
	c0,0.46-0.11,0.83-0.34,1.09c-0.23,0.26-0.54,0.4-0.93,0.4h-0.96c-0.43,0-0.72-0.26-0.88-0.77c-0.38,0.51-0.74,0.77-1.09,0.77h-0.85
	c-0.55,0-1-0.3-1.34-0.9c-0.34-0.6-0.51-1.39-0.51-2.36c0-1.47,0.33-2.79,1-3.95c0.66-1.16,1.41-1.74,2.25-1.74
	c0.64,0,1.11,0.33,1.41,1.01c0.25-0.58,0.58-0.86,0.98-0.86c0.22,0,0.4,0.11,0.55,0.32c0.15,0.22,0.22,0.48,0.22,0.8
	c0,0.22-0.04,0.48-0.12,0.77l-0.08,0.31L171.44,106.79z M165.89,96.8c0.29,0,0.54,0.16,0.74,0.47c0.2,0.31,0.3,0.69,0.3,1.13
	c0,0.44-0.1,0.82-0.3,1.13c-0.2,0.31-0.45,0.47-0.74,0.47c-0.29,0-0.54-0.16-0.74-0.47c-0.2-0.31-0.3-0.69-0.3-1.13
	c0-0.45,0.1-0.82,0.3-1.13C165.36,96.96,165.6,96.8,165.89,96.8z M161.44,112.25h-1.05c-1.14,0-1.71,0.57-1.71,1.71
	c0,0.37,0.08,0.67,0.24,0.91c0.16,0.24,0.37,0.35,0.62,0.35c0.36,0,0.69-0.22,0.97-0.65C160.79,114.13,161.1,113.36,161.44,112.25z
	 M164.03,109.76h0.82c0.63,0,0.95,0.34,0.95,1.02c0,0.46-0.11,0.82-0.34,1.08c-0.22,0.26-0.53,0.4-0.94,0.4h-1.17l-0.53,1.65
	l-0.22,0.68c-0.69,2.12-1.68,3.18-2.97,3.18c-0.77,0-1.42-0.36-1.95-1.09c-0.52-0.73-0.79-1.63-0.79-2.71c0-0.64,0.1-1.26,0.31-1.87
	c0.2-0.61,0.47-1.09,0.81-1.45c0.54-0.59,1.38-0.89,2.52-0.89h1.56l1.7-6.45H163c-0.63,0-0.94-0.34-0.94-1.02
	c0-0.46,0.11-0.83,0.33-1.09c0.22-0.26,0.53-0.39,0.93-0.39h1.79c0.6,0,0.9,0.39,0.9,1.16c0,0.3-0.05,0.64-0.16,1.04L164.03,109.76z
	 M160.72,96.8c0.29,0,0.54,0.16,0.74,0.47c0.2,0.31,0.3,0.69,0.3,1.13c0,0.44-0.1,0.82-0.3,1.13c-0.2,0.31-0.45,0.47-0.74,0.47
	c-0.29,0-0.54-0.16-0.74-0.47c-0.2-0.31-0.3-0.69-0.3-1.13c0-0.45,0.1-0.82,0.3-1.13C160.18,96.96,160.43,96.8,160.72,96.8z
	 M159.73,106.79h0.85c0.63,0,0.94,0.34,0.94,1.02c0,0.46-0.11,0.83-0.33,1.09c-0.22,0.26-0.53,0.39-0.93,0.39h-1.19
	c-0.44,0-0.79-0.14-1.04-0.42c-0.25-0.27-0.38-0.65-0.38-1.13c0-0.26,0.05-0.58,0.16-0.97l1.24-4.68l0.08-0.33
	c0.23-0.87,0.6-1.3,1.11-1.3c0.21,0,0.39,0.11,0.55,0.32c0.15,0.22,0.23,0.48,0.23,0.77c0,0.25-0.07,0.62-0.2,1.13L159.73,106.79z
	 M153.58,100.97c0.52-0.42,0.95-0.64,1.3-0.64c0.48,0,0.87,0.2,1.18,0.62c0.31,0.41,0.46,0.93,0.46,1.57c0,0.38-0.06,0.8-0.18,1.25
	l-0.79,3.01h0.86c0.63,0,0.95,0.34,0.95,1.02c0,0.46-0.11,0.83-0.34,1.09c-0.22,0.26-0.53,0.39-0.93,0.39h-1.51
	c-0.32,0-0.59-0.14-0.81-0.42c-0.22-0.28-0.33-0.62-0.33-1.03c0-0.28,0.06-0.63,0.17-1.06l0.7-2.59c0.08-0.33,0.13-0.58,0.13-0.75
	c0-0.44-0.19-0.66-0.57-0.66c-0.51,0-0.94,0.67-1.29,2l-0.84,3.16c-0.27,1-0.66,1.51-1.18,1.51c-0.2,0-0.38-0.1-0.52-0.3
	c-0.15-0.2-0.22-0.44-0.22-0.73c0-0.21,0.04-0.47,0.11-0.76l0.08-0.31l3.26-12.34c0.29-1.06,0.68-1.59,1.17-1.59
	c0.2,0,0.38,0.11,0.53,0.31c0.15,0.21,0.22,0.47,0.22,0.77c0,0.24-0.06,0.61-0.19,1.09L153.58,100.97z M143.27,103.62l-0.14,0.53
	c-0.22,0.77-0.54,1.15-0.94,1.15c-0.21,0-0.39-0.11-0.55-0.33c-0.16-0.22-0.25-0.47-0.25-0.75c0-0.27,0.07-0.62,0.22-1.07l1-3.11
	c0.25-0.75,0.55-1.12,0.92-1.12c0.19,0,0.36,0.1,0.5,0.29c0.14,0.2,0.21,0.43,0.21,0.69c0,0.07-0.02,0.22-0.05,0.45
	c-0.02,0.17-0.03,0.32-0.03,0.45c0,0.48,0.12,0.98,0.36,1.48l0.43,0.91c0.44,0.93,0.66,1.83,0.66,2.69c0,0.97-0.24,1.77-0.71,2.42
	c-0.47,0.65-1.05,0.97-1.76,0.97h-1.57c-0.63,0-0.95-0.34-0.95-1.01c0-0.46,0.11-0.83,0.34-1.09c0.23-0.26,0.53-0.4,0.93-0.4h0.87
	c0.7,0,1.05-0.39,1.05-1.17c0-0.28-0.07-0.62-0.2-1L143.27,103.62z M138.67,106.79h0.87c0.35,0,0.59,0.08,0.74,0.24
	c0.15,0.16,0.22,0.41,0.22,0.77c0,0.46-0.11,0.83-0.34,1.09c-0.22,0.26-0.54,0.4-0.93,0.4h-1.34c-0.42,0-0.7-0.25-0.84-0.75
	c-0.27,0.5-0.62,0.75-1.03,0.75h-1.1c-0.44,0-0.8-0.21-1.09-0.63c-0.29-0.42-0.44-0.95-0.44-1.6c0-0.37,0.06-0.8,0.19-1.29
	l1.02-3.84c0.28-1.06,0.67-1.6,1.17-1.6c0.22,0,0.4,0.11,0.55,0.32c0.15,0.21,0.23,0.47,0.23,0.77c0,0.23-0.04,0.49-0.12,0.79
	l-0.08,0.31l-0.78,2.96l-0.08,0.34c-0.05,0.2-0.07,0.35-0.07,0.45c-0.01,0.34,0.14,0.51,0.43,0.51c0.62,0,1.03-0.38,1.24-1.15
	l0.94-3.55c0.28-1.08,0.68-1.61,1.19-1.61c0.21,0,0.39,0.11,0.54,0.32c0.15,0.22,0.23,0.48,0.23,0.77c0,0.24-0.06,0.61-0.19,1.11
	L138.67,106.79z M130.52,103.62l-0.14,0.53c-0.22,0.77-0.53,1.15-0.94,1.15c-0.21,0-0.39-0.11-0.55-0.33
	c-0.16-0.22-0.25-0.47-0.25-0.75c0-0.27,0.07-0.62,0.22-1.07l1-3.11c0.25-0.75,0.55-1.12,0.92-1.12c0.19,0,0.36,0.1,0.5,0.29
	c0.14,0.2,0.21,0.43,0.21,0.69c0,0.07-0.02,0.22-0.05,0.45c-0.02,0.17-0.03,0.32-0.03,0.45c0,0.48,0.12,0.98,0.36,1.48l0.43,0.91
	c0.44,0.93,0.66,1.83,0.66,2.69c0,0.97-0.24,1.77-0.71,2.42c-0.47,0.65-1.05,0.97-1.76,0.97h-1.57c-0.63,0-0.95-0.34-0.95-1.01
	c0-0.46,0.11-0.83,0.34-1.09c0.23-0.26,0.53-0.4,0.93-0.4h0.87c0.7,0,1.05-0.39,1.05-1.17c0-0.28-0.07-0.62-0.2-1L130.52,103.62z
	 M122.06,106.79h0.9c0.63,0,0.95,0.34,0.95,1.02c0,0.46-0.11,0.83-0.34,1.09c-0.23,0.26-0.53,0.39-0.93,0.39h-1.57
	c-0.31,0-0.57-0.14-0.78-0.42c-0.21-0.29-0.31-0.64-0.31-1.07c0-0.26,0.07-0.65,0.21-1.17l0.67-2.51c0.07-0.26,0.11-0.47,0.12-0.63
	c0.01-0.18-0.04-0.34-0.15-0.47c-0.1-0.13-0.24-0.2-0.39-0.2c-0.52,0-0.93,0.59-1.25,1.78l-0.89,3.34
	c-0.27,1.01-0.66,1.52-1.19,1.52c-0.22,0-0.4-0.1-0.55-0.3c-0.15-0.2-0.23-0.45-0.23-0.74c0-0.22,0.04-0.47,0.12-0.77l0.08-0.31
	l1.52-5.74c0.2-0.75,0.53-1.12,1-1.12c0.39,0,0.66,0.26,0.83,0.79c0.54-0.62,1.05-0.93,1.53-0.93c0.47,0,0.86,0.21,1.16,0.62
	c0.3,0.42,0.46,0.94,0.46,1.58c0,0.35-0.06,0.74-0.17,1.16L122.06,106.79z M113.43,102.78c-0.37,0-0.7,0.28-1.01,0.84
	c-0.3,0.56-0.46,1.18-0.46,1.85c0,0.89,0.32,1.33,0.97,1.33c0.38,0,0.67-0.18,0.87-0.54c0.34-0.59,0.51-1.26,0.51-2.03
	c0-0.44-0.08-0.79-0.25-1.06C113.91,102.92,113.7,102.78,113.43,102.78z M113.61,100.33c0.72,0,1.32,0.35,1.79,1.06
	c0.47,0.71,0.7,1.6,0.7,2.69c0,0.82-0.12,1.63-0.37,2.44c-0.25,0.81-0.56,1.45-0.95,1.94c-0.26,0.31-0.53,0.53-0.81,0.65
	c-0.28,0.12-0.67,0.18-1.16,0.18c-0.82,0-1.36-0.15-1.65-0.45c-0.67-0.71-1-1.75-1-3.12c0-1.46,0.34-2.72,1.03-3.78
	C111.87,100.87,112.68,100.33,113.61,100.33z M108.6,109.29h-2.18c-0.62,0-1.14-0.34-1.53-1.01c-0.39-0.67-0.59-1.55-0.59-2.62
	c0-1.43,0.32-2.68,0.97-3.73c0.64-1.06,1.4-1.59,2.27-1.59c0.59,0,1.07,0.26,1.44,0.76c0.37,0.51,0.56,1.17,0.56,1.98
	c0,0.57-0.09,1.04-0.28,1.4c-0.18,0.37-0.42,0.55-0.71,0.55c-0.46,0-0.69-0.33-0.69-0.99c0-0.1,0-0.18,0-0.25c0-0.08,0-0.16,0-0.24
	c0-0.54-0.17-0.8-0.52-0.8c-0.33,0-0.62,0.26-0.89,0.79c-0.27,0.53-0.4,1.11-0.4,1.77c0,0.54,0.11,0.93,0.33,1.15
	c0.22,0.22,0.59,0.34,1.11,0.34h1.42c0.63,0,0.95,0.34,0.95,1.02c0,0.46-0.11,0.82-0.34,1.08
	C109.29,109.15,108.99,109.29,108.6,109.29z M96.52,103.82h0.82c0.53,0,0.8-0.18,0.78-0.53c-0.02-0.4-0.19-0.6-0.52-0.6
	C97.14,102.69,96.78,103.07,96.52,103.82z M96.16,105.92c0,0.58,0.28,0.87,0.85,0.87h2.23c0.63,0,0.95,0.34,0.95,1.02
	c0,0.46-0.11,0.83-0.34,1.09c-0.22,0.26-0.54,0.39-0.93,0.39h-2.12c-0.79,0-1.39-0.3-1.81-0.9c-0.41-0.6-0.62-1.47-0.62-2.62
	c0-1.48,0.33-2.75,0.98-3.82c0.65-1.07,1.43-1.61,2.33-1.61c0.66,0,1.18,0.26,1.58,0.79c0.4,0.53,0.6,1.22,0.6,2.08
	c0,1.03-0.27,1.8-0.82,2.3c-0.3,0.28-0.76,0.42-1.36,0.42H96.16z M92.24,106.79h0.89c0.63,0,0.95,0.34,0.95,1.02
	c0,0.46-0.11,0.83-0.33,1.09c-0.22,0.26-0.53,0.39-0.93,0.39h-1.52c-0.33,0-0.59-0.13-0.8-0.4c-0.2-0.27-0.3-0.62-0.3-1.06
	c0-0.3,0.07-0.7,0.2-1.22l0.69-2.63c0.04-0.15,0.06-0.29,0.06-0.42c0-0.5-0.16-0.75-0.49-0.75c-0.25,0-0.51,0.18-0.76,0.53
	c-0.25,0.35-0.45,0.82-0.6,1.4l-0.84,3.17c-0.27,1.02-0.67,1.54-1.2,1.54c-0.2,0-0.38-0.1-0.52-0.31c-0.15-0.21-0.22-0.45-0.22-0.73
	c0-0.22,0.04-0.48,0.11-0.78l0.08-0.31l0.84-3.2c0.07-0.28,0.11-0.51,0.11-0.67c0-0.17-0.05-0.32-0.15-0.44
	c-0.1-0.13-0.22-0.19-0.35-0.19c-0.54,0-0.97,0.6-1.28,1.79L85,107.9c-0.27,1.03-0.67,1.55-1.19,1.55c-0.2,0-0.38-0.1-0.53-0.31
	c-0.15-0.2-0.22-0.45-0.22-0.74c0-0.23,0.04-0.49,0.11-0.79l0.08-0.31l1.49-5.65c0.21-0.79,0.52-1.19,0.94-1.19
	c0.44,0,0.7,0.31,0.81,0.95c0.34-0.44,0.61-0.73,0.83-0.87c0.21-0.15,0.47-0.22,0.78-0.22c0.67,0,1.17,0.44,1.51,1.33
	c0.56-0.89,1.19-1.33,1.89-1.33c0.48,0,0.88,0.21,1.2,0.64c0.32,0.42,0.48,0.95,0.48,1.57c0,0.39-0.05,0.79-0.16,1.21L92.24,106.79z
	"/>
<path class="st1" d="M188.04,144.13l0.02-0.38l0.07-0.35l0.12-0.32l0.16-0.29l0.2-0.25l0.21-0.18l0.23-0.11l0.25-0.04l0.26,0.03
	l0.24,0.1l0.22,0.17l0.2,0.24l0.17,0.29l0.12,0.32l0.08,0.35l0.03,0.38l-0.02,0.38l-0.06,0.35l-0.11,0.32l-0.16,0.3l-0.2,0.24
	l-0.21,0.18l-0.23,0.11l-0.26,0.04l-0.25-0.03l-0.23-0.1l-0.22-0.18l-0.2-0.25l-0.17-0.29l-0.12-0.32l-0.07-0.34L188.04,144.13z
	 M190.13,139.6l-0.53,0.01l0.15-1.09l0.13-1.13l0.2-2.4l0.11-2.57l0.03-2.74l0.02-1.62l0.07-1.32l0.13-1.03l0.08-0.4l0.09-0.33
	l0.11-0.27l0.12-0.24l0.13-0.2l0.14-0.16l0.15-0.13l0.16-0.09l0.17-0.06l0.18-0.02l0.24,0.03l0.22,0.1l0.2,0.17l0.18,0.24l0.14,0.28
	l0.1,0.3l0.07,0.32l0.03,0.34l-0.04,0.83l-0.15,1l-0.25,1.18l-0.36,1.35l-0.69,2.53l-0.44,1.79l-0.34,1.8l-0.39,2.54L190.13,139.6z
	 M180.91,144.22l0.02-0.38l0.07-0.35l0.12-0.32l0.16-0.29l0.2-0.25l0.21-0.18l0.23-0.11l0.25-0.04l0.26,0.03l0.24,0.1l0.22,0.17
	l0.2,0.24l0.17,0.29l0.12,0.32l0.08,0.35l0.03,0.38l-0.02,0.38l-0.07,0.35l-0.11,0.32l-0.16,0.3l-0.2,0.24l-0.21,0.18l-0.23,0.11
	l-0.26,0.04l-0.25-0.03l-0.23-0.1l-0.22-0.18l-0.2-0.25l-0.17-0.29l-0.12-0.32l-0.07-0.34L180.91,144.22z M183,139.68l-0.53,0.01
	l0.15-1.09l0.13-1.13l0.2-2.4l0.11-2.57l0.03-2.74l0.02-1.62l0.07-1.32l0.13-1.03l0.08-0.4l0.09-0.33l0.11-0.27l0.12-0.24l0.13-0.2
	l0.14-0.16l0.15-0.13l0.16-0.09l0.17-0.06l0.18-0.02l0.24,0.03l0.22,0.1l0.2,0.17l0.18,0.24l0.14,0.28l0.1,0.3l0.07,0.32l0.02,0.33
	l-0.04,0.83l-0.15,1l-0.25,1.18l-0.36,1.35l-0.69,2.53l-0.44,1.79l-0.33,1.8l-0.39,2.54L183,139.68z M175.57,136.47l-0.03-0.59
	l-0.07-0.54l-0.12-0.49l-0.16-0.44l-0.2-0.36l-0.24-0.25l-0.13-0.09l-0.14-0.06l-0.15-0.04l-0.16-0.01l-0.18,0.02l-0.16,0.05
	l-0.16,0.08l-0.15,0.11l-0.14,0.14l-0.13,0.17l-0.24,0.44l-0.23,0.66l-0.24,1l-0.25,1.33l-0.27,1.66l-0.4,2.99l-0.1,0.98l-0.03,0.63
	l0.02,0.37l0.04,0.32l0.07,0.27l0.09,0.22l0.12,0.17l0.14,0.12l0.16,0.07l0.19,0.02l0.3-0.04l0.3-0.13l0.3-0.22l0.3-0.3l0.15-0.2
	l0.16-0.26l0.32-0.7l0.34-0.93l0.36-1.17l0.31-1.27l0.22-1.25l0.13-1.23L175.57,136.47z M178.24,133.11l-1.34,9.11l-0.14,1.09
	l-0.04,0.83l0.02,0.29l0.06,0.2l0.1,0.12l0.14,0.04l0.07-0.01l0.07-0.05l0.17-0.17l0.19-0.29l0.22-0.4l0.23-0.52l0.23-0.63
	l0.23-0.74l0.23-0.85l0.45-0.01l-0.29,1.21l-0.32,1.04l-0.34,0.87l-0.18,0.37l-0.19,0.33l-0.38,0.53l-0.38,0.38l-0.19,0.13
	l-0.19,0.1l-0.18,0.06l-0.18,0.02l-0.32-0.04l-0.14-0.06l-0.14-0.08l-0.24-0.23l-0.2-0.32l-0.17-0.41l-0.13-0.5l-0.09-0.6
	l-0.05-0.69l-0.05,0l-0.24,0.7l-0.27,0.6l-0.29,0.51l-0.32,0.42l-0.34,0.32l-0.37,0.24l-0.39,0.14l-0.42,0.05l-0.26-0.02l-0.25-0.07
	l-0.24-0.11l-0.23-0.16l-0.22-0.2l-0.22-0.25l-0.21-0.29l-0.2-0.34l-0.18-0.38l-0.16-0.39l-0.14-0.42l-0.11-0.44l-0.09-0.46
	l-0.06-0.47l-0.04-0.5l-0.02-0.51l0.01-0.81l0.06-0.79l0.11-0.76l0.16-0.74l0.21-0.72l0.26-0.69l0.31-0.67l0.36-0.64l0.38-0.59
	l0.38-0.51l0.38-0.44l0.38-0.36l0.39-0.28l0.38-0.2l0.38-0.12l0.38-0.05l0.35,0.03l0.31,0.11l0.28,0.18l0.24,0.26l0.21,0.33
	l0.17,0.41l0.13,0.48l0.1,0.55h0.04l0.29-2.09L178.24,133.11z M162.51,138.83l-0.24,1.66l-0.21,1.8l-0.05,0.73l-0.01,0.61l0.03,0.46
	l0.07,0.4l0.11,0.34l0.16,0.28l0.19,0.22l0.21,0.15l0.23,0.09l0.25,0.03l0.18-0.02l0.17-0.05l0.16-0.07l0.16-0.1l0.29-0.29l0.26-0.4
	l0.12-0.28l0.13-0.37l0.26-1.01l0.27-1.38l0.28-1.74l0.42-3.12l0.1-1l0.03-0.63l-0.02-0.33l-0.05-0.29l-0.08-0.25l-0.1-0.2
	l-0.14-0.15l-0.16-0.11l-0.19-0.07l-0.22-0.02l-0.17,0.02l-0.18,0.05l-0.18,0.08l-0.18,0.12l-0.36,0.33l-0.36,0.47l-0.18,0.29
	l-0.17,0.36l-0.16,0.41l-0.15,0.47l-0.27,1.13L162.51,138.83z M164.65,124.29l-1.52,10.51l0.05,0.06l0.22-0.45l0.24-0.39l0.24-0.34
	l0.26-0.28l0.27-0.21l0.29-0.15l0.3-0.09l0.31-0.04l0.27,0.02l0.26,0.06l0.25,0.1l0.24,0.14l0.24,0.18l0.22,0.23l0.21,0.27l0.2,0.31
	l0.19,0.34l0.16,0.37l0.14,0.4l0.12,0.43l0.09,0.46l0.07,0.48l0.04,0.51l0.02,0.54l-0.02,0.79l-0.07,0.77l-0.12,0.75l-0.17,0.74
	l-0.22,0.73l-0.27,0.71l-0.32,0.7l-0.37,0.68l-0.4,0.63l-0.41,0.55l-0.42,0.46l-0.43,0.38l-0.45,0.3l-0.46,0.21l-0.47,0.13
	l-0.47,0.05l-0.29-0.01l-0.27-0.04l-0.26-0.08l-0.26-0.11l-0.24-0.14l-0.23-0.17l-0.22-0.2l-0.21-0.24l-0.19-0.26l-0.17-0.28
	l-0.14-0.3l-0.12-0.32l-0.09-0.34l-0.07-0.36l-0.04-0.39l-0.02-0.41l0-0.68l0.03-0.64l0.05-0.59l0.08-0.54l0.11-0.59l2.1-14.27
	l-1.3,0.02l0.1-0.82l1.26-0.02l0.56-0.02l0.54-0.05l0.51-0.08L164.65,124.29z M147.39,133.32l-0.52,3.5l0.04,0.07l0.41-0.87
	l0.42-0.75l0.42-0.64l0.43-0.52l0.44-0.41l0.45-0.29l0.23-0.1l0.23-0.08l0.23-0.04l0.23-0.02l0.39,0.04l0.35,0.12l0.3,0.2l0.26,0.29
	l0.2,0.34l0.14,0.35l0.09,0.37l0.03,0.39l-0.09,1.37l0.05,0.06l0.4-0.84l0.42-0.73l0.43-0.62l0.45-0.51l0.46-0.4l0.24-0.15
	l0.24-0.13l0.24-0.1l0.25-0.07l0.25-0.04l0.25-0.02l0.32,0.03l0.3,0.11l0.27,0.18l0.25,0.26l0.21,0.32l0.15,0.36l0.09,0.41
	l0.04,0.45l-0.04,0.74l-0.13,0.96l-0.92,5.98l-0.12,0.93l-0.04,0.48l0.02,0.3l0.06,0.21l0.1,0.13l0.14,0.04l0.17-0.05l0.2-0.16
	l0.23-0.26l0.25-0.37l0.26-0.49l0.24-0.62l0.23-0.75l0.21-0.89l0.51,0l-0.25,1.12l-0.3,0.98l-0.17,0.43l-0.18,0.4l-0.2,0.36
	l-0.21,0.32l-0.43,0.54l-0.22,0.21l-0.21,0.17l-0.21,0.14l-0.21,0.1l-0.21,0.06l-0.22,0.02l-0.34-0.03l-0.31-0.1l-0.28-0.16
	l-0.24-0.23l-0.2-0.3l-0.15-0.36l-0.09-0.43l-0.03-0.49l0.04-0.56l0.13-0.87l0.96-6.09l0.11-0.71l0.06-0.82l-0.05-0.3l-0.13-0.26
	l-0.09-0.11l-0.1-0.08l-0.1-0.05l-0.11-0.01l-0.16,0.03l-0.18,0.08l-0.19,0.13l-0.21,0.17l-0.47,0.5l-0.53,0.7l-0.27,0.43l-0.26,0.5
	l-0.24,0.56l-0.22,0.62l-0.2,0.69l-0.18,0.75l-0.16,0.82l-0.15,0.89l-0.72,4.9l-2.06,0.03l1.28-8.68l0.19-1.33l0.06-0.76l-0.04-0.35
	l-0.13-0.33l-0.09-0.14l-0.1-0.1l-0.11-0.06l-0.12-0.02l-0.17,0.03l-0.18,0.08l-0.2,0.14l-0.21,0.19l-0.22,0.25l-0.23,0.3
	l-0.51,0.78l-0.26,0.47l-0.24,0.52l-0.23,0.57l-0.21,0.62l-0.19,0.68l-0.17,0.73l-0.16,0.78l-0.13,0.83l-0.72,4.81l-2.07,0.02
	l1.78-11.74l-1.83,0.02l0.1-0.82l1.72-0.02l0.57-0.02l0.55-0.06l0.54-0.09L147.39,133.32z M139.82,136l-0.02-0.42l-0.06-0.38
	l-0.1-0.34l-0.14-0.3l-0.18-0.24l-0.21-0.17l-0.24-0.1l-0.28-0.03l-0.21,0.02l-0.2,0.05l-0.18,0.08l-0.16,0.12l-0.15,0.15
	l-0.13,0.18l-0.12,0.21l-0.1,0.25l-0.2,0.66l-0.22,0.93l-0.24,1.2l-0.26,1.48l-0.24,1.5l-0.16,1.28l-0.1,1.06l-0.03,0.84l0.03,0.44
	l0.07,0.38l0.11,0.32l0.16,0.27l0.18,0.21l0.2,0.15l0.22,0.09l0.23,0.03l0.17-0.02l0.16-0.05l0.16-0.09l0.15-0.12l0.15-0.16
	l0.14-0.19l0.26-0.48l0.25-0.61l0.23-0.75l0.2-0.89l0.18-1.02l0.3-1.98l0.21-1.59l0.12-1.2L139.82,136z M133.88,141.21l0.02-0.77
	l0.06-0.75l0.11-0.73l0.16-0.7l0.2-0.68l0.25-0.65l0.3-0.63l0.35-0.61l0.37-0.56l0.39-0.48l0.4-0.41l0.41-0.34l0.42-0.26l0.43-0.19
	l0.44-0.11l0.46-0.04l0.36,0.02l0.34,0.07l0.32,0.12l0.3,0.17l0.28,0.22l0.26,0.27l0.24,0.31l0.22,0.37l0.19,0.4l0.17,0.42
	l0.14,0.44l0.12,0.46l0.1,0.48l0.07,0.5l0.04,0.52l0.02,0.54l-0.02,0.76l-0.06,0.74l-0.11,0.72l-0.16,0.7l-0.21,0.68l-0.26,0.66
	l-0.3,0.64l-0.35,0.63l-0.38,0.58l-0.39,0.5l-0.4,0.43l-0.41,0.35l-0.42,0.27l-0.42,0.2l-0.43,0.12l-0.44,0.04l-0.35-0.02
	l-0.33-0.07l-0.31-0.11l-0.3-0.17l-0.28-0.21l-0.26-0.26l-0.24-0.31l-0.23-0.36l-0.21-0.4l-0.18-0.42l-0.15-0.45l-0.13-0.48
	l-0.1-0.5l-0.07-0.53l-0.05-0.56L133.88,141.21z M124.23,135.54l-1.31,10.08l2.46-0.03l0.74-0.05l0.33-0.05l0.29-0.07l0.26-0.09
	l0.23-0.1l0.2-0.12l0.17-0.14l0.15-0.17l0.15-0.22l0.14-0.26l0.13-0.31l0.23-0.75l0.2-0.92l0.16-1.02l0.11-1.01l0.06-1.01l0.01-1
	l-0.04-0.62l-0.11-0.55l-0.19-0.47l-0.26-0.41l-0.16-0.17l-0.2-0.15l-0.23-0.12l-0.27-0.1l-0.3-0.08l-0.33-0.06l-0.37-0.03
	l-0.4-0.01L124.23,135.54z M125.5,125.83l-1.16,8.9l1.96-0.02l0.65-0.04l0.57-0.11l0.26-0.09l0.23-0.1l0.21-0.12l0.19-0.14
	l0.17-0.16l0.16-0.2l0.15-0.24l0.14-0.28l0.24-0.67l0.19-0.82l0.15-0.89l0.1-0.88l0.06-0.86l0.01-0.84l-0.05-0.76l-0.06-0.32
	l-0.08-0.28l-0.09-0.24l-0.12-0.2l-0.13-0.16l-0.16-0.12l-0.39-0.17l-0.5-0.12l-0.61-0.07l-0.72-0.02L125.5,125.83z M120.43,145.65
	l2.56-19.79l-2.23,0.03l0.1-0.82l6.12-0.08l0.86,0.02l0.76,0.07l0.66,0.12l0.56,0.17l0.25,0.11l0.24,0.14l0.23,0.16l0.22,0.19
	l0.42,0.46l0.38,0.57l0.32,0.63l0.23,0.67l0.14,0.7l0.05,0.73l-0.01,0.47l-0.04,0.45l-0.08,0.44l-0.11,0.43l-0.15,0.41l-0.18,0.4
	l-0.22,0.39l-0.24,0.38l-0.28,0.36l-0.32,0.32l-0.36,0.3l-0.4,0.26l-0.44,0.24l-0.48,0.2l-0.52,0.17l-0.56,0.14l0,0.08l0.44,0.16
	l0.41,0.19l0.38,0.22l0.35,0.24l0.32,0.27l0.3,0.3l0.27,0.33l0.24,0.36l0.21,0.38l0.18,0.39l0.16,0.4l0.13,0.41l0.1,0.42l0.07,0.43
	l0.05,0.45l0.02,0.46l-0.01,0.43l-0.03,0.43l-0.06,0.42l-0.09,0.41l-0.24,0.79l-0.16,0.39l-0.19,0.38l-0.21,0.36l-0.23,0.33
	l-0.24,0.3l-0.26,0.27l-0.27,0.24l-0.29,0.21l-0.31,0.17l-0.33,0.15l-0.72,0.23l-0.83,0.17l-0.93,0.11l-1.04,0.04l-6.82,0.09
	l0.13-0.81L120.43,145.65z"/>
<path class="st2" d="M188.04,144.13l0.02-0.38l0.07-0.35l0.12-0.32l0.16-0.29l0.2-0.25l0.21-0.18l0.23-0.11l0.25-0.04l0.26,0.03
	l0.24,0.1l0.22,0.17l0.2,0.24l0.17,0.29l0.12,0.32l0.08,0.35l0.03,0.38l-0.02,0.38l-0.06,0.35l-0.11,0.32l-0.16,0.3l-0.2,0.24
	l-0.21,0.18l-0.23,0.11l-0.26,0.04l-0.25-0.03l-0.23-0.1l-0.22-0.18l-0.2-0.25l-0.17-0.29l-0.12-0.32l-0.07-0.34L188.04,144.13z
	 M190.13,139.6l-0.53,0.01l0.15-1.09l0.13-1.13l0.2-2.4l0.11-2.57l0.03-2.74l0.02-1.62l0.07-1.32l0.13-1.03l0.08-0.4l0.09-0.33
	l0.11-0.27l0.12-0.24l0.13-0.2l0.14-0.16l0.15-0.13l0.16-0.09l0.17-0.06l0.18-0.02l0.24,0.03l0.22,0.1l0.2,0.17l0.18,0.24l0.14,0.28
	l0.1,0.3l0.07,0.32l0.03,0.34l-0.04,0.83l-0.15,1l-0.25,1.18l-0.36,1.35l-0.69,2.53l-0.44,1.79l-0.34,1.8l-0.39,2.54L190.13,139.6z
	 M180.91,144.22l0.02-0.38l0.07-0.35l0.12-0.32l0.16-0.29l0.2-0.25l0.21-0.18l0.23-0.11l0.25-0.04l0.26,0.03l0.24,0.1l0.22,0.17
	l0.2,0.24l0.17,0.29l0.12,0.32l0.08,0.35l0.03,0.38l-0.02,0.38l-0.07,0.35l-0.11,0.32l-0.16,0.3l-0.2,0.24l-0.21,0.18l-0.23,0.11
	l-0.26,0.04l-0.25-0.03l-0.23-0.1l-0.22-0.18l-0.2-0.25l-0.17-0.29l-0.12-0.32l-0.07-0.34L180.91,144.22z M183,139.68l-0.53,0.01
	l0.15-1.09l0.13-1.13l0.2-2.4l0.11-2.57l0.03-2.74l0.02-1.62l0.07-1.32l0.13-1.03l0.08-0.4l0.09-0.33l0.11-0.27l0.12-0.24l0.13-0.2
	l0.14-0.16l0.15-0.13l0.16-0.09l0.17-0.06l0.18-0.02l0.24,0.03l0.22,0.1l0.2,0.17l0.18,0.24l0.14,0.28l0.1,0.3l0.07,0.32l0.02,0.33
	l-0.04,0.83l-0.15,1l-0.25,1.18l-0.36,1.35l-0.69,2.53l-0.44,1.79l-0.33,1.8l-0.39,2.54L183,139.68z M175.57,136.47l-0.03-0.59
	l-0.07-0.54l-0.12-0.49l-0.16-0.44l-0.2-0.36l-0.24-0.25l-0.13-0.09l-0.14-0.06l-0.15-0.04l-0.16-0.01l-0.18,0.02l-0.16,0.05
	l-0.16,0.08l-0.15,0.11l-0.14,0.14l-0.13,0.17l-0.24,0.44l-0.23,0.66l-0.24,1l-0.25,1.33l-0.27,1.66l-0.4,2.99l-0.1,0.98l-0.03,0.63
	l0.02,0.37l0.04,0.32l0.07,0.27l0.09,0.22l0.12,0.17l0.14,0.12l0.16,0.07l0.19,0.02l0.3-0.04l0.3-0.13l0.3-0.22l0.3-0.3l0.15-0.2
	l0.16-0.26l0.32-0.7l0.34-0.93l0.36-1.17l0.31-1.27l0.22-1.25l0.13-1.23L175.57,136.47z M178.24,133.11l-1.34,9.11l-0.14,1.09
	l-0.04,0.83l0.02,0.29l0.06,0.2l0.1,0.12l0.14,0.04l0.07-0.01l0.07-0.05l0.17-0.17l0.19-0.29l0.22-0.4l0.23-0.52l0.23-0.63
	l0.23-0.74l0.23-0.85l0.45-0.01l-0.29,1.21l-0.32,1.04l-0.34,0.87l-0.18,0.37l-0.19,0.33l-0.38,0.53l-0.38,0.38l-0.19,0.13
	l-0.19,0.1l-0.18,0.06l-0.18,0.02l-0.32-0.04l-0.14-0.06l-0.14-0.08l-0.24-0.23l-0.2-0.32l-0.17-0.41l-0.13-0.5l-0.09-0.6
	l-0.05-0.69l-0.05,0l-0.24,0.7l-0.27,0.6l-0.29,0.51l-0.32,0.42l-0.34,0.32l-0.37,0.24l-0.39,0.14l-0.42,0.05l-0.26-0.02l-0.25-0.07
	l-0.24-0.11l-0.23-0.16l-0.22-0.2l-0.22-0.25l-0.21-0.29l-0.2-0.34l-0.18-0.38l-0.16-0.39l-0.14-0.42l-0.11-0.44l-0.09-0.46
	l-0.06-0.47l-0.04-0.5l-0.02-0.51l0.01-0.81l0.06-0.79l0.11-0.76l0.16-0.74l0.21-0.72l0.26-0.69l0.31-0.67l0.36-0.64l0.38-0.59
	l0.38-0.51l0.38-0.44l0.38-0.36l0.39-0.28l0.38-0.2l0.38-0.12l0.38-0.05l0.35,0.03l0.31,0.11l0.28,0.18l0.24,0.26l0.21,0.33
	l0.17,0.41l0.13,0.48l0.1,0.55h0.04l0.29-2.09L178.24,133.11z M162.51,138.83l-0.24,1.66l-0.21,1.8l-0.05,0.73l-0.01,0.61l0.03,0.46
	l0.07,0.4l0.11,0.34l0.16,0.28l0.19,0.22l0.21,0.15l0.23,0.09l0.25,0.03l0.18-0.02l0.17-0.05l0.16-0.07l0.16-0.1l0.29-0.29l0.26-0.4
	l0.12-0.28l0.13-0.37l0.26-1.01l0.27-1.38l0.28-1.74l0.42-3.12l0.1-1l0.03-0.63l-0.02-0.33l-0.05-0.29l-0.08-0.25l-0.1-0.2
	l-0.14-0.15l-0.16-0.11l-0.19-0.07l-0.22-0.02l-0.17,0.02l-0.18,0.05l-0.18,0.08l-0.18,0.12l-0.36,0.33l-0.36,0.47l-0.18,0.29
	l-0.17,0.36l-0.16,0.41l-0.15,0.47l-0.27,1.13L162.51,138.83z M164.65,124.29l-1.52,10.51l0.05,0.06l0.22-0.45l0.24-0.39l0.24-0.34
	l0.26-0.28l0.27-0.21l0.29-0.15l0.3-0.09l0.31-0.04l0.27,0.02l0.26,0.06l0.25,0.1l0.24,0.14l0.24,0.18l0.22,0.23l0.21,0.27l0.2,0.31
	l0.19,0.34l0.16,0.37l0.14,0.4l0.12,0.43l0.09,0.46l0.07,0.48l0.04,0.51l0.02,0.54l-0.02,0.79l-0.07,0.77l-0.12,0.75l-0.17,0.74
	l-0.22,0.73l-0.27,0.71l-0.32,0.7l-0.37,0.68l-0.4,0.63l-0.41,0.55l-0.42,0.46l-0.43,0.38l-0.45,0.3l-0.46,0.21l-0.47,0.13
	l-0.47,0.05l-0.29-0.01l-0.27-0.04l-0.26-0.08l-0.26-0.11l-0.24-0.14l-0.23-0.17l-0.22-0.2l-0.21-0.24l-0.19-0.26l-0.17-0.28
	l-0.14-0.3l-0.12-0.32l-0.09-0.34l-0.07-0.36l-0.04-0.39l-0.02-0.41l0-0.68l0.03-0.64l0.05-0.59l0.08-0.54l0.11-0.59l2.1-14.27
	l-1.3,0.02l0.1-0.82l1.26-0.02l0.56-0.02l0.54-0.05l0.51-0.08L164.65,124.29z M147.39,133.32l-0.52,3.5l0.04,0.07l0.41-0.87
	l0.42-0.75l0.42-0.64l0.43-0.52l0.44-0.41l0.45-0.29l0.23-0.1l0.23-0.08l0.23-0.04l0.23-0.02l0.39,0.04l0.35,0.12l0.3,0.2l0.26,0.29
	l0.2,0.34l0.14,0.35l0.09,0.37l0.03,0.39l-0.09,1.37l0.05,0.06l0.4-0.84l0.42-0.73l0.43-0.62l0.45-0.51l0.46-0.4l0.24-0.15
	l0.24-0.13l0.24-0.1l0.25-0.07l0.25-0.04l0.25-0.02l0.32,0.03l0.3,0.11l0.27,0.18l0.25,0.26l0.21,0.32l0.15,0.36l0.09,0.41
	l0.04,0.45l-0.04,0.74l-0.13,0.96l-0.92,5.98l-0.12,0.93l-0.04,0.48l0.02,0.3l0.06,0.21l0.1,0.13l0.14,0.04l0.17-0.05l0.2-0.16
	l0.23-0.26l0.25-0.37l0.26-0.49l0.24-0.62l0.23-0.75l0.21-0.89l0.51,0l-0.25,1.12l-0.3,0.98l-0.17,0.43l-0.18,0.4l-0.2,0.36
	l-0.21,0.32l-0.43,0.54l-0.22,0.21l-0.21,0.17l-0.21,0.14l-0.21,0.1l-0.21,0.06l-0.22,0.02l-0.34-0.03l-0.31-0.1l-0.28-0.16
	l-0.24-0.23l-0.2-0.3l-0.15-0.36l-0.09-0.43l-0.03-0.49l0.04-0.56l0.13-0.87l0.96-6.09l0.11-0.71l0.06-0.82l-0.05-0.3l-0.13-0.26
	l-0.09-0.11l-0.1-0.08l-0.1-0.05l-0.11-0.01l-0.16,0.03l-0.18,0.08l-0.19,0.13l-0.21,0.17l-0.47,0.5l-0.53,0.7l-0.27,0.43l-0.26,0.5
	l-0.24,0.56l-0.22,0.62l-0.2,0.69l-0.18,0.75l-0.16,0.82l-0.15,0.89l-0.72,4.9l-2.06,0.03l1.28-8.68l0.19-1.33l0.06-0.76l-0.04-0.35
	l-0.13-0.33l-0.09-0.14l-0.1-0.1l-0.11-0.06l-0.12-0.02l-0.17,0.03l-0.18,0.08l-0.2,0.14l-0.21,0.19l-0.22,0.25l-0.23,0.3
	l-0.51,0.78l-0.26,0.47l-0.24,0.52l-0.23,0.57l-0.21,0.62l-0.19,0.68l-0.17,0.73l-0.16,0.78l-0.13,0.83l-0.72,4.81l-2.07,0.02
	l1.78-11.74l-1.83,0.02l0.1-0.82l1.72-0.02l0.57-0.02l0.55-0.06l0.54-0.09L147.39,133.32z M139.82,136l-0.02-0.42l-0.06-0.38
	l-0.1-0.34l-0.14-0.3l-0.18-0.24l-0.21-0.17l-0.24-0.1l-0.28-0.03l-0.21,0.02l-0.2,0.05l-0.18,0.08l-0.16,0.12l-0.15,0.15
	l-0.13,0.18l-0.12,0.21l-0.1,0.25l-0.2,0.66l-0.22,0.93l-0.24,1.2l-0.26,1.48l-0.24,1.5l-0.16,1.28l-0.1,1.06l-0.03,0.84l0.03,0.44
	l0.07,0.38l0.11,0.32l0.16,0.27l0.18,0.21l0.2,0.15l0.22,0.09l0.23,0.03l0.17-0.02l0.16-0.05l0.16-0.09l0.15-0.12l0.15-0.16
	l0.14-0.19l0.26-0.48l0.25-0.61l0.23-0.75l0.2-0.89l0.18-1.02l0.3-1.98l0.21-1.59l0.12-1.2L139.82,136z M133.88,141.21l0.02-0.77
	l0.06-0.75l0.11-0.73l0.16-0.7l0.2-0.68l0.25-0.65l0.3-0.63l0.35-0.61l0.37-0.56l0.39-0.48l0.4-0.41l0.41-0.34l0.42-0.26l0.43-0.19
	l0.44-0.11l0.46-0.04l0.36,0.02l0.34,0.07l0.32,0.12l0.3,0.17l0.28,0.22l0.26,0.27l0.24,0.31l0.22,0.37l0.19,0.4l0.17,0.42
	l0.14,0.44l0.12,0.46l0.1,0.48l0.07,0.5l0.04,0.52l0.02,0.54l-0.02,0.76l-0.06,0.74l-0.11,0.72l-0.16,0.7l-0.21,0.68l-0.26,0.66
	l-0.3,0.64l-0.35,0.63l-0.38,0.58l-0.39,0.5l-0.4,0.43l-0.41,0.35l-0.42,0.27l-0.42,0.2l-0.43,0.12l-0.44,0.04l-0.35-0.02
	l-0.33-0.07l-0.31-0.11l-0.3-0.17l-0.28-0.21l-0.26-0.26l-0.24-0.31l-0.23-0.36l-0.21-0.4l-0.18-0.42l-0.15-0.45l-0.13-0.48
	l-0.1-0.5l-0.07-0.53l-0.05-0.56L133.88,141.21z M124.23,135.54l-1.31,10.08l2.46-0.03l0.74-0.05l0.33-0.05l0.29-0.07l0.26-0.09
	l0.23-0.1l0.2-0.12l0.17-0.14l0.15-0.17l0.15-0.22l0.14-0.26l0.13-0.31l0.23-0.75l0.2-0.92l0.16-1.02l0.11-1.01l0.06-1.01l0.01-1
	l-0.04-0.62l-0.11-0.55l-0.19-0.47l-0.26-0.41l-0.16-0.17l-0.2-0.15l-0.23-0.12l-0.27-0.1l-0.3-0.08l-0.33-0.06l-0.37-0.03
	l-0.4-0.01L124.23,135.54z M125.5,125.83l-1.16,8.9l1.96-0.02l0.65-0.04l0.57-0.11l0.26-0.09l0.23-0.1l0.21-0.12l0.19-0.14
	l0.17-0.16l0.16-0.2l0.15-0.24l0.14-0.28l0.24-0.67l0.19-0.82l0.15-0.89l0.1-0.88l0.06-0.86l0.01-0.84l-0.05-0.76l-0.06-0.32
	l-0.08-0.28l-0.09-0.24l-0.12-0.2l-0.13-0.16l-0.16-0.12l-0.39-0.17l-0.5-0.12l-0.61-0.07l-0.72-0.02L125.5,125.83z M120.43,145.65
	l2.56-19.79l-2.23,0.03l0.1-0.82l6.12-0.08l0.86,0.02l0.76,0.07l0.66,0.12l0.56,0.17l0.25,0.11l0.24,0.14l0.23,0.16l0.22,0.19
	l0.42,0.46l0.38,0.57l0.32,0.63l0.23,0.67l0.14,0.7l0.05,0.73l-0.01,0.47l-0.04,0.45l-0.08,0.44l-0.11,0.43l-0.15,0.41l-0.18,0.4
	l-0.22,0.39l-0.24,0.38l-0.28,0.36l-0.32,0.32l-0.36,0.3l-0.4,0.26l-0.44,0.24l-0.48,0.2l-0.52,0.17l-0.56,0.14l0,0.08l0.44,0.16
	l0.41,0.19l0.38,0.22l0.35,0.24l0.32,0.27l0.3,0.3l0.27,0.33l0.24,0.36l0.21,0.38l0.18,0.39l0.16,0.4l0.13,0.41l0.1,0.42l0.07,0.43
	l0.05,0.45l0.02,0.46l-0.01,0.43l-0.03,0.43l-0.06,0.42l-0.09,0.41l-0.24,0.79l-0.16,0.39l-0.19,0.38l-0.21,0.36l-0.23,0.33
	l-0.24,0.3l-0.26,0.27l-0.27,0.24l-0.29,0.21l-0.31,0.17l-0.33,0.15l-0.72,0.23l-0.83,0.17l-0.93,0.11l-1.04,0.04l-6.82,0.09
	l0.13-0.81L120.43,145.65z"/>
</svg>
