<?xml version="1.0" encoding="utf-8"?>
<!-- Generator: Adobe Illustrator 28.2.0, SVG Export Plug-In . SVG Version: 6.00 Build 0)  -->
<svg version="1.1" id="Layer_1" xmlns="http://www.w3.org/2000/svg" xmlns:xlink="http://www.w3.org/1999/xlink" x="0px" y="0px"
	 viewBox="0 0 215 150" style="enable-background:new 0 0 215 150;" xml:space="preserve">
<style type="text/css">
	.st0{fill:#01779B;}
	.st1{fill:#010101;}
	.st2{fill:none;stroke:#010101;stroke-width:0.216;stroke-miterlimit:22.9256;}
</style>
<path class="st0" d="M145.51,16.95l-2.53,3.81c-0.33,0.48-0.59,0.81-0.79,0.99c-0.2,0.18-0.42,0.26-0.66,0.26
	c-0.38,0-0.69-0.2-0.95-0.62c-0.26-0.41-0.39-0.92-0.39-1.52c0-0.37,0.04-0.78,0.12-1.22c0.08-0.44,0.23-1.09,0.46-1.96
	c0.04-0.18,0.09-0.34,0.12-0.47c0.04-0.13,0.07-0.24,0.1-0.33l-0.04-0.05c-0.6,0.92-1.19,1.89-1.76,2.92
	c-0.48,0.84-0.86,1.47-1.15,1.89c-0.29,0.41-0.54,0.73-0.77,0.94c-0.23,0.21-0.43,0.31-0.61,0.31c-0.4,0-0.72-0.23-0.96-0.69
	c-0.23-0.46-0.35-1.1-0.35-1.89c0-1.01,0.3-2.63,0.89-4.88c0.53-2,0.94-3.33,1.24-4.01c0.43-0.94,0.92-1.42,1.47-1.42
	c0.33,0,0.61,0.12,0.83,0.35c0.22,0.23,0.33,0.53,0.33,0.91c0,0.68-0.18,1.72-0.53,3.12c-0.14,0.52-0.28,1.11-0.42,1.76l0.03,0.06
	c0.23-0.38,0.6-1.02,1.11-1.92c0.87-1.58,1.53-2.66,1.98-3.23c0.57-0.78,1.1-1.17,1.57-1.17c0.21,0,0.41,0.1,0.6,0.31
	c0.19,0.21,0.35,0.49,0.46,0.84c0.11,0.35,0.17,0.71,0.17,1.1c0,0.39-0.19,1.39-0.56,3c-0.08,0.33-0.14,0.6-0.18,0.79
	c-0.04,0.19-0.08,0.35-0.12,0.49l0.04,0.06c0.09-0.13,0.16-0.24,0.23-0.34c0.07-0.1,0.15-0.2,0.23-0.32
	c0.08-0.11,0.16-0.22,0.23-0.32c0.17-0.23,0.59-0.85,1.26-1.86c0.44-0.73,0.79-1.23,1.05-1.49c0.25-0.27,0.5-0.4,0.73-0.4
	c0.38,0,0.67,0.2,0.88,0.58c0.2,0.39,0.3,0.95,0.3,1.7c0,0.46-0.05,1.19-0.15,2.19c-0.09,1.13-0.15,2.01-0.18,2.65
	c-0.03,0.64-0.05,1.09-0.05,1.34c0,0.19,0.01,0.43,0.02,0.73c0.02,0.29,0.04,0.61,0.08,0.95c0.03,0.33,0.08,0.71,0.14,1.11
	c0.07,0.5,0.12,0.89,0.14,1.17c-0.05,0.32-0.21,0.6-0.48,0.83c-0.27,0.23-0.57,0.34-0.89,0.34c-0.51,0-0.98-0.33-1.42-1.01
	c-0.2-0.31-0.35-0.62-0.46-0.93c-0.11-0.31-0.19-0.68-0.23-1.11c-0.05-0.43-0.07-1-0.07-1.71c0-0.46,0.04-1.42,0.11-2.87l-0.04-0.06
	L145.51,16.95z M125.45,18.11c0.07,0.54,0.31,0.82,0.73,0.82c0.46,0,1.06-0.4,1.81-1.2c0.43-0.46,0.72-0.7,0.87-0.7
	c0.18,0,0.36,0.07,0.52,0.22c0.16,0.14,0.24,0.29,0.24,0.45c0,0.16-0.09,0.38-0.27,0.64c-0.33,0.48-0.71,0.95-1.13,1.41
	c-0.43,0.46-0.84,0.84-1.24,1.14c-0.4,0.31-0.79,0.55-1.19,0.72c-0.4,0.18-0.75,0.26-1.06,0.26c-0.77,0-1.39-0.32-1.85-0.97
	c-0.47-0.65-0.7-1.51-0.7-2.6c0-0.83,0.12-1.76,0.37-2.8c0.24-1.04,0.57-2.01,0.99-2.92c0.49-1.06,1.09-1.95,1.8-2.66
	c0.88-0.85,1.72-1.28,2.52-1.28c0.58,0,1.04,0.27,1.37,0.81c0.33,0.54,0.5,1.28,0.5,2.23c0,0.73-0.13,1.5-0.39,2.3
	c-0.26,0.8-0.65,1.57-1.17,2.3c-0.42,0.62-0.83,1.1-1.24,1.44c-0.41,0.35-0.76,0.52-1.06,0.52
	C125.73,18.26,125.59,18.21,125.45,18.11z M125.43,17.67c0.29-0.28,0.5-0.57,0.65-0.85c0.33-0.59,0.58-1.27,0.76-2.04
	c0.14-0.5,0.25-1.06,0.33-1.68c0.08-0.62,0.12-1.2,0.12-1.73c0-0.5-0.07-0.75-0.21-0.75c-0.2,0-0.5,0.64-0.91,1.93
	c-0.24,0.78-0.44,1.55-0.59,2.31c-0.15,0.77-0.23,1.43-0.23,1.99C125.36,17.04,125.38,17.31,125.43,17.67z M117.53,9.44l0.09-0.56
	c0.19-1.24,0.36-2.25,0.52-3.01c0.16-0.77,0.31-1.42,0.48-1.95c0.16-0.53,0.33-0.91,0.49-1.15c0.26-0.41,0.73-0.61,1.4-0.61
	c0.3,0,0.52,0.02,0.66,0.07c0.15,0.04,0.26,0.13,0.35,0.24c-0.3,1.35-0.5,2.37-0.62,3.04c-0.11,0.68-0.24,1.6-0.38,2.78
	c-0.21,1.93-0.32,3.66-0.32,5.21c0,1.02,0.06,2.08,0.17,3.19c0.11,1.1,0.3,2.33,0.57,3.68c-0.33,0.34-0.64,0.62-0.94,0.86
	c-0.3,0.24-0.58,0.42-0.85,0.56s-0.51,0.2-0.71,0.2c-0.36,0-0.61-0.26-0.76-0.78c-0.12-0.43-0.21-0.77-0.24-1.03
	c-0.04-0.26-0.1-0.97-0.2-2.15c-0.83,1.27-1.62,2.27-2.38,3c-0.76,0.73-1.36,1.1-1.81,1.1c-0.52,0-0.95-0.31-1.28-0.93
	c-0.33-0.62-0.5-1.42-0.5-2.4c0-0.88,0.13-1.86,0.39-2.93c0.26-1.08,0.61-2.12,1.06-3.12c0.3-0.66,0.6-1.22,0.92-1.68
	c0.31-0.46,0.67-0.88,1.06-1.27c0.72-0.69,1.32-1.04,1.8-1.04C116.73,8.76,117.08,8.99,117.53,9.44z M117.24,15.89v-0.78
	c-0.32,0.41-0.55,0.61-0.71,0.61c-0.09,0-0.13-0.07-0.13-0.19c0-0.06,0.02-0.17,0.05-0.34c0.13-0.55,0.19-1.07,0.19-1.58
	c0-0.73-0.11-1.5-0.32-2.29c-0.09-0.41-0.21-0.61-0.34-0.61c-0.07,0-0.12,0.05-0.17,0.13c-0.2,0.35-0.4,0.84-0.58,1.47
	c-0.18,0.63-0.34,1.31-0.46,2.05c-0.12,0.74-0.18,1.4-0.18,1.97c0,1.08,0.22,1.62,0.67,1.62c0.22,0,0.52-0.19,0.89-0.58
	C116.53,16.98,116.9,16.49,117.24,15.89z M103.28,17.73l-0.04,0.27c0,0.15-0.01,0.38-0.04,0.66c-0.03,0.45-0.06,0.81-0.1,1.09
	c-0.04,0.28-0.11,0.51-0.2,0.7c-0.09,0.19-0.2,0.39-0.35,0.59c-0.45,0.61-0.91,0.91-1.36,0.91c-0.37,0-0.65-0.2-0.82-0.6
	c-0.17-0.4-0.26-1.04-0.26-1.93c0-0.71,0.05-1.58,0.16-2.62c0.11-1.04,0.24-1.97,0.4-2.79l0.07-0.35c0-0.05,0.02-0.17,0.06-0.34
	c0.23-1.23,0.44-2.15,0.63-2.74c0.19-0.59,0.42-1.07,0.7-1.43c0.24-0.28,0.51-0.42,0.82-0.42c0.44,0,0.71,0.39,0.8,1.17
	c0.09-0.11,0.17-0.24,0.25-0.38c0.18-0.32,0.32-0.53,0.41-0.63c0.1-0.11,0.22-0.16,0.35-0.16c0.53,0,0.8,0.77,0.8,2.31
	c0,0.84-0.06,1.66-0.19,2.45c-0.12,0.79-0.28,1.43-0.47,1.93c-0.19,0.5-0.38,0.75-0.56,0.75c-0.21,0-0.31-0.57-0.31-1.7
	c0-0.6-0.02-1.07-0.07-1.41c-0.04-0.34-0.12-0.6-0.22-0.79c-0.19,0.51-0.31,1.67-0.36,3.48C103.32,16.8,103.3,17.46,103.28,17.73z
	 M97.86,8.31c-0.58-0.03-0.87-0.54-0.87-1.54c0-0.5,0.09-1.08,0.25-1.74c0.17-0.65,0.36-1.14,0.58-1.46
	c0.11-0.18,0.22-0.3,0.34-0.37c0.11-0.07,0.26-0.11,0.44-0.11c0.31,0,0.54,0.11,0.68,0.33c0.15,0.22,0.22,0.59,0.22,1.11
	c0,0.65-0.08,1.26-0.23,1.83c-0.15,0.58-0.35,1.04-0.6,1.4c-0.25,0.36-0.51,0.54-0.78,0.54H97.86z M96.74,22.02
	c-0.28-0.03-0.53-0.21-0.76-0.56c-0.23-0.36-0.39-0.76-0.49-1.18c-0.1-0.42-0.14-0.97-0.14-1.64c0-1.5,0.19-3.18,0.57-5.07
	c0.38-1.88,0.81-3.25,1.29-4.09c0.19-0.35,0.46-0.53,0.79-0.53c0.36,0,0.65,0.24,0.86,0.72c0.22,0.48,0.33,1.11,0.33,1.89
	c0,1.15-0.11,2.5-0.34,4.05c-0.22,1.55-0.54,3.16-0.95,4.83c-0.16,0.67-0.36,1.12-0.59,1.36c-0.16,0.14-0.35,0.22-0.56,0.22H96.74z
	 M91.69,11.69c0.24-1.02,0.45-2.09,0.62-3.21c0.16-1.11,0.25-1.97,0.25-2.57c0-0.16-0.03-0.25-0.09-0.25c-0.1,0-0.27,0.32-0.52,0.97
	c-0.25,0.65-0.45,1.3-0.62,1.97c-0.35,1.48-0.63,2.7-0.82,3.67c-0.19,0.97-0.33,1.79-0.4,2.45c-0.07,0.66-0.11,1.33-0.11,2.02
	c0,0.58,0.04,1.02,0.13,1.29c0.09,0.27,0.23,0.41,0.43,0.41c0.34,0,0.72-0.22,1.14-0.66c0.42-0.44,0.8-1.02,1.14-1.74
	c0.27-0.53,0.47-0.8,0.62-0.8c0.19,0,0.28,0.22,0.28,0.67c0,0.97-0.21,1.92-0.62,2.85c-0.41,0.92-0.94,1.68-1.6,2.25
	c-0.65,0.58-1.31,0.86-1.99,0.86c-0.83,0-1.51-0.39-2.04-1.16c-0.52-0.77-0.79-1.77-0.79-3.01c0-1.02,0.15-2.21,0.44-3.57
	c0.3-1.36,0.69-2.74,1.19-4.12c0.5-1.38,1.04-2.63,1.63-3.76c0.59-1.12,1.18-1.98,1.76-2.58c0.36-0.39,0.76-0.58,1.2-0.58
	c0.33,0,0.63,0.15,0.91,0.45c0.27,0.3,0.48,0.72,0.63,1.27c0.15,0.54,0.22,1.15,0.22,1.81c0,1.42-0.19,2.81-0.57,4.17
	c-0.38,1.36-0.91,2.53-1.58,3.53c-0.32,0.48-0.63,0.85-0.92,1.12c-0.3,0.27-0.56,0.41-0.78,0.41c-0.22,0-0.32-0.12-0.32-0.37
	c0-0.13,0.08-0.39,0.24-0.77c0.21-0.5,0.47-1.25,0.75-2.25c0.03-0.1,0.05-0.2,0.08-0.32C91.62,12.04,91.65,11.88,91.69,11.69z
	 M82.55,17.92v0.06l-0.04-0.06c-0.58,0.99-1.1,1.8-1.58,2.43c-0.48,0.63-0.92,1.1-1.33,1.42c-0.41,0.31-0.78,0.47-1.12,0.47
	c-0.69,0-1.26-0.34-1.72-1.02c-0.45-0.68-0.68-1.54-0.68-2.58c0-0.64,0.11-1.4,0.33-2.28c0.23-0.88,0.53-1.74,0.92-2.58
	c0.65-1.37,1.47-2.54,2.45-3.51c1.01-0.99,1.99-1.48,2.93-1.48c0.79,0,1.44,0.24,1.95,0.71c0.51,0.48,0.77,1.08,0.77,1.8
	c0,0.53-0.13,1.1-0.38,1.69c0.33,0,0.54,0.05,0.63,0.16c0.09,0.1,0.13,0.34,0.13,0.73c0-0.04-0.02,0.15-0.04,0.56
	c-0.03,0.9-0.05,1.74-0.05,2.52c0,0.41,0,0.72,0.01,0.93c0.01,0.21,0.02,0.45,0.04,0.72c0.02,0.27,0.03,0.49,0.05,0.65
	c0.05,0.43,0.13,0.85,0.24,1.27c-0.37,0.53-0.73,0.93-1.07,1.17c-0.34,0.25-0.69,0.38-1.04,0.38c-0.95,0-1.43-1.17-1.43-3.51
	C82.53,18.29,82.53,18.08,82.55,17.92z M83.1,14.81l-0.18,0.08c-0.44,0.18-0.76,0.27-0.96,0.27c-0.24,0-0.36-0.09-0.36-0.27
	c0-0.06,0.05-0.23,0.15-0.5c0.35-0.78,0.52-1.5,0.52-2.18c0-0.39-0.05-0.75-0.14-1.07c-0.09-0.32-0.19-0.48-0.31-0.48
	c-0.1,0-0.25,0.15-0.45,0.46c-0.58,0.91-1.03,1.85-1.37,2.81c-0.34,0.96-0.51,1.82-0.51,2.57c0,0.5,0.07,0.91,0.21,1.24
	c0.14,0.32,0.31,0.49,0.53,0.49c0.18,0,0.51-0.28,1-0.84c0.49-0.56,1.05-1.3,1.66-2.22l0.25-0.3L83.1,14.81z M70.44,22.46
	c0.36-0.03,0.7-0.29,0.99-0.78c0.3-0.5,0.45-1.04,0.45-1.61c0-0.4-0.09-0.72-0.27-0.95c-0.19-0.28-0.62-0.56-1.29-0.83
	c-0.99-0.42-1.62-0.88-1.92-1.4c-0.28-0.42-0.42-0.91-0.42-1.49c0-1.04,0.26-2.08,0.78-3.13c0.52-1.04,1.18-1.89,1.98-2.56
	c0.8-0.66,1.62-1,2.43-1c0.4,0,0.77,0.13,1.11,0.41c0.35,0.27,0.62,0.63,0.82,1.08c0.21,0.45,0.31,0.94,0.31,1.46
	c0,0.52-0.11,1.05-0.33,1.61c-0.23,0.55-0.5,1.01-0.84,1.38c-0.34,0.37-0.66,0.55-0.96,0.55c-0.17,0-0.32-0.06-0.45-0.16
	c-0.13-0.11-0.19-0.23-0.19-0.35c0-0.13,0.03-0.32,0.08-0.56c0.14-0.78,0.21-1.46,0.21-2.04c0-0.57-0.12-1.11-0.35-1.62
	c-0.3,0.31-0.5,0.55-0.59,0.73c-0.24,0.4-0.42,0.85-0.55,1.36c-0.14,0.52-0.22,1.01-0.22,1.47c0,0.32,0.05,0.59,0.16,0.78
	c0.1,0.2,0.27,0.36,0.5,0.5c0.23,0.14,0.58,0.29,1.05,0.45c0.79,0.28,1.34,0.55,1.66,0.82c0.08,0.07,0.19,0.2,0.35,0.39
	c0.23,0.37,0.35,0.85,0.35,1.44c0,0.63-0.13,1.26-0.4,1.9c-0.27,0.64-0.68,1.3-1.24,1.98c-0.59,0.74-1.18,1.26-1.77,1.58
	c-0.59,0.32-1.24,0.48-1.95,0.48c-0.68,0-1.23-0.2-1.62-0.6c-0.39-0.4-0.59-0.94-0.59-1.63c0-0.49,0.13-0.99,0.39-1.49
	c0.26-0.51,0.58-0.91,0.97-1.23c0.39-0.32,0.77-0.48,1.13-0.48c0.28,0,0.42,0.09,0.42,0.27c0,0.09-0.04,0.24-0.12,0.45
	c-0.24,0.64-0.36,1.22-0.36,1.76C70.15,21.76,70.25,22.12,70.44,22.46z M58.94,11.69c0.24-1.02,0.45-2.09,0.62-3.21
	c0.16-1.11,0.25-1.97,0.25-2.57c0-0.16-0.03-0.25-0.09-0.25c-0.1,0-0.27,0.32-0.52,0.97c-0.25,0.65-0.45,1.3-0.62,1.97
	c-0.35,1.48-0.63,2.7-0.82,3.67c-0.19,0.97-0.33,1.79-0.4,2.45c-0.07,0.66-0.11,1.33-0.11,2.02c0,0.58,0.04,1.02,0.13,1.29
	c0.09,0.27,0.23,0.41,0.43,0.41c0.34,0,0.72-0.22,1.14-0.66c0.42-0.44,0.8-1.02,1.14-1.74c0.27-0.53,0.47-0.8,0.62-0.8
	c0.19,0,0.28,0.22,0.28,0.67c0,0.97-0.21,1.92-0.62,2.85c-0.41,0.92-0.94,1.68-1.6,2.25c-0.65,0.58-1.31,0.86-1.99,0.86
	c-0.83,0-1.51-0.39-2.04-1.16c-0.52-0.77-0.79-1.77-0.79-3.01c0-1.02,0.15-2.21,0.44-3.57c0.3-1.36,0.69-2.74,1.19-4.12
	c0.5-1.38,1.04-2.63,1.63-3.76c0.59-1.12,1.18-1.98,1.76-2.58c0.36-0.39,0.76-0.58,1.2-0.58c0.33,0,0.63,0.15,0.91,0.45
	c0.27,0.3,0.48,0.72,0.63,1.27c0.15,0.54,0.22,1.15,0.22,1.81c0,1.42-0.19,2.81-0.57,4.17c-0.38,1.36-0.91,2.53-1.58,3.53
	c-0.32,0.48-0.63,0.85-0.92,1.12c-0.3,0.27-0.56,0.41-0.78,0.41c-0.22,0-0.32-0.12-0.32-0.37c0-0.13,0.08-0.39,0.24-0.77
	c0.21-0.5,0.47-1.25,0.75-2.25c0.03-0.1,0.05-0.2,0.08-0.32C58.86,12.04,58.9,11.88,58.94,11.69z M49.79,17.92v0.06l-0.04-0.06
	c-0.58,0.99-1.1,1.8-1.58,2.43c-0.48,0.63-0.92,1.1-1.33,1.42c-0.41,0.31-0.78,0.47-1.12,0.47c-0.69,0-1.26-0.34-1.72-1.02
	c-0.45-0.68-0.68-1.54-0.68-2.58c0-0.64,0.11-1.4,0.33-2.28c0.22-0.88,0.53-1.74,0.92-2.58c0.65-1.37,1.47-2.54,2.45-3.51
	c1.01-0.99,1.99-1.48,2.93-1.48c0.79,0,1.44,0.24,1.95,0.71c0.51,0.48,0.77,1.08,0.77,1.8c0,0.53-0.13,1.1-0.38,1.69
	c0.33,0,0.54,0.05,0.63,0.16c0.09,0.1,0.13,0.34,0.13,0.73c0-0.04-0.02,0.15-0.04,0.56c-0.03,0.9-0.05,1.74-0.05,2.52
	c0,0.41,0,0.72,0.01,0.93c0.01,0.21,0.02,0.45,0.04,0.72c0.02,0.27,0.03,0.49,0.05,0.65c0.05,0.43,0.13,0.85,0.24,1.27
	c-0.37,0.53-0.73,0.93-1.07,1.17c-0.34,0.25-0.69,0.38-1.04,0.38c-0.95,0-1.43-1.17-1.43-3.51C49.77,18.29,49.78,18.08,49.79,17.92z
	 M50.34,14.81l-0.18,0.08c-0.44,0.18-0.76,0.27-0.96,0.27c-0.24,0-0.36-0.09-0.36-0.27c0-0.06,0.05-0.23,0.15-0.5
	c0.35-0.78,0.52-1.5,0.52-2.18c0-0.39-0.05-0.75-0.14-1.07c-0.09-0.32-0.19-0.48-0.31-0.48c-0.1,0-0.25,0.15-0.45,0.46
	c-0.58,0.91-1.03,1.85-1.37,2.81c-0.34,0.96-0.51,1.82-0.51,2.57c0,0.5,0.07,0.91,0.21,1.24c0.14,0.32,0.31,0.49,0.53,0.49
	c0.18,0,0.51-0.28,1-0.84c0.49-0.56,1.05-1.3,1.66-2.22l0.25-0.3L50.34,14.81z M35.37,17.73l-0.04,0.27c0,0.15-0.01,0.38-0.04,0.66
	c-0.03,0.45-0.06,0.81-0.1,1.09c-0.04,0.28-0.11,0.51-0.2,0.7c-0.09,0.19-0.2,0.39-0.35,0.59c-0.45,0.61-0.91,0.91-1.36,0.91
	c-0.37,0-0.65-0.2-0.82-0.6c-0.17-0.4-0.26-1.04-0.26-1.93c0-0.71,0.05-1.58,0.16-2.62c0.11-1.04,0.24-1.97,0.4-2.79l0.07-0.35
	c0-0.05,0.02-0.17,0.06-0.34c0.23-1.23,0.44-2.15,0.63-2.74c0.19-0.59,0.42-1.07,0.7-1.43c0.24-0.28,0.51-0.42,0.82-0.42
	c0.44,0,0.71,0.39,0.8,1.17c0.09-0.11,0.17-0.24,0.25-0.38c0.18-0.32,0.32-0.53,0.41-0.63c0.1-0.11,0.22-0.16,0.35-0.16
	c0.53,0,0.8,0.77,0.8,2.31c0,0.84-0.06,1.66-0.19,2.45c-0.12,0.79-0.28,1.43-0.47,1.93c-0.19,0.5-0.38,0.75-0.56,0.75
	c-0.21,0-0.31-0.57-0.31-1.7c0-0.6-0.02-1.07-0.07-1.41c-0.04-0.34-0.12-0.6-0.22-0.79c-0.19,0.51-0.31,1.67-0.36,3.48
	C35.42,16.8,35.39,17.46,35.37,17.73z M27.33,18.11c0.07,0.54,0.31,0.82,0.73,0.82c0.46,0,1.06-0.4,1.81-1.2
	c0.43-0.46,0.72-0.7,0.87-0.7c0.18,0,0.36,0.07,0.52,0.22c0.16,0.14,0.24,0.29,0.24,0.45c0,0.16-0.09,0.38-0.27,0.64
	c-0.33,0.48-0.71,0.95-1.13,1.41c-0.43,0.46-0.84,0.84-1.24,1.14c-0.4,0.31-0.79,0.55-1.19,0.72c-0.4,0.18-0.75,0.26-1.06,0.26
	c-0.77,0-1.39-0.32-1.85-0.97c-0.47-0.65-0.7-1.51-0.7-2.6c0-0.83,0.12-1.76,0.37-2.8c0.24-1.04,0.57-2.01,0.99-2.92
	c0.49-1.06,1.09-1.95,1.8-2.66c0.88-0.85,1.72-1.28,2.52-1.28c0.58,0,1.04,0.27,1.37,0.81c0.33,0.54,0.5,1.28,0.5,2.23
	c0,0.73-0.13,1.5-0.39,2.3c-0.26,0.8-0.65,1.57-1.17,2.3c-0.42,0.62-0.83,1.1-1.24,1.44c-0.41,0.35-0.76,0.52-1.06,0.52
	C27.62,18.26,27.48,18.21,27.33,18.11z M27.32,17.67c0.29-0.28,0.5-0.57,0.65-0.85c0.33-0.59,0.58-1.27,0.76-2.04
	c0.14-0.5,0.25-1.06,0.33-1.68c0.08-0.62,0.12-1.2,0.12-1.73c0-0.5-0.07-0.75-0.21-0.75c-0.2,0-0.5,0.64-0.91,1.93
	c-0.24,0.78-0.44,1.55-0.59,2.31c-0.15,0.77-0.23,1.43-0.23,1.99C27.24,17.04,27.27,17.31,27.32,17.67z M20.54,12.55l0.12-0.58
	c0.16-0.91,0.41-1.6,0.73-2.09c0.21-0.31,0.45-0.56,0.73-0.76c0.27-0.2,0.52-0.3,0.74-0.3c0.41,0,0.61,0.26,0.61,0.76
	c0,0.26-0.06,0.65-0.17,1.18c-0.11,0.53-0.26,1.14-0.44,1.82c-0.18,0.67-0.4,1.42-0.64,2.22c-0.24,0.81-0.51,1.63-0.81,2.49
	c-0.54,1.61-1.08,2.98-1.63,4.09c-0.4,0.8-0.79,1.51-1.2,2.12c-0.41,0.62-0.84,1.17-1.29,1.66c-0.45,0.49-0.87,0.86-1.27,1.1
	c-0.4,0.25-0.77,0.38-1.1,0.38c-0.28,0-0.42-0.18-0.42-0.53c0-0.28,0.04-0.62,0.13-1.01c0.09-0.39,0.21-0.76,0.36-1.1
	c0.16-0.33,0.37-0.62,0.63-0.87c0.32-0.32,0.79-0.7,1.42-1.11c-0.37-0.91-0.65-1.64-0.84-2.17c-0.19-0.53-0.4-1.2-0.63-1.99
	c-0.5-1.76-0.76-3.37-0.76-4.81c0-1.1,0.09-1.99,0.28-2.67c0.17-0.59,0.47-1,0.92-1.25c0.36-0.21,0.68-0.31,0.97-0.31
	c0.41,0,0.67,0.22,0.81,0.67c0.14,0.45,0.26,1.49,0.37,3.13c0.11,1.76,0.29,3.51,0.53,5.22c0.04,0.26,0.09,0.63,0.15,1.09h0.04
	c0.17-0.53,0.35-1.18,0.55-1.95c0.06-0.21,0.28-1.02,0.65-2.4C20.28,13.74,20.44,13.07,20.54,12.55z M8.62,5.29L8.05,3.8
	c0.14-0.16,0.28-0.27,0.4-0.34C8.92,3.22,9.5,3.1,10.17,3.1c0.68,0,1.21,0.28,1.58,0.85c0.32,0.5,0.58,1.2,0.79,2.09
	c0.2,0.9,0.39,2.17,0.57,3.83c0.09,0.84,0.17,1.47,0.24,1.9c0.22,1.19,0.36,1.95,0.43,2.27c0.07,0.33,0.2,0.86,0.39,1.58
	c0.06,0.21,0.14,0.5,0.25,0.88c0.1,0.38,0.2,0.72,0.29,1.05c0.2,0.71,0.51,1.64,0.93,2.8c-0.52,0.53-0.96,0.92-1.32,1.16
	c-0.36,0.24-0.69,0.35-0.99,0.35c-0.37,0-0.67-0.1-0.92-0.31c-0.24-0.21-0.47-0.54-0.67-0.99c-0.23-0.62-0.47-1.46-0.71-2.52
	c-0.02-0.1-0.05-0.23-0.08-0.39c-0.03-0.15-0.07-0.32-0.11-0.5c-0.73,0.45-1.29,0.66-1.69,0.66c-0.23,0-0.43-0.01-0.6-0.02
	c-0.14-0.02-0.8-0.05-1.99-0.08l-0.09,0.29c-0.34,1.04-0.66,1.85-0.95,2.4c-0.3,0.56-0.64,0.95-1.03,1.17
	c-0.39,0.23-0.87,0.34-1.45,0.34c-0.34,0-0.57-0.06-0.72-0.16c-0.14-0.11-0.21-0.29-0.21-0.53c0-0.3,0.34-1.12,1.02-2.47
	c0.24-0.47,0.42-0.84,0.54-1.12c-0.65-0.18-0.97-0.52-0.97-1c0-0.4,0.26-0.99,0.78-1.78c0.25-0.38,0.48-0.62,0.69-0.72
	c0.21-0.11,0.58-0.16,1.12-0.17c0.49-1.33,0.81-2.18,0.95-2.54c0.14-0.37,0.31-0.83,0.53-1.38c0.22-0.56,0.46-1.19,0.74-1.9
	C7.78,7.43,8.15,6.48,8.62,5.29z M9.42,8.89l-1.69,5.25h2.51L9.45,8.89H9.42z"/>
<path class="st0" d="M106.93,38.78c-0.58-0.03-0.87-0.54-0.87-1.54c0-0.5,0.09-1.08,0.25-1.74c0.17-0.65,0.36-1.14,0.58-1.46
	c0.11-0.18,0.22-0.3,0.34-0.37c0.11-0.07,0.26-0.11,0.44-0.11c0.31,0,0.54,0.11,0.68,0.33c0.15,0.22,0.22,0.59,0.22,1.11
	c0,0.65-0.08,1.26-0.23,1.83c-0.15,0.58-0.35,1.04-0.6,1.4c-0.25,0.36-0.51,0.54-0.78,0.54H106.93z M105.82,52.48
	c-0.28-0.03-0.53-0.21-0.76-0.56c-0.23-0.36-0.39-0.76-0.49-1.18c-0.09-0.42-0.14-0.97-0.14-1.64c0-1.5,0.19-3.18,0.57-5.07
	c0.38-1.88,0.81-3.25,1.29-4.09c0.19-0.35,0.46-0.53,0.8-0.53c0.36,0,0.65,0.24,0.86,0.72c0.22,0.48,0.33,1.11,0.33,1.89
	c0,1.15-0.11,2.5-0.34,4.05c-0.23,1.55-0.54,3.16-0.95,4.83c-0.16,0.67-0.36,1.12-0.59,1.36c-0.16,0.14-0.35,0.22-0.56,0.22H105.82z
	 M101.44,48.2l-0.04,0.27c0,0.15-0.01,0.38-0.04,0.66c-0.03,0.45-0.06,0.81-0.1,1.09c-0.04,0.28-0.11,0.51-0.2,0.7
	c-0.09,0.19-0.2,0.39-0.35,0.59c-0.45,0.61-0.91,0.91-1.36,0.91c-0.37,0-0.65-0.2-0.82-0.6c-0.17-0.4-0.26-1.04-0.26-1.93
	c0-0.71,0.05-1.58,0.16-2.62c0.11-1.04,0.24-1.97,0.4-2.79l0.07-0.35c0-0.05,0.02-0.17,0.06-0.34c0.23-1.23,0.44-2.15,0.63-2.74
	c0.19-0.59,0.42-1.07,0.7-1.43c0.24-0.28,0.51-0.42,0.82-0.42c0.44,0,0.71,0.39,0.8,1.17c0.09-0.11,0.17-0.24,0.25-0.38
	c0.18-0.32,0.32-0.53,0.41-0.63c0.1-0.11,0.22-0.16,0.34-0.16c0.53,0,0.8,0.77,0.8,2.31c0,0.84-0.06,1.66-0.19,2.45
	c-0.12,0.79-0.28,1.43-0.47,1.93c-0.19,0.5-0.38,0.75-0.56,0.75c-0.21,0-0.31-0.57-0.31-1.7c0-0.6-0.02-1.07-0.07-1.41
	c-0.04-0.34-0.12-0.6-0.22-0.79c-0.19,0.51-0.31,1.67-0.36,3.48C101.49,47.26,101.46,47.93,101.44,48.2z M92.58,45.16l0.56-0.96
	c0.56-0.92,1.01-1.6,1.34-2.05c0.33-0.45,0.63-0.77,0.89-0.97c0.26-0.2,0.53-0.3,0.8-0.3c0.44,0,0.75,0.17,0.93,0.52
	c0.18,0.35,0.27,0.94,0.27,1.8c0,0.35-0.03,0.87-0.08,1.56c-0.08,0.91-0.11,1.78-0.11,2.59c0,0.91,0.03,1.64,0.09,2.2
	c0.04,0.34,0.11,0.69,0.2,1.04c0.06,0.32,0.09,0.55,0.09,0.66c0,0.15-0.04,0.26-0.11,0.34c-0.19,0.24-0.45,0.46-0.76,0.64
	c-0.32,0.18-0.58,0.27-0.8,0.27c-0.35,0-0.67-0.18-0.96-0.53c-0.29-0.36-0.51-0.84-0.67-1.47c-0.16-0.63-0.24-1.33-0.24-2.13
	c0-0.52,0.04-1.15,0.11-1.86l-0.04-0.06c-0.26,0.44-0.48,0.78-0.64,1.04c-0.16,0.25-0.32,0.49-0.46,0.72
	c-0.69,1.16-1.28,2.21-1.76,3.14c-0.19,0.36-0.35,0.68-0.51,0.95c-0.23,0.33-0.49,0.5-0.78,0.5c-0.4,0-0.72-0.22-0.97-0.65
	c-0.25-0.43-0.37-0.99-0.37-1.69c0-0.43,0.03-0.95,0.1-1.56c0.07-0.62,0.16-1.28,0.28-1.98c0.11-0.71,0.25-1.43,0.41-2.17
	c0.16-0.74,0.33-1.45,0.52-2.12c0.29-1.11,0.63-1.98,1.05-2.61c0.28-0.41,0.62-0.61,1.02-0.61c0.65,0,0.97,0.61,0.97,1.84
	c0,0.9-0.13,2.19-0.4,3.85L92.58,45.16z M84.49,38.67c0.92,0,1.38,0.16,1.38,0.47c0,0.36-0.21,0.56-0.62,0.58
	c-0.5,0.05-0.97,0.26-1.4,0.63c-0.43,0.37-0.82,0.88-1.16,1.53c-0.34,0.65-0.6,1.37-0.79,2.18c-0.19,0.81-0.28,1.66-0.28,2.56
	c0,0.99,0.16,1.79,0.48,2.39c0.32,0.6,0.73,0.91,1.24,0.91c0.47,0,0.88-0.35,1.24-1.06c0.35-0.71,0.53-1.54,0.53-2.48
	c0-0.78-0.11-1.5-0.33-2.18c-0.22-0.68-0.54-1.25-0.96-1.71c-0.18-0.21-0.27-0.36-0.27-0.45c0-0.13,0.13-0.32,0.38-0.58
	c0.28-0.28,0.6-0.52,0.96-0.71c0.35-0.19,0.65-0.29,0.89-0.29c0.28,0,0.54,0.11,0.79,0.32c0.25,0.21,0.47,0.52,0.67,0.91
	c0.19,0.39,0.34,0.85,0.44,1.36c0.1,0.51,0.15,1.06,0.15,1.64c0,0.96-0.12,1.92-0.37,2.86c-0.25,0.94-0.57,1.7-0.98,2.28
	c-0.52,0.74-1.15,1.34-1.88,1.81c-0.73,0.47-1.43,0.7-2.09,0.7c-0.64,0-1.28-0.16-1.92-0.49c-0.63-0.32-1.13-0.76-1.51-1.29
	c-0.49-0.73-0.74-1.76-0.74-3.09c0-1.05,0.18-2.11,0.53-3.16c0.35-1.05,0.83-2.01,1.43-2.87c0.6-0.86,1.27-1.53,2-2.03
	C83.02,38.91,83.75,38.67,84.49,38.67z M72.55,52.93c0.36-0.03,0.7-0.29,0.99-0.78c0.3-0.5,0.45-1.04,0.45-1.61
	c0-0.4-0.09-0.72-0.27-0.95c-0.19-0.28-0.62-0.56-1.29-0.83c-0.99-0.42-1.62-0.88-1.92-1.4c-0.28-0.42-0.42-0.91-0.42-1.49
	c0-1.04,0.26-2.08,0.78-3.13c0.52-1.04,1.18-1.89,1.98-2.56c0.8-0.66,1.62-1,2.43-1c0.4,0,0.77,0.13,1.11,0.41
	c0.35,0.27,0.62,0.63,0.82,1.08c0.21,0.45,0.31,0.94,0.31,1.46c0,0.52-0.11,1.05-0.33,1.61c-0.22,0.55-0.5,1.01-0.84,1.38
	c-0.34,0.37-0.66,0.55-0.96,0.55c-0.17,0-0.32-0.06-0.45-0.16c-0.13-0.11-0.19-0.23-0.19-0.35c0-0.13,0.03-0.32,0.08-0.56
	c0.14-0.78,0.21-1.46,0.21-2.04c0-0.57-0.12-1.11-0.35-1.62c-0.3,0.31-0.5,0.55-0.59,0.73c-0.24,0.4-0.42,0.85-0.55,1.36
	c-0.14,0.52-0.22,1.01-0.22,1.47c0,0.32,0.05,0.59,0.16,0.78c0.1,0.2,0.27,0.36,0.5,0.5c0.23,0.14,0.58,0.29,1.05,0.45
	c0.79,0.28,1.34,0.55,1.66,0.82c0.08,0.07,0.19,0.2,0.35,0.39c0.23,0.37,0.35,0.85,0.35,1.44c0,0.63-0.13,1.26-0.4,1.9
	c-0.27,0.64-0.68,1.3-1.24,1.98c-0.59,0.74-1.18,1.26-1.77,1.58c-0.59,0.32-1.24,0.48-1.95,0.48c-0.68,0-1.23-0.2-1.62-0.6
	c-0.39-0.4-0.59-0.94-0.59-1.63c0-0.49,0.13-0.99,0.39-1.49c0.26-0.51,0.58-0.91,0.97-1.23c0.39-0.32,0.77-0.48,1.13-0.48
	c0.28,0,0.42,0.09,0.42,0.27c0,0.09-0.04,0.24-0.12,0.45c-0.24,0.64-0.36,1.22-0.36,1.76C72.27,52.22,72.36,52.58,72.55,52.93z
	 M61.17,43.02l0.12-0.58c0.16-0.91,0.41-1.6,0.73-2.09c0.21-0.31,0.45-0.56,0.73-0.76c0.27-0.2,0.52-0.3,0.74-0.3
	c0.41,0,0.61,0.26,0.61,0.76c0,0.26-0.06,0.65-0.17,1.18c-0.11,0.53-0.26,1.14-0.44,1.82c-0.18,0.67-0.4,1.42-0.64,2.22
	c-0.24,0.81-0.51,1.63-0.81,2.49c-0.54,1.61-1.08,2.98-1.63,4.09c-0.4,0.8-0.79,1.51-1.2,2.12c-0.41,0.62-0.84,1.17-1.29,1.66
	c-0.45,0.49-0.87,0.86-1.27,1.1c-0.4,0.25-0.77,0.38-1.1,0.38c-0.28,0-0.42-0.18-0.42-0.53c0-0.28,0.04-0.62,0.13-1.01
	c0.09-0.39,0.21-0.76,0.36-1.1c0.16-0.33,0.37-0.62,0.63-0.87c0.32-0.32,0.79-0.7,1.42-1.11c-0.37-0.91-0.65-1.64-0.84-2.17
	c-0.19-0.53-0.4-1.2-0.63-1.99c-0.5-1.76-0.76-3.37-0.76-4.81c0-1.1,0.09-1.99,0.28-2.67c0.17-0.59,0.47-1,0.92-1.25
	c0.36-0.21,0.68-0.31,0.97-0.31c0.41,0,0.67,0.22,0.81,0.67c0.14,0.45,0.26,1.49,0.37,3.13c0.11,1.76,0.29,3.51,0.53,5.22
	c0.04,0.26,0.09,0.63,0.15,1.09h0.04c0.17-0.53,0.35-1.18,0.55-1.95c0.06-0.21,0.28-1.02,0.65-2.4
	C60.9,44.21,61.06,43.53,61.17,43.02z M50.88,48.08l-0.16,0.19c-0.03,0.03-0.24,0.26-0.62,0.7c-0.74,0.85-1.35,1.52-1.83,2.02
	c-0.48,0.49-0.88,0.85-1.21,1.09c-0.32,0.23-0.58,0.35-0.78,0.35c-0.33,0-0.6-0.2-0.8-0.6c-0.2-0.4-0.3-0.93-0.3-1.57
	c0-1.09,0.11-2.35,0.34-3.8c0.22-1.44,0.52-2.87,0.9-4.28c0.41-1.56,0.92-2.51,1.52-2.86c0.21-0.13,0.46-0.2,0.74-0.2
	c0.39,0,0.71,0.18,0.95,0.53c0.24,0.36,0.36,0.82,0.36,1.4c0,0.4-0.04,0.82-0.14,1.26c-0.1,0.45-0.24,0.97-0.45,1.59l-0.11,0.39
	c-0.53,1.65-0.8,2.66-0.8,3.01c0,0.21,0.05,0.32,0.15,0.32c0.09,0,0.21-0.1,0.36-0.29c0.15-0.19,0.38-0.54,0.69-1.04
	c0.19-0.34,0.46-0.78,0.81-1.29l0.34-0.51l0.3-0.46c0.62-0.91,1.13-1.56,1.53-1.97c0.4-0.4,0.73-0.6,0.98-0.6
	c0.49,0,0.74,0.63,0.74,1.89c0,0.26-0.02,0.73-0.06,1.4c-0.07,1.3-0.11,2.41-0.11,3.32c0.01,0.18,0.01,0.35,0.01,0.5
	c0,0.15,0.01,0.34,0.01,0.58c0.04,0.61,0.07,1.07,0.09,1.4c0.04,0.52,0.06,0.78,0.06,0.78c0,0.27-0.17,0.52-0.5,0.72
	c-0.34,0.21-0.72,0.31-1.16,0.31c-0.4,0-0.75-0.12-1.04-0.35c-0.29-0.23-0.51-0.57-0.66-1.03c-0.15-0.45-0.22-1-0.22-1.66
	c0-0.08,0.01-0.22,0.02-0.43C50.86,48.68,50.87,48.41,50.88,48.08z M40.62,47.42l-2.53,3.81c-0.33,0.48-0.59,0.81-0.79,0.99
	c-0.2,0.18-0.42,0.26-0.66,0.26c-0.38,0-0.69-0.2-0.95-0.62c-0.26-0.41-0.39-0.92-0.39-1.52c0-0.37,0.04-0.78,0.12-1.22
	c0.08-0.44,0.23-1.09,0.46-1.96c0.04-0.18,0.09-0.34,0.12-0.47c0.04-0.13,0.07-0.24,0.1-0.33l-0.04-0.05
	c-0.6,0.92-1.19,1.89-1.76,2.92c-0.48,0.84-0.86,1.47-1.15,1.89c-0.29,0.41-0.54,0.73-0.77,0.94c-0.23,0.21-0.43,0.31-0.61,0.31
	c-0.4,0-0.72-0.23-0.96-0.69c-0.23-0.46-0.35-1.1-0.35-1.89c0-1.01,0.3-2.63,0.89-4.88c0.53-2,0.94-3.33,1.24-4.01
	c0.43-0.94,0.92-1.42,1.47-1.42c0.33,0,0.61,0.12,0.83,0.35c0.22,0.23,0.33,0.53,0.33,0.91c0,0.68-0.18,1.72-0.53,3.12
	c-0.14,0.52-0.28,1.11-0.42,1.76l0.03,0.06c0.23-0.38,0.6-1.02,1.11-1.92c0.87-1.58,1.53-2.66,1.98-3.23
	c0.57-0.78,1.1-1.17,1.57-1.17c0.21,0,0.41,0.1,0.6,0.31c0.19,0.21,0.35,0.49,0.46,0.84c0.11,0.35,0.17,0.71,0.17,1.1
	c0,0.39-0.19,1.39-0.56,3c-0.08,0.33-0.14,0.6-0.18,0.79c-0.04,0.19-0.08,0.35-0.12,0.49l0.04,0.06c0.09-0.13,0.16-0.24,0.23-0.34
	c0.07-0.1,0.15-0.2,0.23-0.32c0.08-0.11,0.16-0.22,0.23-0.32c0.17-0.23,0.59-0.85,1.26-1.86c0.44-0.73,0.79-1.23,1.05-1.49
	c0.25-0.27,0.5-0.4,0.73-0.4c0.38,0,0.67,0.2,0.88,0.58c0.2,0.39,0.3,0.95,0.3,1.7c0,0.46-0.05,1.19-0.15,2.19
	c-0.09,1.13-0.15,2.01-0.18,2.65c-0.03,0.64-0.05,1.09-0.05,1.34c0,0.19,0.01,0.43,0.02,0.73c0.02,0.29,0.04,0.61,0.08,0.95
	c0.03,0.33,0.08,0.71,0.14,1.11c0.07,0.5,0.12,0.89,0.14,1.17c-0.05,0.32-0.21,0.6-0.48,0.83c-0.27,0.23-0.57,0.34-0.89,0.34
	c-0.51,0-0.98-0.33-1.42-1.01c-0.2-0.31-0.35-0.62-0.46-0.93c-0.11-0.31-0.19-0.68-0.23-1.11c-0.05-0.43-0.07-1-0.07-1.71
	c0-0.46,0.04-1.42,0.11-2.87l-0.04-0.06L40.62,47.42z M209.22,8.31c-0.58-0.03-0.87-0.54-0.87-1.54c0-0.5,0.09-1.08,0.25-1.74
	c0.17-0.65,0.36-1.14,0.58-1.46c0.11-0.18,0.22-0.3,0.34-0.37c0.11-0.07,0.26-0.11,0.44-0.11c0.31,0,0.54,0.11,0.68,0.33
	c0.15,0.22,0.22,0.59,0.22,1.11c0,0.65-0.08,1.26-0.23,1.83c-0.15,0.58-0.35,1.04-0.61,1.4c-0.25,0.36-0.51,0.54-0.78,0.54H209.22z
	 M208.1,22.02c-0.28-0.03-0.53-0.21-0.76-0.56c-0.23-0.36-0.39-0.76-0.49-1.18c-0.09-0.42-0.14-0.97-0.14-1.64
	c0-1.5,0.19-3.18,0.57-5.07c0.38-1.88,0.81-3.25,1.29-4.09c0.19-0.35,0.46-0.53,0.8-0.53c0.36,0,0.65,0.24,0.86,0.72
	c0.22,0.48,0.33,1.11,0.33,1.89c0,1.15-0.11,2.5-0.34,4.05c-0.22,1.55-0.54,3.16-0.95,4.83c-0.16,0.67-0.36,1.12-0.59,1.36
	c-0.16,0.14-0.35,0.22-0.56,0.22H208.1z M204.24,10.37l0.15-0.42c0.16-0.47,0.28-0.78,0.38-0.94c0.1-0.15,0.24-0.23,0.41-0.23
	c0.51,0,0.76,0.84,0.76,2.52c0,0.49-0.03,0.91-0.07,1.26c-0.05,0.36-0.13,0.7-0.25,1.02c-0.14,0.44-0.34,0.93-0.58,1.49
	c-0.24,0.56-0.52,1.15-0.82,1.77c-0.31,0.62-0.63,1.24-0.98,1.87c-0.62,1.15-1.14,2-1.57,2.53c-0.43,0.53-0.79,0.8-1.08,0.8
	c-0.54,0-0.92-0.48-1.15-1.44c-0.16-0.61-0.31-1.34-0.44-2.2c-0.13-0.86-0.23-1.73-0.31-2.61c-0.07-0.88-0.11-1.74-0.11-2.56
	c0-1.14,0.07-2.1,0.21-2.89c0.14-0.78,0.33-1.3,0.57-1.54c0.22-0.18,0.44-0.27,0.68-0.27c0.28,0,0.55,0.06,0.8,0.19
	c0.25,0.13,0.45,0.32,0.59,0.58c0.13,0.19,0.23,0.44,0.29,0.75c0.07,0.32,0.11,0.79,0.13,1.43c0.02,0.64,0.03,1.52,0.03,2.64v0.69
	v1.3v1.53h0.04c0.12-0.39,0.21-0.69,0.29-0.9c0.2-0.57,0.58-1.78,1.15-3.62c0.12-0.39,0.34-1.11,0.67-2.17L204.24,10.37z
	 M188.6,18.11c0.07,0.54,0.31,0.82,0.73,0.82c0.46,0,1.06-0.4,1.81-1.2c0.43-0.46,0.72-0.7,0.87-0.7c0.18,0,0.36,0.07,0.52,0.22
	c0.16,0.14,0.24,0.29,0.24,0.45c0,0.16-0.09,0.38-0.27,0.64c-0.33,0.48-0.71,0.95-1.13,1.41c-0.43,0.46-0.84,0.84-1.24,1.14
	c-0.4,0.31-0.79,0.55-1.19,0.72c-0.4,0.18-0.75,0.26-1.06,0.26c-0.77,0-1.39-0.32-1.85-0.97c-0.47-0.65-0.7-1.51-0.7-2.6
	c0-0.83,0.12-1.76,0.37-2.8c0.24-1.04,0.57-2.01,0.99-2.92c0.49-1.06,1.09-1.95,1.8-2.66c0.88-0.85,1.72-1.28,2.52-1.28
	c0.58,0,1.04,0.27,1.37,0.81c0.33,0.54,0.5,1.28,0.5,2.23c0,0.73-0.13,1.5-0.39,2.3c-0.26,0.8-0.65,1.57-1.17,2.3
	c-0.42,0.62-0.83,1.1-1.24,1.44c-0.41,0.35-0.76,0.52-1.06,0.52C188.89,18.26,188.75,18.21,188.6,18.11z M188.59,17.67
	c0.29-0.28,0.5-0.57,0.65-0.85c0.33-0.59,0.58-1.27,0.76-2.04c0.14-0.5,0.25-1.06,0.33-1.68c0.08-0.62,0.12-1.2,0.12-1.73
	c0-0.5-0.07-0.75-0.21-0.75c-0.2,0-0.5,0.64-0.91,1.93c-0.24,0.78-0.44,1.55-0.59,2.31c-0.15,0.77-0.23,1.43-0.23,1.99
	C188.51,17.04,188.54,17.31,188.59,17.67z M180.61,8.73l0.04-0.16c0.41-1.69,0.76-2.87,1.06-3.57c0.14-0.32,0.34-0.62,0.59-0.87
	c0.48-0.45,0.92-0.67,1.34-0.67c0.25,0,0.43,0.08,0.56,0.24c0.13,0.16,0.2,0.4,0.2,0.71c0,0.21-0.09,0.64-0.28,1.29
	c-0.31,1.08-0.55,2.09-0.7,3.03c0.1,0.02,0.21,0.05,0.3,0.08c0.37,0.08,0.61,0.17,0.73,0.27c0.12,0.11,0.17,0.29,0.17,0.56
	c0,0.47-0.08,0.91-0.25,1.32c-0.16,0.4-0.38,0.7-0.66,0.89c-0.2,0.13-0.54,0.23-0.99,0.27c-0.08,0.36-0.17,0.84-0.26,1.46
	c-0.06,0.54-0.12,1.3-0.18,2.26c-0.04,0.35-0.06,0.68-0.06,0.99c0,1.43,0.47,2.14,1.42,2.14h0.06h0.03c0.11,0,0.16,0.03,0.16,0.08
	c0,0.14-0.1,0.39-0.31,0.73c-0.21,0.34-0.44,0.65-0.7,0.91c-0.27,0.27-0.57,0.49-0.89,0.65c-0.32,0.16-0.61,0.25-0.87,0.25
	c-0.65,0-1.18-0.32-1.59-0.97c-0.41-0.64-0.61-1.49-0.61-2.55c0-0.46,0.05-1.05,0.16-1.78c0.11-0.73,0.28-1.72,0.51-2.95
	c0.04-0.22,0.08-0.45,0.12-0.69c0.04-0.24,0.07-0.38,0.08-0.43c-0.25-0.01-0.43-0.09-0.54-0.23c-0.1-0.14-0.16-0.38-0.16-0.71
	c0-0.57,0.15-1.11,0.45-1.62C179.86,9.18,180.21,8.86,180.61,8.73z M169.67,17.92v0.06l-0.04-0.06c-0.58,0.99-1.1,1.8-1.58,2.43
	c-0.48,0.63-0.92,1.1-1.33,1.42c-0.41,0.31-0.78,0.47-1.12,0.47c-0.69,0-1.26-0.34-1.72-1.02c-0.45-0.68-0.68-1.54-0.68-2.58
	c0-0.64,0.11-1.4,0.33-2.28c0.22-0.88,0.53-1.74,0.92-2.58c0.65-1.37,1.47-2.54,2.45-3.51c1.01-0.99,1.99-1.48,2.93-1.48
	c0.79,0,1.44,0.24,1.95,0.71c0.51,0.48,0.77,1.08,0.77,1.8c0,0.53-0.13,1.1-0.38,1.69c0.33,0,0.54,0.05,0.63,0.16
	c0.09,0.1,0.13,0.34,0.13,0.73c0-0.04-0.02,0.15-0.04,0.56c-0.04,0.9-0.05,1.74-0.05,2.52c0,0.41,0,0.72,0.01,0.93
	c0.01,0.21,0.02,0.45,0.04,0.72c0.02,0.27,0.03,0.49,0.05,0.65c0.05,0.43,0.13,0.85,0.24,1.27c-0.37,0.53-0.73,0.93-1.07,1.17
	c-0.34,0.25-0.69,0.38-1.04,0.38c-0.95,0-1.43-1.17-1.43-3.51C169.65,18.29,169.66,18.08,169.67,17.92z M170.22,14.81l-0.18,0.08
	c-0.44,0.18-0.76,0.27-0.96,0.27c-0.24,0-0.36-0.09-0.36-0.27c0-0.06,0.05-0.23,0.15-0.5c0.35-0.78,0.52-1.5,0.52-2.18
	c0-0.39-0.05-0.75-0.14-1.07c-0.09-0.32-0.19-0.48-0.31-0.48c-0.1,0-0.25,0.15-0.45,0.46c-0.58,0.91-1.03,1.85-1.37,2.81
	c-0.34,0.96-0.51,1.82-0.51,2.57c0,0.5,0.07,0.91,0.21,1.24c0.14,0.32,0.31,0.49,0.53,0.49c0.18,0,0.51-0.28,1-0.84
	c0.49-0.56,1.05-1.3,1.66-2.22l0.25-0.3L170.22,14.81z M157.56,22.46c0.36-0.03,0.7-0.29,0.99-0.78c0.3-0.5,0.45-1.04,0.45-1.61
	c0-0.4-0.09-0.72-0.27-0.95c-0.19-0.28-0.62-0.56-1.29-0.83c-0.99-0.42-1.62-0.88-1.92-1.4c-0.28-0.42-0.42-0.91-0.42-1.49
	c0-1.04,0.26-2.08,0.78-3.13c0.52-1.04,1.18-1.89,1.98-2.56c0.8-0.66,1.62-1,2.43-1c0.4,0,0.77,0.13,1.12,0.41
	c0.35,0.27,0.62,0.63,0.82,1.08c0.21,0.45,0.31,0.94,0.31,1.46c0,0.52-0.11,1.05-0.33,1.61c-0.22,0.55-0.5,1.01-0.84,1.38
	c-0.34,0.37-0.66,0.55-0.96,0.55c-0.17,0-0.32-0.06-0.45-0.16c-0.13-0.11-0.19-0.23-0.19-0.35c0-0.13,0.03-0.32,0.08-0.56
	c0.14-0.78,0.21-1.46,0.21-2.04c0-0.57-0.12-1.11-0.35-1.62c-0.3,0.31-0.5,0.55-0.59,0.73c-0.24,0.4-0.42,0.85-0.55,1.36
	c-0.14,0.52-0.22,1.01-0.22,1.47c0,0.32,0.05,0.59,0.16,0.78c0.1,0.2,0.27,0.36,0.5,0.5c0.23,0.14,0.58,0.29,1.05,0.45
	c0.79,0.28,1.34,0.55,1.66,0.82c0.08,0.07,0.19,0.2,0.35,0.39c0.23,0.37,0.35,0.85,0.35,1.44c0,0.63-0.13,1.26-0.4,1.9
	c-0.27,0.64-0.68,1.3-1.24,1.98c-0.59,0.74-1.18,1.26-1.77,1.58c-0.59,0.32-1.24,0.48-1.95,0.48c-0.68,0-1.23-0.2-1.62-0.6
	c-0.39-0.4-0.59-0.94-0.59-1.63c0-0.49,0.13-0.99,0.39-1.49c0.26-0.51,0.58-0.91,0.97-1.23c0.39-0.32,0.77-0.48,1.13-0.48
	c0.28,0,0.42,0.09,0.42,0.27c0,0.09-0.04,0.24-0.12,0.45c-0.24,0.64-0.36,1.22-0.36,1.76C157.27,21.76,157.37,22.12,157.56,22.46z
	 M152.52,8.31c-0.58-0.03-0.87-0.54-0.87-1.54c0-0.5,0.09-1.08,0.25-1.74c0.17-0.65,0.36-1.14,0.58-1.46
	c0.11-0.18,0.22-0.3,0.34-0.37c0.11-0.07,0.26-0.11,0.44-0.11c0.31,0,0.54,0.11,0.68,0.33c0.15,0.22,0.22,0.59,0.22,1.11
	c0,0.65-0.08,1.26-0.23,1.83c-0.15,0.58-0.35,1.04-0.61,1.4c-0.25,0.36-0.51,0.54-0.78,0.54H152.52z M151.41,22.02
	c-0.28-0.03-0.53-0.21-0.76-0.56c-0.23-0.36-0.39-0.76-0.49-1.18c-0.09-0.42-0.14-0.97-0.14-1.64c0-1.5,0.19-3.18,0.57-5.07
	c0.38-1.88,0.81-3.25,1.29-4.09c0.19-0.35,0.46-0.53,0.8-0.53c0.36,0,0.65,0.24,0.86,0.72c0.22,0.48,0.33,1.11,0.33,1.89
	c0,1.15-0.11,2.5-0.34,4.05c-0.22,1.55-0.54,3.16-0.95,4.83c-0.16,0.67-0.36,1.12-0.59,1.36c-0.16,0.14-0.35,0.22-0.56,0.22H151.41z
	"/>
<path class="st0" d="M91.34,69.13c0.92,0,1.38,0.16,1.38,0.47c0,0.36-0.21,0.56-0.62,0.58c-0.5,0.05-0.97,0.26-1.4,0.63
	c-0.43,0.37-0.82,0.88-1.16,1.53c-0.34,0.65-0.6,1.37-0.79,2.18c-0.19,0.81-0.28,1.66-0.28,2.56c0,0.99,0.16,1.79,0.47,2.39
	c0.32,0.6,0.73,0.91,1.24,0.91c0.47,0,0.88-0.35,1.24-1.06c0.35-0.71,0.53-1.54,0.53-2.48c0-0.78-0.11-1.5-0.33-2.18
	c-0.22-0.68-0.54-1.25-0.96-1.71c-0.18-0.21-0.27-0.36-0.27-0.45c0-0.13,0.13-0.32,0.38-0.58c0.29-0.28,0.6-0.52,0.96-0.71
	c0.35-0.19,0.65-0.29,0.89-0.29c0.28,0,0.54,0.11,0.79,0.32c0.25,0.21,0.47,0.52,0.66,0.91c0.19,0.39,0.34,0.85,0.44,1.36
	c0.1,0.51,0.15,1.06,0.15,1.64c0,0.96-0.12,1.92-0.37,2.86c-0.25,0.94-0.57,1.7-0.98,2.28c-0.52,0.74-1.15,1.34-1.88,1.81
	c-0.73,0.47-1.43,0.7-2.09,0.7c-0.64,0-1.28-0.16-1.92-0.49c-0.63-0.32-1.13-0.76-1.51-1.29c-0.49-0.73-0.74-1.76-0.74-3.09
	c0-1.05,0.18-2.11,0.53-3.16c0.35-1.05,0.83-2.01,1.43-2.87c0.6-0.86,1.27-1.53,2-2.03C89.87,69.38,90.6,69.13,91.34,69.13
	 M79.4,83.39c0.36-0.03,0.7-0.29,0.99-0.78c0.3-0.5,0.45-1.04,0.45-1.61c0-0.4-0.09-0.72-0.27-0.95c-0.19-0.28-0.62-0.56-1.29-0.83
	c-0.98-0.42-1.62-0.88-1.92-1.4c-0.28-0.42-0.42-0.91-0.42-1.49c0-1.04,0.26-2.08,0.78-3.13c0.52-1.04,1.17-1.89,1.98-2.56
	c0.8-0.66,1.62-1,2.43-1c0.4,0,0.77,0.13,1.12,0.41c0.35,0.27,0.62,0.63,0.82,1.08c0.21,0.45,0.31,0.94,0.31,1.46
	c0,0.52-0.11,1.05-0.33,1.61c-0.22,0.55-0.5,1.01-0.84,1.38c-0.34,0.37-0.66,0.55-0.96,0.55c-0.17,0-0.32-0.06-0.45-0.16
	c-0.13-0.11-0.19-0.23-0.19-0.35c0-0.13,0.03-0.32,0.08-0.56c0.14-0.78,0.21-1.46,0.21-2.04c0-0.57-0.12-1.11-0.36-1.62
	c-0.3,0.31-0.5,0.55-0.59,0.73c-0.24,0.4-0.42,0.85-0.55,1.36c-0.14,0.52-0.22,1.01-0.22,1.47c0,0.32,0.05,0.59,0.16,0.78
	c0.1,0.2,0.27,0.36,0.5,0.5c0.23,0.14,0.58,0.29,1.05,0.45c0.79,0.28,1.34,0.55,1.66,0.82c0.08,0.07,0.19,0.2,0.35,0.39
	c0.23,0.37,0.35,0.85,0.35,1.44c0,0.63-0.13,1.26-0.4,1.9c-0.27,0.64-0.68,1.3-1.24,1.98c-0.59,0.74-1.18,1.26-1.77,1.58
	c-0.59,0.32-1.24,0.48-1.95,0.48c-0.68,0-1.23-0.2-1.62-0.6c-0.39-0.4-0.59-0.94-0.59-1.63c0-0.49,0.13-0.99,0.39-1.49
	c0.26-0.51,0.58-0.91,0.97-1.23c0.39-0.32,0.77-0.48,1.13-0.48c0.28,0,0.42,0.09,0.42,0.27c0,0.09-0.04,0.24-0.12,0.45
	c-0.24,0.64-0.36,1.22-0.36,1.76C79.12,82.69,79.21,83.05,79.4,83.39z M67.23,78.55l-0.16,0.19c-0.03,0.03-0.24,0.26-0.62,0.7
	c-0.74,0.85-1.35,1.52-1.83,2.02c-0.48,0.49-0.88,0.85-1.21,1.09c-0.32,0.23-0.58,0.35-0.78,0.35c-0.33,0-0.6-0.2-0.8-0.6
	c-0.2-0.4-0.3-0.93-0.3-1.57c0-1.09,0.11-2.35,0.34-3.8c0.22-1.44,0.52-2.87,0.9-4.28c0.41-1.56,0.92-2.51,1.52-2.86
	c0.21-0.13,0.46-0.2,0.74-0.2c0.39,0,0.71,0.18,0.95,0.53c0.24,0.36,0.36,0.82,0.36,1.4c0,0.4-0.04,0.82-0.14,1.26
	c-0.1,0.45-0.24,0.97-0.45,1.59l-0.11,0.39c-0.53,1.65-0.8,2.66-0.8,3.01c0,0.21,0.05,0.32,0.15,0.32c0.09,0,0.21-0.1,0.36-0.29
	c0.15-0.19,0.38-0.54,0.69-1.04c0.19-0.34,0.46-0.78,0.81-1.29l0.35-0.51l0.3-0.46c0.62-0.91,1.13-1.56,1.53-1.97
	c0.4-0.4,0.73-0.6,0.98-0.6c0.49,0,0.74,0.63,0.74,1.89c0,0.26-0.02,0.73-0.06,1.4c-0.07,1.3-0.11,2.41-0.11,3.32
	c0.01,0.18,0.01,0.35,0.01,0.5c0,0.15,0.01,0.34,0.01,0.58c0.04,0.61,0.07,1.07,0.09,1.4c0.04,0.52,0.06,0.78,0.06,0.78
	c0,0.27-0.17,0.52-0.5,0.72c-0.34,0.21-0.72,0.31-1.16,0.31c-0.4,0-0.75-0.12-1.04-0.35c-0.29-0.23-0.51-0.57-0.66-1.03
	c-0.15-0.45-0.22-1-0.22-1.66c0-0.08,0.01-0.22,0.02-0.43C67.21,79.14,67.22,78.88,67.23,78.55z M56.73,69.66l0.04-0.16
	c0.41-1.69,0.76-2.87,1.06-3.57c0.14-0.32,0.34-0.62,0.59-0.87c0.47-0.45,0.92-0.67,1.34-0.67c0.25,0,0.43,0.08,0.56,0.24
	c0.13,0.16,0.2,0.4,0.2,0.71c0,0.21-0.09,0.64-0.28,1.29c-0.31,1.08-0.55,2.09-0.7,3.03c0.1,0.02,0.21,0.05,0.3,0.08
	c0.37,0.08,0.61,0.17,0.73,0.27c0.12,0.11,0.17,0.29,0.17,0.56c0,0.47-0.08,0.91-0.25,1.32c-0.16,0.4-0.38,0.7-0.66,0.89
	c-0.2,0.13-0.54,0.23-0.99,0.27c-0.08,0.36-0.17,0.84-0.26,1.46c-0.06,0.54-0.12,1.3-0.18,2.26c-0.04,0.35-0.06,0.68-0.06,0.99
	c0,1.43,0.47,2.14,1.42,2.14h0.06h0.03c0.11,0,0.16,0.03,0.16,0.08c0,0.14-0.1,0.39-0.31,0.73c-0.21,0.34-0.44,0.65-0.7,0.91
	c-0.27,0.27-0.57,0.49-0.89,0.65c-0.32,0.16-0.61,0.25-0.87,0.25c-0.65,0-1.18-0.32-1.59-0.97c-0.41-0.64-0.61-1.49-0.61-2.55
	c0-0.46,0.05-1.05,0.16-1.78c0.11-0.73,0.28-1.72,0.51-2.95c0.04-0.22,0.08-0.45,0.12-0.69c0.04-0.24,0.07-0.38,0.08-0.43
	c-0.25-0.01-0.43-0.09-0.54-0.23c-0.1-0.14-0.16-0.38-0.16-0.71c0-0.57,0.15-1.11,0.45-1.62C55.97,70.1,56.33,69.78,56.73,69.66z
	 M44.2,75.63l0.56-0.96c0.56-0.92,1.01-1.6,1.34-2.05c0.33-0.45,0.63-0.77,0.89-0.97c0.26-0.2,0.53-0.3,0.8-0.3
	c0.44,0,0.75,0.17,0.93,0.52c0.18,0.35,0.27,0.94,0.27,1.8c0,0.35-0.03,0.87-0.08,1.56c-0.08,0.91-0.11,1.78-0.11,2.59
	c0,0.91,0.03,1.64,0.09,2.2c0.04,0.34,0.11,0.69,0.2,1.04c0.06,0.32,0.09,0.55,0.09,0.66c0,0.15-0.04,0.26-0.11,0.34
	c-0.19,0.24-0.45,0.46-0.76,0.64c-0.32,0.18-0.58,0.27-0.8,0.27c-0.35,0-0.67-0.18-0.96-0.53c-0.29-0.36-0.51-0.84-0.67-1.47
	c-0.16-0.63-0.24-1.33-0.24-2.13c0-0.52,0.04-1.15,0.11-1.86l-0.04-0.06c-0.26,0.44-0.48,0.78-0.64,1.04
	c-0.16,0.25-0.32,0.49-0.46,0.72c-0.69,1.16-1.28,2.21-1.76,3.14c-0.19,0.36-0.35,0.68-0.51,0.95c-0.23,0.33-0.49,0.5-0.78,0.5
	c-0.4,0-0.72-0.22-0.97-0.65c-0.25-0.43-0.37-0.99-0.37-1.69c0-0.43,0.03-0.95,0.1-1.56c0.07-0.62,0.16-1.28,0.28-1.98
	c0.11-0.71,0.25-1.43,0.41-2.17c0.16-0.74,0.33-1.45,0.52-2.12c0.29-1.11,0.63-1.98,1.05-2.61c0.28-0.41,0.62-0.61,1.02-0.61
	c0.65,0,0.97,0.61,0.97,1.84c0,0.9-0.13,2.19-0.4,3.85L44.2,75.63z M35.33,79.04c0.07,0.54,0.31,0.82,0.73,0.82
	c0.46,0,1.06-0.4,1.81-1.2c0.43-0.46,0.72-0.7,0.87-0.7c0.18,0,0.36,0.07,0.52,0.22c0.16,0.14,0.24,0.29,0.24,0.45
	c0,0.16-0.09,0.38-0.27,0.64c-0.33,0.48-0.71,0.95-1.13,1.41c-0.43,0.46-0.84,0.84-1.24,1.14c-0.4,0.31-0.79,0.55-1.19,0.72
	c-0.4,0.18-0.75,0.26-1.06,0.26c-0.77,0-1.39-0.32-1.85-0.97c-0.47-0.65-0.7-1.51-0.7-2.6c0-0.83,0.12-1.76,0.37-2.8
	c0.24-1.04,0.57-2.01,0.99-2.92c0.49-1.06,1.09-1.95,1.8-2.66c0.88-0.85,1.72-1.28,2.52-1.28c0.58,0,1.04,0.27,1.37,0.81
	c0.33,0.54,0.5,1.28,0.5,2.23c0,0.73-0.13,1.5-0.39,2.3c-0.26,0.8-0.65,1.57-1.17,2.3c-0.42,0.62-0.83,1.1-1.24,1.44
	c-0.41,0.35-0.76,0.52-1.06,0.52C35.61,79.19,35.48,79.13,35.33,79.04z M35.31,78.6c0.29-0.28,0.5-0.57,0.65-0.85
	c0.33-0.59,0.58-1.27,0.76-2.04c0.14-0.5,0.25-1.06,0.33-1.68c0.08-0.62,0.12-1.2,0.12-1.73c0-0.5-0.07-0.75-0.21-0.75
	c-0.2,0-0.5,0.64-0.91,1.93c-0.24,0.78-0.44,1.55-0.59,2.31c-0.15,0.77-0.23,1.43-0.23,1.99C35.24,77.97,35.27,78.24,35.31,78.6z
	 M179.16,38.67c0.92,0,1.38,0.16,1.38,0.47c0,0.36-0.21,0.56-0.62,0.58c-0.5,0.05-0.97,0.26-1.4,0.63
	c-0.43,0.37-0.82,0.88-1.16,1.53c-0.34,0.65-0.6,1.37-0.79,2.18c-0.19,0.81-0.28,1.66-0.28,2.56c0,0.99,0.16,1.79,0.48,2.39
	c0.32,0.6,0.73,0.91,1.24,0.91c0.47,0,0.88-0.35,1.24-1.06c0.35-0.71,0.53-1.54,0.53-2.48c0-0.78-0.11-1.5-0.33-2.18
	c-0.22-0.68-0.54-1.25-0.96-1.71c-0.18-0.21-0.27-0.36-0.27-0.45c0-0.13,0.13-0.32,0.38-0.58c0.29-0.28,0.6-0.52,0.96-0.71
	c0.35-0.19,0.65-0.29,0.89-0.29c0.28,0,0.54,0.11,0.79,0.32c0.25,0.21,0.47,0.52,0.67,0.91c0.19,0.39,0.34,0.85,0.44,1.36
	c0.1,0.51,0.15,1.06,0.15,1.64c0,0.96-0.12,1.92-0.37,2.86c-0.25,0.94-0.57,1.7-0.98,2.28c-0.52,0.74-1.15,1.34-1.88,1.81
	c-0.73,0.47-1.43,0.7-2.09,0.7c-0.64,0-1.28-0.16-1.92-0.49c-0.63-0.32-1.13-0.76-1.51-1.29c-0.49-0.73-0.74-1.76-0.74-3.09
	c0-1.05,0.18-2.11,0.53-3.16c0.35-1.05,0.83-2.01,1.43-2.87c0.6-0.86,1.27-1.53,2-2.03C177.69,38.91,178.42,38.67,179.16,38.67z
	 M169.96,48.2l-0.04,0.27c0,0.15-0.01,0.38-0.04,0.66c-0.03,0.45-0.06,0.81-0.1,1.09c-0.04,0.28-0.11,0.51-0.2,0.7
	c-0.09,0.19-0.2,0.39-0.35,0.59c-0.45,0.61-0.91,0.91-1.36,0.91c-0.37,0-0.65-0.2-0.82-0.6c-0.17-0.4-0.26-1.04-0.26-1.93
	c0-0.71,0.05-1.58,0.16-2.62c0.11-1.04,0.24-1.97,0.4-2.79l0.07-0.35c0-0.05,0.02-0.17,0.06-0.34c0.23-1.23,0.44-2.15,0.63-2.74
	c0.19-0.59,0.42-1.07,0.7-1.43c0.24-0.28,0.51-0.42,0.82-0.42c0.44,0,0.71,0.39,0.8,1.17c0.09-0.11,0.17-0.24,0.25-0.38
	c0.18-0.32,0.32-0.53,0.42-0.63c0.1-0.11,0.22-0.16,0.35-0.16c0.53,0,0.79,0.77,0.79,2.31c0,0.84-0.06,1.66-0.19,2.45
	c-0.12,0.79-0.28,1.43-0.47,1.93c-0.19,0.5-0.38,0.75-0.56,0.75c-0.21,0-0.31-0.57-0.31-1.7c0-0.6-0.02-1.07-0.07-1.41
	c-0.04-0.34-0.12-0.6-0.22-0.79c-0.19,0.51-0.31,1.67-0.36,3.48C170.01,47.26,169.98,47.93,169.96,48.2z M161.92,48.57
	c0.07,0.54,0.31,0.82,0.73,0.82c0.46,0,1.06-0.4,1.81-1.2c0.43-0.46,0.72-0.7,0.87-0.7c0.18,0,0.36,0.07,0.52,0.22
	c0.16,0.14,0.24,0.29,0.24,0.45c0,0.16-0.09,0.38-0.27,0.64c-0.33,0.48-0.71,0.95-1.13,1.41c-0.43,0.46-0.84,0.84-1.24,1.14
	c-0.4,0.31-0.79,0.55-1.19,0.72c-0.4,0.18-0.75,0.26-1.06,0.26c-0.77,0-1.39-0.32-1.85-0.97c-0.47-0.65-0.7-1.51-0.7-2.6
	c0-0.83,0.12-1.76,0.37-2.8c0.24-1.04,0.57-2.01,0.99-2.92c0.49-1.06,1.09-1.95,1.8-2.66c0.88-0.85,1.72-1.28,2.52-1.28
	c0.58,0,1.04,0.27,1.37,0.81c0.33,0.54,0.5,1.28,0.5,2.23c0,0.73-0.13,1.5-0.39,2.3c-0.26,0.8-0.65,1.57-1.17,2.3
	c-0.42,0.62-0.83,1.1-1.24,1.44c-0.41,0.35-0.76,0.52-1.06,0.52C162.2,48.72,162.06,48.67,161.92,48.57z M161.9,48.14
	c0.29-0.28,0.5-0.57,0.65-0.85c0.33-0.59,0.58-1.27,0.76-2.04c0.14-0.5,0.25-1.06,0.33-1.68c0.08-0.62,0.12-1.2,0.12-1.73
	c0-0.5-0.07-0.75-0.21-0.75c-0.2,0-0.5,0.64-0.91,1.93c-0.24,0.78-0.44,1.55-0.59,2.31c-0.15,0.77-0.23,1.43-0.23,1.99
	C161.83,47.51,161.85,47.78,161.9,48.14z M152.64,43.47l0.29-0.8c0.27-0.71,0.53-1.3,0.76-1.77c0.23-0.47,0.44-0.82,0.62-1.04
	c0.18-0.22,0.39-0.4,0.64-0.54c0.21-0.12,0.43-0.18,0.67-0.18c0.47,0,0.89,0.2,1.25,0.61c0.36,0.41,0.64,0.99,0.84,1.75
	c0.19,0.76,0.29,1.63,0.29,2.62c0,1.43-0.22,2.79-0.65,4.1c-0.44,1.31-1.01,2.37-1.71,3.18c-0.71,0.81-1.44,1.21-2.19,1.21
	c-0.44,0-0.8-0.13-1.1-0.41c-0.29-0.27-0.56-0.74-0.81-1.4l-0.05,0.22l-0.06,0.3c-0.4,1.89-0.72,3.28-0.96,4.16
	c-0.24,0.89-0.44,1.43-0.62,1.63c-0.14,0.19-0.29,0.28-0.48,0.28c-0.35,0-0.63-0.26-0.82-0.76c-0.2-0.51-0.3-1.22-0.3-2.13
	c0-0.99,0.07-2.19,0.22-3.58c0.15-1.39,0.35-2.81,0.62-4.26c0.26-1.45,0.55-2.77,0.87-3.95c0.21-0.73,0.44-1.36,0.69-1.9
	c0.25-0.55,0.49-0.94,0.72-1.18c0.16-0.14,0.35-0.22,0.54-0.22c0.28,0,0.5,0.12,0.65,0.35c0.16,0.23,0.23,0.56,0.23,0.98
	c0,0.36-0.03,0.76-0.08,1.19c-0.03,0.43-0.07,0.91-0.1,1.47L152.64,43.47z M151.96,49.24c0.17,0.73,0.5,1.1,0.98,1.1
	c0.34,0,0.65-0.22,0.94-0.67c0.29-0.45,0.53-1.05,0.7-1.82c0.17-0.77,0.26-1.57,0.26-2.41c0-0.67-0.03-1.25-0.1-1.74
	c-0.07-0.49-0.15-0.73-0.24-0.73c-0.06,0-0.22,0.24-0.47,0.72c-0.25,0.48-0.5,1.04-0.75,1.68c-0.52,1.23-0.91,2.33-1.17,3.27
	C152.03,48.86,151.99,49.07,151.96,49.24z M141.21,54.77c-0.36,0-0.55-0.3-0.55-0.91c0-0.65,0.14-1.49,0.43-2.52
	c0.29-1.03,0.6-1.83,0.93-2.4c0.15-0.26,0.33-0.45,0.51-0.56c0.19-0.11,0.45-0.16,0.78-0.16c0.57,0,0.85,0.25,0.85,0.75v0.06
	c-0.04,0.6-0.17,1.21-0.38,1.84c-0.25,0.79-0.46,1.4-0.64,1.82c-0.17,0.43-0.36,0.78-0.54,1.05c-0.2,0.33-0.43,0.58-0.69,0.76
	C141.66,54.67,141.42,54.77,141.21,54.77z M136.76,48.57c0.07,0.54,0.31,0.82,0.73,0.82c0.46,0,1.06-0.4,1.81-1.2
	c0.43-0.46,0.72-0.7,0.87-0.7c0.18,0,0.36,0.07,0.52,0.22c0.16,0.14,0.24,0.29,0.24,0.45c0,0.16-0.09,0.38-0.27,0.64
	c-0.33,0.48-0.71,0.95-1.13,1.41c-0.43,0.46-0.84,0.84-1.24,1.14c-0.4,0.31-0.79,0.55-1.19,0.72c-0.4,0.18-0.75,0.26-1.06,0.26
	c-0.77,0-1.39-0.32-1.85-0.97c-0.47-0.65-0.7-1.51-0.7-2.6c0-0.83,0.12-1.76,0.37-2.8c0.24-1.04,0.57-2.01,0.99-2.92
	c0.49-1.06,1.09-1.95,1.8-2.66c0.88-0.85,1.72-1.28,2.52-1.28c0.58,0,1.04,0.27,1.37,0.81c0.33,0.54,0.5,1.28,0.5,2.23
	c0,0.73-0.13,1.5-0.39,2.3c-0.26,0.8-0.65,1.57-1.17,2.3c-0.42,0.62-0.83,1.1-1.24,1.44c-0.41,0.35-0.76,0.52-1.06,0.52
	C137.04,48.72,136.9,48.67,136.76,48.57z M136.74,48.14c0.29-0.28,0.5-0.57,0.65-0.85c0.33-0.59,0.58-1.27,0.76-2.04
	c0.14-0.5,0.25-1.06,0.33-1.68c0.08-0.62,0.12-1.2,0.12-1.73c0-0.5-0.07-0.75-0.21-0.75c-0.2,0-0.5,0.64-0.91,1.93
	c-0.24,0.78-0.44,1.55-0.59,2.31c-0.15,0.77-0.23,1.43-0.23,1.99C136.67,47.51,136.7,47.78,136.74,48.14z M128.77,39.19l0.04-0.16
	c0.41-1.69,0.76-2.87,1.06-3.57c0.14-0.32,0.34-0.62,0.59-0.87c0.48-0.45,0.92-0.67,1.34-0.67c0.25,0,0.43,0.08,0.56,0.24
	c0.13,0.16,0.2,0.4,0.2,0.71c0,0.21-0.09,0.64-0.28,1.29c-0.31,1.08-0.55,2.09-0.7,3.03c0.1,0.02,0.21,0.05,0.3,0.08
	c0.37,0.08,0.61,0.17,0.73,0.27c0.12,0.11,0.17,0.29,0.17,0.56c0,0.47-0.08,0.91-0.25,1.32c-0.16,0.4-0.38,0.7-0.66,0.89
	c-0.2,0.13-0.54,0.23-0.99,0.27c-0.08,0.36-0.17,0.84-0.26,1.46c-0.06,0.54-0.12,1.3-0.18,2.26c-0.04,0.35-0.06,0.68-0.06,0.99
	c0,1.43,0.47,2.14,1.42,2.14h0.06h0.03c0.11,0,0.16,0.03,0.16,0.08c0,0.14-0.1,0.39-0.31,0.73c-0.21,0.34-0.44,0.65-0.7,0.91
	c-0.27,0.27-0.57,0.49-0.89,0.65c-0.32,0.16-0.61,0.25-0.87,0.25c-0.65,0-1.18-0.32-1.59-0.97c-0.41-0.64-0.61-1.49-0.61-2.55
	c0-0.46,0.05-1.05,0.16-1.78c0.11-0.73,0.28-1.72,0.51-2.95c0.04-0.22,0.08-0.45,0.12-0.69c0.04-0.24,0.07-0.38,0.08-0.43
	c-0.25-0.01-0.43-0.09-0.54-0.23c-0.1-0.14-0.16-0.38-0.16-0.71c0-0.57,0.15-1.11,0.45-1.62C128.01,39.64,128.37,39.32,128.77,39.19
	z M121.29,45.16l0.56-0.96c0.56-0.92,1.01-1.6,1.34-2.05c0.33-0.45,0.63-0.77,0.89-0.97c0.26-0.2,0.53-0.3,0.8-0.3
	c0.44,0,0.75,0.17,0.93,0.52c0.18,0.35,0.27,0.94,0.27,1.8c0,0.35-0.03,0.87-0.08,1.56c-0.08,0.91-0.11,1.78-0.11,2.59
	c0,0.91,0.03,1.64,0.09,2.2c0.04,0.34,0.11,0.69,0.2,1.04c0.06,0.32,0.09,0.55,0.09,0.66c0,0.15-0.04,0.26-0.11,0.34
	c-0.19,0.24-0.45,0.46-0.76,0.64c-0.32,0.18-0.58,0.27-0.8,0.27c-0.36,0-0.67-0.18-0.96-0.53c-0.29-0.36-0.51-0.84-0.67-1.47
	c-0.16-0.63-0.24-1.33-0.24-2.13c0-0.52,0.04-1.15,0.11-1.86l-0.04-0.06c-0.26,0.44-0.48,0.78-0.64,1.04
	c-0.16,0.25-0.32,0.49-0.46,0.72c-0.69,1.16-1.28,2.21-1.76,3.14c-0.19,0.36-0.35,0.68-0.51,0.95c-0.23,0.33-0.49,0.5-0.78,0.5
	c-0.4,0-0.72-0.22-0.97-0.65c-0.25-0.43-0.37-0.99-0.37-1.69c0-0.43,0.03-0.95,0.1-1.56c0.07-0.62,0.16-1.28,0.28-1.98
	c0.11-0.71,0.25-1.43,0.41-2.17c0.16-0.74,0.33-1.45,0.52-2.12c0.29-1.11,0.63-1.98,1.05-2.61c0.28-0.41,0.62-0.61,1.02-0.61
	c0.65,0,0.97,0.61,0.97,1.84c0,0.9-0.13,2.19-0.4,3.85L121.29,45.16z M112.42,48.57c0.07,0.54,0.31,0.82,0.73,0.82
	c0.46,0,1.06-0.4,1.81-1.2c0.43-0.46,0.72-0.7,0.87-0.7c0.18,0,0.36,0.07,0.52,0.22c0.16,0.14,0.24,0.29,0.24,0.45
	c0,0.16-0.09,0.38-0.27,0.64c-0.33,0.48-0.71,0.95-1.13,1.41c-0.43,0.46-0.84,0.84-1.24,1.14c-0.4,0.31-0.79,0.55-1.19,0.72
	c-0.4,0.18-0.75,0.26-1.06,0.26c-0.77,0-1.39-0.32-1.85-0.97c-0.47-0.65-0.7-1.51-0.7-2.6c0-0.83,0.12-1.76,0.37-2.8
	c0.24-1.04,0.57-2.01,0.99-2.92c0.49-1.06,1.09-1.95,1.8-2.66c0.88-0.85,1.72-1.28,2.52-1.28c0.58,0,1.04,0.27,1.37,0.81
	c0.33,0.54,0.5,1.28,0.5,2.23c0,0.73-0.13,1.5-0.39,2.3c-0.26,0.8-0.65,1.57-1.17,2.3c-0.42,0.62-0.83,1.1-1.24,1.44
	c-0.41,0.35-0.76,0.52-1.06,0.52C112.7,48.72,112.56,48.67,112.42,48.57z M112.4,48.14c0.29-0.28,0.5-0.57,0.65-0.85
	c0.33-0.59,0.58-1.27,0.76-2.04c0.14-0.5,0.25-1.06,0.33-1.68c0.08-0.62,0.12-1.2,0.12-1.73c0-0.5-0.07-0.75-0.21-0.75
	c-0.2,0-0.5,0.64-0.91,1.93c-0.24,0.78-0.44,1.55-0.59,2.31c-0.15,0.77-0.23,1.43-0.23,1.99C112.33,47.51,112.36,47.78,112.4,48.14z
	"/>
<path class="st0" d="M55.9,109.12l-0.04,0.27c0,0.15-0.01,0.38-0.04,0.66c-0.03,0.45-0.06,0.81-0.1,1.09
	c-0.04,0.28-0.11,0.51-0.2,0.7c-0.09,0.19-0.2,0.39-0.35,0.59c-0.45,0.61-0.91,0.91-1.36,0.91c-0.37,0-0.65-0.2-0.82-0.6
	c-0.17-0.4-0.26-1.04-0.26-1.93c0-0.71,0.05-1.58,0.16-2.62c0.11-1.04,0.24-1.97,0.4-2.79l0.07-0.35c0-0.05,0.02-0.17,0.06-0.34
	c0.23-1.23,0.44-2.15,0.63-2.74c0.19-0.59,0.42-1.07,0.7-1.43c0.24-0.28,0.51-0.42,0.82-0.42c0.44,0,0.71,0.39,0.8,1.17
	c0.09-0.11,0.17-0.24,0.25-0.38c0.18-0.32,0.32-0.53,0.41-0.63c0.1-0.11,0.22-0.16,0.34-0.16c0.53,0,0.8,0.77,0.8,2.31
	c0,0.84-0.06,1.66-0.19,2.45c-0.12,0.79-0.28,1.43-0.47,1.93c-0.19,0.5-0.38,0.75-0.56,0.75c-0.21,0-0.31-0.57-0.31-1.7
	c0-0.6-0.02-1.07-0.07-1.41c-0.04-0.34-0.12-0.6-0.22-0.79c-0.19,0.51-0.31,1.67-0.36,3.48C55.94,108.19,55.92,108.86,55.9,109.12
	 M49.2,110.35l-0.02,0.75c-0.09,1.81-0.21,3.27-0.34,4.41c-0.14,1.13-0.29,1.83-0.47,2.08c-0.23,0.37-0.6,0.56-1.1,0.56
	c-0.54,0-0.92-0.15-1.16-0.46c-0.09-0.15-0.16-0.29-0.18-0.42c-0.03-0.13-0.05-0.36-0.05-0.69v-0.13v-0.13v-0.16
	c0.02-2.55,0.19-5.12,0.5-7.7c0.32-2.58,0.73-4.93,1.25-7.05c0.52-2.12,1.09-3.8,1.71-5.04c0.62-1.24,1.23-1.86,1.85-1.86
	c0.28,0,0.48,0.14,0.62,0.41c0.14,0.28,0.21,0.67,0.21,1.19c0,0.77-0.06,1.59-0.17,2.46c-0.11,0.86-0.25,1.57-0.4,2.11
	c-0.16,0.54-0.32,0.82-0.48,0.82c-0.15,0-0.22-0.38-0.22-1.14v-0.26v-0.16c0-0.76-0.01-1.26-0.03-1.49
	c-0.02-0.24-0.07-0.39-0.15-0.48c-0.07,0.2-0.12,0.43-0.15,0.7c-0.15,1.09-0.26,2.08-0.35,2.96c-0.09,0.88-0.23,2.31-0.41,4.29
	c-0.01,0.11-0.02,0.23-0.03,0.37c-0.01,0.13-0.02,0.26-0.03,0.37h0.13c0.08-0.01,0.14-0.01,0.21-0.02c0.06,0,0.16,0,0.28,0
	c0.23-0.04,0.44-0.06,0.63-0.06c0.73,0,1.1,0.28,1.1,0.84c0,0.29-0.07,0.64-0.21,1.05c-0.14,0.41-0.3,0.76-0.49,1.03
	c-0.19,0.27-0.41,0.47-0.65,0.59c-0.24,0.13-0.59,0.21-1.05,0.26c-0.1,0-0.17,0-0.21,0C49.29,110.33,49.25,110.34,49.2,110.35z
	 M35.02,106.09l0.56-0.96c0.56-0.92,1.01-1.6,1.34-2.05c0.33-0.45,0.63-0.77,0.89-0.97c0.26-0.2,0.53-0.3,0.8-0.3
	c0.44,0,0.75,0.17,0.93,0.52c0.18,0.35,0.27,0.94,0.27,1.8c0,0.35-0.03,0.87-0.08,1.56c-0.08,0.91-0.11,1.78-0.11,2.59
	c0,0.91,0.03,1.64,0.09,2.2c0.04,0.34,0.11,0.69,0.2,1.04c0.06,0.32,0.09,0.55,0.09,0.66c0,0.15-0.04,0.26-0.11,0.34
	c-0.19,0.24-0.45,0.46-0.76,0.64c-0.32,0.18-0.58,0.27-0.8,0.27c-0.35,0-0.67-0.18-0.96-0.53c-0.29-0.36-0.51-0.84-0.67-1.47
	c-0.16-0.63-0.24-1.33-0.24-2.13c0-0.52,0.04-1.15,0.11-1.86l-0.04-0.06c-0.26,0.44-0.48,0.78-0.64,1.04
	c-0.16,0.25-0.32,0.49-0.46,0.72c-0.69,1.16-1.28,2.21-1.76,3.14c-0.19,0.36-0.35,0.68-0.51,0.95c-0.23,0.33-0.49,0.5-0.78,0.5
	c-0.4,0-0.72-0.22-0.97-0.65c-0.25-0.43-0.37-0.99-0.37-1.69c0-0.43,0.03-0.95,0.1-1.56c0.07-0.62,0.16-1.28,0.28-1.98
	c0.11-0.71,0.25-1.43,0.41-2.17c0.16-0.74,0.33-1.45,0.52-2.12c0.29-1.11,0.63-1.98,1.05-2.61c0.28-0.41,0.62-0.61,1.02-0.61
	c0.65,0,0.97,0.61,0.97,1.84c0,0.9-0.13,2.19-0.4,3.85L35.02,106.09z M26.68,109.01l-0.16,0.19c-0.03,0.03-0.24,0.26-0.62,0.7
	c-0.74,0.85-1.35,1.52-1.83,2.02c-0.48,0.49-0.88,0.85-1.21,1.09c-0.32,0.23-0.58,0.35-0.78,0.35c-0.33,0-0.6-0.2-0.8-0.6
	c-0.2-0.4-0.3-0.93-0.3-1.57c0-1.09,0.11-2.35,0.34-3.8c0.22-1.44,0.52-2.87,0.9-4.28c0.41-1.56,0.92-2.51,1.52-2.86
	c0.21-0.13,0.46-0.2,0.74-0.2c0.39,0,0.71,0.18,0.95,0.53c0.24,0.36,0.36,0.82,0.36,1.4c0,0.4-0.04,0.82-0.14,1.26
	c-0.1,0.45-0.24,0.97-0.45,1.59l-0.11,0.39c-0.53,1.65-0.8,2.66-0.8,3.01c0,0.21,0.05,0.32,0.15,0.32c0.09,0,0.21-0.1,0.36-0.29
	c0.15-0.19,0.38-0.54,0.69-1.04c0.19-0.34,0.46-0.78,0.81-1.29l0.35-0.51l0.3-0.46c0.62-0.91,1.13-1.56,1.53-1.97
	c0.4-0.4,0.73-0.6,0.98-0.6c0.49,0,0.74,0.63,0.74,1.89c0,0.26-0.02,0.73-0.06,1.4c-0.07,1.3-0.11,2.41-0.11,3.32
	c0.01,0.18,0.01,0.35,0.01,0.5c0,0.15,0.01,0.34,0.01,0.58c0.04,0.61,0.07,1.07,0.09,1.4c0.04,0.52,0.06,0.78,0.06,0.78
	c0,0.27-0.17,0.52-0.5,0.72c-0.34,0.21-0.72,0.31-1.16,0.31c-0.4,0-0.75-0.12-1.04-0.35c-0.29-0.23-0.51-0.57-0.66-1.03
	c-0.15-0.45-0.22-1-0.22-1.66c0-0.08,0.01-0.22,0.02-0.43C26.65,109.61,26.67,109.34,26.68,109.01z M182.58,78.85v0.06l-0.04-0.06
	c-0.58,0.99-1.1,1.8-1.58,2.43c-0.48,0.63-0.92,1.1-1.33,1.42c-0.41,0.31-0.78,0.47-1.12,0.47c-0.69,0-1.26-0.34-1.72-1.02
	c-0.45-0.68-0.68-1.54-0.68-2.58c0-0.64,0.11-1.4,0.33-2.28c0.22-0.88,0.53-1.74,0.92-2.58c0.65-1.37,1.47-2.54,2.45-3.51
	c1.01-0.99,1.99-1.48,2.93-1.48c0.79,0,1.44,0.24,1.95,0.71c0.51,0.48,0.77,1.08,0.77,1.8c0,0.53-0.13,1.1-0.38,1.69
	c0.33,0,0.54,0.05,0.63,0.16c0.09,0.1,0.13,0.34,0.13,0.73c0-0.04-0.02,0.15-0.04,0.56c-0.03,0.9-0.05,1.74-0.05,2.52
	c0,0.41,0,0.72,0.01,0.93c0.01,0.21,0.02,0.45,0.04,0.72c0.02,0.27,0.03,0.49,0.05,0.65c0.05,0.43,0.13,0.85,0.24,1.27
	c-0.37,0.53-0.73,0.93-1.07,1.17c-0.34,0.25-0.69,0.38-1.04,0.38c-0.95,0-1.43-1.17-1.43-3.51
	C182.56,79.22,182.56,79.01,182.58,78.85z M183.13,75.74l-0.18,0.08c-0.44,0.18-0.76,0.27-0.96,0.27c-0.24,0-0.36-0.09-0.36-0.27
	c0-0.06,0.05-0.23,0.15-0.5c0.35-0.78,0.52-1.5,0.52-2.18c0-0.39-0.05-0.75-0.14-1.07c-0.09-0.32-0.19-0.48-0.31-0.48
	c-0.1,0-0.25,0.15-0.45,0.46c-0.58,0.91-1.03,1.85-1.37,2.81c-0.34,0.96-0.51,1.82-0.51,2.57c0,0.5,0.07,0.91,0.21,1.24
	c0.14,0.32,0.31,0.49,0.53,0.49c0.18,0,0.51-0.28,1-0.84c0.49-0.56,1.05-1.3,1.66-2.22l0.25-0.3L183.13,75.74z M174.44,65.9
	c0.28-0.44,0.6-1.05,0.95-1.83c0.17-0.36,0.27-0.58,0.31-0.64c0.04-0.06,0.1-0.12,0.2-0.18c0.27-0.13,0.62-0.28,1.06-0.43
	c0.44-0.15,0.73-0.23,0.88-0.23c0.19,0,0.29,0.12,0.29,0.37c0,0.53-0.35,1.28-1.03,2.23c-0.53,0.74-1.05,1.3-1.56,1.69
	c-0.51,0.39-1,0.58-1.48,0.58c-0.27,0-0.4-0.14-0.4-0.42c0-0.11,0.03-0.2,0.07-0.28c0.05-0.08,0.15-0.2,0.29-0.35
	C174.09,66.33,174.23,66.17,174.44,65.9z M172.94,82.92h-0.11c-0.24,0-0.48-0.19-0.73-0.56c-0.22-0.36-0.38-0.75-0.47-1.18
	c-0.09-0.43-0.14-0.98-0.14-1.64c0-0.76,0.05-1.56,0.14-2.41c0.09-0.85,0.23-1.75,0.42-2.7c0.19-0.95,0.39-1.78,0.6-2.48
	c0.21-0.71,0.43-1.26,0.66-1.66c0.18-0.33,0.44-0.49,0.78-0.49c0.8,0,1.19,0.92,1.19,2.75c0,1.05-0.09,2.28-0.26,3.7
	c-0.17,1.41-0.39,2.7-0.66,3.88c-0.27,1.18-0.53,1.99-0.8,2.44C173.44,82.8,173.23,82.92,172.94,82.92z M167.86,77.01
	c-0.16,0.07-0.26,0.11-0.32,0.11c-0.22,0-0.39-0.12-0.53-0.35c-0.14-0.24-0.21-0.54-0.21-0.9c0-0.71,0.17-1.64,0.52-2.77
	c0.35-1.13,0.71-1.97,1.1-2.52c0.28-0.41,0.59-0.61,0.94-0.61c0.27,0,0.51,0.13,0.71,0.4c0.2,0.27,0.35,0.65,0.45,1.16
	c0.1,0.5,0.16,1.09,0.16,1.76c0,1.69-0.24,3.27-0.72,4.75c-0.48,1.48-1.12,2.66-1.93,3.54c-0.8,0.88-1.66,1.32-2.58,1.32
	c-0.6,0-1.12-0.21-1.56-0.63c-0.44-0.42-0.79-1.02-1.03-1.8c-0.24-0.78-0.36-1.69-0.36-2.73c0-0.98,0.11-2.08,0.32-3.3
	c0.22-1.22,0.52-2.46,0.91-3.72c0.39-1.27,0.85-2.5,1.39-3.7c0.57-1.3,1.22-2.31,1.95-3.03c0.51-0.52,1.04-0.79,1.59-0.79
	c0.57,0,1.02,0.26,1.36,0.76c0.34,0.51,0.51,1.18,0.51,2.03c0,0.59-0.16,1.23-0.47,1.88c-0.31,0.66-0.71,1.2-1.18,1.62
	c-0.47,0.43-0.94,0.64-1.39,0.64c-0.22,0-0.33-0.08-0.33-0.25c0-0.13,0.09-0.36,0.27-0.69c0.3-0.55,0.55-1.17,0.75-1.88
	c0.21-0.71,0.31-1.33,0.31-1.86c0-0.48-0.05-0.72-0.15-0.72c-0.12,0-0.31,0.3-0.57,0.9c-0.26,0.6-0.49,1.29-0.69,2.06
	c-0.48,1.85-0.85,3.6-1.11,5.27c-0.26,1.66-0.39,3.08-0.39,4.25c0,0.88,0.1,1.62,0.29,2.22c0.19,0.6,0.43,0.9,0.71,0.9
	c0.35,0,0.64-0.29,0.87-0.88C167.68,78.86,167.82,78.05,167.86,77.01z M158.42,78.85v0.06l-0.04-0.06c-0.58,0.99-1.1,1.8-1.58,2.43
	c-0.48,0.63-0.92,1.1-1.33,1.42c-0.41,0.31-0.78,0.47-1.12,0.47c-0.69,0-1.26-0.34-1.72-1.02c-0.45-0.68-0.68-1.54-0.68-2.58
	c0-0.64,0.11-1.4,0.33-2.28c0.22-0.88,0.53-1.74,0.92-2.58c0.65-1.37,1.47-2.54,2.45-3.51c1.01-0.99,1.99-1.48,2.93-1.48
	c0.79,0,1.44,0.24,1.95,0.71c0.51,0.48,0.77,1.08,0.77,1.8c0,0.53-0.13,1.1-0.38,1.69c0.33,0,0.54,0.05,0.63,0.16
	c0.09,0.1,0.13,0.34,0.13,0.73c0-0.04-0.02,0.15-0.04,0.56c-0.04,0.9-0.05,1.74-0.05,2.52c0,0.41,0,0.72,0.01,0.93
	c0.01,0.21,0.02,0.45,0.04,0.72c0.02,0.27,0.03,0.49,0.05,0.65c0.05,0.43,0.13,0.85,0.24,1.27c-0.37,0.53-0.73,0.93-1.07,1.17
	c-0.34,0.25-0.69,0.38-1.04,0.38c-0.95,0-1.43-1.17-1.43-3.51C158.4,79.22,158.41,79.01,158.42,78.85z M158.97,75.74l-0.18,0.08
	c-0.44,0.18-0.76,0.27-0.96,0.27c-0.24,0-0.36-0.09-0.36-0.27c0-0.06,0.05-0.23,0.15-0.5c0.35-0.78,0.52-1.5,0.52-2.18
	c0-0.39-0.05-0.75-0.14-1.07c-0.09-0.32-0.19-0.48-0.31-0.48c-0.1,0-0.25,0.15-0.45,0.46c-0.58,0.91-1.03,1.85-1.37,2.81
	c-0.34,0.96-0.51,1.82-0.51,2.57c0,0.5,0.07,0.91,0.21,1.24c0.14,0.32,0.31,0.49,0.53,0.49c0.18,0,0.51-0.28,1-0.84
	c0.49-0.56,1.05-1.3,1.66-2.22l0.25-0.3L158.97,75.74z M148.81,66.26v-0.22c0-0.33-0.03-0.5-0.09-0.5c-0.08,0-0.21,0.18-0.38,0.54
	c-0.17,0.36-0.32,0.77-0.46,1.21c-0.34,1.13-0.64,2.33-0.9,3.6c-0.26,1.26-0.46,2.53-0.6,3.79c-0.05,0.49-0.1,1.02-0.16,1.59
	l0.05,0.05c0.62-0.93,1.08-1.59,1.38-1.98c0.3-0.39,0.7-0.84,1.18-1.33c0.6-0.62,1.11-0.92,1.5-0.92c0.25,0,0.45,0.13,0.59,0.4
	c0.14,0.27,0.21,0.64,0.21,1.11c0,0.27-0.04,0.66-0.11,1.17c-0.13,1.07-0.19,1.97-0.19,2.7c0,0.34,0.02,0.69,0.05,1.06
	c0.03,0.29,0.13,0.87,0.3,1.75c0.14,0.67,0.21,1.04,0.21,1.11c0,0.13-0.1,0.28-0.3,0.46c-0.66,0.64-1.26,0.95-1.81,0.95
	c-0.45,0-0.81-0.32-1.1-0.96c-0.28-0.64-0.42-1.47-0.42-2.5c0-0.4,0.03-0.9,0.08-1.47l-0.04-0.06c-0.88,1.31-1.47,2.2-1.76,2.66
	c-1.1,1.56-1.95,2.33-2.55,2.33c-0.27,0-0.5-0.26-0.67-0.79c-0.18-0.53-0.27-1.23-0.27-2.08c0-1.83,0.39-4.17,1.16-7.02
	c0.31-1.11,0.64-2.17,0.98-3.18c0.35-1.01,0.68-1.88,0.99-2.62c0.23-0.52,0.47-0.97,0.72-1.35c0.25-0.39,0.5-0.71,0.76-0.97
	c0.26-0.26,0.52-0.45,0.79-0.58c0.27-0.13,0.53-0.19,0.8-0.19c0.66,0,1.2,0.3,1.62,0.9c0.42,0.6,0.63,1.37,0.63,2.3
	c0,0.65-0.13,1.35-0.38,2.08c-0.25,0.74-0.61,1.43-1.07,2.1c-0.29,0.42-0.62,0.79-0.99,1.11c-0.37,0.32-0.65,0.48-0.86,0.48
	c-0.06,0-0.12-0.03-0.17-0.09c-0.05-0.07-0.07-0.15-0.07-0.25c0-0.14,0.08-0.43,0.24-0.89c0.19-0.5,0.37-1.1,0.55-1.83
	c0.18-0.72,0.32-1.4,0.41-2.05C148.76,67.25,148.81,66.7,148.81,66.26z M135.56,85.23c-0.36,0-0.55-0.3-0.55-0.91
	c0-0.65,0.14-1.49,0.43-2.52c0.29-1.03,0.6-1.83,0.92-2.4c0.15-0.26,0.33-0.45,0.51-0.56c0.19-0.11,0.45-0.16,0.78-0.16
	c0.57,0,0.85,0.25,0.85,0.75v0.06c-0.04,0.6-0.17,1.21-0.38,1.84c-0.25,0.79-0.46,1.4-0.64,1.82c-0.17,0.43-0.35,0.78-0.54,1.05
	c-0.2,0.33-0.43,0.58-0.69,0.76C136.01,85.14,135.77,85.23,135.56,85.23z M130.93,78.85v0.06l-0.04-0.06
	c-0.58,0.99-1.1,1.8-1.58,2.43c-0.48,0.63-0.92,1.1-1.33,1.42c-0.41,0.31-0.78,0.47-1.12,0.47c-0.69,0-1.26-0.34-1.72-1.02
	c-0.45-0.68-0.68-1.54-0.68-2.58c0-0.64,0.11-1.4,0.33-2.28c0.23-0.88,0.53-1.74,0.92-2.58c0.65-1.37,1.47-2.54,2.45-3.51
	c1.01-0.99,1.99-1.48,2.93-1.48c0.79,0,1.44,0.24,1.95,0.71c0.51,0.48,0.77,1.08,0.77,1.8c0,0.53-0.13,1.1-0.38,1.69
	c0.33,0,0.54,0.05,0.63,0.16c0.09,0.1,0.13,0.34,0.13,0.73c0-0.04-0.02,0.15-0.04,0.56c-0.03,0.9-0.05,1.74-0.05,2.52
	c0,0.41,0,0.72,0.01,0.93c0.01,0.21,0.02,0.45,0.04,0.72c0.02,0.27,0.03,0.49,0.05,0.65c0.05,0.43,0.13,0.85,0.24,1.27
	c-0.37,0.53-0.73,0.93-1.07,1.17c-0.34,0.25-0.69,0.38-1.04,0.38c-0.95,0-1.43-1.17-1.43-3.51
	C130.91,79.22,130.92,79.01,130.93,78.85z M131.48,75.74l-0.18,0.08c-0.44,0.18-0.76,0.27-0.96,0.27c-0.24,0-0.36-0.09-0.36-0.27
	c0-0.06,0.05-0.23,0.15-0.5c0.35-0.78,0.52-1.5,0.52-2.18c0-0.39-0.05-0.75-0.14-1.07c-0.09-0.32-0.19-0.48-0.31-0.48
	c-0.1,0-0.25,0.15-0.45,0.46c-0.58,0.91-1.03,1.85-1.37,2.81c-0.34,0.96-0.51,1.82-0.51,2.57c0,0.5,0.07,0.91,0.21,1.24
	c0.14,0.32,0.31,0.49,0.53,0.49c0.18,0,0.51-0.28,1-0.84c0.49-0.56,1.05-1.3,1.66-2.22l0.25-0.3L131.48,75.74z M118.82,83.39
	c0.36-0.03,0.7-0.29,0.99-0.78c0.3-0.5,0.45-1.04,0.45-1.61c0-0.4-0.09-0.72-0.27-0.95c-0.19-0.28-0.62-0.56-1.29-0.83
	c-0.99-0.42-1.62-0.88-1.92-1.4c-0.28-0.42-0.42-0.91-0.42-1.49c0-1.04,0.26-2.08,0.78-3.13c0.52-1.04,1.18-1.89,1.98-2.56
	c0.8-0.66,1.62-1,2.43-1c0.4,0,0.77,0.13,1.12,0.41c0.35,0.27,0.62,0.63,0.82,1.08c0.21,0.45,0.31,0.94,0.31,1.46
	c0,0.52-0.11,1.05-0.33,1.61c-0.23,0.55-0.5,1.01-0.84,1.38c-0.34,0.37-0.66,0.55-0.96,0.55c-0.17,0-0.32-0.06-0.45-0.16
	c-0.13-0.11-0.19-0.23-0.19-0.35c0-0.13,0.03-0.32,0.08-0.56c0.14-0.78,0.21-1.46,0.21-2.04c0-0.57-0.12-1.11-0.35-1.62
	c-0.3,0.31-0.5,0.55-0.59,0.73c-0.24,0.4-0.42,0.85-0.55,1.36c-0.14,0.52-0.22,1.01-0.22,1.47c0,0.32,0.05,0.59,0.16,0.78
	c0.1,0.2,0.27,0.36,0.5,0.5c0.23,0.14,0.58,0.29,1.05,0.45c0.79,0.28,1.34,0.55,1.66,0.82c0.08,0.07,0.19,0.2,0.35,0.39
	c0.23,0.37,0.35,0.85,0.35,1.44c0,0.63-0.13,1.26-0.4,1.9c-0.27,0.64-0.68,1.3-1.24,1.98c-0.59,0.74-1.18,1.26-1.77,1.58
	c-0.59,0.32-1.24,0.48-1.95,0.48c-0.68,0-1.23-0.2-1.62-0.6c-0.39-0.4-0.59-0.94-0.59-1.63c0-0.49,0.13-0.99,0.39-1.49
	c0.26-0.51,0.58-0.91,0.97-1.23c0.39-0.32,0.77-0.48,1.13-0.48c0.28,0,0.42,0.09,0.42,0.27c0,0.09-0.04,0.24-0.12,0.45
	c-0.24,0.64-0.36,1.22-0.36,1.76C118.54,82.69,118.63,83.05,118.82,83.39z M113.78,69.24c-0.58-0.03-0.87-0.54-0.87-1.54
	c0-0.5,0.09-1.08,0.25-1.74c0.17-0.65,0.36-1.14,0.58-1.46c0.11-0.18,0.22-0.3,0.34-0.37c0.11-0.07,0.26-0.11,0.44-0.11
	c0.31,0,0.54,0.11,0.68,0.33c0.15,0.22,0.22,0.59,0.22,1.11c0,0.65-0.08,1.26-0.23,1.83c-0.15,0.58-0.35,1.04-0.6,1.4
	c-0.25,0.36-0.51,0.54-0.78,0.54H113.78z M112.67,82.95c-0.28-0.03-0.53-0.21-0.76-0.56c-0.23-0.36-0.39-0.76-0.49-1.18
	c-0.09-0.42-0.14-0.97-0.14-1.64c0-1.5,0.19-3.18,0.57-5.07c0.38-1.88,0.81-3.25,1.29-4.09c0.19-0.35,0.46-0.53,0.8-0.53
	c0.36,0,0.65,0.24,0.86,0.72c0.22,0.48,0.33,1.11,0.33,1.89c0,1.15-0.11,2.5-0.34,4.05c-0.22,1.55-0.54,3.16-0.95,4.83
	c-0.16,0.67-0.36,1.12-0.59,1.36c-0.16,0.14-0.35,0.22-0.56,0.22H112.67z M108.29,78.66l-0.04,0.27c0,0.15-0.01,0.38-0.04,0.66
	c-0.03,0.45-0.06,0.81-0.1,1.09c-0.04,0.28-0.11,0.51-0.2,0.7c-0.09,0.19-0.2,0.39-0.35,0.59c-0.45,0.61-0.91,0.91-1.36,0.91
	c-0.37,0-0.65-0.2-0.82-0.6c-0.17-0.4-0.26-1.04-0.26-1.93c0-0.71,0.05-1.58,0.16-2.62c0.11-1.04,0.24-1.97,0.4-2.79l0.07-0.35
	c0-0.05,0.02-0.17,0.06-0.34c0.23-1.23,0.44-2.15,0.63-2.74c0.19-0.59,0.42-1.07,0.7-1.43c0.24-0.28,0.51-0.42,0.82-0.42
	c0.44,0,0.71,0.39,0.8,1.17c0.09-0.11,0.17-0.24,0.25-0.38c0.18-0.32,0.32-0.53,0.41-0.63c0.1-0.11,0.22-0.16,0.34-0.16
	c0.53,0,0.8,0.77,0.8,2.31c0,0.84-0.06,1.66-0.19,2.45c-0.12,0.79-0.28,1.43-0.47,1.93c-0.19,0.5-0.38,0.75-0.56,0.75
	c-0.21,0-0.31-0.57-0.31-1.7c0-0.6-0.02-1.07-0.07-1.41c-0.04-0.34-0.12-0.6-0.22-0.79c-0.19,0.51-0.31,1.67-0.36,3.48
	C108.34,77.73,108.31,78.39,108.29,78.66z M99.43,75.63l0.56-0.96c0.56-0.92,1.01-1.6,1.34-2.05c0.33-0.45,0.63-0.77,0.89-0.97
	c0.26-0.2,0.53-0.3,0.8-0.3c0.44,0,0.75,0.17,0.93,0.52c0.18,0.35,0.27,0.94,0.27,1.8c0,0.35-0.03,0.87-0.08,1.56
	c-0.08,0.91-0.11,1.78-0.11,2.59c0,0.91,0.03,1.64,0.09,2.2c0.04,0.34,0.11,0.69,0.2,1.04c0.06,0.32,0.09,0.55,0.09,0.66
	c0,0.15-0.04,0.26-0.11,0.34c-0.19,0.24-0.45,0.46-0.76,0.64c-0.32,0.18-0.58,0.27-0.8,0.27c-0.35,0-0.67-0.18-0.96-0.53
	c-0.29-0.36-0.51-0.84-0.67-1.47c-0.16-0.63-0.24-1.33-0.24-2.13c0-0.52,0.04-1.15,0.11-1.86l-0.04-0.06
	c-0.26,0.44-0.48,0.78-0.64,1.04c-0.16,0.25-0.32,0.49-0.46,0.72c-0.69,1.16-1.28,2.21-1.76,3.14c-0.19,0.36-0.36,0.68-0.51,0.95
	c-0.23,0.33-0.49,0.5-0.78,0.5c-0.4,0-0.72-0.22-0.97-0.65c-0.25-0.43-0.37-0.99-0.37-1.69c0-0.43,0.03-0.95,0.1-1.56
	c0.07-0.62,0.16-1.28,0.28-1.98c0.11-0.71,0.25-1.43,0.41-2.17c0.16-0.74,0.33-1.45,0.52-2.12c0.29-1.11,0.63-1.98,1.05-2.61
	c0.28-0.41,0.62-0.61,1.02-0.61c0.65,0,0.97,0.61,0.97,1.84c0,0.9-0.13,2.19-0.4,3.85L99.43,75.63z"/>
<path class="st0" d="M186.73,113.33c-0.23,0-0.43-0.1-0.58-0.29c-0.15-0.2-0.22-0.45-0.22-0.77c0-0.57,0.2-1.31,0.61-2.23
	c0.08-0.16,0.15-0.3,0.22-0.41c0.18-0.27,0.42-0.49,0.7-0.66c0.29-0.17,0.56-0.26,0.82-0.26c0.25,0,0.45,0.08,0.6,0.23
	c0.15,0.15,0.22,0.36,0.22,0.61c0,0.31-0.06,0.7-0.17,1.16c-0.11,0.47-0.24,0.89-0.4,1.26c-0.09,0.21-0.23,0.41-0.43,0.61
	C187.59,113.08,187.14,113.33,186.73,113.33 M187.39,108.26c-0.42,0-0.63-0.3-0.63-0.91c0-0.16,0.04-0.46,0.1-0.9
	c0.51-3.23,1.05-6.01,1.63-8.35c0.14-0.58,0.3-1.02,0.49-1.33c0.23-0.36,0.58-0.67,1.05-0.93c0.48-0.26,0.94-0.39,1.39-0.39
	c0.42,0,0.63,0.21,0.63,0.64c0,0.49-0.42,2.27-1.25,5.36c-0.87,3.13-1.37,4.83-1.5,5.12c-0.12,0.26-0.31,0.52-0.56,0.79
	c-0.25,0.26-0.5,0.48-0.75,0.65C187.75,108.17,187.55,108.26,187.39,108.26z M180.99,109.5c0.07,0.54,0.31,0.82,0.73,0.82
	c0.46,0,1.06-0.4,1.81-1.2c0.43-0.46,0.72-0.7,0.87-0.7c0.18,0,0.36,0.07,0.52,0.22c0.16,0.14,0.24,0.29,0.24,0.45
	c0,0.16-0.09,0.38-0.27,0.64c-0.33,0.48-0.71,0.95-1.13,1.41c-0.43,0.46-0.84,0.84-1.24,1.14c-0.4,0.31-0.79,0.55-1.19,0.72
	c-0.4,0.18-0.75,0.26-1.06,0.26c-0.77,0-1.39-0.32-1.85-0.97c-0.47-0.65-0.7-1.51-0.7-2.6c0-0.83,0.12-1.76,0.37-2.8
	c0.24-1.04,0.57-2.01,0.99-2.92c0.49-1.06,1.09-1.95,1.8-2.66c0.88-0.85,1.72-1.28,2.52-1.28c0.58,0,1.04,0.27,1.37,0.81
	c0.33,0.54,0.5,1.28,0.5,2.23c0,0.73-0.13,1.5-0.39,2.3c-0.26,0.8-0.65,1.57-1.17,2.3c-0.42,0.62-0.83,1.1-1.24,1.44
	c-0.41,0.35-0.76,0.52-1.06,0.52C181.27,109.65,181.13,109.6,180.99,109.5z M180.97,109.06c0.29-0.28,0.5-0.57,0.65-0.85
	c0.33-0.59,0.58-1.27,0.76-2.04c0.14-0.5,0.25-1.06,0.33-1.68c0.08-0.62,0.12-1.2,0.12-1.73c0-0.5-0.07-0.75-0.21-0.75
	c-0.2,0-0.5,0.64-0.91,1.93c-0.24,0.78-0.44,1.55-0.59,2.31c-0.15,0.77-0.23,1.43-0.23,1.99
	C180.9,108.44,180.92,108.71,180.97,109.06z M173,100.12l0.04-0.16c0.41-1.69,0.76-2.87,1.06-3.57c0.14-0.32,0.34-0.62,0.59-0.87
	c0.48-0.45,0.92-0.67,1.34-0.67c0.25,0,0.43,0.08,0.56,0.24c0.13,0.16,0.2,0.4,0.2,0.71c0,0.21-0.09,0.64-0.28,1.29
	c-0.31,1.08-0.55,2.09-0.7,3.03c0.1,0.02,0.21,0.05,0.3,0.08c0.37,0.08,0.61,0.17,0.73,0.27c0.12,0.11,0.17,0.29,0.17,0.56
	c0,0.47-0.08,0.91-0.25,1.32c-0.16,0.4-0.38,0.7-0.66,0.89c-0.2,0.13-0.54,0.23-0.99,0.27c-0.08,0.36-0.17,0.84-0.26,1.46
	c-0.06,0.54-0.12,1.3-0.18,2.26c-0.04,0.35-0.06,0.68-0.06,0.99c0,1.43,0.47,2.14,1.42,2.14h0.06h0.03c0.11,0,0.16,0.03,0.16,0.08
	c0,0.14-0.1,0.39-0.31,0.73c-0.21,0.34-0.44,0.65-0.7,0.91c-0.27,0.27-0.57,0.49-0.89,0.65c-0.32,0.16-0.61,0.25-0.87,0.25
	c-0.65,0-1.18-0.32-1.59-0.97c-0.41-0.64-0.61-1.49-0.61-2.55c0-0.46,0.05-1.05,0.16-1.78c0.11-0.73,0.28-1.72,0.51-2.95
	c0.04-0.22,0.08-0.45,0.12-0.69c0.04-0.24,0.07-0.38,0.08-0.43c-0.25-0.01-0.43-0.09-0.54-0.23c-0.1-0.14-0.16-0.38-0.16-0.71
	c0-0.57,0.15-1.11,0.45-1.62C172.24,100.57,172.59,100.25,173,100.12z M165.52,106.09l0.56-0.96c0.56-0.92,1.01-1.6,1.34-2.05
	c0.33-0.45,0.63-0.77,0.89-0.97c0.26-0.2,0.53-0.3,0.8-0.3c0.44,0,0.75,0.17,0.93,0.52c0.18,0.35,0.27,0.94,0.27,1.8
	c0,0.35-0.03,0.87-0.08,1.56c-0.08,0.91-0.11,1.78-0.11,2.59c0,0.91,0.03,1.64,0.09,2.2c0.04,0.34,0.11,0.69,0.2,1.04
	c0.06,0.32,0.09,0.55,0.09,0.66c0,0.15-0.04,0.26-0.11,0.34c-0.19,0.24-0.45,0.46-0.76,0.64c-0.32,0.18-0.58,0.27-0.8,0.27
	c-0.35,0-0.67-0.18-0.96-0.53c-0.29-0.36-0.51-0.84-0.67-1.47c-0.16-0.63-0.24-1.33-0.24-2.13c0-0.52,0.04-1.15,0.11-1.86
	l-0.04-0.06c-0.26,0.44-0.48,0.78-0.64,1.04c-0.16,0.25-0.32,0.49-0.46,0.72c-0.69,1.16-1.28,2.21-1.76,3.14
	c-0.19,0.36-0.35,0.68-0.51,0.95c-0.23,0.33-0.49,0.5-0.78,0.5c-0.4,0-0.72-0.22-0.97-0.65c-0.25-0.43-0.37-0.99-0.37-1.69
	c0-0.43,0.03-0.95,0.1-1.56c0.07-0.62,0.16-1.28,0.28-1.98c0.11-0.71,0.25-1.43,0.41-2.17c0.16-0.74,0.33-1.45,0.52-2.12
	c0.29-1.11,0.63-1.98,1.05-2.61c0.28-0.41,0.62-0.61,1.02-0.61c0.65,0,0.97,0.61,0.97,1.84c0,0.9-0.13,2.19-0.4,3.85L165.52,106.09z
	 M156.65,109.5c0.07,0.54,0.31,0.82,0.73,0.82c0.46,0,1.06-0.4,1.81-1.2c0.43-0.46,0.72-0.7,0.87-0.7c0.18,0,0.36,0.07,0.52,0.22
	c0.16,0.14,0.24,0.29,0.24,0.45c0,0.16-0.09,0.38-0.27,0.64c-0.33,0.48-0.71,0.95-1.13,1.41c-0.43,0.46-0.84,0.84-1.24,1.14
	c-0.4,0.31-0.79,0.55-1.19,0.72c-0.4,0.18-0.75,0.26-1.06,0.26c-0.77,0-1.39-0.32-1.85-0.97c-0.47-0.65-0.7-1.51-0.7-2.6
	c0-0.83,0.12-1.76,0.37-2.8c0.24-1.04,0.57-2.01,0.99-2.92c0.49-1.06,1.09-1.95,1.8-2.66c0.88-0.85,1.72-1.28,2.52-1.28
	c0.58,0,1.04,0.27,1.37,0.81c0.33,0.54,0.5,1.28,0.5,2.23c0,0.73-0.13,1.5-0.39,2.3c-0.26,0.8-0.65,1.57-1.17,2.3
	c-0.42,0.62-0.83,1.1-1.24,1.44c-0.41,0.35-0.76,0.52-1.06,0.52C156.93,109.65,156.79,109.6,156.65,109.5z M156.63,109.06
	c0.29-0.28,0.5-0.57,0.65-0.85c0.33-0.59,0.58-1.27,0.76-2.04c0.14-0.5,0.25-1.06,0.33-1.68c0.08-0.62,0.12-1.2,0.12-1.73
	c0-0.5-0.07-0.75-0.21-0.75c-0.2,0-0.5,0.64-0.91,1.93c-0.24,0.78-0.44,1.55-0.59,2.31c-0.15,0.77-0.23,1.43-0.23,1.99
	C156.56,108.44,156.58,108.71,156.63,109.06z M151.16,99.71c-0.58-0.03-0.87-0.54-0.87-1.54c0-0.5,0.09-1.08,0.25-1.74
	c0.17-0.65,0.36-1.14,0.58-1.46c0.11-0.18,0.23-0.3,0.34-0.37c0.11-0.07,0.26-0.11,0.44-0.11c0.31,0,0.54,0.11,0.68,0.33
	c0.15,0.22,0.22,0.59,0.22,1.11c0,0.65-0.08,1.26-0.23,1.83c-0.15,0.58-0.35,1.04-0.6,1.4c-0.25,0.36-0.51,0.54-0.78,0.54H151.16z
	 M150.04,113.41c-0.28-0.03-0.53-0.21-0.76-0.56c-0.23-0.36-0.39-0.76-0.49-1.18c-0.09-0.42-0.14-0.97-0.14-1.64
	c0-1.5,0.19-3.18,0.57-5.07c0.38-1.88,0.81-3.25,1.29-4.09c0.19-0.35,0.46-0.53,0.8-0.53c0.36,0,0.65,0.24,0.86,0.72
	c0.22,0.48,0.33,1.11,0.33,1.89c0,1.15-0.11,2.5-0.34,4.05c-0.23,1.55-0.54,3.16-0.95,4.83c-0.16,0.67-0.36,1.12-0.59,1.36
	c-0.16,0.14-0.35,0.22-0.56,0.22H150.04z M143.98,100.83l0.09-0.56c0.19-1.24,0.36-2.25,0.52-3.01c0.16-0.77,0.31-1.42,0.48-1.95
	c0.16-0.53,0.33-0.91,0.49-1.15c0.26-0.41,0.73-0.61,1.4-0.61c0.3,0,0.52,0.02,0.66,0.07c0.15,0.04,0.26,0.13,0.35,0.24
	c-0.3,1.35-0.5,2.37-0.62,3.04c-0.11,0.68-0.24,1.6-0.38,2.78c-0.21,1.93-0.32,3.66-0.32,5.21c0,1.02,0.06,2.08,0.17,3.19
	c0.11,1.1,0.3,2.33,0.57,3.68c-0.33,0.34-0.64,0.62-0.94,0.86c-0.3,0.24-0.58,0.42-0.85,0.56c-0.27,0.13-0.51,0.2-0.71,0.2
	c-0.36,0-0.61-0.26-0.76-0.78c-0.12-0.43-0.21-0.77-0.24-1.03c-0.04-0.26-0.1-0.97-0.2-2.15c-0.83,1.27-1.62,2.27-2.38,3
	c-0.76,0.73-1.36,1.1-1.81,1.1c-0.52,0-0.95-0.31-1.28-0.93c-0.33-0.62-0.5-1.42-0.5-2.4c0-0.88,0.13-1.86,0.39-2.93
	c0.26-1.08,0.61-2.12,1.06-3.12c0.3-0.66,0.6-1.22,0.92-1.68c0.31-0.46,0.66-0.88,1.06-1.27c0.72-0.69,1.32-1.04,1.8-1.04
	C143.18,100.15,143.52,100.38,143.98,100.83z M143.69,107.28v-0.78c-0.32,0.41-0.55,0.61-0.71,0.61c-0.09,0-0.13-0.07-0.13-0.19
	c0-0.06,0.02-0.17,0.05-0.34c0.13-0.55,0.19-1.07,0.19-1.58c0-0.73-0.11-1.5-0.32-2.29c-0.09-0.41-0.21-0.61-0.34-0.61
	c-0.07,0-0.12,0.05-0.17,0.13c-0.2,0.35-0.4,0.84-0.58,1.47c-0.18,0.63-0.34,1.31-0.46,2.05c-0.12,0.74-0.18,1.4-0.18,1.97
	c0,1.08,0.22,1.62,0.67,1.62c0.22,0,0.52-0.19,0.89-0.58C142.98,108.38,143.34,107.88,143.69,107.28z M128.38,109.01l-0.16,0.19
	c-0.03,0.03-0.24,0.26-0.62,0.7c-0.74,0.85-1.35,1.52-1.83,2.02c-0.48,0.49-0.88,0.85-1.21,1.09c-0.32,0.23-0.58,0.35-0.78,0.35
	c-0.33,0-0.6-0.2-0.8-0.6c-0.2-0.4-0.3-0.93-0.3-1.57c0-1.09,0.11-2.35,0.34-3.8c0.22-1.44,0.52-2.87,0.9-4.28
	c0.41-1.56,0.92-2.51,1.52-2.86c0.21-0.13,0.46-0.2,0.74-0.2c0.39,0,0.71,0.18,0.95,0.53c0.24,0.36,0.36,0.82,0.36,1.4
	c0,0.4-0.04,0.82-0.14,1.26c-0.1,0.45-0.24,0.97-0.45,1.59l-0.11,0.39c-0.53,1.65-0.8,2.66-0.8,3.01c0,0.21,0.05,0.32,0.15,0.32
	c0.09,0,0.21-0.1,0.36-0.29c0.15-0.19,0.38-0.54,0.69-1.04c0.19-0.34,0.46-0.78,0.81-1.29l0.35-0.51l0.3-0.46
	c0.62-0.91,1.13-1.56,1.53-1.97c0.4-0.4,0.73-0.6,0.98-0.6c0.49,0,0.74,0.63,0.74,1.89c0,0.26-0.02,0.73-0.06,1.4
	c-0.07,1.3-0.11,2.41-0.11,3.32c0.01,0.18,0.01,0.35,0.01,0.5c0,0.15,0.01,0.34,0.01,0.58c0.04,0.61,0.07,1.07,0.09,1.4
	c0.04,0.52,0.06,0.78,0.06,0.78c0,0.27-0.17,0.52-0.5,0.72c-0.34,0.21-0.72,0.31-1.16,0.31c-0.4,0-0.75-0.12-1.04-0.35
	c-0.29-0.23-0.51-0.57-0.66-1.03c-0.15-0.45-0.22-1-0.22-1.66c0-0.08,0.01-0.22,0.02-0.43
	C128.36,109.61,128.37,109.34,128.38,109.01z M117.88,100.12l0.04-0.16c0.41-1.69,0.76-2.87,1.06-3.57
	c0.14-0.32,0.34-0.62,0.59-0.87c0.48-0.45,0.92-0.67,1.34-0.67c0.25,0,0.43,0.08,0.56,0.24c0.13,0.16,0.2,0.4,0.2,0.71
	c0,0.21-0.09,0.64-0.28,1.29c-0.31,1.08-0.55,2.09-0.7,3.03c0.1,0.02,0.21,0.05,0.3,0.08c0.37,0.08,0.61,0.17,0.73,0.27
	c0.12,0.11,0.17,0.29,0.17,0.56c0,0.47-0.08,0.91-0.25,1.32c-0.16,0.4-0.38,0.7-0.66,0.89c-0.2,0.13-0.53,0.23-0.99,0.27
	c-0.08,0.36-0.17,0.84-0.26,1.46c-0.06,0.54-0.12,1.3-0.18,2.26c-0.04,0.35-0.06,0.68-0.06,0.99c0,1.43,0.47,2.14,1.42,2.14h0.06
	H121c0.11,0,0.16,0.03,0.16,0.08c0,0.14-0.1,0.39-0.31,0.73c-0.21,0.34-0.44,0.65-0.7,0.91c-0.27,0.27-0.57,0.49-0.89,0.65
	c-0.32,0.16-0.61,0.25-0.87,0.25c-0.65,0-1.18-0.32-1.59-0.97c-0.41-0.64-0.61-1.49-0.61-2.55c0-0.46,0.05-1.05,0.16-1.78
	c0.11-0.73,0.28-1.72,0.51-2.95c0.04-0.22,0.08-0.45,0.12-0.69c0.04-0.24,0.07-0.38,0.08-0.43c-0.25-0.01-0.43-0.09-0.54-0.23
	c-0.1-0.14-0.16-0.38-0.16-0.71c0-0.57,0.15-1.11,0.45-1.62C117.12,100.57,117.47,100.25,117.88,100.12z M105.35,106.09l0.56-0.96
	c0.56-0.92,1.01-1.6,1.34-2.05c0.33-0.45,0.63-0.77,0.89-0.97c0.26-0.2,0.53-0.3,0.8-0.3c0.44,0,0.75,0.17,0.93,0.52
	c0.18,0.35,0.27,0.94,0.27,1.8c0,0.35-0.03,0.87-0.08,1.56c-0.08,0.91-0.11,1.78-0.11,2.59c0,0.91,0.03,1.64,0.09,2.2
	c0.04,0.34,0.11,0.69,0.2,1.04c0.06,0.32,0.09,0.55,0.09,0.66c0,0.15-0.04,0.26-0.11,0.34c-0.19,0.24-0.45,0.46-0.76,0.64
	c-0.32,0.18-0.58,0.27-0.8,0.27c-0.35,0-0.67-0.18-0.96-0.53c-0.29-0.36-0.51-0.84-0.67-1.47c-0.16-0.63-0.24-1.33-0.24-2.13
	c0-0.52,0.04-1.15,0.11-1.86l-0.04-0.06c-0.26,0.44-0.48,0.78-0.64,1.04c-0.16,0.25-0.32,0.49-0.46,0.72
	c-0.69,1.16-1.28,2.21-1.76,3.14c-0.19,0.36-0.35,0.68-0.51,0.95c-0.23,0.33-0.49,0.5-0.78,0.5c-0.4,0-0.72-0.22-0.97-0.65
	c-0.25-0.43-0.37-0.99-0.37-1.69c0-0.43,0.03-0.95,0.1-1.56c0.07-0.62,0.16-1.28,0.28-1.98c0.11-0.71,0.25-1.43,0.41-2.17
	c0.16-0.74,0.33-1.45,0.52-2.12c0.28-1.11,0.63-1.98,1.05-2.61c0.28-0.41,0.62-0.61,1.02-0.61c0.65,0,0.97,0.61,0.97,1.84
	c0,0.9-0.13,2.19-0.4,3.85L105.35,106.09z M96.48,109.5c0.07,0.54,0.31,0.82,0.73,0.82c0.46,0,1.06-0.4,1.81-1.2
	c0.43-0.46,0.72-0.7,0.87-0.7c0.18,0,0.36,0.07,0.52,0.22c0.16,0.14,0.24,0.29,0.24,0.45c0,0.16-0.09,0.38-0.27,0.64
	c-0.33,0.48-0.71,0.95-1.13,1.41c-0.43,0.46-0.84,0.84-1.24,1.14c-0.4,0.31-0.79,0.55-1.19,0.72c-0.4,0.18-0.75,0.26-1.06,0.26
	c-0.77,0-1.39-0.32-1.85-0.97c-0.47-0.65-0.7-1.51-0.7-2.6c0-0.83,0.12-1.76,0.37-2.8c0.24-1.04,0.57-2.01,0.99-2.92
	c0.49-1.06,1.09-1.95,1.8-2.66c0.88-0.85,1.72-1.28,2.52-1.28c0.58,0,1.04,0.27,1.37,0.81c0.33,0.54,0.5,1.28,0.5,2.23
	c0,0.73-0.13,1.5-0.39,2.3c-0.26,0.8-0.65,1.57-1.17,2.3c-0.42,0.62-0.83,1.1-1.24,1.44c-0.41,0.35-0.76,0.52-1.06,0.52
	C96.76,109.65,96.62,109.6,96.48,109.5z M96.46,109.06c0.29-0.28,0.5-0.57,0.65-0.85c0.33-0.59,0.58-1.27,0.76-2.04
	c0.14-0.5,0.25-1.06,0.33-1.68c0.08-0.62,0.12-1.2,0.12-1.73c0-0.5-0.07-0.75-0.21-0.75c-0.2,0-0.5,0.64-0.91,1.93
	c-0.24,0.78-0.44,1.55-0.59,2.31c-0.15,0.77-0.23,1.43-0.23,1.99C96.39,108.44,96.42,108.71,96.46,109.06z M84.53,103.08
	c0.24-1.02,0.45-2.09,0.62-3.21c0.16-1.11,0.25-1.97,0.25-2.57c0-0.16-0.03-0.25-0.09-0.25c-0.1,0-0.27,0.32-0.52,0.97
	c-0.25,0.65-0.45,1.3-0.62,1.97c-0.36,1.48-0.63,2.7-0.82,3.67c-0.19,0.97-0.33,1.79-0.4,2.45c-0.07,0.66-0.11,1.33-0.11,2.02
	c0,0.58,0.04,1.02,0.13,1.29c0.09,0.27,0.23,0.41,0.43,0.41c0.34,0,0.72-0.22,1.14-0.66c0.42-0.44,0.8-1.02,1.14-1.74
	c0.27-0.53,0.47-0.8,0.62-0.8c0.19,0,0.28,0.22,0.28,0.67c0,0.97-0.21,1.92-0.62,2.85c-0.41,0.92-0.94,1.68-1.6,2.25
	c-0.65,0.58-1.31,0.86-1.99,0.86c-0.83,0-1.51-0.39-2.04-1.16c-0.52-0.77-0.79-1.77-0.79-3.01c0-1.02,0.15-2.21,0.44-3.57
	c0.3-1.36,0.69-2.74,1.19-4.12c0.5-1.38,1.04-2.63,1.63-3.76c0.59-1.12,1.18-1.98,1.76-2.58c0.36-0.39,0.76-0.58,1.2-0.58
	c0.33,0,0.63,0.15,0.91,0.45c0.27,0.3,0.48,0.72,0.63,1.27c0.15,0.54,0.22,1.15,0.22,1.81c0,1.42-0.19,2.81-0.57,4.17
	c-0.38,1.36-0.91,2.53-1.58,3.53c-0.32,0.48-0.63,0.85-0.92,1.12c-0.3,0.27-0.56,0.41-0.78,0.41c-0.22,0-0.32-0.12-0.32-0.37
	c0-0.13,0.08-0.39,0.24-0.77c0.21-0.5,0.47-1.25,0.75-2.25c0.03-0.1,0.05-0.2,0.08-0.32C84.45,103.43,84.48,103.28,84.53,103.08z
	 M75.4,99.59c0.92,0,1.38,0.16,1.38,0.47c0,0.36-0.21,0.56-0.62,0.58c-0.5,0.05-0.97,0.26-1.4,0.63c-0.43,0.37-0.82,0.88-1.16,1.53
	c-0.34,0.65-0.6,1.37-0.79,2.18c-0.19,0.81-0.28,1.66-0.28,2.56c0,0.99,0.16,1.79,0.48,2.39c0.32,0.6,0.73,0.91,1.24,0.91
	c0.47,0,0.88-0.35,1.24-1.06c0.35-0.71,0.53-1.54,0.53-2.48c0-0.78-0.11-1.5-0.33-2.18c-0.22-0.68-0.54-1.25-0.96-1.71
	c-0.18-0.21-0.27-0.36-0.27-0.45c0-0.13,0.13-0.32,0.38-0.58c0.28-0.28,0.6-0.52,0.96-0.71c0.35-0.19,0.65-0.29,0.89-0.29
	c0.28,0,0.54,0.11,0.79,0.32c0.25,0.21,0.47,0.52,0.67,0.91c0.19,0.39,0.34,0.85,0.44,1.36c0.1,0.51,0.15,1.06,0.15,1.64
	c0,0.96-0.12,1.92-0.37,2.86c-0.25,0.94-0.57,1.7-0.98,2.28c-0.52,0.74-1.15,1.34-1.88,1.81c-0.73,0.47-1.43,0.7-2.09,0.7
	c-0.64,0-1.28-0.16-1.92-0.49c-0.63-0.32-1.13-0.76-1.51-1.29c-0.49-0.73-0.74-1.76-0.74-3.09c0-1.05,0.18-2.11,0.53-3.16
	c0.35-1.05,0.83-2.01,1.43-2.87c0.6-0.86,1.27-1.53,2-2.03C73.93,99.84,74.66,99.59,75.4,99.59z M66.9,99.71
	c-0.25-0.02-0.46-0.16-0.6-0.42c-0.15-0.26-0.23-0.62-0.23-1.06c0-0.55,0.08-1.15,0.24-1.78c0.16-0.64,0.35-1.11,0.57-1.44
	c0.2-0.3,0.46-0.45,0.76-0.45c0.32,0,0.54,0.11,0.68,0.34c0.13,0.23,0.2,0.6,0.2,1.13c0,0.99-0.16,1.85-0.48,2.59
	c-0.32,0.73-0.69,1.1-1.11,1.1H66.9z M66.24,101.07c0.35-0.48,0.67-0.72,0.98-0.72c0.34,0,0.62,0.17,0.83,0.51
	c0.21,0.34,0.31,0.78,0.31,1.33c0,0.78-0.05,1.59-0.16,2.43c-0.11,0.85-0.29,1.88-0.55,3.11c-0.26,1.23-0.67,3.04-1.24,5.44
	c-0.19,0.84-0.41,1.61-0.67,2.34c-0.26,0.72-0.52,1.3-0.79,1.76c-0.08,0.14-0.18,0.22-0.31,0.22c-0.27,0-0.49-0.34-0.68-1.02
	c-0.19-0.68-0.29-1.49-0.29-2.44c0-1.04,0.07-1.95,0.2-2.74c0.13-0.79,0.28-1.18,0.43-1.18c0.06,0,0.14,0.06,0.22,0.16
	c0.03,0.02,0.04,0.03,0.05,0.04c0.01,0.01,0.03,0.02,0.05,0.04c0.01-0.16,0.03-0.34,0.03-0.54c0.01-0.2,0.03-0.37,0.04-0.52
	c0.1-1.8,0.23-3.21,0.37-4.22c0.14-1.01,0.32-1.87,0.54-2.58C65.73,102.03,65.94,101.56,66.24,101.07z M61.39,99.71
	c-0.58-0.03-0.87-0.54-0.87-1.54c0-0.5,0.09-1.08,0.25-1.74c0.17-0.65,0.36-1.14,0.58-1.46c0.11-0.18,0.22-0.3,0.34-0.37
	c0.11-0.07,0.26-0.11,0.44-0.11c0.31,0,0.54,0.11,0.68,0.33c0.15,0.22,0.22,0.59,0.22,1.11c0,0.65-0.08,1.26-0.23,1.83
	c-0.15,0.58-0.35,1.04-0.6,1.4c-0.25,0.36-0.51,0.54-0.78,0.54H61.39z M60.27,113.41c-0.28-0.03-0.53-0.21-0.76-0.56
	c-0.23-0.36-0.39-0.76-0.49-1.18c-0.09-0.42-0.14-0.97-0.14-1.64c0-1.5,0.19-3.18,0.57-5.07c0.38-1.88,0.81-3.25,1.29-4.09
	c0.19-0.35,0.46-0.53,0.8-0.53c0.36,0,0.65,0.24,0.86,0.72c0.22,0.48,0.33,1.11,0.33,1.89c0,1.15-0.11,2.5-0.34,4.05
	c-0.23,1.55-0.54,3.16-0.95,4.83c-0.16,0.67-0.36,1.12-0.59,1.36c-0.16,0.14-0.35,0.22-0.56,0.22H60.27z"/>
<path class="st1" d="M209.66,140.06l-0.01-0.36l0.03-0.34l0.07-0.31l0.12-0.3l0.14-0.25l0.16-0.19l0.19-0.12l0.2-0.06l0.21,0.01
	l0.2,0.08l0.19,0.15l0.18,0.21l0.16,0.26l0.12,0.29l0.09,0.32l0.05,0.36l0.01,0.36l-0.03,0.34l-0.07,0.32l-0.11,0.3l-0.14,0.25
	l-0.17,0.19l-0.19,0.12l-0.21,0.06l-0.21-0.01l-0.2-0.08l-0.19-0.15l-0.18-0.22l-0.16-0.27l-0.13-0.29l-0.09-0.32L209.66,140.06z
	 M211.05,135.57l-0.44,0.05l0.04-1.05l0.02-1.09l0-1.13l-0.02-1.17l-0.04-1.21l-0.06-1.25l-0.18-2.61l-0.1-1.54l-0.04-1.27
	l0.03-0.99l0.04-0.39l0.05-0.32l0.07-0.27l0.08-0.23l0.09-0.2l0.1-0.17l0.12-0.13l0.13-0.1l0.14-0.07l0.15-0.04l0.2,0.01l0.19,0.08
	l0.17,0.15l0.16,0.22l0.14,0.26l0.11,0.28l0.08,0.3l0.04,0.32l0.02,0.38l0,0.42l-0.05,0.97l-0.12,1.14l-0.19,1.32l-0.39,2.46
	l-0.23,1.74l-0.14,1.74l-0.14,2.45L211.05,135.57z M203.78,140.76l-0.01-0.36l0.03-0.34l0.07-0.32l0.12-0.29l0.14-0.25l0.16-0.19
	l0.18-0.12l0.2-0.06l0.21,0.01l0.2,0.08l0.19,0.14l0.18,0.22l0.16,0.26l0.12,0.29l0.09,0.33l0.05,0.36l0.01,0.36l-0.03,0.34
	l-0.07,0.32l-0.11,0.3l-0.14,0.25l-0.17,0.18l-0.19,0.12l-0.21,0.06l-0.21-0.01l-0.2-0.08l-0.19-0.15l-0.18-0.22l-0.16-0.27
	l-0.13-0.29l-0.09-0.32L203.78,140.76z M205.17,136.26l-0.44,0.05l0.04-1.05l0.02-1.09l0-1.13l-0.02-1.17l-0.04-1.21l-0.06-1.25
	l-0.18-2.61l-0.1-1.54l-0.04-1.27l0.03-0.99l0.04-0.39l0.05-0.32l0.07-0.27l0.08-0.24l0.09-0.2l0.1-0.17l0.12-0.14l0.13-0.1
	l0.14-0.07l0.15-0.03l0.2,0.01l0.18,0.08l0.17,0.15l0.16,0.22l0.14,0.26l0.11,0.28l0.08,0.3l0.04,0.32l0.02,0.37l0,0.42l-0.05,0.97
	l-0.12,1.14l-0.19,1.32l-0.39,2.46l-0.23,1.74l-0.14,1.74l-0.13,2.45L205.17,136.26z M198.79,133.83l-0.07-0.56l-0.1-0.51
	l-0.14-0.46l-0.17-0.41l-0.19-0.32l-0.21-0.22l-0.11-0.07l-0.12-0.05l-0.13-0.02l-0.13,0l-0.14,0.03l-0.13,0.06l-0.12,0.09
	l-0.12,0.12l-0.11,0.15l-0.1,0.17l-0.16,0.44l-0.14,0.65l-0.12,0.97l-0.11,1.29l-0.1,1.61l-0.11,2.87l-0.01,0.94l0.02,0.61
	l0.04,0.35l0.06,0.3l0.07,0.25l0.09,0.2l0.11,0.15l0.13,0.1l0.14,0.06l0.16,0l0.24-0.07l0.24-0.15l0.23-0.23l0.23-0.31l0.11-0.21
	l0.11-0.26l0.22-0.69l0.22-0.91l0.21-1.14l0.17-1.24l0.09-1.21l0.02-0.6l0-0.59l-0.02-0.58L198.79,133.83z M200.74,130.4l-0.44,8.78
	l-0.03,1.06l0.03,0.8l0.04,0.27l0.06,0.19l0.09,0.1l0.12,0.03l0.11-0.07l0.13-0.18l0.14-0.29l0.15-0.4l0.15-0.51l0.15-0.62
	l0.14-0.72l0.13-0.83l0.37-0.04l-0.15,1.18l-0.19,1.02l-0.22,0.86l-0.12,0.37l-0.13,0.33l-0.28,0.54l-0.14,0.21l-0.14,0.18
	l-0.14,0.15l-0.15,0.11l-0.15,0.07l-0.15,0.04l-0.14,0l-0.13-0.02l-0.12-0.04l-0.11-0.06l-0.22-0.2l-0.19-0.29l-0.17-0.38
	l-0.14-0.47l-0.12-0.56l-0.1-0.65l-0.04,0l-0.15,0.68l-0.18,0.6l-0.2,0.51l-0.23,0.43l-0.26,0.34l-0.28,0.25l-0.31,0.17l-0.17,0.06
	l-0.17,0.03l-0.22,0l-0.21-0.04l-0.21-0.09l-0.2-0.13l-0.2-0.17l-0.2-0.22l-0.19-0.26l-0.19-0.31l-0.18-0.34l-0.16-0.36l-0.14-0.39
	l-0.12-0.4l-0.11-0.43l-0.09-0.45l-0.07-0.47l-0.05-0.49l-0.05-0.77l-0.01-0.75l0.04-0.73l0.08-0.71l0.12-0.7l0.16-0.68l0.21-0.66
	l0.25-0.65l0.27-0.6l0.28-0.52l0.28-0.45l0.29-0.37l0.3-0.3l0.3-0.22l0.31-0.15l0.31-0.07l0.29,0l0.27,0.07l0.24,0.15l0.22,0.22
	l0.19,0.3l0.17,0.37l0.15,0.45l0.12,0.52l0.04,0l0.08-2.01L200.74,130.4z M188.17,137.19l-0.07,1.6l-0.03,0.92l-0.01,0.81l0.01,0.7
	l0.04,0.59l0.05,0.44l0.09,0.38l0.12,0.31l0.15,0.25l0.17,0.19l0.18,0.13l0.2,0.07l0.21,0l0.15-0.03l0.14-0.06l0.13-0.08l0.12-0.11
	l0.22-0.3l0.19-0.41l0.08-0.27l0.08-0.36l0.14-0.99l0.12-1.33l0.1-1.69l0.12-3l0.01-0.96l-0.02-0.61l-0.04-0.32l-0.06-0.27
	l-0.08-0.23l-0.1-0.18l-0.12-0.14l-0.14-0.09l-0.17-0.04h-0.18l-0.14,0.03l-0.14,0.06l-0.14,0.09l-0.14,0.13l-0.27,0.35l-0.26,0.47
	l-0.12,0.3l-0.11,0.35l-0.1,0.41l-0.09,0.47l-0.14,1.09L188.17,137.19z M188.86,123.17l-0.48,10.14l0.04,0.06l0.15-0.45l0.16-0.4
	l0.18-0.34l0.19-0.28l0.21-0.23l0.23-0.17l0.24-0.11l0.25-0.06l0.22-0.01l0.22,0.03l0.21,0.07l0.21,0.12l0.21,0.15l0.2,0.2l0.2,0.24
	l0.19,0.28l0.18,0.31l0.16,0.34l0.15,0.37l0.13,0.4l0.11,0.43l0.09,0.45l0.07,0.48l0.05,0.51l0.05,0.75l0,0.74l-0.04,0.73
	l-0.09,0.72l-0.13,0.71l-0.17,0.7l-0.22,0.69l-0.26,0.68l-0.29,0.64l-0.3,0.56l-0.32,0.48l-0.33,0.4l-0.35,0.32l-0.36,0.24
	l-0.38,0.16l-0.39,0.09l-0.24,0.01l-0.23-0.02l-0.22-0.05l-0.22-0.08l-0.21-0.11l-0.2-0.14l-0.2-0.17l-0.19-0.2l-0.18-0.23
	l-0.16-0.25l-0.14-0.28l-0.12-0.3l-0.1-0.32l-0.08-0.34l-0.06-0.36l-0.05-0.39l-0.05-0.65l-0.02-0.61l0-0.56l0.02-0.52l0.05-0.57
	l0.68-13.76l-1.07,0.13l0.02-0.79l1.04-0.12l0.47-0.07l0.44-0.09l0.41-0.12L188.86,123.17z M175.26,133.24l-0.18,3.38l0.04,0.06
	l0.27-0.86l0.29-0.75l0.3-0.64l0.32-0.53l0.33-0.43l0.17-0.17l0.17-0.15l0.18-0.12l0.18-0.09l0.19-0.07l0.19-0.03l0.33,0l0.3,0.08
	l0.26,0.17l0.23,0.25l0.2,0.3l0.15,0.32l0.1,0.35l0.05,0.37l0.03,1.31l0.04,0.05l0.27-0.83l0.29-0.73l0.31-0.62l0.33-0.52l0.35-0.41
	l0.37-0.31l0.19-0.12l0.2-0.09l0.2-0.06l0.21-0.04l0.27,0l0.25,0.08l0.24,0.15l0.23,0.23l0.2,0.29l0.16,0.33l0.11,0.38l0.06,0.43
	l0.03,0.71l-0.04,0.93l-0.31,5.77l-0.03,0.9l0,0.46l0.04,0.28l0.07,0.2l0.09,0.11l0.06,0.02l0.06,0l0.14-0.07l0.15-0.16l0.17-0.27
	l0.18-0.37l0.18-0.49l0.15-0.61l0.13-0.74l0.11-0.87l0.42-0.05l-0.12,1.09l-0.18,0.96l-0.11,0.43l-0.12,0.4l-0.13,0.36l-0.15,0.33
	l-0.16,0.29l-0.16,0.26l-0.16,0.22l-0.16,0.18l-0.17,0.15l-0.17,0.11l-0.17,0.08l-0.17,0.04l-0.29,0l-0.26-0.07l-0.24-0.13
	l-0.22-0.2l-0.19-0.27l-0.15-0.33l-0.11-0.4l-0.06-0.47l-0.01-0.53l0.04-0.84l0.34-5.88l0.02-0.23l0.02-0.46l-0.01-0.79l-0.02-0.15
	l-0.04-0.14l-0.13-0.24l-0.08-0.09l-0.09-0.06l-0.09-0.03l-0.09,0l-0.13,0.04l-0.14,0.09l-0.15,0.14L180.9,134l-0.35,0.52
	l-0.39,0.71l-0.19,0.44l-0.17,0.49l-0.15,0.55l-0.14,0.62l-0.11,0.67l-0.1,0.73l-0.08,0.79l-0.05,0.85l-0.24,4.73l-1.7,0.2
	l0.42-8.37l0.06-1.28l-0.01-0.73l-0.06-0.33l-0.13-0.3l-0.08-0.12l-0.09-0.09l-0.1-0.05l-0.1-0.01l-0.14,0.04l-0.14,0.1l-0.15,0.15
	l-0.16,0.2l-0.17,0.26l-0.17,0.31l-0.37,0.78l-0.18,0.47l-0.16,0.52l-0.15,0.56l-0.13,0.61l-0.1,0.66l-0.09,0.71l-0.07,0.76
	l-0.05,0.81l-0.24,4.64l-1.71,0.2l0.6-11.33l-1.51,0.18l0.02-0.79l1.42-0.17l0.47-0.07l0.45-0.1l0.44-0.13L175.26,133.24z
	 M169.2,136.43l-0.05-0.4l-0.08-0.35l-0.11-0.32l-0.14-0.27l-0.17-0.21l-0.19-0.15l-0.21-0.07l-0.23-0.01l-0.17,0.04l-0.16,0.06
	l-0.14,0.1l-0.13,0.12l-0.11,0.15l-0.1,0.18l-0.08,0.22l-0.06,0.24l-0.11,0.65l-0.11,0.91l-0.11,1.17l-0.11,1.43l-0.09,1.45
	l-0.04,1.23l0,1.02l0.04,0.81l0.06,0.41l0.09,0.35l0.12,0.3l0.15,0.24l0.17,0.18l0.18,0.13l0.18,0.07l0.19,0.01l0.14-0.03l0.13-0.06
	l0.12-0.1l0.11-0.13l0.11-0.16l0.1-0.19l0.18-0.48l0.16-0.61l0.13-0.73l0.1-0.86l0.08-0.99l0.1-1.91l0.06-1.53l0.01-1.15
	L169.2,136.43z M164.68,141.89l-0.05-0.74l0-0.72l0.04-0.7l0.08-0.68l0.12-0.66l0.16-0.64l0.2-0.62l0.24-0.6l0.27-0.56l0.28-0.49
	l0.3-0.42l0.32-0.36l0.33-0.28l0.34-0.22l0.36-0.15l0.38-0.08l0.3-0.01l0.29,0.04l0.27,0.09l0.26,0.13l0.25,0.18l0.23,0.23
	l0.22,0.28l0.21,0.33l0.19,0.36l0.17,0.39l0.15,0.41l0.13,0.43l0.11,0.45l0.09,0.47l0.08,0.49l0.06,0.51l0.04,0.73l0,0.71l-0.04,0.7
	l-0.08,0.68l-0.12,0.67l-0.16,0.65l-0.2,0.64l-0.24,0.63l-0.27,0.58l-0.28,0.51l-0.3,0.44l-0.31,0.37l-0.32,0.3l-0.33,0.22
	l-0.35,0.15l-0.36,0.08l-0.29,0.01l-0.28-0.04l-0.27-0.08l-0.25-0.13l-0.25-0.18l-0.24-0.23l-0.22-0.27l-0.22-0.32l-0.2-0.36
	l-0.18-0.39l-0.16-0.42l-0.14-0.44l-0.12-0.47l-0.1-0.5l-0.08-0.53L164.68,141.89z M156.28,137.32l-0.33,9.71l2.03-0.24l0.61-0.11
	l0.26-0.08l0.24-0.09l0.21-0.1l0.19-0.12l0.16-0.14l0.13-0.15l0.12-0.18l0.1-0.22l0.09-0.26l0.08-0.3l0.14-0.73l0.1-0.9l0.06-0.98
	l0.01-0.97l-0.03-0.96l-0.06-0.96l-0.08-0.59l-0.14-0.51l-0.19-0.44l-0.12-0.19l-0.13-0.17l-0.15-0.15l-0.17-0.13l-0.2-0.1
	l-0.23-0.08l-0.25-0.05l-0.28-0.02l-0.31,0l-0.33,0.03L156.28,137.32z M156.61,127.97l-0.3,8.57l1.62-0.19l0.54-0.1l0.46-0.16
	l0.39-0.22l0.16-0.13l0.15-0.14l0.13-0.17l0.12-0.21l0.11-0.24l0.09-0.28l0.08-0.31l0.07-0.35l0.1-0.8l0.06-0.86l0.02-0.84
	l-0.02-0.82l-0.05-0.8l-0.04-0.38l-0.06-0.34l-0.07-0.3l-0.08-0.26l-0.1-0.22l-0.11-0.18l-0.12-0.14l-0.14-0.1l-0.33-0.13
	l-0.42-0.07l-0.51-0.01l-0.6,0.05L156.61,127.97z M153.89,147.27l0.65-19.06l-1.84,0.21l0.02-0.79l5.05-0.59l0.71-0.06l0.63,0
	l0.56,0.06l0.48,0.12l0.22,0.09l0.21,0.11l0.21,0.14l0.2,0.16l0.19,0.19l0.19,0.22l0.36,0.51l0.31,0.58l0.24,0.61l0.09,0.32
	l0.07,0.33l0.1,0.69l0.03,0.44l0,0.44l-0.03,0.42l-0.06,0.42l-0.09,0.41l-0.12,0.4l-0.15,0.39l-0.18,0.38l-0.21,0.36l-0.24,0.34
	l-0.28,0.31l-0.31,0.29l-0.35,0.26l-0.38,0.24l-0.42,0.21l-0.45,0.18l0.01,0.07l0.38,0.12l0.35,0.14l0.33,0.17l0.31,0.2l0.29,0.23
	l0.27,0.26l0.25,0.29l0.22,0.32l0.2,0.34l0.18,0.35l0.16,0.37l0.14,0.38l0.12,0.39l0.09,0.41l0.07,0.42l0.05,0.44l0.03,0.41l0,0.41
	l-0.02,0.4l-0.04,0.4l-0.06,0.39l-0.08,0.39l-0.1,0.38l-0.13,0.38l-0.15,0.36l-0.16,0.33l-0.18,0.3l-0.19,0.28l-0.21,0.25
	l-0.23,0.22l-0.24,0.19l-0.26,0.17l-0.58,0.28l-0.67,0.23l-0.76,0.18l-0.86,0.13l-5.63,0.66l0.05-0.79L153.89,147.27z"/>
<path class="st2" d="M209.66,140.06l-0.01-0.36l0.03-0.34l0.07-0.31l0.12-0.3l0.14-0.25l0.16-0.19l0.19-0.12l0.2-0.06l0.21,0.01
	l0.2,0.08l0.19,0.15l0.18,0.21l0.16,0.26l0.12,0.29l0.09,0.32l0.05,0.36l0.01,0.36l-0.03,0.34l-0.07,0.32l-0.11,0.3l-0.14,0.25
	l-0.17,0.19l-0.19,0.12l-0.21,0.06l-0.21-0.01l-0.2-0.08l-0.19-0.15l-0.18-0.22l-0.16-0.27l-0.13-0.29l-0.09-0.32L209.66,140.06z
	 M211.05,135.57l-0.44,0.05l0.04-1.05l0.02-1.09l0-1.13l-0.02-1.17l-0.04-1.21l-0.06-1.25l-0.18-2.61l-0.1-1.54l-0.04-1.27
	l0.03-0.99l0.04-0.39l0.05-0.32l0.07-0.27l0.08-0.23l0.09-0.2l0.1-0.17l0.12-0.13l0.13-0.1l0.14-0.07l0.15-0.04l0.2,0.01l0.19,0.08
	l0.17,0.15l0.16,0.22l0.14,0.26l0.11,0.28l0.08,0.3l0.04,0.32l0.02,0.38l0,0.42l-0.05,0.97l-0.12,1.14l-0.19,1.32l-0.39,2.46
	l-0.23,1.74l-0.14,1.74l-0.14,2.45L211.05,135.57z M203.78,140.76l-0.01-0.36l0.03-0.34l0.07-0.32l0.12-0.29l0.14-0.25l0.16-0.19
	l0.18-0.12l0.2-0.06l0.21,0.01l0.2,0.08l0.19,0.14l0.18,0.22l0.16,0.26l0.12,0.29l0.09,0.33l0.05,0.36l0.01,0.36l-0.03,0.34
	l-0.07,0.32l-0.11,0.3l-0.14,0.25l-0.17,0.18l-0.19,0.12l-0.21,0.06l-0.21-0.01l-0.2-0.08l-0.19-0.15l-0.18-0.22l-0.16-0.27
	l-0.13-0.29l-0.09-0.32L203.78,140.76z M205.17,136.26l-0.44,0.05l0.04-1.05l0.02-1.09l0-1.13l-0.02-1.17l-0.04-1.21l-0.06-1.25
	l-0.18-2.61l-0.1-1.54l-0.04-1.27l0.03-0.99l0.04-0.39l0.05-0.32l0.07-0.27l0.08-0.24l0.09-0.2l0.1-0.17l0.12-0.14l0.13-0.1
	l0.14-0.07l0.15-0.03l0.2,0.01l0.18,0.08l0.17,0.15l0.16,0.22l0.14,0.26l0.11,0.28l0.08,0.3l0.04,0.32l0.02,0.37l0,0.42l-0.05,0.97
	l-0.12,1.14l-0.19,1.32l-0.39,2.46l-0.23,1.74l-0.14,1.74l-0.13,2.45L205.17,136.26z M198.79,133.83l-0.07-0.56l-0.1-0.51
	l-0.14-0.46l-0.17-0.41l-0.19-0.32l-0.21-0.22l-0.11-0.07l-0.12-0.05l-0.13-0.02l-0.13,0l-0.14,0.03l-0.13,0.06l-0.12,0.09
	l-0.12,0.12l-0.11,0.15l-0.1,0.17l-0.16,0.44l-0.14,0.65l-0.12,0.97l-0.11,1.29l-0.1,1.61l-0.11,2.87l-0.01,0.94l0.02,0.61
	l0.04,0.35l0.06,0.3l0.07,0.25l0.09,0.2l0.11,0.15l0.13,0.1l0.14,0.06l0.16,0l0.24-0.07l0.24-0.15l0.23-0.23l0.23-0.31l0.11-0.21
	l0.11-0.26l0.22-0.69l0.22-0.91l0.21-1.14l0.17-1.24l0.09-1.21l0.02-0.6l0-0.59l-0.02-0.58L198.79,133.83z M200.74,130.4l-0.44,8.78
	l-0.03,1.06l0.03,0.8l0.04,0.27l0.06,0.19l0.09,0.1l0.12,0.03l0.11-0.07l0.13-0.18l0.14-0.29l0.15-0.4l0.15-0.51l0.15-0.62
	l0.14-0.72l0.13-0.83l0.37-0.04l-0.15,1.18l-0.19,1.02l-0.22,0.86l-0.12,0.37l-0.13,0.33l-0.28,0.54l-0.14,0.21l-0.14,0.18
	l-0.14,0.15l-0.15,0.11l-0.15,0.07l-0.15,0.04l-0.14,0l-0.13-0.02l-0.12-0.04l-0.11-0.06l-0.22-0.2l-0.19-0.29l-0.17-0.38
	l-0.14-0.47l-0.12-0.56l-0.1-0.65l-0.04,0l-0.15,0.68l-0.18,0.6l-0.2,0.51l-0.23,0.43l-0.26,0.34l-0.28,0.25l-0.31,0.17l-0.17,0.06
	l-0.17,0.03l-0.22,0l-0.21-0.04l-0.21-0.09l-0.2-0.13l-0.2-0.17l-0.2-0.22l-0.19-0.26l-0.19-0.31l-0.18-0.34l-0.16-0.36l-0.14-0.39
	l-0.12-0.4l-0.11-0.43l-0.09-0.45l-0.07-0.47l-0.05-0.49l-0.05-0.77l-0.01-0.75l0.04-0.73l0.08-0.71l0.12-0.7l0.16-0.68l0.21-0.66
	l0.25-0.65l0.27-0.6l0.28-0.52l0.28-0.45l0.29-0.37l0.3-0.3l0.3-0.22l0.31-0.15l0.31-0.07l0.29,0l0.27,0.07l0.24,0.15l0.22,0.22
	l0.19,0.3l0.17,0.37l0.15,0.45l0.12,0.52l0.04,0l0.08-2.01L200.74,130.4z M188.17,137.19l-0.07,1.6l-0.03,0.92l-0.01,0.81l0.01,0.7
	l0.04,0.59l0.05,0.44l0.09,0.38l0.12,0.31l0.15,0.25l0.17,0.19l0.18,0.13l0.2,0.07l0.21,0l0.15-0.03l0.14-0.06l0.13-0.08l0.12-0.11
	l0.22-0.3l0.19-0.41l0.08-0.27l0.08-0.36l0.14-0.99l0.12-1.33l0.1-1.69l0.12-3l0.01-0.96l-0.02-0.61l-0.04-0.32l-0.06-0.27
	l-0.08-0.23l-0.1-0.18l-0.12-0.14l-0.14-0.09l-0.17-0.04h-0.18l-0.14,0.03l-0.14,0.06l-0.14,0.09l-0.14,0.13l-0.27,0.35l-0.26,0.47
	l-0.12,0.3l-0.11,0.35l-0.1,0.41l-0.09,0.47l-0.14,1.09L188.17,137.19z M188.86,123.17l-0.48,10.14l0.04,0.06l0.15-0.45l0.16-0.4
	l0.18-0.34l0.19-0.28l0.21-0.23l0.23-0.17l0.24-0.11l0.25-0.06l0.22-0.01l0.22,0.03l0.21,0.07l0.21,0.12l0.21,0.15l0.2,0.2l0.2,0.24
	l0.19,0.28l0.18,0.31l0.16,0.34l0.15,0.37l0.13,0.4l0.11,0.43l0.09,0.45l0.07,0.48l0.05,0.51l0.05,0.75l0,0.74l-0.04,0.73
	l-0.09,0.72l-0.13,0.71l-0.17,0.7l-0.22,0.69l-0.26,0.68l-0.29,0.64l-0.3,0.56l-0.32,0.48l-0.33,0.4l-0.35,0.32l-0.36,0.24
	l-0.38,0.16l-0.39,0.09l-0.24,0.01l-0.23-0.02l-0.22-0.05l-0.22-0.08l-0.21-0.11l-0.2-0.14l-0.2-0.17l-0.19-0.2l-0.18-0.23
	l-0.16-0.25l-0.14-0.28l-0.12-0.3l-0.1-0.32l-0.08-0.34l-0.06-0.36l-0.05-0.39l-0.05-0.65l-0.02-0.61l0-0.56l0.02-0.52l0.05-0.57
	l0.68-13.76l-1.07,0.13l0.02-0.79l1.04-0.12l0.47-0.07l0.44-0.09l0.41-0.12L188.86,123.17z M175.26,133.24l-0.18,3.38l0.04,0.06
	l0.27-0.86l0.29-0.75l0.3-0.64l0.32-0.53l0.33-0.43l0.17-0.17l0.17-0.15l0.18-0.12l0.18-0.09l0.19-0.07l0.19-0.03l0.33,0l0.3,0.08
	l0.26,0.17l0.23,0.25l0.2,0.3l0.15,0.32l0.1,0.35l0.05,0.37l0.03,1.31l0.04,0.05l0.27-0.83l0.29-0.73l0.31-0.62l0.33-0.52l0.35-0.41
	l0.37-0.31l0.19-0.12l0.2-0.09l0.2-0.06l0.21-0.04l0.27,0l0.25,0.08l0.24,0.15l0.23,0.23l0.2,0.29l0.16,0.33l0.11,0.38l0.06,0.43
	l0.03,0.71l-0.04,0.93l-0.31,5.77l-0.03,0.9l0,0.46l0.04,0.28l0.07,0.2l0.09,0.11l0.06,0.02l0.06,0l0.14-0.07l0.15-0.16l0.17-0.27
	l0.18-0.37l0.18-0.49l0.15-0.61l0.13-0.74l0.11-0.87l0.42-0.05l-0.12,1.09l-0.18,0.96l-0.11,0.43l-0.12,0.4l-0.13,0.36l-0.15,0.33
	l-0.16,0.29l-0.16,0.26l-0.16,0.22l-0.16,0.18l-0.17,0.15l-0.17,0.11l-0.17,0.08l-0.17,0.04l-0.29,0l-0.26-0.07l-0.24-0.13
	l-0.22-0.2l-0.19-0.27l-0.15-0.33l-0.11-0.4l-0.06-0.47l-0.01-0.53l0.04-0.84l0.34-5.88l0.02-0.23l0.02-0.46l-0.01-0.79l-0.02-0.15
	l-0.04-0.14l-0.13-0.24l-0.08-0.09l-0.09-0.06l-0.09-0.03l-0.09,0l-0.13,0.04l-0.14,0.09l-0.15,0.14L180.9,134l-0.35,0.52
	l-0.39,0.71l-0.19,0.44l-0.17,0.49l-0.15,0.55l-0.14,0.62l-0.11,0.67l-0.1,0.73l-0.08,0.79l-0.05,0.85l-0.24,4.73l-1.7,0.2
	l0.42-8.37l0.06-1.28l-0.01-0.73l-0.06-0.33l-0.13-0.3l-0.08-0.12l-0.09-0.09l-0.1-0.05l-0.1-0.01l-0.14,0.04l-0.14,0.1l-0.15,0.15
	l-0.16,0.2l-0.17,0.26l-0.17,0.31l-0.37,0.78l-0.18,0.47l-0.16,0.52l-0.15,0.56l-0.13,0.61l-0.1,0.66l-0.09,0.71l-0.07,0.76
	l-0.05,0.81l-0.24,4.64l-1.71,0.2l0.6-11.33l-1.51,0.18l0.02-0.79l1.42-0.17l0.47-0.07l0.45-0.1l0.44-0.13L175.26,133.24z
	 M169.2,136.43l-0.05-0.4l-0.08-0.35l-0.11-0.32l-0.14-0.27l-0.17-0.21l-0.19-0.15l-0.21-0.07l-0.23-0.01l-0.17,0.04l-0.16,0.06
	l-0.14,0.1l-0.13,0.12l-0.11,0.15l-0.1,0.18l-0.08,0.22l-0.06,0.24l-0.11,0.65l-0.11,0.91l-0.11,1.17l-0.11,1.43l-0.09,1.45
	l-0.04,1.23l0,1.02l0.04,0.81l0.06,0.41l0.09,0.35l0.12,0.3l0.15,0.24l0.17,0.18l0.18,0.13l0.18,0.07l0.19,0.01l0.14-0.03l0.13-0.06
	l0.12-0.1l0.11-0.13l0.11-0.16l0.1-0.19l0.18-0.48l0.16-0.61l0.13-0.73l0.1-0.86l0.08-0.99l0.1-1.91l0.06-1.53l0.01-1.15
	L169.2,136.43z M164.68,141.89l-0.05-0.74l0-0.72l0.04-0.7l0.08-0.68l0.12-0.66l0.16-0.64l0.2-0.62l0.24-0.6l0.27-0.56l0.28-0.49
	l0.3-0.42l0.32-0.36l0.33-0.28l0.34-0.22l0.36-0.15l0.38-0.08l0.3-0.01l0.29,0.04l0.27,0.09l0.26,0.13l0.25,0.18l0.23,0.23
	l0.22,0.28l0.21,0.33l0.19,0.36l0.17,0.39l0.15,0.41l0.13,0.43l0.11,0.45l0.09,0.47l0.08,0.49l0.06,0.51l0.04,0.73l0,0.71l-0.04,0.7
	l-0.08,0.68l-0.12,0.67l-0.16,0.65l-0.2,0.64l-0.24,0.63l-0.27,0.58l-0.28,0.51l-0.3,0.44l-0.31,0.37l-0.32,0.3l-0.33,0.22
	l-0.35,0.15l-0.36,0.08l-0.29,0.01l-0.28-0.04l-0.27-0.08l-0.25-0.13l-0.25-0.18l-0.24-0.23l-0.22-0.27l-0.22-0.32l-0.2-0.36
	l-0.18-0.39l-0.16-0.42l-0.14-0.44l-0.12-0.47l-0.1-0.5l-0.08-0.53L164.68,141.89z M156.28,137.32l-0.33,9.71l2.03-0.24l0.61-0.11
	l0.26-0.08l0.24-0.09l0.21-0.1l0.19-0.12l0.16-0.14l0.13-0.15l0.12-0.18l0.1-0.22l0.09-0.26l0.08-0.3l0.14-0.73l0.1-0.9l0.06-0.98
	l0.01-0.97l-0.03-0.96l-0.06-0.96l-0.08-0.59l-0.14-0.51l-0.19-0.44l-0.12-0.19l-0.13-0.17l-0.15-0.15l-0.17-0.13l-0.2-0.1
	l-0.23-0.08l-0.25-0.05l-0.28-0.02l-0.31,0l-0.33,0.03L156.28,137.32z M156.61,127.97l-0.3,8.57l1.62-0.19l0.54-0.1l0.46-0.16
	l0.39-0.22l0.16-0.13l0.15-0.14l0.13-0.17l0.12-0.21l0.11-0.24l0.09-0.28l0.08-0.31l0.07-0.35l0.1-0.8l0.06-0.86l0.02-0.84
	l-0.02-0.82l-0.05-0.8l-0.04-0.38l-0.06-0.34l-0.07-0.3l-0.08-0.26l-0.1-0.22l-0.11-0.18l-0.12-0.14l-0.14-0.1l-0.33-0.13
	l-0.42-0.07l-0.51-0.01l-0.6,0.05L156.61,127.97z M153.89,147.27l0.65-19.06l-1.84,0.21l0.02-0.79l5.05-0.59l0.71-0.06l0.63,0
	l0.56,0.06l0.48,0.12l0.22,0.09l0.21,0.11l0.21,0.14l0.2,0.16l0.19,0.19l0.19,0.22l0.36,0.51l0.31,0.58l0.24,0.61l0.09,0.32
	l0.07,0.33l0.1,0.69l0.03,0.44l0,0.44l-0.03,0.42l-0.06,0.42l-0.09,0.41l-0.12,0.4l-0.15,0.39l-0.18,0.38l-0.21,0.36l-0.24,0.34
	l-0.28,0.31l-0.31,0.29l-0.35,0.26l-0.38,0.24l-0.42,0.21l-0.45,0.18l0.01,0.07l0.38,0.12l0.35,0.14l0.33,0.17l0.31,0.2l0.29,0.23
	l0.27,0.26l0.25,0.29l0.22,0.32l0.2,0.34l0.18,0.35l0.16,0.37l0.14,0.38l0.12,0.39l0.09,0.41l0.07,0.42l0.05,0.44l0.03,0.41l0,0.41
	l-0.02,0.4l-0.04,0.4l-0.06,0.39l-0.08,0.39l-0.1,0.38l-0.13,0.38l-0.15,0.36l-0.16,0.33l-0.18,0.3l-0.19,0.28l-0.21,0.25
	l-0.23,0.22l-0.24,0.19l-0.26,0.17l-0.58,0.28l-0.67,0.23l-0.76,0.18l-0.86,0.13l-5.63,0.66l0.05-0.79L153.89,147.27z"/>
</svg>
