<?xml version="1.0" encoding="utf-8"?>
<!-- Generator: Adobe Illustrator 28.2.0, SVG Export Plug-In . SVG Version: 6.00 Build 0)  -->
<svg version="1.1" id="Layer_1" xmlns="http://www.w3.org/2000/svg" xmlns:xlink="http://www.w3.org/1999/xlink" x="0px" y="0px"
	 viewBox="0 0 215 150" style="enable-background:new 0 0 215 150;" xml:space="preserve">
<style type="text/css">
	.st0{fill:#010101;}
	.st1{fill:none;stroke:#010101;stroke-width:0.216;stroke-miterlimit:22.9256;}
	.st2{fill:#01779B;}
</style>
<path class="st0" d="M186.97,134.31l0.02-0.32l0.07-0.3l0.11-0.27l0.15-0.25l0.18-0.21l0.19-0.15l0.2-0.09l0.21-0.03l0.22,0.03
	l0.2,0.09l0.19,0.15l0.17,0.21l0.14,0.25l0.1,0.28l0.06,0.3l0.02,0.33l-0.02,0.32l-0.06,0.3l-0.1,0.28l-0.15,0.25l-0.17,0.21
	l-0.19,0.15l-0.21,0.09l-0.22,0.03l-0.21-0.03l-0.2-0.09l-0.18-0.16l-0.17-0.22l-0.14-0.26l-0.1-0.28l-0.06-0.3L186.97,134.31z
	 M188.86,130.43l-0.46,0l0.15-0.94l0.13-0.98l0.11-1.02l0.1-1.06l0.15-2.22l0.08-2.37l0.05-1.4l0.09-1.14l0.13-0.89l0.08-0.34
	l0.09-0.28l0.1-0.23l0.11-0.2l0.11-0.17l0.12-0.14l0.13-0.11l0.14-0.08l0.15-0.05l0.16-0.02l0.2,0.03l0.19,0.09l0.17,0.15l0.15,0.21
	l0.12,0.25l0.09,0.26l0.05,0.27l0.02,0.29l-0.02,0.34l-0.04,0.38l-0.14,0.87l-0.24,1.02l-0.33,1.16l-0.65,2.17l-0.41,1.54
	l-0.32,1.55l-0.38,2.19L188.86,130.43z M180.8,134.26l0.02-0.32l0.07-0.3l0.11-0.28l0.15-0.25l0.18-0.21l0.19-0.15l0.2-0.09
	l0.22-0.03l0.22,0.03l0.2,0.09l0.19,0.15l0.17,0.21l0.14,0.25l0.1,0.28l0.06,0.3l0.02,0.33L183,134.6l-0.06,0.3l-0.1,0.28
	l-0.15,0.25l-0.17,0.21l-0.19,0.15l-0.21,0.09l-0.22,0.03l-0.21-0.03l-0.2-0.09l-0.18-0.16l-0.17-0.22l-0.14-0.25l-0.1-0.28
	l-0.06-0.3L180.8,134.26z M182.69,130.37l-0.46,0l0.15-0.94l0.13-0.98l0.11-1.02l0.1-1.05l0.15-2.22l0.08-2.37l0.05-1.4l0.09-1.14
	l0.13-0.89l0.08-0.35l0.09-0.28l0.1-0.23l0.11-0.2l0.11-0.17l0.12-0.14l0.13-0.11l0.14-0.08l0.15-0.05l0.16-0.01l0.2,0.03l0.19,0.09
	l0.17,0.15l0.15,0.21l0.12,0.25l0.08,0.26l0.05,0.27l0.02,0.29l-0.02,0.34l-0.04,0.38l-0.15,0.87l-0.24,1.01l-0.33,1.17l-0.65,2.17
	l-0.41,1.54l-0.32,1.55l-0.39,2.19L182.69,130.37z M176.32,127.46l-0.02-0.52l-0.05-0.47l-0.09-0.43l-0.14-0.38l-0.17-0.32
	l-0.1-0.12l-0.1-0.1l-0.11-0.08l-0.12-0.06l-0.13-0.03l-0.14-0.01l-0.15,0.01l-0.14,0.04l-0.14,0.06l-0.13,0.09l-0.13,0.12
	l-0.12,0.15l-0.21,0.37l-0.1,0.25l-0.11,0.32l-0.23,0.86l-0.24,1.14l-0.26,1.43l-0.4,2.57l-0.1,0.84l-0.04,0.55l0.01,0.31l0.03,0.27
	l0.05,0.23l0.08,0.19l0.1,0.15l0.12,0.11l0.14,0.06l0.17,0.02l0.26-0.03l0.26-0.11l0.26-0.18l0.27-0.26l0.14-0.17l0.14-0.22l0.3-0.6
	l0.31-0.8l0.33-1l0.3-1.09l0.12-0.54l0.09-0.54l0.08-0.53l0.05-0.53l0.04-0.53L176.32,127.46z M178.69,124.6l-1.33,7.85l-0.14,0.95
	l-0.05,0.72l0.01,0.25l0.05,0.18l0.08,0.11l0.12,0.04l0.12-0.05l0.15-0.15l0.17-0.25l0.2-0.35l0.21-0.44l0.21-0.54l0.22-0.63
	l0.22-0.73l0.38,0l-0.27,1.04l-0.29,0.89l-0.31,0.74l-0.16,0.32l-0.17,0.28l-0.34,0.46l-0.17,0.18l-0.17,0.15l-0.16,0.11l-0.16,0.08
	l-0.16,0.05l-0.16,0.01l-0.14-0.01l-0.13-0.03l-0.12-0.05l-0.11-0.07l-0.2-0.2l-0.17-0.28l-0.14-0.36l-0.1-0.44l-0.07-0.52
	l-0.03-0.6l-0.04,0l-0.22,0.6l-0.24,0.52l-0.26,0.44l-0.28,0.36l-0.3,0.28l-0.32,0.19l-0.34,0.12l-0.18,0.03l-0.18,0.01l-0.22-0.02
	l-0.22-0.06l-0.21-0.1l-0.2-0.14l-0.19-0.18l-0.18-0.22l-0.17-0.26l-0.17-0.3l-0.15-0.33l-0.13-0.35l-0.11-0.36l-0.09-0.38
	l-0.07-0.4l-0.05-0.41l-0.03-0.43l-0.01-0.45l0.03-0.7l0.07-0.68l0.11-0.66l0.15-0.63l0.2-0.61l0.24-0.59l0.28-0.57l0.32-0.55
	l0.34-0.51l0.34-0.44l0.34-0.37l0.34-0.3l0.34-0.23l0.34-0.17l0.33-0.1l0.33-0.03l0.3,0.03l0.27,0.1l0.24,0.16l0.21,0.23l0.17,0.29
	l0.14,0.35l0.11,0.42l0.08,0.48l0.04,0l0.29-1.8L178.69,124.6z M164.99,129.26l-0.24,1.43l-0.12,0.83l-0.09,0.73l-0.06,0.63
	l-0.02,0.53l0.02,0.4l0.05,0.35l0.09,0.3l0.13,0.24l0.16,0.19l0.18,0.14l0.2,0.08l0.22,0.03l0.15-0.01l0.15-0.04l0.14-0.06
	l0.14-0.09l0.13-0.11l0.12-0.13l0.23-0.34l0.11-0.24l0.11-0.31l0.24-0.87l0.26-1.19l0.27-1.51l0.42-2.69l0.11-0.86l0.04-0.55
	l-0.01-0.29l-0.04-0.25l-0.06-0.21l-0.09-0.17l-0.11-0.14l-0.14-0.1l-0.17-0.06l-0.19-0.02l-0.15,0.01l-0.15,0.04l-0.15,0.07
	l-0.15,0.1l-0.16,0.13l-0.16,0.15l-0.32,0.4l-0.16,0.25l-0.15,0.31l-0.14,0.35l-0.14,0.41l-0.13,0.46l-0.12,0.51L164.99,129.26z
	 M167.11,116.73l-1.5,9.06l0.04,0.06l0.2-0.39l0.21-0.34l0.22-0.28l0.23-0.23l0.24-0.18l0.25-0.13l0.26-0.08l0.27-0.02l0.23,0.02
	l0.23,0.06l0.21,0.09l0.21,0.13l0.2,0.16l0.19,0.2l0.18,0.23l0.17,0.27l0.16,0.3l0.14,0.32l0.11,0.35l0.09,0.37l0.07,0.39l0.05,0.42
	l0.03,0.44l0.01,0.46l-0.03,0.68l-0.07,0.67l-0.12,0.65l-0.16,0.64l-0.2,0.62l-0.25,0.61l-0.29,0.6l-0.33,0.58l-0.36,0.54
	l-0.37,0.47l-0.37,0.4l-0.38,0.32l-0.39,0.25l-0.4,0.18l-0.41,0.11l-0.41,0.03l-0.25-0.02l-0.24-0.04l-0.23-0.07l-0.22-0.1
	l-0.21-0.13l-0.2-0.15l-0.19-0.18l-0.18-0.21l-0.16-0.23l-0.14-0.25l-0.12-0.27l-0.1-0.28l-0.07-0.3l-0.05-0.32l-0.03-0.34
	l-0.01-0.35l0.02-0.59l0.04-0.55l0.06-0.51l0.08-0.46l0.11-0.51l2.07-12.3l-1.13-0.01l0.1-0.71l1.09,0.01l0.49-0.01l0.47-0.03
	l0.44-0.06L167.11,116.73z M152.02,124.22l-0.52,3.02l0.04,0.06l0.37-0.74l0.37-0.64l0.38-0.55l0.38-0.44l0.39-0.35l0.2-0.13
	l0.19-0.11l0.2-0.09l0.2-0.06l0.2-0.04l0.2-0.01l0.34,0.04l0.16,0.05l0.14,0.06l0.26,0.18l0.22,0.25l0.17,0.3l0.12,0.31l0.07,0.32
	l0.02,0.34l-0.1,1.19l0.04,0.05l0.36-0.72l0.38-0.62l0.39-0.53l0.4-0.43l0.41-0.33l0.21-0.13l0.21-0.1l0.21-0.08l0.21-0.06
	l0.22-0.04l0.22-0.01l0.28,0.04l0.25,0.1l0.23,0.17l0.21,0.23l0.18,0.28l0.13,0.32l0.07,0.35l0.02,0.39l-0.04,0.64l-0.13,0.83
	l-0.9,5.15l-0.12,0.81l-0.04,0.41l0.01,0.26l0.05,0.19l0.09,0.11l0.06,0.03l0.07,0.01l0.15-0.04l0.17-0.13l0.2-0.22l0.23-0.31
	l0.23-0.42l0.22-0.53l0.21-0.65l0.2-0.77l0.44,0.01l-0.23,0.97l-0.14,0.44l-0.14,0.4l-0.16,0.38l-0.17,0.34l-0.18,0.31l-0.19,0.28
	l-0.38,0.46l-0.19,0.18l-0.19,0.14l-0.19,0.12l-0.19,0.08l-0.18,0.05l-0.18,0.02l-0.3-0.03l-0.27-0.09l-0.24-0.15l-0.21-0.2
	l-0.17-0.26l-0.12-0.32l-0.07-0.37l-0.02-0.43l0.04-0.48l0.13-0.75l0.94-5.25l0.05-0.2l0.06-0.41l0.07-0.71l-0.03-0.26l-0.11-0.23
	l-0.08-0.09l-0.08-0.07l-0.09-0.04l-0.1-0.02l-0.14,0.02l-0.16,0.06l-0.17,0.11l-0.19,0.15l-0.42,0.42l-0.47,0.59l-0.25,0.37
	l-0.23,0.42l-0.22,0.48l-0.2,0.54l-0.19,0.59l-0.17,0.65l-0.16,0.7l-0.14,0.76l-0.72,4.23l-1.78-0.02l1.27-7.48l0.18-1.14l0.06-0.66
	l-0.03-0.31l-0.1-0.29l-0.08-0.12l-0.09-0.09l-0.1-0.05l-0.11-0.02l-0.15,0.02l-0.16,0.07l-0.17,0.12l-0.18,0.17l-0.41,0.47
	l-0.46,0.66l-0.23,0.4l-0.22,0.45l-0.21,0.49l-0.19,0.54l-0.17,0.58l-0.16,0.63l-0.15,0.67l-0.13,0.72l-0.71,4.14l-1.79-0.01
	l1.75-10.12l-1.58-0.01l0.1-0.71l1.49,0.01l0.49-0.01l0.48-0.04l0.47-0.07L152.02,124.22z M145.42,126.4l-0.01-0.36l-0.05-0.33
	l-0.08-0.29l-0.12-0.26l-0.15-0.21l-0.18-0.15l-0.21-0.09l-0.24-0.03l-0.18,0.01l-0.17,0.04l-0.16,0.07l-0.14,0.1l-0.13,0.13
	l-0.12,0.15l-0.1,0.18l-0.09,0.21l-0.18,0.57l-0.2,0.8l-0.23,1.04l-0.25,1.27l-0.23,1.29l-0.17,1.11l-0.1,0.92l-0.04,0.73l0.01,0.38
	l0.05,0.33l0.09,0.28l0.13,0.23l0.16,0.19l0.17,0.13l0.18,0.08l0.2,0.03l0.14-0.01l0.14-0.04l0.14-0.07l0.13-0.1l0.25-0.29
	l0.24-0.41l0.23-0.53l0.21-0.64l0.19-0.76l0.18-0.88l0.3-1.71l0.21-1.37l0.13-1.03L145.42,126.4z M140.2,130.79l0.02-0.67l0.07-0.65
	l0.11-0.62l0.15-0.6l0.19-0.58l0.23-0.56l0.27-0.54l0.31-0.52l0.33-0.47l0.34-0.41l0.35-0.35l0.36-0.28l0.37-0.22l0.38-0.16
	l0.39-0.09l0.4-0.03l0.31,0.02l0.29,0.07l0.27,0.11l0.26,0.15l0.24,0.19l0.22,0.24l0.2,0.28l0.18,0.32l0.16,0.35l0.14,0.37
	l0.12,0.39l0.1,0.4l0.07,0.42l0.05,0.43l0.03,0.45l0.01,0.47l-0.03,0.66l-0.07,0.64l-0.11,0.62l-0.15,0.6l-0.19,0.59l-0.23,0.57
	l-0.28,0.55l-0.31,0.53l-0.34,0.49l-0.35,0.43l-0.35,0.36l-0.36,0.29l-0.36,0.23l-0.37,0.16l-0.37,0.1l-0.38,0.03l-0.3-0.02
	l-0.28-0.07l-0.27-0.11l-0.25-0.15l-0.24-0.19l-0.22-0.23l-0.21-0.27l-0.19-0.31l-0.17-0.35l-0.15-0.37l-0.13-0.39l-0.1-0.42
	l-0.08-0.44l-0.05-0.46l-0.03-0.48L140.2,130.79z M131.95,125.72l-1.32,8.69l2.12,0.02l0.64-0.03l0.54-0.09l0.23-0.07l0.2-0.09
	l0.18-0.1l0.15-0.12l0.14-0.15l0.13-0.19l0.12-0.23l0.12-0.26l0.21-0.64l0.19-0.8l0.15-0.87l0.11-0.87l0.07-0.87l0.03-0.87
	l-0.03-0.54l-0.09-0.48l-0.15-0.42l-0.1-0.18l-0.12-0.17l-0.14-0.15l-0.17-0.13l-0.2-0.11l-0.23-0.09l-0.26-0.07l-0.29-0.05
	l-0.32-0.03l-0.35-0.01L131.95,125.72z M133.23,117.35l-1.17,7.67l1.69,0.01l0.57-0.03l0.49-0.09l0.42-0.15l0.18-0.1l0.17-0.11
	l0.15-0.14l0.14-0.17l0.13-0.21l0.13-0.24l0.11-0.27l0.11-0.31l0.18-0.71l0.14-0.77l0.11-0.75l0.06-0.74l0.03-0.73l-0.03-0.65
	l-0.04-0.28l-0.06-0.24l-0.08-0.21l-0.1-0.17l-0.11-0.14l-0.13-0.1l-0.33-0.15l-0.43-0.11l-0.53-0.07l-0.62-0.03L133.23,117.35z
	 M128.48,134.39l2.57-17.07l-1.93-0.02l0.1-0.71l5.29,0.05l0.74,0.03l0.66,0.07l0.57,0.12l0.48,0.16l0.22,0.1l0.21,0.13l0.2,0.14
	l0.19,0.17l0.18,0.19l0.17,0.22l0.32,0.5l0.26,0.55l0.19,0.58l0.11,0.6l0.03,0.63l-0.02,0.4l-0.04,0.39l-0.08,0.38l-0.1,0.37
	l-0.13,0.36l-0.16,0.34l-0.19,0.34l-0.22,0.32l-0.25,0.3l-0.28,0.28l-0.32,0.25l-0.35,0.22l-0.38,0.19l-0.42,0.17l-0.45,0.14
	l-0.49,0.12l0,0.06l0.38,0.15l0.35,0.17l0.33,0.19l0.3,0.22l0.28,0.24l0.25,0.26l0.23,0.29l0.2,0.31l0.18,0.33l0.15,0.34l0.13,0.35
	l0.11,0.36l0.08,0.37l0.06,0.38l0.03,0.39l0.01,0.4l-0.02,0.38l-0.04,0.37l-0.06,0.36l-0.08,0.35l-0.1,0.35l-0.13,0.34l-0.15,0.33
	l-0.17,0.32l-0.19,0.31l-0.2,0.28l-0.22,0.25l-0.23,0.23l-0.24,0.2l-0.26,0.17l-0.27,0.15l-0.28,0.12l-0.63,0.19l-0.72,0.13
	l-0.81,0.07l-0.9,0.02l-5.9-0.05l0.13-0.7L128.48,134.39z"/>
<path class="st1" d="M186.97,134.31l0.02-0.32l0.07-0.3l0.11-0.27l0.15-0.25l0.18-0.21l0.19-0.15l0.2-0.09l0.21-0.03l0.22,0.03
	l0.2,0.09l0.19,0.15l0.17,0.21l0.14,0.25l0.1,0.28l0.06,0.3l0.02,0.33l-0.02,0.32l-0.06,0.3l-0.1,0.28l-0.15,0.25l-0.17,0.21
	l-0.19,0.15l-0.21,0.09l-0.22,0.03l-0.21-0.03l-0.2-0.09l-0.18-0.16l-0.17-0.22l-0.14-0.26l-0.1-0.28l-0.06-0.3L186.97,134.31z
	 M188.86,130.43l-0.46,0l0.15-0.94l0.13-0.98l0.11-1.02l0.1-1.06l0.15-2.22l0.08-2.37l0.05-1.4l0.09-1.14l0.13-0.89l0.08-0.34
	l0.09-0.28l0.1-0.23l0.11-0.2l0.11-0.17l0.12-0.14l0.13-0.11l0.14-0.08l0.15-0.05l0.16-0.02l0.2,0.03l0.19,0.09l0.17,0.15l0.15,0.21
	l0.12,0.25l0.09,0.26l0.05,0.27l0.02,0.29l-0.02,0.34l-0.04,0.38l-0.14,0.87l-0.24,1.02l-0.33,1.16l-0.65,2.17l-0.41,1.54
	l-0.32,1.55l-0.38,2.19L188.86,130.43z M180.8,134.26l0.02-0.32l0.07-0.3l0.11-0.28l0.15-0.25l0.18-0.21l0.19-0.15l0.2-0.09
	l0.22-0.03l0.22,0.03l0.2,0.09l0.19,0.15l0.17,0.21l0.14,0.25l0.1,0.28l0.06,0.3l0.02,0.33L183,134.6l-0.06,0.3l-0.1,0.28
	l-0.15,0.25l-0.17,0.21l-0.19,0.15l-0.21,0.09l-0.22,0.03l-0.21-0.03l-0.2-0.09l-0.18-0.16l-0.17-0.22l-0.14-0.25l-0.1-0.28
	l-0.06-0.3L180.8,134.26z M182.69,130.37l-0.46,0l0.15-0.94l0.13-0.98l0.11-1.02l0.1-1.05l0.15-2.22l0.08-2.37l0.05-1.4l0.09-1.14
	l0.13-0.89l0.08-0.35l0.09-0.28l0.1-0.23l0.11-0.2l0.11-0.17l0.12-0.14l0.13-0.11l0.14-0.08l0.15-0.05l0.16-0.01l0.2,0.03l0.19,0.09
	l0.17,0.15l0.15,0.21l0.12,0.25l0.08,0.26l0.05,0.27l0.02,0.29l-0.02,0.34l-0.04,0.38l-0.15,0.87l-0.24,1.01l-0.33,1.17l-0.65,2.17
	l-0.41,1.54l-0.32,1.55l-0.39,2.19L182.69,130.37z M176.32,127.46l-0.02-0.52l-0.05-0.47l-0.09-0.43l-0.14-0.38l-0.17-0.32
	l-0.1-0.12l-0.1-0.1l-0.11-0.08l-0.12-0.06l-0.13-0.03l-0.14-0.01l-0.15,0.01l-0.14,0.04l-0.14,0.06l-0.13,0.09l-0.13,0.12
	l-0.12,0.15l-0.21,0.37l-0.1,0.25l-0.11,0.32l-0.23,0.86l-0.24,1.14l-0.26,1.43l-0.4,2.57l-0.1,0.84l-0.04,0.55l0.01,0.31l0.03,0.27
	l0.05,0.23l0.08,0.19l0.1,0.15l0.12,0.11l0.14,0.06l0.17,0.02l0.26-0.03l0.26-0.11l0.26-0.18l0.27-0.26l0.14-0.17l0.14-0.22l0.3-0.6
	l0.31-0.8l0.33-1l0.3-1.09l0.12-0.54l0.09-0.54l0.08-0.53l0.05-0.53l0.04-0.53L176.32,127.46z M178.69,124.6l-1.33,7.85l-0.14,0.95
	l-0.05,0.72l0.01,0.25l0.05,0.18l0.08,0.11l0.12,0.04l0.12-0.05l0.15-0.15l0.17-0.25l0.2-0.35l0.21-0.44l0.21-0.54l0.22-0.63
	l0.22-0.73l0.38,0l-0.27,1.04l-0.29,0.89l-0.31,0.74l-0.16,0.32l-0.17,0.28l-0.34,0.46l-0.17,0.18l-0.17,0.15l-0.16,0.11l-0.16,0.08
	l-0.16,0.05l-0.16,0.01l-0.14-0.01l-0.13-0.03l-0.12-0.05l-0.11-0.07l-0.2-0.2l-0.17-0.28l-0.14-0.36l-0.1-0.44l-0.07-0.52
	l-0.03-0.6l-0.04,0l-0.22,0.6l-0.24,0.52l-0.26,0.44l-0.28,0.36l-0.3,0.28l-0.32,0.19l-0.34,0.12l-0.18,0.03l-0.18,0.01l-0.22-0.02
	l-0.22-0.06l-0.21-0.1l-0.2-0.14l-0.19-0.18l-0.18-0.22l-0.17-0.26l-0.17-0.3l-0.15-0.33l-0.13-0.35l-0.11-0.36l-0.09-0.38
	l-0.07-0.4l-0.05-0.41l-0.03-0.43l-0.01-0.45l0.03-0.7l0.07-0.68l0.11-0.66l0.15-0.63l0.2-0.61l0.24-0.59l0.28-0.57l0.32-0.55
	l0.34-0.51l0.34-0.44l0.34-0.37l0.34-0.3l0.34-0.23l0.34-0.17l0.33-0.1l0.33-0.03l0.3,0.03l0.27,0.1l0.24,0.16l0.21,0.23l0.17,0.29
	l0.14,0.35l0.11,0.42l0.08,0.48l0.04,0l0.29-1.8L178.69,124.6z M164.99,129.26l-0.24,1.43l-0.12,0.83l-0.09,0.73l-0.06,0.63
	l-0.02,0.53l0.02,0.4l0.05,0.35l0.09,0.3l0.13,0.24l0.16,0.19l0.18,0.14l0.2,0.08l0.22,0.03l0.15-0.01l0.15-0.04l0.14-0.06
	l0.14-0.09l0.13-0.11l0.12-0.13l0.23-0.34l0.11-0.24l0.11-0.31l0.24-0.87l0.26-1.19l0.27-1.51l0.42-2.69l0.11-0.86l0.04-0.55
	l-0.01-0.29l-0.04-0.25l-0.06-0.21l-0.09-0.17l-0.11-0.14l-0.14-0.1l-0.17-0.06l-0.19-0.02l-0.15,0.01l-0.15,0.04l-0.15,0.07
	l-0.15,0.1l-0.16,0.13l-0.16,0.15l-0.32,0.4l-0.16,0.25l-0.15,0.31l-0.14,0.35l-0.14,0.41l-0.13,0.46l-0.12,0.51L164.99,129.26z
	 M167.11,116.73l-1.5,9.06l0.04,0.06l0.2-0.39l0.21-0.34l0.22-0.28l0.23-0.23l0.24-0.18l0.25-0.13l0.26-0.08l0.27-0.02l0.23,0.02
	l0.23,0.06l0.21,0.09l0.21,0.13l0.2,0.16l0.19,0.2l0.18,0.23l0.17,0.27l0.16,0.3l0.14,0.32l0.11,0.35l0.09,0.37l0.07,0.39l0.05,0.42
	l0.03,0.44l0.01,0.46l-0.03,0.68l-0.07,0.67l-0.12,0.65l-0.16,0.64l-0.2,0.62l-0.25,0.61l-0.29,0.6l-0.33,0.58l-0.36,0.54
	l-0.37,0.47l-0.37,0.4l-0.38,0.32l-0.39,0.25l-0.4,0.18l-0.41,0.11l-0.41,0.03l-0.25-0.02l-0.24-0.04l-0.23-0.07l-0.22-0.1
	l-0.21-0.13l-0.2-0.15l-0.19-0.18l-0.18-0.21l-0.16-0.23l-0.14-0.25l-0.12-0.27l-0.1-0.28l-0.07-0.3l-0.05-0.32l-0.03-0.34
	l-0.01-0.35l0.02-0.59l0.04-0.55l0.06-0.51l0.08-0.46l0.11-0.51l2.07-12.3l-1.13-0.01l0.1-0.71l1.09,0.01l0.49-0.01l0.47-0.03
	l0.44-0.06L167.11,116.73z M152.02,124.22l-0.52,3.02l0.04,0.06l0.37-0.74l0.37-0.64l0.38-0.55l0.38-0.44l0.39-0.35l0.2-0.13
	l0.19-0.11l0.2-0.09l0.2-0.06l0.2-0.04l0.2-0.01l0.34,0.04l0.16,0.05l0.14,0.06l0.26,0.18l0.22,0.25l0.17,0.3l0.12,0.31l0.07,0.32
	l0.02,0.34l-0.1,1.19l0.04,0.05l0.36-0.72l0.38-0.62l0.39-0.53l0.4-0.43l0.41-0.33l0.21-0.13l0.21-0.1l0.21-0.08l0.21-0.06
	l0.22-0.04l0.22-0.01l0.28,0.04l0.25,0.1l0.23,0.17l0.21,0.23l0.18,0.28l0.13,0.32l0.07,0.35l0.02,0.39l-0.04,0.64l-0.13,0.83
	l-0.9,5.15l-0.12,0.81l-0.04,0.41l0.01,0.26l0.05,0.19l0.09,0.11l0.06,0.03l0.07,0.01l0.15-0.04l0.17-0.13l0.2-0.22l0.23-0.31
	l0.23-0.42l0.22-0.53l0.21-0.65l0.2-0.77l0.44,0.01l-0.23,0.97l-0.14,0.44l-0.14,0.4l-0.16,0.38l-0.17,0.34l-0.18,0.31l-0.19,0.28
	l-0.38,0.46l-0.19,0.18l-0.19,0.14l-0.19,0.12l-0.19,0.08l-0.18,0.05l-0.18,0.02l-0.3-0.03l-0.27-0.09l-0.24-0.15l-0.21-0.2
	l-0.17-0.26l-0.12-0.32l-0.07-0.37l-0.02-0.43l0.04-0.48l0.13-0.75l0.94-5.25l0.05-0.2l0.06-0.41l0.07-0.71l-0.03-0.26l-0.11-0.23
	l-0.08-0.09l-0.08-0.07l-0.09-0.04l-0.1-0.02l-0.14,0.02l-0.16,0.06l-0.17,0.11l-0.19,0.15l-0.42,0.42l-0.47,0.59l-0.25,0.37
	l-0.23,0.42l-0.22,0.48l-0.2,0.54l-0.19,0.59l-0.17,0.65l-0.16,0.7l-0.14,0.76l-0.72,4.23l-1.78-0.02l1.27-7.48l0.18-1.14l0.06-0.66
	l-0.03-0.31l-0.1-0.29l-0.08-0.12l-0.09-0.09l-0.1-0.05l-0.11-0.02l-0.15,0.02l-0.16,0.07l-0.17,0.12l-0.18,0.17l-0.41,0.47
	l-0.46,0.66l-0.23,0.4l-0.22,0.45l-0.21,0.49l-0.19,0.54l-0.17,0.58l-0.16,0.63l-0.15,0.67l-0.13,0.72l-0.71,4.14l-1.79-0.01
	l1.75-10.12l-1.58-0.01l0.1-0.71l1.49,0.01l0.49-0.01l0.48-0.04l0.47-0.07L152.02,124.22z M145.42,126.4l-0.01-0.36l-0.05-0.33
	l-0.08-0.29l-0.12-0.26l-0.15-0.21l-0.18-0.15l-0.21-0.09l-0.24-0.03l-0.18,0.01l-0.17,0.04l-0.16,0.07l-0.14,0.1l-0.13,0.13
	l-0.12,0.15l-0.1,0.18l-0.09,0.21l-0.18,0.57l-0.2,0.8l-0.23,1.04l-0.25,1.27l-0.23,1.29l-0.17,1.11l-0.1,0.92l-0.04,0.73l0.01,0.38
	l0.05,0.33l0.09,0.28l0.13,0.23l0.16,0.19l0.17,0.13l0.18,0.08l0.2,0.03l0.14-0.01l0.14-0.04l0.14-0.07l0.13-0.1l0.25-0.29
	l0.24-0.41l0.23-0.53l0.21-0.64l0.19-0.76l0.18-0.88l0.3-1.71l0.21-1.37l0.13-1.03L145.42,126.4z M140.2,130.79l0.02-0.67l0.07-0.65
	l0.11-0.62l0.15-0.6l0.19-0.58l0.23-0.56l0.27-0.54l0.31-0.52l0.33-0.47l0.34-0.41l0.35-0.35l0.36-0.28l0.37-0.22l0.38-0.16
	l0.39-0.09l0.4-0.03l0.31,0.02l0.29,0.07l0.27,0.11l0.26,0.15l0.24,0.19l0.22,0.24l0.2,0.28l0.18,0.32l0.16,0.35l0.14,0.37
	l0.12,0.39l0.1,0.4l0.07,0.42l0.05,0.43l0.03,0.45l0.01,0.47l-0.03,0.66l-0.07,0.64l-0.11,0.62l-0.15,0.6l-0.19,0.59l-0.23,0.57
	l-0.28,0.55l-0.31,0.53l-0.34,0.49l-0.35,0.43l-0.35,0.36l-0.36,0.29l-0.36,0.23l-0.37,0.16l-0.37,0.1l-0.38,0.03l-0.3-0.02
	l-0.28-0.07l-0.27-0.11l-0.25-0.15l-0.24-0.19l-0.22-0.23l-0.21-0.27l-0.19-0.31l-0.17-0.35l-0.15-0.37l-0.13-0.39l-0.1-0.42
	l-0.08-0.44l-0.05-0.46l-0.03-0.48L140.2,130.79z M131.95,125.72l-1.32,8.69l2.12,0.02l0.64-0.03l0.54-0.09l0.23-0.07l0.2-0.09
	l0.18-0.1l0.15-0.12l0.14-0.15l0.13-0.19l0.12-0.23l0.12-0.26l0.21-0.64l0.19-0.8l0.15-0.87l0.11-0.87l0.07-0.87l0.03-0.87
	l-0.03-0.54l-0.09-0.48l-0.15-0.42l-0.1-0.18l-0.12-0.17l-0.14-0.15l-0.17-0.13l-0.2-0.11l-0.23-0.09l-0.26-0.07l-0.29-0.05
	l-0.32-0.03l-0.35-0.01L131.95,125.72z M133.23,117.35l-1.17,7.67l1.69,0.01l0.57-0.03l0.49-0.09l0.42-0.15l0.18-0.1l0.17-0.11
	l0.15-0.14l0.14-0.17l0.13-0.21l0.13-0.24l0.11-0.27l0.11-0.31l0.18-0.71l0.14-0.77l0.11-0.75l0.06-0.74l0.03-0.73l-0.03-0.65
	l-0.04-0.28l-0.06-0.24l-0.08-0.21l-0.1-0.17l-0.11-0.14l-0.13-0.1l-0.33-0.15l-0.43-0.11l-0.53-0.07l-0.62-0.03L133.23,117.35z
	 M128.48,134.39l2.57-17.07l-1.93-0.02l0.1-0.71l5.29,0.05l0.74,0.03l0.66,0.07l0.57,0.12l0.48,0.16l0.22,0.1l0.21,0.13l0.2,0.14
	l0.19,0.17l0.18,0.19l0.17,0.22l0.32,0.5l0.26,0.55l0.19,0.58l0.11,0.6l0.03,0.63l-0.02,0.4l-0.04,0.39l-0.08,0.38l-0.1,0.37
	l-0.13,0.36l-0.16,0.34l-0.19,0.34l-0.22,0.32l-0.25,0.3l-0.28,0.28l-0.32,0.25l-0.35,0.22l-0.38,0.19l-0.42,0.17l-0.45,0.14
	l-0.49,0.12l0,0.06l0.38,0.15l0.35,0.17l0.33,0.19l0.3,0.22l0.28,0.24l0.25,0.26l0.23,0.29l0.2,0.31l0.18,0.33l0.15,0.34l0.13,0.35
	l0.11,0.36l0.08,0.37l0.06,0.38l0.03,0.39l0.01,0.4l-0.02,0.38l-0.04,0.37l-0.06,0.36l-0.08,0.35l-0.1,0.35l-0.13,0.34l-0.15,0.33
	l-0.17,0.32l-0.19,0.31l-0.2,0.28l-0.22,0.25l-0.23,0.23l-0.24,0.2l-0.26,0.17l-0.27,0.15l-0.28,0.12l-0.63,0.19l-0.72,0.13
	l-0.81,0.07l-0.9,0.02l-5.9-0.05l0.13-0.7L128.48,134.39z"/>
<path class="st2" d="M181.94,99.63l0.02-0.56l0.01-0.58l0.01-0.61l0.7,0.01l0.66-0.03l-0.05,1.76l-0.66-0.01L181.94,99.63z
	 M182.12,96.72l0.06-7.08l0.01-2.52l-0.01-0.95l0.63,0l0.61-0.02l-0.08,2.75l-0.17,7.81l-0.48-0.01L182.12,96.72z M174.75,91.32
	l0.11-1.29l0.74-0.27l0.64-0.17l0.58-0.09l0.57-0.03l0.58,0.03l0.54,0.12l0.25,0.09l0.23,0.12l0.2,0.14l0.19,0.16l0.16,0.19
	l0.13,0.2l0.1,0.21l0.08,0.23l0.09,0.49l0.04,0.53l-0.04,2.28l-0.07,2.96l-0.01,2.43l-0.59-0.01l-0.61,0.03l0.1-2.69l0.06-3.19
	l-0.35,0.38l-0.26,0.21l-0.32,0.18l-0.68,0.3l-0.72,0.32l-0.4,0.22l-0.31,0.22l-0.24,0.23l-0.2,0.25l-0.15,0.26l-0.1,0.26
	l-0.06,0.33l-0.02,0.34l0.02,0.26l0.04,0.24l0.07,0.22l0.1,0.2l0.12,0.18l0.13,0.15l0.14,0.12l0.16,0.09l0.36,0.11l0.42,0.03
	l0.29-0.02l0.3-0.05l0.36-0.11l0.46-0.2L177.89,99l-0.11,0.7l-0.44,0.12l-0.35,0.06l-0.58,0.04l-0.43-0.01l-0.38-0.06l-0.33-0.09
	l-0.28-0.14l-0.24-0.17l-0.21-0.22l-0.18-0.26l-0.15-0.3l-0.11-0.33L174,98l-0.05-0.36l-0.02-0.37l0.02-0.43l0.06-0.39l0.1-0.36
	l0.13-0.32l0.18-0.31l0.25-0.31l0.29-0.28l0.3-0.23l0.33-0.2l0.38-0.2l0.54-0.23l0.78-0.3l0.5-0.21l0.36-0.21l0.15-0.11l0.13-0.13
	l0.21-0.33l0.09-0.2l0.06-0.19l0.04-0.4l-0.02-0.23l-0.04-0.22l-0.07-0.2l-0.1-0.18l-0.12-0.16l-0.13-0.13l-0.15-0.11l-0.17-0.08
	l-0.38-0.1l-0.44-0.03l-0.44,0.03l-0.45,0.09l-0.43,0.12l-0.36,0.14l-0.37,0.19L174.75,91.32z M173.42,98.44l-0.15,1.27l-0.4,0.14
	l-0.31,0.07l-0.5,0.04l-0.28-0.01l-0.25-0.04l-0.23-0.07l-0.2-0.1l-0.17-0.12l-0.15-0.16l-0.13-0.19l-0.11-0.23l-0.09-0.27
	l-0.06-0.31l-0.04-0.35l-0.01-0.4l0-0.38l0.05-1.93l0.12-4.42l-0.9,0.01l0.03-1.19l0.91-0.01l0.05-1.88l1.06-0.36l-0.03,2.22
	l1.84-0.02l-0.03,1.19L171.6,91l-0.12,5.55l0,0.42l0.03,0.63l0.09,0.45l0.14,0.31l0.09,0.12l0.1,0.09l0.22,0.12l0.24,0.04l0.36-0.05
	l0.27-0.07L173.42,98.44z M167.02,99.81l0.09-2.49l0.09-4.25l0.02-3.26l0.61,0l0.59-0.02l-0.1,3.22l-0.06,3.67l0,3.1l-0.6-0.01
	L167.02,99.81z M167.18,87.69l0.01-1.4l0.64,0.01l0.64-0.03l-0.02,1.4l-0.62,0L167.18,87.69z M161.25,99.7l-0.05-0.73l-0.06-0.76
	l0.51,0.29l0.49,0.2l0.47,0.12l0.44,0.04l0.42-0.05l0.18-0.06l0.17-0.08l0.14-0.1l0.13-0.12l0.11-0.14l0.09-0.17l0.11-0.36
	l0.04-0.37L164.38,97l-0.14-0.39l-0.11-0.2l-0.16-0.22l-0.72-0.86l-0.83-0.99l-0.26-0.36l-0.22-0.37l-0.18-0.38l-0.13-0.38
	l-0.08-0.39l-0.03-0.39l0.01-0.32l0.05-0.31l0.08-0.3l0.12-0.3l0.15-0.28l0.18-0.24l0.21-0.2l0.24-0.17l0.26-0.13l0.29-0.09
	l0.31-0.06l0.33-0.02l0.4,0.01l0.41,0.04l0.43,0.08l0.45,0.11l0.08,1.41l-0.38-0.19l-0.37-0.14l-0.37-0.08l-0.37-0.03l-0.38,0.04
	l-0.35,0.12l-0.16,0.09l-0.13,0.11l-0.11,0.12l-0.09,0.14l-0.11,0.32l-0.03,0.35l0.02,0.23l0.04,0.22l0.08,0.22l0.12,0.24l0.15,0.25
	l0.18,0.24l0.78,0.92l0.5,0.59l0.31,0.41l0.2,0.33l0.17,0.34l0.14,0.34l0.1,0.34l0.06,0.34l0.02,0.35l-0.01,0.34l-0.05,0.33
	l-0.08,0.32l-0.12,0.3l-0.15,0.28l-0.19,0.25l-0.22,0.21l-0.25,0.18l-0.28,0.15l-0.3,0.1l-0.32,0.06l-0.33,0.03l-0.31-0.01
	l-0.37-0.04l-0.66-0.12L161.25,99.7z M155.31,93.69l3.95-0.05l-0.02-0.55l-0.04-0.41l-0.07-0.35l-0.11-0.36l-0.15-0.35l-0.2-0.29
	l-0.24-0.24l-0.28-0.17l-0.32-0.1l-0.34-0.03l-0.37,0.05l-0.35,0.12l-0.32,0.19l-0.28,0.24l-0.24,0.3l-0.2,0.35l-0.15,0.36
	l-0.11,0.35l-0.08,0.4L155.31,93.69z M159.84,98.34l-0.15,1.37l-0.59,0.21l-0.51,0.13l-0.47,0.07l-0.47,0.03l-0.4-0.01l-0.39-0.05
	l-0.37-0.09l-0.34-0.13l-0.32-0.17l-0.3-0.23l-0.27-0.28l-0.25-0.33l-0.22-0.38l-0.19-0.41l-0.16-0.43l-0.12-0.46l-0.1-0.48
	l-0.07-0.49l-0.04-0.51l-0.02-0.52l0.01-0.72l0.06-0.7l0.11-0.67l0.16-0.65l0.21-0.6l0.26-0.53l0.3-0.46l0.35-0.4l0.4-0.32
	l0.22-0.13l0.23-0.11l0.51-0.14l0.56-0.05l0.3,0.01l0.3,0.05l0.29,0.08l0.28,0.11l0.27,0.15l0.24,0.18l0.22,0.21l0.2,0.24l0.18,0.28
	l0.16,0.31l0.13,0.35l0.11,0.37l0.1,0.4l0.06,0.42l0.04,0.44l0.02,0.46l-0.04,0.69l-5.07,0.06l-0.02,0.83l0.02,0.51l0.06,0.49
	l0.1,0.46l0.13,0.44l0.17,0.41l0.2,0.36l0.24,0.3l0.27,0.25l0.3,0.19l0.32,0.14l0.34,0.08l0.36,0.03l0.45-0.04l0.5-0.12l0.55-0.2
	L159.84,98.34z M152.54,99.98l-0.56-0.02l-0.55,0.03l0.01-1.9l-0.27,0.69l-0.13,0.24l-0.16,0.24l-0.17,0.21l-0.18,0.18l-0.19,0.15
	l-0.23,0.13l-0.26,0.12l-0.31,0.1l-0.34,0.07l-0.36,0.03l-0.39-0.02l-0.37-0.06l-0.33-0.11l-0.3-0.16l-0.27-0.2l-0.24-0.24
	l-0.2-0.28l-0.17-0.32l-0.13-0.36l-0.1-0.43l-0.06-0.49l-0.03-0.55l0.01-0.6l0.02-1.1l0.07-3.29l0-1.05l0-0.93l0.61,0l0.57-0.02
	l-0.13,3.78l-0.05,2.62l0.02,0.41l0.04,0.37l0.06,0.33l0.09,0.28l0.11,0.24l0.14,0.21l0.18,0.18l0.21,0.15l0.23,0.12l0.24,0.09
	l0.26,0.05l0.27,0.01l0.24-0.02l0.24-0.05l0.24-0.08l0.23-0.11l0.35-0.27l0.29-0.35l0.14-0.23l0.12-0.26l0.21-0.61l0.12-0.57
	l0.08-0.71l0.07-2.03l0.03-3.61l0.62,0l0.56-0.02l-0.17,5.4l-0.03,2.14L152.54,99.98z M143.38,91.39l-0.41-0.14l-0.31-0.08
	l-0.48-0.03l-0.45,0.04l-0.43,0.11l-0.4,0.18l-0.37,0.25l-0.33,0.32l-0.29,0.39l-0.24,0.46l-0.2,0.53l-0.15,0.57l-0.1,0.6
	l-0.06,0.63l-0.01,0.65l0.02,0.44l0.04,0.42l0.07,0.4l0.1,0.38l0.13,0.35l0.16,0.31l0.19,0.28l0.22,0.24l0.24,0.2l0.25,0.13
	l0.27,0.08l0.28,0.02l0.24-0.02l0.24-0.06l0.23-0.1l0.22-0.14l0.2-0.17l0.19-0.21l0.18-0.25l0.16-0.29l0.15-0.32l0.13-0.35
	l0.11-0.37l0.09-0.39l0.07-0.54l0.05-0.71l0.03-1.49L143.38,91.39z M143.22,104.55l0.06-2.36l0.03-1.46l0.04-2.7l-0.25,0.58
	l-0.22,0.42l-0.23,0.34l-0.29,0.31l-0.33,0.27l-0.37,0.21l-0.4,0.13l-0.42,0.05l-0.29-0.02l-0.29-0.06l-0.28-0.1l-0.27-0.14
	l-0.26-0.18l-0.25-0.22l-0.22-0.25l-0.21-0.29l-0.19-0.32l-0.16-0.35l-0.13-0.38l-0.11-0.41l-0.15-0.87l-0.06-0.91l0.01-0.65
	l0.06-0.64l0.1-0.63l0.14-0.62l0.18-0.59l0.22-0.53l0.25-0.47l0.28-0.41l0.31-0.36l0.33-0.3l0.36-0.24l0.38-0.18l0.4-0.13l0.42-0.1
	l0.43-0.06l0.45-0.02l0.82,0.04l0.6,0.1l0.89,0.2l-0.08,2.13l-0.07,3.84l-0.04,5.4l-0.01,2.94l-0.59,0L143.22,104.55z
	 M133.44,100.21l0.12-5.12l0.02-2.13l-0.01-1.84l-0.02-0.91l0.56,0.01l0.57-0.02l-0.03,1.64l0.23-0.54l0.2-0.39l0.19-0.28l0.23-0.23
	l0.25-0.18l0.29-0.14l0.31-0.09l0.32-0.03l0.28,0.02l0.28,0.07l0.06,1.43l-0.39-0.12l-0.35-0.04l-0.19,0.01l-0.18,0.04l-0.33,0.15
	l-0.29,0.25l-0.26,0.34l-0.22,0.43l-0.17,0.51l-0.11,0.5l-0.08,0.63l-0.05,0.98l-0.03,1.55l0.01,2.82l0.01,0.66l-0.59-0.01
	L133.44,100.21z M126.54,91.89l0.11-1.29l0.74-0.27l0.64-0.17l0.58-0.09l0.57-0.04l0.58,0.03l0.54,0.12l0.25,0.09l0.23,0.12
	l0.21,0.14l0.18,0.17l0.16,0.19l0.13,0.2l0.11,0.22l0.07,0.23l0.09,0.49l0.04,0.52l-0.04,2.28l-0.07,2.96l-0.01,2.42l-0.59-0.01
	l-0.61,0.03l0.1-2.69l0.06-3.18l-0.34,0.38l-0.26,0.2l-0.32,0.18l-0.68,0.3l-0.72,0.32l-0.41,0.22l-0.31,0.22l-0.24,0.23l-0.2,0.25
	L127,96.93l-0.09,0.26l-0.06,0.32l-0.02,0.34l0.02,0.26l0.04,0.24l0.07,0.22l0.09,0.2l0.12,0.18l0.13,0.15l0.14,0.12l0.16,0.09
	l0.35,0.11l0.42,0.03l0.29-0.02l0.3-0.05l0.36-0.11l0.46-0.2l-0.1,0.49l-0.1,0.7l-0.44,0.12l-0.35,0.06l-0.58,0.04l-0.43-0.02
	l-0.38-0.05l-0.33-0.09l-0.28-0.14l-0.24-0.18l-0.21-0.22l-0.18-0.26l-0.15-0.3l-0.11-0.33l-0.08-0.34l-0.05-0.36l-0.02-0.38
	l0.02-0.42l0.06-0.39l0.1-0.36l0.13-0.32l0.18-0.31l0.25-0.31l0.29-0.28l0.3-0.23l0.33-0.2l0.38-0.2l0.54-0.23l0.78-0.3l0.5-0.21
	l0.36-0.21l0.15-0.11l0.13-0.13l0.22-0.33l0.08-0.2l0.06-0.19l0.04-0.4l-0.02-0.23l-0.04-0.22l-0.07-0.2l-0.1-0.18l-0.12-0.16
	l-0.13-0.13L130,91.29l-0.16-0.08l-0.38-0.1l-0.44-0.03l-0.44,0.03l-0.45,0.09l-0.42,0.12l-0.36,0.14l-0.37,0.18L126.54,91.89z
	 M114.51,100.44l0.06-1.43l0.04-1.43l0.09-6.01l-0.01-1.12l0.57,0l0.55-0.02l-0.03,1.84l0.21-0.5l0.19-0.38l0.21-0.32l0.27-0.29
	l0.32-0.25l0.36-0.19l0.39-0.12l0.4-0.04l0.29,0.02l0.28,0.07l0.27,0.11l0.25,0.16l0.22,0.19l0.19,0.21l0.15,0.23l0.13,0.26
	l0.11,0.32l0.11,0.44l0.21-0.53l0.24-0.44l0.26-0.36l0.29-0.27l0.31-0.2l0.33-0.14l0.35-0.09l0.37-0.03l0.24,0.01l0.24,0.04
	l0.23,0.07l0.23,0.1l0.22,0.12l0.19,0.15l0.17,0.17l0.15,0.2l0.23,0.43l0.14,0.45l0.07,0.46l0.03,0.46l-0.03,1.42l-0.07,2.89
	l-0.03,3.23l-0.56-0.02l-0.63,0.03l0.09-2.9l0.05-2.44l0.01-1.53l-0.03-0.51l-0.07-0.38l-0.11-0.31l-0.15-0.27l-0.2-0.23l-0.24-0.16
	l-0.28-0.1l-0.32-0.03l-0.25,0.02l-0.24,0.07l-0.21,0.11l-0.2,0.16l-0.21,0.21l-0.18,0.26l-0.15,0.28l-0.13,0.32l-0.11,0.38
	l-0.09,0.44l-0.08,0.66l-0.04,0.79l-0.05,2.42l-0.02,2.76l-0.58-0.01l-0.61,0.03l0.08-2.51l0.05-2.39l0.01-1.88l-0.02-0.47
	l-0.05-0.39l-0.1-0.33l-0.16-0.3l-0.21-0.26l-0.24-0.18l-0.27-0.11l-0.3-0.04l-0.33,0.05l-0.31,0.13l-0.28,0.22l-0.26,0.3
	l-0.23,0.38l-0.19,0.45l-0.14,0.57l-0.11,0.72l-0.07,1.09l-0.04,1.68l-0.01,3.32l-0.59-0.01L114.51,100.44z M104.19,92.16l0.11-1.29
	l0.74-0.26l0.64-0.17l0.58-0.09l0.57-0.03l0.58,0.03l0.55,0.11l0.25,0.09l0.23,0.12l0.21,0.14l0.18,0.17l0.16,0.19l0.13,0.2
	l0.11,0.22l0.07,0.23l0.09,0.49l0.04,0.52l-0.04,2.28l-0.07,2.96l0,2.42l-0.59-0.01l-0.61,0.03l0.1-2.69l0.06-3.18l-0.35,0.38
	l-0.26,0.2l-0.32,0.18l-0.68,0.3l-0.72,0.33l-0.41,0.22l-0.31,0.22l-0.24,0.23l-0.2,0.25l-0.15,0.26l-0.09,0.26l-0.06,0.32
	l-0.02,0.34l0.02,0.26l0.04,0.24l0.07,0.22l0.09,0.21l0.12,0.18l0.13,0.15l0.14,0.12l0.16,0.09l0.35,0.11l0.42,0.03l0.28-0.02
	l0.3-0.05l0.36-0.11l0.46-0.21l-0.1,0.49l-0.11,0.7l-0.44,0.12l-0.35,0.06l-0.58,0.04l-0.43-0.02l-0.38-0.05l-0.33-0.09l-0.28-0.14
	l-0.24-0.17l-0.21-0.22l-0.18-0.26l-0.15-0.3l-0.11-0.33l-0.08-0.34l-0.05-0.36l-0.02-0.37l0.02-0.43l0.06-0.39l0.1-0.36l0.13-0.33
	l0.18-0.31l0.25-0.31l0.29-0.28l0.3-0.23l0.33-0.2l0.38-0.2l0.54-0.23l0.78-0.3l0.5-0.21l0.36-0.21l0.15-0.11l0.13-0.13l0.22-0.32
	l0.08-0.2l0.06-0.2l0.04-0.4l-0.02-0.23l-0.04-0.22l-0.07-0.2l-0.1-0.18l-0.12-0.16l-0.13-0.13l-0.15-0.11l-0.16-0.08l-0.38-0.1
	l-0.44-0.03l-0.44,0.03l-0.45,0.08l-0.42,0.12l-0.36,0.14l-0.37,0.19L104.19,92.16z M95.61,100.66l0.11-2.95l0.07-2.65l0.04-2.35
	l0-2.05l0.6,0l0.58-0.02l-0.06,1.98l0.26-0.64l0.26-0.47l0.18-0.24l0.21-0.22l0.24-0.2l0.28-0.16l0.3-0.13l0.31-0.09l0.31-0.06
	l0.31-0.02l0.28,0.01l0.28,0.04l0.27,0.06l0.27,0.09l0.26,0.12l0.23,0.15l0.21,0.18l0.18,0.22l0.16,0.24l0.13,0.25l0.11,0.27
	l0.08,0.28l0.1,0.6l0.04,0.65l0,0.49L102.19,95l-0.08,4.13l0,1.45l-0.57-0.01l-0.61,0.03l0.07-2.3l0.06-2.3l0.02-1.79l-0.02-0.41
	l-0.04-0.37l-0.07-0.32l-0.09-0.28l-0.12-0.24l-0.15-0.22l-0.18-0.18l-0.21-0.15l-0.23-0.12l-0.24-0.08l-0.25-0.05l-0.27-0.02
	l-0.37,0.04l-0.35,0.11l-0.31,0.17l-0.29,0.24l-0.23,0.28l-0.21,0.34l-0.18,0.39l-0.15,0.44l-0.08,0.37l-0.07,0.45l-0.1,1.13
	l-0.06,2l-0.02,2.92l-0.58-0.01L95.61,100.66z M93.86,100.68l-0.56-0.01l-0.55,0.03l0.01-1.9l-0.27,0.69l-0.13,0.24l-0.15,0.24
	l-0.17,0.21l-0.18,0.18l-0.19,0.15l-0.23,0.13l-0.26,0.12l-0.31,0.1l-0.34,0.06l-0.36,0.02l-0.39-0.02l-0.37-0.06l-0.33-0.11
	l-0.3-0.16l-0.27-0.2l-0.24-0.24l-0.2-0.28l-0.17-0.32l-0.13-0.36l-0.1-0.43l-0.06-0.49l-0.02-0.55l0.01-0.6l0.03-1.1l0.07-3.29
	l0-1.05l0-0.93l0.61,0l0.57-0.02l-0.13,3.78l-0.05,2.62l0.02,0.41l0.04,0.37l0.06,0.33l0.09,0.28L89,98.79L89.15,99l0.18,0.18
	l0.21,0.15l0.23,0.12L90,99.54l0.26,0.05l0.27,0.01l0.24-0.02l0.24-0.05l0.23-0.08l0.23-0.11l0.35-0.27l0.29-0.35l0.13-0.23
	l0.12-0.26l0.21-0.61l0.12-0.57l0.08-0.71l0.07-2.03l0.03-3.61l0.62,0l0.56-0.02l-0.17,5.4l-0.03,2.14L93.86,100.68z M77.87,94.61
	l3.95-0.05l-0.02-0.55l-0.04-0.41l-0.07-0.35l-0.11-0.36l-0.15-0.34l-0.2-0.29l-0.24-0.24l-0.28-0.17l-0.32-0.1l-0.34-0.03
	l-0.37,0.05l-0.35,0.12l-0.32,0.19l-0.28,0.25l-0.24,0.3l-0.2,0.35l-0.15,0.37l-0.11,0.35l-0.08,0.4L77.87,94.61z M82.41,99.26
	l-0.15,1.37l-0.59,0.21l-0.51,0.13l-0.47,0.07l-0.47,0.02l-0.4-0.01L79.43,101l-0.37-0.09l-0.34-0.13l-0.32-0.17l-0.3-0.23
	l-0.27-0.28l-0.25-0.34l-0.23-0.38l-0.19-0.41L77,98.55l-0.13-0.46l-0.09-0.48l-0.07-0.49l-0.04-0.51l-0.02-0.52l0.01-0.72
	l0.06-0.69l0.11-0.67l0.16-0.65l0.21-0.6l0.26-0.53l0.3-0.47l0.35-0.4l0.4-0.32l0.22-0.13l0.23-0.1l0.51-0.14l0.56-0.05l0.3,0.02
	l0.3,0.05l0.29,0.08l0.28,0.11l0.27,0.15l0.24,0.18l0.22,0.21l0.2,0.25l0.18,0.28l0.16,0.31l0.13,0.35l0.11,0.37l0.1,0.4l0.06,0.42
	l0.04,0.43l0.02,0.46l-0.03,0.69l-5.07,0.06l-0.02,0.83l0.02,0.51l0.06,0.49l0.1,0.46l0.13,0.44l0.17,0.41l0.2,0.35l0.24,0.3
	L79,99.48l0.3,0.19l0.32,0.13l0.34,0.08l0.36,0.03l0.45-0.05l0.5-0.12l0.55-0.2L82.41,99.26z M75.89,99.6l-0.15,1.27l-0.4,0.14
	l-0.31,0.08l-0.5,0.05l-0.28-0.01l-0.25-0.04l-0.22-0.07l-0.2-0.09l-0.17-0.13l-0.15-0.16l-0.13-0.19l-0.11-0.23l-0.09-0.26
	l-0.07-0.31l-0.04-0.35l-0.02-0.4l0-0.39l0.04-1.92l0.11-4.42l-0.9,0.01l0.03-1.19l0.91-0.01l0.05-1.88l1.06-0.36l-0.03,2.22
	l1.84-0.02l-0.03,1.19l-1.83,0.02l-0.12,5.55l0,0.43l0.04,0.63l0.09,0.45l0.14,0.31l0.09,0.11l0.1,0.09l0.23,0.12l0.23,0.03
	l0.36-0.04l0.26-0.08L75.89,99.6z M67.73,100.99l0.12-5.12l0.02-2.13l-0.01-1.84L67.85,91l0.56,0l0.57-0.01l-0.03,1.64l0.23-0.54
	l0.2-0.39l0.2-0.28l0.22-0.23L70.05,91l0.29-0.14l0.31-0.09l0.32-0.03l0.28,0.02l0.28,0.07l0.06,1.43l-0.39-0.12l-0.34-0.04
	l-0.19,0.01l-0.18,0.04l-0.33,0.15l-0.29,0.25l-0.26,0.35l-0.22,0.43l-0.18,0.5l-0.11,0.5L69,94.97l-0.05,0.98l-0.03,1.55l0.01,2.82
	l0.01,0.66l-0.58-0.02L67.73,100.99z M60.83,92.67l0.11-1.29l0.74-0.26l0.64-0.17l0.58-0.09l0.57-0.03l0.58,0.03l0.55,0.11
	l0.25,0.09l0.23,0.12l0.21,0.14l0.18,0.17l0.16,0.19l0.13,0.2l0.1,0.22l0.08,0.23l0.09,0.49l0.04,0.52l-0.04,2.28l-0.07,2.96l0,2.42
	L65.37,101l-0.61,0.03l0.1-2.69l0.06-3.19l-0.34,0.38l-0.26,0.2l-0.32,0.18l-0.68,0.3l-0.71,0.33l-0.41,0.22l-0.31,0.22l-0.24,0.23
	l-0.2,0.25l-0.15,0.26l-0.1,0.26l-0.06,0.33l-0.02,0.34l0.02,0.26l0.04,0.24l0.07,0.22l0.1,0.2l0.12,0.18l0.13,0.15l0.14,0.12
	l0.16,0.09l0.36,0.11l0.42,0.03l0.29-0.02l0.3-0.05l0.36-0.11l0.46-0.21l-0.1,0.5l-0.11,0.7l-0.44,0.12l-0.35,0.06l-0.58,0.04
	l-0.43-0.01l-0.38-0.05l-0.33-0.09l-0.28-0.14l-0.24-0.18l-0.21-0.22l-0.18-0.26l-0.15-0.3l-0.11-0.33l-0.08-0.34l-0.05-0.36
	l-0.02-0.38l0.01-0.42l0.06-0.39l0.1-0.36l0.13-0.33l0.18-0.31l0.25-0.31l0.29-0.29l0.3-0.23l0.33-0.2l0.38-0.2l0.54-0.23l0.78-0.3
	l0.5-0.21l0.36-0.21l0.15-0.11l0.13-0.13l0.22-0.32l0.08-0.2l0.06-0.19l0.04-0.4l-0.02-0.23l-0.04-0.22l-0.07-0.2l-0.09-0.18
	l-0.12-0.16l-0.13-0.13l-0.15-0.11l-0.17-0.08l-0.37-0.1l-0.44-0.03l-0.44,0.03l-0.45,0.09l-0.42,0.12l-0.36,0.14l-0.37,0.18
	L60.83,92.67z M59.5,99.79l-0.15,1.27l-0.4,0.14l-0.31,0.07l-0.5,0.05l-0.28-0.01l-0.25-0.04l-0.22-0.07l-0.2-0.1l-0.17-0.12
	l-0.15-0.16l-0.13-0.19l-0.11-0.23l-0.09-0.26l-0.07-0.31l-0.04-0.35l-0.02-0.4l0-0.38l0.05-1.93l0.11-4.42l-0.89,0.01l0.03-1.19
	l0.91-0.01l0.05-1.88l1.06-0.35l-0.03,2.22l1.84-0.02l-0.03,1.19l-1.83,0.02l-0.12,5.55l0,0.42l0.04,0.63l0.09,0.45l0.14,0.31
	l0.09,0.11l0.1,0.09l0.22,0.12l0.24,0.04l0.36-0.04l0.27-0.07L59.5,99.79z M53.1,101.16l0.09-2.48l0.09-4.25l0.02-3.26l0.61,0
	l0.59-0.02l-0.1,3.22l-0.06,3.67l0,3.1l-0.6-0.01L53.1,101.16z M53.26,89.04l0-1.4l0.64,0.01l0.64-0.03l-0.02,1.4l-0.61,0
	L53.26,89.04z M48.16,101.22l-0.24-0.99l-0.56-2.19l-1.75-6.78l0.64,0l0.6-0.02l0.15,0.69l0.22,0.95l1.66,6.85l2.02-7.56l0.24-0.98
	l0.63,0l0.63-0.02l-0.83,2.76l-1.67,5.76l-0.41,1.51l-0.65-0.01L48.16,101.22z M38.09,101.34l0.11-2.94l0.07-2.65l0.04-2.35l0-2.05
	l0.6,0l0.58-0.02l-0.06,1.98l0.26-0.64l0.26-0.47l0.18-0.24l0.21-0.23l0.24-0.2l0.28-0.16l0.3-0.13l0.31-0.09l0.31-0.06l0.31-0.02
	l0.28,0.01l0.28,0.03l0.27,0.06l0.27,0.09l0.26,0.12l0.23,0.15l0.21,0.18l0.18,0.21l0.16,0.24l0.13,0.25l0.1,0.27l0.08,0.28l0.1,0.6
	l0.04,0.65l0,0.49l-0.02,0.95l-0.08,4.13l-0.01,1.45l-0.56-0.01l-0.61,0.03l0.07-2.3l0.06-2.3l0.02-1.78l-0.02-0.41l-0.04-0.37
	l-0.07-0.33l-0.09-0.28l-0.12-0.24l-0.15-0.21l-0.18-0.18l-0.2-0.15l-0.23-0.12l-0.24-0.09l-0.25-0.05l-0.27-0.01l-0.37,0.04
	l-0.35,0.1l-0.31,0.17l-0.29,0.24l-0.24,0.28l-0.21,0.33l-0.18,0.39l-0.15,0.44l-0.08,0.37l-0.07,0.45l-0.1,1.13l-0.06,2l-0.02,2.92
	l-0.58-0.01L38.09,101.34z M35.1,101.38l0.09-2.49l0.09-4.24l0.02-3.27l0.61,0l0.59-0.01l-0.1,3.22l-0.05,3.67l0,3.1l-0.6-0.01
	L35.1,101.38z M35.26,89.26l0.01-1.4l0.64,0.01l0.64-0.03l-0.02,1.4l-0.62,0L35.26,89.26z M24.73,93.1l0.11-1.29l0.74-0.26
	l0.64-0.17l0.58-0.09l0.57-0.03l0.58,0.03l0.54,0.11l0.26,0.09l0.23,0.12l0.21,0.14l0.19,0.17l0.16,0.19l0.13,0.2l0.1,0.22
	l0.08,0.23l0.09,0.49l0.04,0.52l-0.04,2.28l-0.07,2.96l-0.01,2.42l-0.59-0.01l-0.61,0.03l0.1-2.69l0.06-3.19l-0.34,0.38l-0.26,0.2
	l-0.32,0.18l-0.68,0.3l-0.71,0.33l-0.41,0.22l-0.31,0.22l-0.24,0.23l-0.2,0.25l-0.15,0.26l-0.1,0.26l-0.06,0.33l-0.02,0.34
	l0.02,0.26l0.05,0.24l0.07,0.22l0.1,0.21l0.12,0.18l0.13,0.15l0.14,0.12l0.16,0.09l0.36,0.11l0.42,0.03l0.29-0.02l0.3-0.05
	l0.36-0.11l0.46-0.21l-0.1,0.49l-0.11,0.7l-0.44,0.12l-0.35,0.06l-0.58,0.04l-0.43-0.02l-0.38-0.05l-0.33-0.09l-0.28-0.13
	l-0.24-0.18l-0.21-0.22l-0.18-0.26l-0.15-0.3l-0.11-0.33l-0.08-0.34l-0.05-0.36l-0.02-0.38l0.02-0.42L24,98.23l0.1-0.36l0.13-0.33
	l0.18-0.31l0.25-0.31l0.29-0.28l0.3-0.23l0.33-0.2l0.38-0.2l0.54-0.23l0.78-0.3l0.5-0.21l0.36-0.21l0.15-0.11l0.13-0.13l0.21-0.33
	l0.09-0.2l0.06-0.2l0.04-0.4l-0.02-0.23l-0.04-0.22l-0.07-0.2l-0.09-0.18l-0.12-0.16l-0.13-0.13L28.2,92.5l-0.17-0.08l-0.38-0.1
	l-0.44-0.03l-0.44,0.03l-0.45,0.09l-0.43,0.12l-0.36,0.14l-0.37,0.18L24.73,93.1z M173.72,83.57l0.45-1.94l0.36-1.7l0.72,0
	l0.71-0.02l-0.42,1.07l-0.58,1.49l-0.43,1.1l-0.4-0.01L173.72,83.57z M169.57,72.5l-0.33,0.04l-0.32,0.1l-0.3,0.16l-0.29,0.22
	l-0.26,0.28l-0.23,0.35l-0.19,0.41l-0.15,0.47l-0.11,0.52l-0.08,0.54l-0.05,0.56l-0.01,0.59l0.02,0.51l0.05,0.48l0.08,0.45l0.1,0.43
	l0.14,0.39l0.17,0.36l0.21,0.31l0.25,0.27l0.28,0.22l0.3,0.16l0.33,0.09l0.35,0.03l0.25-0.02l0.24-0.05l0.23-0.08l0.22-0.11
	l0.22-0.15l0.2-0.19l0.18-0.23l0.17-0.27l0.15-0.31l0.13-0.34l0.11-0.38l0.09-0.41l0.11-0.86l0.03-0.9l-0.05-0.84l-0.13-0.79
	l-0.09-0.36l-0.12-0.32l-0.13-0.29l-0.16-0.24l-0.17-0.21l-0.18-0.18l-0.19-0.14l-0.21-0.11l-0.42-0.14l-0.21-0.03L169.57,72.5z
	 M169.58,71.25l0.34,0.01l0.34,0.05l0.33,0.09l0.32,0.13l0.31,0.17l0.29,0.21l0.26,0.25l0.25,0.3l0.22,0.34l0.19,0.38l0.16,0.42
	l0.14,0.47l0.11,0.49l0.08,0.51l0.05,0.52l0.02,0.54L173,76.7l-0.04,0.57l-0.07,0.56l-0.1,0.55l-0.14,0.52l-0.16,0.48l-0.18,0.44
	l-0.21,0.4l-0.24,0.35l-0.27,0.3l-0.29,0.25l-0.32,0.21l-0.34,0.16l-0.35,0.11l-0.37,0.07l-0.38,0.03l-0.35-0.01l-0.34-0.05
	l-0.33-0.09l-0.32-0.13l-0.31-0.18l-0.29-0.22l-0.27-0.26l-0.24-0.31l-0.22-0.35l-0.19-0.39l-0.17-0.43l-0.14-0.47l-0.11-0.49
	l-0.08-0.5l-0.05-0.52l-0.02-0.53l0.02-0.78l0.07-0.74l0.13-0.71l0.18-0.66l0.24-0.61l0.29-0.53l0.34-0.44l0.4-0.37l0.43-0.28
	l0.44-0.2l0.46-0.12L169.58,71.25z M161.44,81.56l-0.24-0.99l-0.56-2.19l-1.76-6.77l0.64,0l0.59-0.01l0.15,0.69l0.22,0.95l1.66,6.85
	l2.02-7.56l0.24-0.98l0.63,0l0.63-0.02l-0.83,2.76l-1.67,5.76l-0.41,1.51l-0.65-0.01L161.44,81.56z M153.37,75.4l3.95-0.05
	l-0.02-0.55l-0.04-0.41l-0.07-0.35l-0.11-0.36l-0.15-0.35l-0.2-0.29l-0.24-0.24l-0.28-0.17l-0.32-0.1l-0.34-0.03l-0.37,0.05
	l-0.35,0.12l-0.32,0.19l-0.28,0.25l-0.24,0.3l-0.2,0.35l-0.15,0.37l-0.11,0.35l-0.08,0.4L153.37,75.4z M157.91,80.05l-0.15,1.37
	l-0.6,0.21l-0.51,0.13l-0.47,0.07l-0.47,0.03l-0.41-0.01l-0.38-0.05l-0.37-0.09l-0.34-0.13l-0.32-0.17l-0.3-0.23l-0.28-0.28
	l-0.25-0.34l-0.23-0.38l-0.19-0.41l-0.16-0.43l-0.13-0.46l-0.1-0.48l-0.07-0.49l-0.04-0.51l-0.02-0.52l0.01-0.72l0.06-0.69
	l0.11-0.67l0.16-0.65l0.21-0.6l0.25-0.53l0.3-0.47l0.35-0.4l0.4-0.32l0.22-0.13l0.24-0.11l0.51-0.14l0.56-0.05l0.3,0.02l0.3,0.05
	l0.28,0.08l0.28,0.11l0.27,0.15l0.24,0.18l0.22,0.21l0.2,0.25l0.18,0.28l0.16,0.31l0.13,0.35l0.11,0.37l0.09,0.4l0.07,0.42
	l0.04,0.43l0.02,0.46l-0.03,0.69l-5.07,0.06l-0.02,0.83l0.03,0.51l0.06,0.49l0.1,0.46l0.13,0.44l0.17,0.41l0.2,0.35l0.24,0.3
	l0.27,0.25l0.3,0.19l0.32,0.13l0.34,0.08l0.36,0.03l0.45-0.04l0.5-0.12l0.54-0.2L157.91,80.05z M150.6,81.69l-0.55-0.01l-0.55,0.03
	l0.01-1.91l-0.27,0.69l-0.13,0.24l-0.15,0.24l-0.17,0.21l-0.18,0.18l-0.2,0.15l-0.23,0.13l-0.26,0.12l-0.31,0.1l-0.34,0.06
	l-0.36,0.03l-0.39-0.02l-0.36-0.06l-0.33-0.11l-0.3-0.16l-0.27-0.2L145,81.17l-0.2-0.28l-0.17-0.32l-0.13-0.36l-0.1-0.43l-0.06-0.49
	l-0.02-0.55l0-0.6l0.03-1.1l0.07-3.29l0-1.05l0-0.92l0.61,0l0.58-0.01l-0.13,3.78l-0.05,2.63l0.02,0.41l0.04,0.37l0.06,0.32
	l0.08,0.28l0.11,0.24l0.15,0.22l0.17,0.18l0.21,0.15l0.23,0.12l0.24,0.09L147,80.6l0.27,0.01l0.24-0.02l0.24-0.05l0.23-0.08
	l0.23-0.11l0.35-0.27l0.29-0.35L149,79.5l0.12-0.26l0.21-0.61l0.12-0.57l0.08-0.71l0.07-2.03l0.03-3.61l0.62,0l0.56-0.02l-0.17,5.4
	l-0.03,2.14L150.6,81.69z M136.01,81.86l0.11-2.95l0.07-2.65l0.04-2.35l0-2.05l0.6,0l0.58-0.02l-0.06,1.98l0.26-0.64l0.26-0.47
	l0.18-0.24l0.21-0.22l0.24-0.2l0.29-0.16l0.3-0.13l0.31-0.09l0.31-0.06l0.31-0.02l0.28,0.01l0.28,0.04l0.27,0.06l0.27,0.09
	l0.26,0.12l0.23,0.15l0.21,0.18l0.19,0.21l0.16,0.24l0.13,0.25l0.1,0.27l0.08,0.28l0.09,0.61l0.04,0.65l0,0.49l-0.01,0.96
	l-0.09,4.13l0,1.45l-0.56-0.01l-0.61,0.03l0.07-2.3l0.06-2.3l0.02-1.78L141.46,75l-0.04-0.37l-0.06-0.32l-0.09-0.28l-0.12-0.24
	L141,73.58l-0.18-0.18l-0.21-0.15l-0.23-0.12l-0.24-0.08l-0.25-0.05l-0.26-0.01l-0.37,0.04l-0.34,0.11l-0.32,0.17l-0.29,0.24
	l-0.24,0.28l-0.2,0.33l-0.18,0.39l-0.15,0.44l-0.08,0.37l-0.07,0.45l-0.1,1.14l-0.06,2l-0.02,2.91l-0.58-0.01L136.01,81.86z
	 M126.39,75.72l3.95-0.05l-0.02-0.55l-0.04-0.41l-0.07-0.35L130.1,74l-0.15-0.35l-0.2-0.29l-0.24-0.24l-0.28-0.17l-0.32-0.1
	l-0.34-0.03l-0.37,0.05l-0.35,0.12l-0.32,0.19l-0.28,0.25l-0.24,0.3l-0.2,0.35l-0.15,0.36l-0.11,0.35l-0.08,0.4L126.39,75.72z
	 M130.93,80.37l-0.15,1.37l-0.6,0.21l-0.51,0.13l-0.47,0.07l-0.47,0.03l-0.41-0.01l-0.39-0.05l-0.36-0.08l-0.35-0.13l-0.32-0.17
	l-0.3-0.23l-0.28-0.28l-0.25-0.33l-0.23-0.38l-0.19-0.41l-0.16-0.43l-0.12-0.46l-0.1-0.48l-0.07-0.49l-0.04-0.51l-0.02-0.52
	l0.02-0.72l0.06-0.7l0.11-0.67l0.16-0.65l0.21-0.6l0.25-0.53l0.3-0.46l0.35-0.4l0.4-0.32l0.22-0.13l0.24-0.11l0.51-0.14l0.56-0.05
	l0.3,0.01l0.29,0.05l0.29,0.08l0.28,0.11l0.27,0.15l0.24,0.18l0.22,0.21l0.2,0.24l0.18,0.28l0.16,0.31l0.13,0.34l0.11,0.38l0.09,0.4
	l0.07,0.42l0.04,0.44l0.02,0.46l-0.03,0.69l-5.07,0.06l-0.02,0.83l0.03,0.51l0.06,0.48l0.1,0.47l0.13,0.44l0.17,0.41l0.2,0.36
	l0.24,0.3l0.27,0.25l0.3,0.19l0.32,0.14l0.34,0.08l0.36,0.03l0.45-0.04l0.5-0.12l0.54-0.2L130.93,80.37z M122.57,73.24l-0.37-0.13
	l-0.31-0.07l-0.55-0.04l-0.32,0.02l-0.31,0.06l-0.3,0.09l-0.29,0.12l-0.28,0.16l-0.26,0.21l-0.24,0.25l-0.23,0.29l-0.2,0.34
	l-0.18,0.37l-0.15,0.42l-0.13,0.46l-0.1,0.47l-0.07,0.47l-0.04,0.47l-0.01,0.46l0.02,0.45l0.05,0.43l0.08,0.42l0.1,0.4l0.13,0.37
	l0.16,0.33l0.19,0.29l0.22,0.24l0.25,0.19l0.27,0.14l0.29,0.08l0.31,0.02l0.36-0.04l0.33-0.12l0.3-0.19l0.26-0.27l0.24-0.35
	l0.23-0.45l0.2-0.55l0.15-0.62l0.09-0.69l0.06-0.89l0.04-1.87L122.57,73.24z M123.62,82.03l-0.54-0.01l-0.57,0.01l0.06-2.13
	l-0.36,0.86l-0.16,0.29l-0.19,0.28l-0.22,0.25l-0.26,0.23L121.08,82l-0.32,0.15l-0.35,0.09l-0.37,0.03l-0.32-0.02l-0.31-0.06
	l-0.3-0.11l-0.29-0.15l-0.27-0.19l-0.25-0.23l-0.23-0.26l-0.21-0.3l-0.19-0.33l-0.16-0.36l-0.13-0.39l-0.11-0.41l-0.14-0.87
	l-0.05-0.91l0.01-0.62l0.05-0.61l0.09-0.61l0.14-0.6l0.17-0.58l0.21-0.53l0.24-0.48l0.27-0.42l0.3-0.36l0.32-0.31l0.34-0.25
	l0.36-0.18l0.38-0.14l0.39-0.1l0.41-0.06l0.42-0.02l0.64,0.04l0.75,0.14l0.01-1.79l-0.03-1.66l0.6,0l0.6-0.02l-0.13,5.57l-0.06,6.38
	L123.62,82.03z M109.12,73.21l-0.33,0.04l-0.32,0.1l-0.31,0.16l-0.29,0.23l-0.26,0.28l-0.23,0.35l-0.19,0.41l-0.15,0.48l-0.11,0.52
	l-0.08,0.54l-0.04,0.57l-0.01,0.59l0.02,0.51l0.05,0.48l0.08,0.45l0.11,0.43l0.13,0.39l0.17,0.36l0.21,0.31l0.25,0.27l0.27,0.22
	l0.3,0.16l0.33,0.09l0.35,0.03l0.25-0.02l0.24-0.05l0.23-0.08l0.23-0.11l0.21-0.15l0.2-0.19l0.18-0.23l0.17-0.27l0.15-0.31
	l0.13-0.34l0.11-0.38l0.08-0.41l0.11-0.86l0.03-0.9l-0.05-0.84l-0.13-0.79l-0.1-0.36l-0.11-0.32l-0.14-0.28l-0.16-0.24l-0.17-0.21
	l-0.19-0.18l-0.19-0.14l-0.2-0.11l-0.42-0.14l-0.21-0.03L109.12,73.21z M109.13,71.97l0.35,0.01l0.34,0.05l0.33,0.09l0.32,0.13
	l0.31,0.17l0.29,0.21l0.27,0.25l0.24,0.3l0.22,0.34l0.19,0.38l0.17,0.42l0.14,0.47l0.11,0.49l0.08,0.51l0.05,0.52l0.02,0.54
	l-0.01,0.58l-0.04,0.57l-0.07,0.56l-0.11,0.54l-0.13,0.52l-0.16,0.48l-0.19,0.44l-0.21,0.4l-0.24,0.35l-0.27,0.3l-0.29,0.25
	l-0.32,0.21l-0.34,0.16l-0.35,0.11l-0.36,0.07l-0.38,0.03l-0.35-0.01l-0.34-0.05l-0.33-0.09l-0.32-0.14l-0.31-0.17l-0.29-0.22
	l-0.27-0.26l-0.24-0.31l-0.22-0.35l-0.2-0.39l-0.16-0.42l-0.14-0.47L105.8,79l-0.08-0.5l-0.05-0.52l-0.02-0.53l0.02-0.78l0.07-0.74
	l0.13-0.71l0.18-0.67l0.24-0.6l0.29-0.53l0.34-0.44l0.4-0.37l0.43-0.28l0.45-0.2l0.46-0.12L109.13,71.97z M100.16,82.1l-0.05-0.73
	l-0.06-0.76l0.51,0.28l0.49,0.2l0.47,0.12l0.44,0.04l0.42-0.05l0.18-0.06l0.17-0.08l0.15-0.1l0.12-0.12l0.11-0.14l0.09-0.16
	l0.11-0.36l0.04-0.37l-0.05-0.41l-0.14-0.4l-0.11-0.2l-0.15-0.22l-0.72-0.86l-0.83-0.99l-0.26-0.36L100.86,76l-0.18-0.38l-0.13-0.38
	l-0.07-0.38l-0.03-0.39l0.01-0.31l0.05-0.31l0.08-0.3l0.11-0.3l0.15-0.28l0.18-0.24l0.21-0.21l0.24-0.17l0.26-0.13l0.29-0.09
	l0.31-0.06l0.33-0.02l0.39,0.01l0.42,0.04l0.43,0.08l0.45,0.11l0.08,1.41l-0.38-0.19l-0.37-0.13l-0.37-0.08l-0.37-0.02l-0.38,0.04
	l-0.35,0.12l-0.16,0.09l-0.14,0.11l-0.11,0.12l-0.09,0.14l-0.12,0.32l-0.03,0.35l0.02,0.23l0.04,0.22l0.07,0.22l0.12,0.24l0.15,0.25
	l0.18,0.25l0.78,0.92l0.5,0.58l0.31,0.41l0.2,0.33l0.17,0.34l0.14,0.34l0.1,0.34l0.06,0.34l0.02,0.35l-0.01,0.34l-0.05,0.33
	l-0.08,0.32l-0.12,0.31l-0.15,0.28l-0.19,0.25l-0.22,0.22l-0.25,0.18l-0.28,0.15l-0.3,0.1l-0.31,0.07l-0.33,0.02l-0.31-0.01
	l-0.36-0.03l-0.66-0.12L100.16,82.1z M93.56,73.96l0.11-1.29l0.74-0.27l0.64-0.17l0.58-0.09l0.57-0.03l0.58,0.03l0.54,0.12
	l0.25,0.09l0.23,0.12l0.21,0.14l0.18,0.17l0.16,0.19l0.13,0.2l0.11,0.21l0.07,0.23l0.09,0.49l0.04,0.52l-0.04,2.28l-0.07,2.96
	l-0.01,2.43l-0.59-0.01l-0.61,0.03l0.1-2.69l0.06-3.19l-0.34,0.38l-0.26,0.21l-0.32,0.18l-0.68,0.3l-0.72,0.32l-0.41,0.22
	l-0.31,0.22l-0.24,0.23l-0.2,0.25l-0.15,0.25l-0.09,0.26l-0.06,0.32l-0.02,0.34l0.02,0.26l0.04,0.24l0.07,0.22l0.09,0.2l0.12,0.18
	l0.13,0.15l0.14,0.12l0.16,0.09l0.35,0.11l0.42,0.03l0.28-0.02l0.3-0.05l0.36-0.11l0.46-0.2l-0.1,0.49l-0.1,0.7l-0.44,0.12
	l-0.35,0.06l-0.58,0.04l-0.43-0.01l-0.38-0.06l-0.33-0.09l-0.28-0.14l-0.24-0.17l-0.21-0.22l-0.18-0.26l-0.15-0.3l-0.11-0.33
	l-0.08-0.34l-0.05-0.36l-0.02-0.37l0.02-0.43l0.06-0.39l0.1-0.36l0.13-0.32l0.18-0.31l0.25-0.31l0.29-0.28l0.3-0.23l0.33-0.2
	l0.38-0.2l0.54-0.23l0.78-0.3l0.5-0.21l0.36-0.21l0.15-0.11l0.13-0.13l0.22-0.33l0.08-0.2l0.06-0.19l0.04-0.4l-0.02-0.23l-0.04-0.22
	l-0.07-0.2l-0.1-0.18l-0.12-0.16l-0.13-0.13l-0.15-0.11l-0.16-0.08l-0.38-0.1l-0.44-0.03l-0.44,0.03l-0.45,0.09l-0.42,0.12
	l-0.36,0.14l-0.37,0.19L93.56,73.96z M86.49,73.99l-0.04,0.75l-0.02,1.02l-0.03,1.32l-0.01,0.71l0.03,0.71l0.09,0.67l0.07,0.32
	l0.09,0.3l0.12,0.29l0.15,0.27l0.16,0.25l0.18,0.22L87.48,81l0.2,0.15l0.21,0.12l0.22,0.08l0.22,0.05l0.22,0.01l0.31-0.04l0.29-0.1
	l0.28-0.16l0.26-0.23l0.24-0.29l0.21-0.35l0.18-0.41l0.15-0.47l0.12-0.52l0.08-0.54l0.05-0.57l0.01-0.59l-0.03-0.58l-0.06-0.54
	l-0.1-0.5l-0.14-0.46l-0.17-0.4l-0.19-0.34l-0.22-0.28l-0.25-0.22l-0.26-0.17l-0.28-0.12l-0.3-0.07l-0.31-0.02l-0.46,0.04l-0.48,0.1
	l-0.49,0.17L86.49,73.99z M85.13,86.92l0.09-3.01l0.07-3.92l0.04-3.98l0-3.18l0.98-0.3l0.76-0.19l0.65-0.1l0.66-0.04l0.5,0.02
	l0.47,0.09l0.44,0.15l0.4,0.21l0.36,0.29l0.32,0.38l0.28,0.47l0.24,0.57l0.2,0.63l0.14,0.67l0.09,0.71l0.04,0.75l-0.01,0.53
	l-0.03,0.52l-0.06,0.52l-0.08,0.51l-0.11,0.49l-0.13,0.46l-0.16,0.44l-0.19,0.41L90.9,81.4l-0.23,0.32L90.41,82l-0.28,0.23
	l-0.29,0.18l-0.31,0.13l-0.33,0.08l-0.35,0.03l-0.42-0.03l-0.4-0.11l-0.37-0.17l-0.32-0.22l-0.27-0.26l-0.23-0.29l-0.22-0.38
	l-0.26-0.53l-0.03,3.91l-0.01,1.38l0.01,0.98l-0.59-0.02L85.13,86.92z M74.89,74.19l0.11-1.29l0.75-0.26l0.64-0.17l0.59-0.09
	l0.57-0.03l0.58,0.03l0.54,0.11l0.25,0.09l0.23,0.12l0.21,0.14l0.19,0.17l0.16,0.19l0.13,0.2l0.1,0.22L80,73.84l0.09,0.49l0.03,0.52
	l-0.04,2.29l-0.07,2.96l-0.01,2.43l-0.59-0.01l-0.61,0.03l0.1-2.69l0.06-3.19l-0.34,0.38l-0.26,0.2l-0.32,0.18l-0.68,0.3l-0.72,0.33
	l-0.41,0.22l-0.31,0.22l-0.24,0.23l-0.2,0.25l-0.15,0.26l-0.1,0.26l-0.06,0.32l-0.02,0.34l0.02,0.26l0.04,0.24l0.07,0.22l0.1,0.21
	l0.12,0.18l0.13,0.15l0.14,0.12l0.16,0.09l0.36,0.11l0.42,0.03l0.29-0.02l0.3-0.05l0.36-0.11l0.46-0.2l-0.1,0.49l-0.11,0.7
	l-0.44,0.11l-0.35,0.06l-0.58,0.04l-0.43-0.02l-0.38-0.05l-0.33-0.1l-0.28-0.14l-0.25-0.17l-0.21-0.22l-0.18-0.26l-0.15-0.3
	l-0.11-0.33l-0.08-0.35l-0.05-0.36l-0.02-0.37l0.02-0.43l0.06-0.39l0.1-0.36l0.13-0.33l0.18-0.31l0.24-0.31l0.29-0.28l0.3-0.23
	l0.33-0.2l0.38-0.2l0.54-0.23l0.78-0.3l0.5-0.21l0.36-0.21l0.15-0.11l0.13-0.13l0.21-0.33l0.09-0.2l0.06-0.2l0.04-0.4l-0.01-0.23
	l-0.04-0.22l-0.07-0.2l-0.1-0.18l-0.12-0.16l-0.13-0.13l-0.15-0.11l-0.16-0.08l-0.38-0.1l-0.44-0.03l-0.44,0.03l-0.45,0.08
	l-0.43,0.12l-0.36,0.14l-0.37,0.19L74.89,74.19z M66.3,82.69l0.11-2.95l0.07-2.65l0.04-2.35l0-2.05l0.6,0l0.58-0.02l-0.06,1.98
	l0.26-0.64l0.26-0.47l0.18-0.24l0.21-0.22l0.24-0.2l0.29-0.16l0.3-0.13l0.31-0.09L70,72.45l0.31-0.02l0.28,0.01l0.28,0.03l0.27,0.06
	l0.27,0.09l0.26,0.12l0.23,0.15l0.21,0.18l0.19,0.22l0.16,0.24l0.13,0.25l0.1,0.27l0.08,0.28l0.09,0.6l0.04,0.65l0,0.49l-0.01,0.96
	l-0.09,4.13l0,1.45l-0.56-0.01l-0.61,0.03l0.07-2.3l0.06-2.3l0.02-1.78l-0.02-0.41l-0.04-0.37l-0.06-0.32l-0.09-0.28l-0.12-0.24
	l-0.15-0.21l-0.18-0.18l-0.21-0.15l-0.23-0.12l-0.24-0.09l-0.25-0.05l-0.26-0.01l-0.37,0.04l-0.34,0.11l-0.32,0.17l-0.29,0.24
	l-0.24,0.28l-0.2,0.34l-0.18,0.38l-0.15,0.44l-0.08,0.37l-0.07,0.45l-0.1,1.13l-0.06,2l-0.02,2.92l-0.58-0.01L66.3,82.69z
	 M59.43,74.37l0.11-1.29l0.75-0.27l0.64-0.17l0.58-0.09l0.57-0.03l0.58,0.03l0.54,0.12l0.25,0.09l0.23,0.12l0.21,0.14l0.19,0.16
	l0.16,0.19l0.13,0.2l0.1,0.21l0.08,0.23l0.09,0.49l0.03,0.52l-0.04,2.28l-0.07,2.96l-0.01,2.43l-0.59-0.02l-0.61,0.03l0.1-2.69
	l0.06-3.19l-0.34,0.38l-0.26,0.21l-0.32,0.18l-0.68,0.3l-0.72,0.32l-0.41,0.22l-0.31,0.22l-0.24,0.23l-0.2,0.25l-0.15,0.26
	l-0.1,0.26l-0.06,0.32l-0.02,0.34l0.02,0.26l0.04,0.24l0.07,0.23l0.1,0.2l0.11,0.18l0.13,0.15l0.14,0.12l0.15,0.09l0.36,0.11
	l0.42,0.03l0.29-0.02l0.3-0.05l0.36-0.11l0.46-0.2l-0.1,0.49l-0.11,0.7l-0.44,0.12l-0.35,0.06l-0.58,0.04l-0.43-0.01l-0.38-0.06
	l-0.33-0.09l-0.28-0.13l-0.24-0.18l-0.21-0.22l-0.18-0.26l-0.15-0.3l-0.11-0.33l-0.08-0.34l-0.05-0.36l-0.02-0.37l0.02-0.43
	l0.06-0.39l0.1-0.36l0.13-0.32l0.18-0.31l0.24-0.31l0.29-0.28l0.3-0.23l0.34-0.2l0.38-0.2l0.54-0.23l0.78-0.3l0.5-0.21l0.36-0.21
	l0.15-0.11l0.13-0.13l0.21-0.33l0.09-0.2l0.06-0.19l0.04-0.4l-0.02-0.23l-0.04-0.22l-0.07-0.2l-0.1-0.18L63.17,74l-0.13-0.13
	l-0.15-0.11l-0.16-0.08l-0.38-0.1l-0.43-0.03l-0.44,0.03l-0.45,0.09l-0.42,0.12l-0.36,0.14l-0.37,0.18L59.43,74.37z M52.64,71.28
	l0.02-0.69l0.06-0.53l0.11-0.39l0.07-0.15l0.08-0.11l0.19-0.14l0.2-0.05l0.12,0.02l0.14,0.04l0.29,0.2l0.61,0.59l0.26,0.24
	l0.09,0.05l0.09,0.02l0.15-0.05l0.06-0.06l0.06-0.09l0.04-0.13l0.03-0.16l0.03-0.55l0.3,0.01l0.3-0.01l-0.02,0.62l-0.06,0.48
	l-0.1,0.37l-0.14,0.3l-0.09,0.11l-0.1,0.08l-0.12,0.05l-0.13,0.02l-0.11-0.01l-0.12-0.04l-0.27-0.18l-0.47-0.45l-0.44-0.4
	l-0.11-0.06l-0.1-0.02l-0.13,0.03l-0.1,0.12l-0.06,0.2l-0.03,0.27l-0.01,0.45l-0.29-0.02L52.64,71.28z M50.84,82.87l0.11-2.94
	l0.07-2.65l0.04-2.35l0-2.05l0.6,0l0.58-0.02l-0.06,1.98l0.26-0.64l0.26-0.47l0.18-0.24l0.21-0.22l0.24-0.2l0.28-0.16l0.31-0.13
	l0.31-0.09l0.31-0.06l0.31-0.02l0.28,0.01l0.28,0.04l0.27,0.06l0.27,0.09l0.26,0.12l0.23,0.15l0.21,0.18l0.19,0.21L57,73.71
	l0.13,0.25l0.11,0.27l0.08,0.28l0.09,0.6l0.04,0.65l0,0.49l-0.01,0.95l-0.09,4.13l0,1.45l-0.56-0.02l-0.61,0.03l0.07-2.3l0.06-2.3
	l0.02-1.78l-0.02-0.41l-0.04-0.37l-0.06-0.32l-0.09-0.28l-0.12-0.24l-0.15-0.21l-0.18-0.18l-0.21-0.15l-0.23-0.12l-0.24-0.08
	L54.72,74l-0.26-0.01l-0.37,0.04l-0.34,0.11l-0.32,0.17l-0.29,0.24l-0.24,0.28l-0.2,0.33l-0.18,0.39l-0.15,0.44l-0.08,0.37
	l-0.07,0.45l-0.1,1.14l-0.06,2l-0.02,2.92l-0.58-0.01L50.84,82.87z M43.96,74.56l0.11-1.29L44.82,73l0.64-0.17l0.58-0.09l0.57-0.03
	l0.58,0.03l0.54,0.11l0.25,0.09l0.23,0.12l0.21,0.14l0.19,0.17l0.16,0.19l0.13,0.2l0.1,0.22l0.08,0.23l0.09,0.49l0.03,0.52
	l-0.04,2.28l-0.07,2.96l-0.01,2.43l-0.59-0.01l-0.61,0.03l0.1-2.69l0.06-3.19l-0.34,0.38l-0.26,0.2l-0.32,0.18l-0.68,0.3l-0.72,0.33
	l-0.41,0.22l-0.31,0.22l-0.24,0.23l-0.2,0.25l-0.15,0.26l-0.1,0.26l-0.06,0.32l-0.02,0.34l0.02,0.26l0.04,0.24l0.07,0.22l0.1,0.21
	l0.11,0.18l0.13,0.15l0.15,0.12l0.15,0.09l0.36,0.11l0.42,0.03l0.29-0.02l0.3-0.05l0.36-0.11l0.46-0.2l-0.1,0.49l-0.11,0.7
	l-0.44,0.11l-0.35,0.06l-0.58,0.04l-0.43-0.02l-0.38-0.05l-0.33-0.1l-0.28-0.14l-0.24-0.17l-0.21-0.22l-0.18-0.26l-0.15-0.3
	l-0.11-0.33l-0.08-0.35l-0.05-0.36l-0.02-0.37l0.02-0.43l0.06-0.39l0.1-0.36L43.46,79l0.18-0.31l0.24-0.31l0.29-0.28l0.3-0.23
	l0.33-0.2l0.38-0.2l0.53-0.23l0.78-0.3l0.5-0.21l0.36-0.21l0.15-0.11l0.13-0.13l0.21-0.32l0.09-0.2l0.06-0.2l0.04-0.4l-0.02-0.23
	l-0.04-0.22l-0.07-0.2l-0.1-0.18l-0.12-0.16l-0.13-0.13l-0.15-0.11l-0.16-0.08l-0.38-0.1l-0.44-0.03l-0.44,0.03l-0.45,0.08
	l-0.43,0.12l-0.36,0.14l-0.37,0.19L43.96,74.56z M31.93,83.09l0.06-1.43l0.04-1.43l0.09-6.01l-0.01-1.12l0.57,0l0.55-0.01
	l-0.04,1.84l0.21-0.5l0.19-0.38l0.21-0.32l0.27-0.29l0.32-0.25L34.75,73l0.39-0.12l0.41-0.04l0.29,0.02l0.28,0.07l0.27,0.11
	l0.25,0.15l0.22,0.19l0.19,0.21l0.16,0.24l0.12,0.25l0.11,0.32l0.11,0.44l0.21-0.53l0.24-0.44l0.26-0.36l0.29-0.27l0.31-0.2
	l0.33-0.15l0.35-0.09l0.37-0.03l0.24,0.01l0.23,0.04l0.23,0.07l0.23,0.1l0.21,0.12l0.19,0.15l0.17,0.17l0.15,0.2l0.23,0.43
	l0.14,0.45l0.08,0.46l0.03,0.46l-0.03,1.42l-0.07,2.88l-0.03,3.23l-0.55-0.01l-0.63,0.03l0.09-2.9l0.06-2.44l0.01-1.53l-0.03-0.51
	l-0.06-0.39l-0.11-0.3l-0.16-0.27l-0.2-0.23l-0.24-0.16l-0.28-0.1l-0.31-0.03l-0.26,0.02l-0.23,0.07l-0.21,0.11l-0.2,0.16l-0.2,0.21
	l-0.18,0.26l-0.16,0.29l-0.13,0.32l-0.11,0.38L37.7,76.4l-0.08,0.66l-0.05,0.79l-0.05,2.42l-0.02,2.76l-0.58-0.01l-0.61,0.03
	l0.08-2.52l0.05-2.39l0.01-1.88l-0.02-0.47l-0.06-0.39l-0.1-0.34l-0.16-0.3l-0.2-0.25l-0.24-0.18l-0.27-0.12l-0.3-0.03l-0.33,0.05
	l-0.3,0.13l-0.29,0.22l-0.26,0.3l-0.23,0.38l-0.19,0.45l-0.14,0.57l-0.11,0.72l-0.07,1.09l-0.04,1.68l-0.01,3.32l-0.59-0.01
	L31.93,83.09z M126.48,55.26l0.11-1.29l0.74-0.26l0.64-0.17l0.58-0.09l0.57-0.03l0.58,0.03l0.55,0.11l0.25,0.09l0.23,0.12l0.21,0.14
	l0.18,0.17l0.16,0.19l0.13,0.2l0.11,0.22l0.07,0.23l0.09,0.49l0.04,0.52l-0.04,2.28l-0.07,2.96l0,2.43l-0.59-0.01l-0.61,0.03
	l0.1-2.69l0.06-3.19l-0.34,0.38l-0.26,0.21l-0.32,0.18l-0.68,0.3l-0.71,0.33l-0.41,0.22l-0.31,0.22l-0.24,0.23l-0.2,0.25l-0.15,0.25
	l-0.09,0.26l-0.06,0.32l-0.02,0.34l0.02,0.26l0.04,0.24l0.07,0.22l0.09,0.21l0.12,0.18l0.13,0.15l0.14,0.12l0.16,0.09l0.36,0.11
	l0.42,0.03l0.28-0.02l0.3-0.05l0.36-0.11l0.46-0.2l-0.1,0.49l-0.11,0.7l-0.44,0.11l-0.35,0.06l-0.58,0.04l-0.43-0.02l-0.38-0.05
	l-0.33-0.1l-0.28-0.13l-0.24-0.17l-0.21-0.22l-0.18-0.26l-0.15-0.3l-0.11-0.33l-0.08-0.34l-0.05-0.36l-0.02-0.37l0.02-0.43
	l0.06-0.39l0.1-0.36l0.13-0.33l0.18-0.31l0.25-0.31l0.29-0.28l0.3-0.23l0.33-0.2l0.38-0.2l0.54-0.23l0.78-0.3l0.5-0.21l0.36-0.21
	l0.15-0.11l0.13-0.13l0.22-0.32l0.08-0.2l0.06-0.2l0.04-0.4l-0.02-0.23l-0.04-0.22l-0.07-0.2l-0.09-0.18l-0.12-0.16l-0.13-0.13
	l-0.15-0.11l-0.17-0.08l-0.37-0.1l-0.44-0.03l-0.44,0.03l-0.45,0.08l-0.42,0.12l-0.36,0.14L126.93,55L126.48,55.26z M125.16,62.38
	l-0.15,1.27l-0.4,0.14l-0.31,0.08l-0.5,0.04l-0.28-0.01l-0.25-0.04l-0.22-0.07l-0.2-0.09l-0.17-0.13l-0.15-0.16l-0.13-0.19
	l-0.11-0.23l-0.09-0.26l-0.07-0.31l-0.04-0.35l-0.02-0.39l0-0.39l0.04-1.92l0.11-4.42l-0.9,0.01l0.03-1.19l0.91-0.01l0.05-1.88
	l1.06-0.36l-0.03,2.22l1.84-0.02l-0.03,1.19l-1.83,0.02l-0.12,5.55l0,0.42l0.04,0.63l0.09,0.45l0.14,0.31l0.09,0.11l0.1,0.09
	l0.23,0.12l0.23,0.04l0.36-0.04l0.26-0.08L125.16,62.38z M118.91,52.46l0.58-2.59l0.68,0.01l0.68-0.03l-0.5,1.11l-0.63,1.49
	l-0.42-0.02L118.91,52.46z M118.75,63.74l0.09-2.49l0.08-4.24l0.02-3.26l0.61,0l0.59-0.02l-0.1,3.22l-0.06,3.67l0,3.1l-0.6-0.01
	L118.75,63.74z M112.98,63.63l-0.05-0.73l-0.06-0.76l0.51,0.28l0.49,0.2l0.47,0.12l0.44,0.04l0.42-0.05l0.19-0.06l0.16-0.08
	l0.15-0.1l0.12-0.12l0.11-0.14l0.09-0.16l0.11-0.36l0.04-0.37l-0.05-0.41l-0.14-0.4l-0.11-0.2l-0.15-0.22l-0.72-0.86l-0.83-0.99
	l-0.26-0.36l-0.22-0.37l-0.18-0.38l-0.13-0.38l-0.07-0.39l-0.03-0.39l0.01-0.31l0.05-0.31l0.08-0.3l0.11-0.3l0.15-0.28l0.18-0.24
	l0.21-0.21l0.24-0.17l0.26-0.13l0.29-0.09l0.31-0.06l0.33-0.02l0.39,0.01l0.42,0.04l0.43,0.08l0.45,0.11l0.08,1.41l-0.38-0.19
	l-0.37-0.13l-0.37-0.08l-0.37-0.02l-0.38,0.04l-0.35,0.12l-0.16,0.09l-0.14,0.11l-0.11,0.12l-0.09,0.14l-0.11,0.32l-0.03,0.35
	l0.01,0.23l0.05,0.22l0.08,0.22l0.12,0.24l0.15,0.25l0.18,0.25l0.78,0.92l0.5,0.58l0.31,0.41l0.2,0.33l0.17,0.34l0.14,0.34l0.1,0.34
	l0.06,0.34l0.02,0.35l-0.01,0.34l-0.05,0.33l-0.08,0.32l-0.12,0.31l-0.15,0.28l-0.19,0.25l-0.22,0.22l-0.25,0.18l-0.28,0.15
	l-0.29,0.1l-0.32,0.06l-0.33,0.02L114.68,64l-0.36-0.04l-0.66-0.12L112.98,63.63z M107.04,57.62l3.95-0.04l-0.02-0.55l-0.04-0.41
	l-0.07-0.35l-0.11-0.36l-0.15-0.34l-0.2-0.29l-0.24-0.24l-0.28-0.17l-0.32-0.1l-0.34-0.03l-0.37,0.04l-0.35,0.12l-0.32,0.19
	l-0.28,0.25l-0.24,0.3l-0.2,0.35l-0.15,0.36l-0.11,0.35l-0.08,0.4L107.04,57.62z M111.58,62.27l-0.15,1.37l-0.59,0.21l-0.51,0.13
	l-0.47,0.07l-0.47,0.02l-0.41-0.01l-0.39-0.05l-0.37-0.09l-0.34-0.13l-0.32-0.17l-0.3-0.23L107,63.12l-0.25-0.34l-0.22-0.38
	L106.33,62l-0.16-0.43l-0.12-0.46l-0.1-0.48l-0.07-0.49l-0.04-0.5l-0.02-0.52l0.02-0.73l0.06-0.69l0.11-0.67l0.16-0.64l0.21-0.6
	l0.26-0.53l0.3-0.46l0.35-0.4l0.4-0.32l0.22-0.13l0.24-0.1l0.51-0.14l0.56-0.05l0.3,0.01l0.29,0.05l0.29,0.08l0.28,0.11l0.26,0.15
	l0.24,0.18l0.22,0.21l0.2,0.25l0.18,0.28l0.16,0.31l0.14,0.35l0.11,0.38l0.09,0.4l0.07,0.42l0.04,0.44l0.02,0.45l-0.03,0.69
	l-5.07,0.06l-0.02,0.83l0.03,0.51l0.06,0.49l0.1,0.46l0.13,0.44l0.17,0.41l0.2,0.35l0.24,0.3l0.27,0.25l0.3,0.19l0.32,0.14
	l0.34,0.08l0.36,0.02l0.45-0.05l0.5-0.12l0.55-0.2L111.58,62.27z M104.55,62.42l-0.06,0.59l-0.09,0.85L103.93,64l-0.45,0.09
	l-0.42,0.05l-0.37,0.02l-0.35-0.02L102,64.09l-0.32-0.09l-0.31-0.12l-0.3-0.16l-0.28-0.21l-0.26-0.25l-0.24-0.3l-0.21-0.35
	l-0.19-0.38l-0.16-0.43l-0.12-0.46l-0.1-0.49l-0.07-0.5l-0.05-0.52l-0.02-0.53l0.02-0.72l0.05-0.7l0.1-0.68l0.14-0.66l0.19-0.62
	l0.24-0.55l0.29-0.48l0.34-0.41l0.19-0.18l0.21-0.15l0.23-0.13l0.24-0.11l0.26-0.08l0.28-0.06l0.3-0.04l0.31-0.02l0.47,0.02
	l0.46,0.06l0.46,0.11l0.45,0.15l0.08,1.39l-0.58-0.24l-0.46-0.15l-0.39-0.07l-0.36-0.02l-0.28,0.02l-0.27,0.06l-0.25,0.1l-0.24,0.14
	l-0.22,0.18l-0.2,0.21l-0.19,0.24l-0.17,0.28l-0.15,0.31l-0.13,0.33l-0.1,0.36l-0.08,0.39l-0.1,0.81l-0.03,0.82l0.02,0.54l0.05,0.51
	l0.08,0.47l0.11,0.43l0.14,0.39l0.19,0.35l0.23,0.3l0.27,0.25l0.3,0.2l0.32,0.14l0.33,0.08l0.35,0.02l0.36-0.03l0.39-0.09l0.42-0.15
	L104.55,62.42z M91.37,64.07l0.11-2.95l0.07-2.65l0.04-2.35l0-2.05l0.6,0l0.58-0.02l-0.06,1.98l0.26-0.64l0.26-0.47l0.18-0.24
	l0.21-0.22l0.24-0.2l0.28-0.16l0.3-0.13l0.31-0.09l0.32-0.06l0.31-0.02l0.28,0.01l0.28,0.04l0.27,0.06L96.48,54l0.26,0.12l0.23,0.15
	l0.21,0.18l0.18,0.21l0.16,0.24l0.13,0.25l0.11,0.27l0.07,0.29l0.1,0.6l0.04,0.65l0,0.49l-0.02,0.95l-0.08,4.13l0,1.45l-0.57-0.02
	l-0.61,0.03l0.07-2.3l0.06-2.3l0.02-1.78l-0.02-0.41l-0.04-0.37l-0.07-0.32l-0.09-0.28L96.5,56l-0.15-0.21l-0.18-0.18l-0.21-0.15
	l-0.23-0.12l-0.24-0.08l-0.25-0.05l-0.27-0.01l-0.37,0.04l-0.35,0.11l-0.31,0.17l-0.29,0.24l-0.24,0.28l-0.21,0.33l-0.18,0.39
	l-0.15,0.44l-0.09,0.37L92.75,58l-0.1,1.14l-0.06,2l-0.02,2.91l-0.58-0.01L91.37,64.07z M88.38,64.1l0.09-2.49l0.09-4.24l0.02-3.26
	l0.6,0l0.59-0.02l-0.1,3.22l-0.06,3.68l0,3.1l-0.6-0.01L88.38,64.1z M88.54,51.98l0.01-1.4l0.64,0.01l0.64-0.03l-0.02,1.4l-0.62,0
	L88.54,51.98z M83.56,64.16l0.12-5.12l0.02-2.13l-0.01-1.84l-0.02-0.91l0.56,0l0.57-0.01l-0.03,1.64L85,55.26l0.2-0.39l0.2-0.28
	l0.22-0.23l0.25-0.18l0.28-0.14l0.31-0.09l0.32-0.03l0.28,0.02L87.34,54l0.06,1.43L87,55.32l-0.35-0.04l-0.19,0.01l-0.18,0.04
	l-0.33,0.15l-0.29,0.25l-0.26,0.34l-0.22,0.43l-0.18,0.51l-0.11,0.5l-0.08,0.63l-0.05,0.98l-0.03,1.55l0.01,2.82l0.01,0.66
	l-0.59-0.02L83.56,64.16z M76.82,55.78l-0.04,0.75l-0.02,1.02l-0.03,1.32l-0.01,0.71l0.04,0.71l0.09,0.67l0.07,0.32l0.09,0.3
	l0.12,0.29l0.15,0.27l0.17,0.25l0.18,0.22l0.19,0.18l0.2,0.15l0.21,0.12l0.22,0.09l0.22,0.05l0.22,0.02l0.31-0.04l0.29-0.1
	l0.27-0.16l0.26-0.23l0.24-0.29l0.21-0.35l0.18-0.41l0.15-0.47l0.12-0.52L81,60.09l0.05-0.57l0.01-0.59l-0.03-0.58l-0.06-0.54
	l-0.1-0.5l-0.14-0.46l-0.17-0.41l-0.19-0.34l-0.22-0.28l-0.24-0.22l-0.26-0.17l-0.28-0.12l-0.3-0.07l-0.31-0.02l-0.47,0.04
	l-0.48,0.1l-0.49,0.17L76.82,55.78z M75.46,68.72l0.09-3.01l0.07-3.92l0.04-3.98l0-3.18l0.98-0.3l0.76-0.19l0.66-0.1l0.66-0.04
	l0.5,0.02l0.47,0.09l0.44,0.15l0.4,0.21l0.36,0.29l0.32,0.38l0.28,0.47l0.24,0.57l0.19,0.63l0.14,0.67l0.09,0.71l0.04,0.75
	l-0.01,0.53L82.17,60l-0.05,0.52l-0.08,0.51l-0.11,0.49l-0.13,0.46l-0.16,0.44l-0.19,0.41l-0.21,0.37L81,63.52l-0.25,0.28
	l-0.28,0.23l-0.29,0.18l-0.31,0.13l-0.33,0.08l-0.35,0.03l-0.42-0.03l-0.4-0.11l-0.37-0.17l-0.32-0.22l-0.27-0.26l-0.23-0.29
	l-0.22-0.38l-0.27-0.53l-0.03,3.91l-0.01,1.38l0.01,0.98l-0.59-0.02L75.46,68.72z M131.32,36.88l0.11-1.29l0.74-0.26l0.64-0.17
	l0.59-0.09l0.57-0.03l0.58,0.03l0.54,0.11l0.25,0.09l0.23,0.12l0.21,0.14l0.19,0.17l0.16,0.19l0.13,0.2l0.1,0.22l0.08,0.23
	l0.09,0.49l0.03,0.52l-0.04,2.28l-0.07,2.96l-0.01,2.42l-0.59-0.01l-0.61,0.03l0.1-2.69l0.05-3.19l-0.34,0.38l-0.26,0.2l-0.32,0.18
	l-0.68,0.3l-0.72,0.33l-0.41,0.22l-0.31,0.22l-0.24,0.23l-0.2,0.25l-0.15,0.26l-0.09,0.26l-0.06,0.32l-0.02,0.33l0.02,0.26
	l0.04,0.24l0.07,0.22l0.1,0.21l0.11,0.18l0.13,0.15l0.15,0.12l0.16,0.09l0.36,0.11l0.42,0.03l0.28-0.02l0.3-0.05l0.36-0.11
	l0.46-0.21l-0.1,0.49l-0.11,0.7l-0.44,0.12l-0.35,0.06l-0.58,0.04l-0.43-0.02l-0.38-0.05l-0.33-0.09l-0.28-0.14L131.31,45
	l-0.21-0.22l-0.18-0.26l-0.14-0.3l-0.12-0.33l-0.08-0.34l-0.05-0.36l-0.02-0.37l0.02-0.42l0.06-0.39l0.1-0.36l0.13-0.33l0.18-0.31
	l0.25-0.31l0.29-0.28l0.3-0.23l0.33-0.2l0.39-0.2l0.53-0.23l0.78-0.3l0.5-0.21l0.36-0.21l0.15-0.11l0.13-0.13l0.21-0.32l0.09-0.2
	l0.06-0.2l0.04-0.4l-0.02-0.23l-0.04-0.22l-0.07-0.2l-0.1-0.18l-0.12-0.16l-0.13-0.13l-0.15-0.11l-0.16-0.08l-0.38-0.1l-0.44-0.03
	l-0.44,0.03l-0.45,0.08l-0.42,0.12l-0.36,0.14l-0.37,0.19L131.32,36.88z M128.16,36.53l-0.37-0.13l-0.31-0.07l-0.55-0.04l-0.32,0.02
	l-0.31,0.05l-0.3,0.09l-0.29,0.12l-0.28,0.16l-0.26,0.2l-0.24,0.25l-0.23,0.29l-0.2,0.33l-0.18,0.38l-0.15,0.42l-0.13,0.46
	l-0.1,0.48l-0.07,0.47l-0.04,0.47l-0.01,0.46l0.02,0.45l0.05,0.44l0.08,0.42l0.1,0.4l0.13,0.38l0.16,0.33l0.19,0.29l0.22,0.24
	l0.25,0.19l0.27,0.14l0.29,0.08l0.31,0.02l0.36-0.04l0.33-0.12l0.3-0.19l0.27-0.26l0.24-0.35l0.23-0.45l0.2-0.55l0.15-0.62
	l0.09-0.69l0.06-0.89l0.04-1.87L128.16,36.53z M129.21,45.32l-0.54-0.02l-0.58,0.01l0.06-2.13l-0.36,0.86l-0.16,0.29l-0.19,0.28
	l-0.22,0.26l-0.26,0.23l-0.29,0.19l-0.32,0.15l-0.35,0.09l-0.37,0.04l-0.32-0.02L125,45.48l-0.3-0.11l-0.29-0.15l-0.27-0.19
	l-0.25-0.23l-0.23-0.26l-0.21-0.3l-0.19-0.33l-0.16-0.36l-0.13-0.39l-0.1-0.41l-0.14-0.87l-0.05-0.91l0.01-0.62l0.05-0.61l0.1-0.61
	l0.14-0.6l0.17-0.58l0.21-0.53l0.24-0.47l0.28-0.42l0.3-0.37l0.32-0.31l0.34-0.24l0.36-0.19l0.38-0.14l0.39-0.1l0.4-0.06l0.42-0.02
	l0.64,0.04l0.75,0.14l0.01-1.79l-0.02-1.66l0.6,0l0.6-0.02l-0.13,5.57l-0.06,6.38L129.21,45.32z M114.65,45.47l0.11-2.95l0.07-2.65
	l0.04-2.35l0-2.05l0.6,0l0.58-0.02l-0.06,1.98l0.26-0.64l0.26-0.47l0.18-0.24l0.21-0.22l0.24-0.2l0.28-0.16l0.3-0.13l0.32-0.09
	l0.31-0.06l0.31-0.02l0.28,0.01l0.28,0.04l0.27,0.06l0.27,0.09l0.26,0.12l0.23,0.15l0.21,0.18l0.18,0.22l0.16,0.24l0.13,0.25
	l0.1,0.27l0.08,0.28l0.09,0.61l0.04,0.65l0,0.49l-0.02,0.95l-0.08,4.13l0,1.45l-0.57-0.01l-0.61,0.03l0.07-2.3l0.06-2.3l0.02-1.79
	l-0.02-0.41l-0.04-0.37l-0.07-0.32l-0.09-0.28l-0.11-0.24l-0.15-0.22l-0.18-0.18l-0.21-0.15l-0.23-0.12l-0.24-0.08l-0.25-0.05
	l-0.26-0.01l-0.37,0.04l-0.34,0.11l-0.32,0.17l-0.29,0.24l-0.24,0.28l-0.21,0.34l-0.18,0.39l-0.15,0.44l-0.09,0.37l-0.07,0.45
	l-0.1,1.13l-0.06,2.01l-0.02,2.91l-0.58-0.01L114.65,45.47z M111.66,45.51l0.09-2.49l0.08-4.24l0.02-3.26l0.61,0l0.59-0.02
	l-0.1,3.22l-0.06,3.67l0,3.1l-0.6-0.01L111.66,45.51z M111.83,33.38l0-1.4l0.64,0.01l0.64-0.03l-0.02,1.41l-0.61,0L111.83,33.38z
	 M108.58,45.54l0.1-3.32l0.08-3.88l0.04-3.08l0.02-3.18l0.61,0l0.59-0.02l-0.14,5.79l-0.08,5.86l-0.01,1.81l-0.58-0.01L108.58,45.54
	z M102.13,45.62l0.09-2.49l0.08-4.24l0.02-3.26l0.61,0l0.59-0.02l-0.1,3.22l-0.06,3.67l0,3.1l-0.6-0.01L102.13,45.62z M102.29,33.5
	l0.01-1.4l0.64,0.01l0.64-0.03l-0.02,1.4l-0.62,0L102.29,33.5z M97.19,45.68l-0.24-0.99l-0.56-2.2l-1.76-6.77l0.64,0l0.6-0.02
	l0.15,0.69l0.22,0.95l1.65,6.85l2.03-7.56l0.24-0.98l0.63,0l0.63-0.02l-0.83,2.76l-1.67,5.76l-0.41,1.51l-0.65-0.01L97.19,45.68z
	 M85.72,39.56l3.95-0.05l-0.02-0.55l-0.04-0.41l-0.07-0.35l-0.11-0.36l-0.15-0.34l-0.2-0.29l-0.24-0.24l-0.28-0.17l-0.32-0.1
	l-0.34-0.03l-0.37,0.04l-0.35,0.12l-0.32,0.19l-0.28,0.25l-0.24,0.3l-0.2,0.35l-0.15,0.36l-0.11,0.35l-0.08,0.4L85.72,39.56z
	 M90.25,44.21l-0.15,1.37l-0.59,0.21L89,45.91l-0.47,0.07l-0.47,0.02L87.66,46l-0.39-0.05l-0.37-0.09l-0.34-0.13l-0.32-0.17
	l-0.3-0.23l-0.27-0.28l-0.25-0.34l-0.22-0.38l-0.19-0.4l-0.16-0.43l-0.12-0.46l-0.1-0.48l-0.07-0.49l-0.04-0.5l-0.02-0.52l0.01-0.73
	l0.06-0.69l0.11-0.67l0.16-0.64l0.21-0.6l0.26-0.53l0.3-0.46l0.35-0.4l0.4-0.32l0.22-0.13l0.23-0.1l0.51-0.14l0.56-0.05l0.3,0.01
	l0.3,0.05l0.29,0.08l0.28,0.11l0.27,0.14l0.24,0.18l0.22,0.21l0.2,0.25l0.18,0.28l0.16,0.31l0.13,0.35l0.11,0.38l0.1,0.4l0.06,0.42
	l0.04,0.44l0.02,0.45l-0.04,0.7l-5.07,0.06l-0.02,0.83l0.02,0.5l0.06,0.49l0.1,0.46l0.13,0.44l0.17,0.41l0.2,0.35l0.24,0.3
	l0.27,0.25l0.3,0.19l0.32,0.14l0.34,0.08l0.36,0.02l0.45-0.04l0.5-0.12l0.55-0.2L90.25,44.21z M83.74,44.55l-0.15,1.27l-0.4,0.14
	l-0.31,0.07l-0.5,0.05l-0.28-0.01l-0.25-0.04l-0.22-0.06l-0.2-0.1l-0.17-0.12l-0.15-0.16l-0.13-0.19l-0.11-0.23l-0.09-0.26
	l-0.07-0.31l-0.04-0.35l-0.02-0.4l0-0.38l0.04-1.93l0.11-4.42l-0.89,0.01l0.03-1.19l0.91-0.01l0.05-1.88l1.06-0.35l-0.03,2.22
	l1.84-0.02l-0.03,1.19l-1.84,0.02l-0.12,5.55l0,0.42l0.04,0.63l0.09,0.45l0.14,0.31l0.09,0.11l0.1,0.09l0.23,0.12l0.23,0.03
	l0.36-0.04l0.26-0.07L83.74,44.55z M69.22,50.57l-0.12-1.41l0.32,0.19l0.3,0.12l0.27,0.06l0.22,0.02l0.25-0.04l0.25-0.11l0.22-0.16
	l0.17-0.21l0.15-0.27l0.16-0.36l0.35-0.94l0.18-0.57l0.17-0.64l-1.49-5.97l-1.09-4.27l0.65,0.01L70.8,36l0.19,1.05l0.34,1.48
	l1.06,4.52l0.35,1.65l0.72-2.73l1.33-4.84l0.11-0.45l0.17-0.74l0.59,0.01l0.62-0.03l-1.21,4.1l-2.37,8.16l-0.24,0.72l-0.22,0.52
	l-0.18,0.32l-0.19,0.27l-0.17,0.19l-0.19,0.16l-0.26,0.16l-0.28,0.12l-0.31,0.08l-0.32,0.03l-0.26-0.01l-0.27-0.04L69.22,50.57z
	 M160.68,18.21l0.11-1.29l0.74-0.27l0.64-0.17l0.58-0.09l0.57-0.04l0.58,0.03l0.55,0.12l0.25,0.09l0.23,0.12l0.21,0.14l0.18,0.17
	l0.16,0.19l0.13,0.2l0.11,0.22l0.07,0.23l0.09,0.49l0.04,0.52l-0.04,2.28l-0.07,2.96l0,2.42l-0.59-0.01l-0.61,0.03l0.1-2.69
	l0.06-3.19l-0.34,0.38l-0.26,0.2l-0.32,0.18l-0.68,0.3l-0.72,0.32l-0.41,0.22l-0.31,0.22l-0.24,0.23l-0.2,0.25l-0.15,0.26
	l-0.09,0.26l-0.06,0.33l-0.02,0.34l0.02,0.26l0.04,0.24l0.07,0.23l0.09,0.2l0.12,0.18l0.13,0.15l0.14,0.12l0.16,0.09l0.35,0.11
	l0.42,0.03l0.28-0.02l0.3-0.05l0.36-0.11l0.46-0.2l-0.1,0.49l-0.11,0.7l-0.44,0.12l-0.35,0.06l-0.58,0.04l-0.43-0.01l-0.38-0.05
	l-0.33-0.09l-0.28-0.13l-0.24-0.18l-0.21-0.22l-0.18-0.26l-0.15-0.3l-0.11-0.33l-0.08-0.34l-0.05-0.36l-0.02-0.38l0.02-0.42
	l0.06-0.39l0.1-0.36l0.13-0.32l0.18-0.31l0.25-0.31l0.29-0.28l0.3-0.23l0.33-0.2l0.38-0.2l0.54-0.23l0.78-0.3l0.5-0.21l0.36-0.21
	l0.15-0.11l0.13-0.13l0.22-0.32l0.08-0.2l0.06-0.19l0.04-0.4l-0.02-0.23l-0.04-0.22l-0.07-0.2L164.54,18l-0.12-0.16l-0.13-0.13
	l-0.15-0.11l-0.16-0.08l-0.38-0.1l-0.44-0.03l-0.44,0.03l-0.45,0.09l-0.42,0.12l-0.36,0.14l-0.37,0.18L160.68,18.21z M154.63,26.49
	l-0.05-0.73L154.51,25l0.51,0.29l0.49,0.2l0.47,0.12l0.44,0.04l0.42-0.05l0.18-0.06l0.17-0.08l0.15-0.1l0.12-0.12l0.11-0.14
	l0.09-0.17l0.11-0.36l0.04-0.37l-0.05-0.41l-0.14-0.4l-0.11-0.2l-0.15-0.22l-0.72-0.86l-0.83-0.99l-0.26-0.36l-0.22-0.37l-0.18-0.38
	l-0.13-0.38l-0.07-0.39l-0.03-0.39l0.01-0.32l0.05-0.31l0.08-0.3l0.12-0.3l0.15-0.28l0.18-0.24l0.21-0.21l0.24-0.17l0.26-0.13
	l0.29-0.1l0.31-0.06l0.33-0.02l0.39,0.01l0.41,0.04l0.44,0.08l0.45,0.11l0.08,1.41l-0.38-0.19l-0.37-0.13l-0.37-0.08l-0.37-0.02
	l-0.38,0.04l-0.35,0.12l-0.16,0.09l-0.13,0.11l-0.11,0.12l-0.09,0.14l-0.11,0.32l-0.03,0.35l0.02,0.23l0.04,0.22l0.07,0.22
	l0.12,0.24l0.15,0.25l0.18,0.25l0.78,0.92l0.5,0.58l0.31,0.41l0.2,0.33l0.17,0.34l0.14,0.34l0.1,0.34l0.06,0.34l0.02,0.35
	l-0.01,0.34l-0.05,0.33l-0.08,0.32l-0.12,0.31l-0.15,0.28l-0.19,0.25l-0.22,0.21l-0.25,0.18l-0.28,0.15l-0.3,0.1l-0.31,0.07
	l-0.33,0.03l-0.31-0.01l-0.36-0.04l-0.66-0.12L154.63,26.49z M148.02,18.36l0.11-1.29l0.74-0.27l0.64-0.17l0.58-0.09l0.57-0.04
	l0.58,0.03l0.55,0.12l0.25,0.09l0.23,0.12l0.21,0.14l0.18,0.17l0.16,0.19l0.13,0.2l0.1,0.22l0.07,0.23l0.09,0.49l0.04,0.52
	l-0.04,2.28l-0.07,2.96l0,2.42l-0.59-0.01l-0.61,0.03l0.1-2.69l0.06-3.19l-0.34,0.38l-0.26,0.2l-0.32,0.18l-0.68,0.3l-0.72,0.32
	l-0.41,0.22l-0.31,0.22l-0.24,0.23l-0.2,0.25l-0.15,0.26l-0.09,0.26l-0.06,0.32l-0.02,0.34l0.02,0.26l0.04,0.24l0.07,0.23l0.09,0.2
	l0.12,0.18l0.13,0.15l0.14,0.12l0.16,0.09l0.35,0.11l0.42,0.03l0.28-0.02l0.3-0.05l0.36-0.11l0.46-0.2l-0.1,0.49l-0.11,0.7
	l-0.44,0.12l-0.35,0.06l-0.58,0.04l-0.43-0.02l-0.38-0.05l-0.33-0.09l-0.28-0.13l-0.24-0.18l-0.21-0.22l-0.18-0.26l-0.15-0.3
	l-0.11-0.33l-0.08-0.34l-0.05-0.36l-0.02-0.38l0.02-0.42l0.06-0.39l0.1-0.36l0.13-0.32l0.18-0.31l0.25-0.31l0.29-0.28l0.3-0.23
	l0.33-0.2l0.38-0.2l0.54-0.23l0.78-0.3l0.5-0.21l0.36-0.21l0.15-0.11l0.13-0.13l0.22-0.32l0.08-0.2l0.06-0.19l0.04-0.4l-0.02-0.23
	l-0.04-0.22l-0.07-0.2l-0.09-0.18l-0.12-0.16l-0.13-0.13l-0.15-0.11l-0.16-0.08l-0.38-0.1l-0.44-0.03l-0.44,0.03l-0.45,0.09
	l-0.42,0.12l-0.36,0.14l-0.37,0.18L148.02,18.36z M146.2,25.28l-0.06,0.59l-0.09,0.85l-0.48,0.15l-0.45,0.09L144.7,27l-0.36,0.02
	l-0.35-0.01l-0.34-0.05l-0.32-0.09l-0.31-0.12l-0.3-0.17l-0.28-0.21l-0.26-0.25l-0.24-0.3l-0.21-0.35l-0.19-0.38l-0.15-0.42
	l-0.13-0.47l-0.1-0.49l-0.07-0.5l-0.05-0.52l-0.02-0.53l0.01-0.72l0.06-0.7l0.1-0.68l0.14-0.66l0.19-0.62l0.24-0.55l0.29-0.48
	l0.35-0.41l0.19-0.17l0.21-0.15l0.23-0.13l0.24-0.1l0.26-0.08l0.28-0.06l0.29-0.04l0.31-0.01l0.47,0.02l0.47,0.06l0.46,0.11
	l0.45,0.15l0.08,1.39l-0.58-0.24l-0.46-0.14l-0.38-0.08l-0.35-0.02l-0.29,0.02l-0.27,0.06l-0.25,0.1l-0.23,0.14l-0.22,0.17
	l-0.2,0.21l-0.19,0.24l-0.17,0.28l-0.15,0.31l-0.13,0.33l-0.1,0.36l-0.08,0.39l-0.1,0.81l-0.03,0.82l0.02,0.54l0.05,0.51l0.08,0.47
	l0.11,0.43l0.14,0.39l0.19,0.35l0.23,0.3l0.27,0.25l0.3,0.2l0.32,0.14l0.33,0.08l0.35,0.02l0.36-0.03l0.39-0.09l0.42-0.15
	L146.2,25.28z M136.06,26.9l-0.55-0.01l-0.55,0.03l0.01-1.9l-0.27,0.69l-0.13,0.24l-0.15,0.24l-0.17,0.22l-0.18,0.18l-0.2,0.15
	l-0.23,0.13l-0.27,0.12l-0.31,0.1l-0.34,0.07l-0.36,0.02l-0.39-0.02l-0.36-0.06l-0.33-0.11l-0.3-0.16l-0.27-0.2l-0.24-0.24
	l-0.2-0.28l-0.17-0.32l-0.13-0.36l-0.1-0.43l-0.06-0.49l-0.02-0.55l0.01-0.6l0.03-1.1l0.07-3.29l0-1.05l0-0.93l0.61,0l0.58-0.02
	l-0.13,3.78l-0.05,2.63l0.02,0.41l0.04,0.37l0.06,0.33l0.08,0.28L131.2,25l0.15,0.22l0.17,0.18l0.21,0.15l0.23,0.12l0.24,0.09
	l0.26,0.05l0.27,0.01l0.24-0.02l0.24-0.05l0.23-0.08l0.23-0.11l0.35-0.27l0.29-0.35l0.13-0.23l0.12-0.26l0.21-0.61l0.12-0.57
	l0.08-0.71l0.07-2.03l0.03-3.61l0.62,0l0.56-0.02l-0.17,5.4l-0.03,2.14L136.06,26.9z M128.74,25.69l-0.15,1.27l-0.4,0.14l-0.31,0.07
	l-0.5,0.05l-0.28-0.01l-0.25-0.04l-0.23-0.07l-0.2-0.09l-0.17-0.12l-0.15-0.16l-0.13-0.19l-0.11-0.23l-0.09-0.27l-0.06-0.31
	l-0.04-0.35l-0.02-0.4l0-0.38l0.05-1.93l0.12-4.42l-0.89,0.01l0.03-1.19l0.91-0.01l0.05-1.88l1.06-0.36l-0.03,2.22l1.84-0.02
	l-0.03,1.19l-1.83,0.02l-0.12,5.56l0,0.42l0.03,0.63l0.09,0.45l0.14,0.31l0.09,0.11l0.1,0.09l0.22,0.12l0.24,0.04l0.36-0.04
	l0.26-0.08L128.74,25.69z M117.17,27.12l0.12-5.12l0.02-2.13l-0.01-1.84l-0.02-0.91l0.56,0l0.57-0.02l-0.03,1.64l0.23-0.54l0.2-0.39
	l0.2-0.29l0.22-0.23l0.25-0.18l0.29-0.14l0.31-0.09l0.32-0.03l0.28,0.02l0.27,0.07l0.06,1.43l-0.39-0.12l-0.35-0.04l-0.19,0.01
	l-0.18,0.04l-0.33,0.15l-0.29,0.25l-0.26,0.34l-0.22,0.43l-0.18,0.51l-0.11,0.5l-0.08,0.63l-0.05,0.98l-0.03,1.55l0.01,2.82
	l0.01,0.66l-0.59-0.01L117.17,27.12z M112.39,18.22l-0.33,0.04l-0.32,0.1l-0.3,0.16l-0.29,0.22l-0.26,0.29l-0.23,0.35l-0.19,0.41
	l-0.15,0.48l-0.11,0.52l-0.08,0.54l-0.04,0.57l-0.01,0.59l0.02,0.51l0.05,0.48l0.08,0.45l0.1,0.43l0.14,0.39l0.17,0.35l0.21,0.31
	l0.24,0.27l0.28,0.22l0.3,0.16l0.33,0.09l0.35,0.03l0.25-0.02l0.24-0.05l0.23-0.08l0.22-0.11l0.22-0.15l0.2-0.19l0.19-0.23
	l0.17-0.27l0.15-0.31l0.13-0.34l0.11-0.38l0.08-0.41l0.11-0.86l0.03-0.9l-0.05-0.84l-0.13-0.79l-0.1-0.36l-0.11-0.32l-0.14-0.28
	l-0.16-0.25l-0.17-0.21l-0.19-0.18l-0.19-0.14l-0.2-0.11l-0.42-0.14l-0.21-0.03L112.39,18.22z M112.4,16.96l0.35,0.02l0.34,0.05
	l0.33,0.09l0.32,0.13l0.31,0.17l0.29,0.21l0.27,0.25l0.24,0.29l0.22,0.34l0.19,0.38l0.17,0.43l0.14,0.46l0.11,0.5l0.08,0.51
	l0.05,0.52l0.02,0.54l-0.01,0.58l-0.04,0.57l-0.07,0.56l-0.1,0.55l-0.14,0.52l-0.16,0.48l-0.19,0.44l-0.21,0.4l-0.24,0.36l-0.27,0.3
	l-0.29,0.25l-0.32,0.2l-0.34,0.16l-0.35,0.11l-0.36,0.07l-0.38,0.03L112,27.38l-0.34-0.05l-0.33-0.09l-0.32-0.14l-0.31-0.18
	l-0.29-0.22l-0.26-0.26l-0.24-0.31l-0.22-0.35l-0.19-0.39l-0.17-0.43l-0.14-0.47L109.06,24l-0.08-0.51l-0.05-0.51l-0.02-0.53
	l0.02-0.78l0.07-0.74l0.13-0.71l0.18-0.67l0.24-0.6l0.29-0.53l0.34-0.44l0.4-0.37l0.43-0.28l0.45-0.2l0.46-0.13L112.4,16.96z
	 M102.41,18.84l-0.04,0.75l-0.02,1.02l-0.02,1.32l-0.01,0.71l0.04,0.71l0.08,0.67l0.07,0.32l0.09,0.3l0.12,0.29l0.15,0.27l0.16,0.25
	l0.18,0.22l0.19,0.18l0.2,0.15l0.21,0.12l0.22,0.09l0.22,0.05l0.22,0.01l0.31-0.04l0.29-0.1l0.27-0.16l0.26-0.23l0.24-0.29
	l0.21-0.35l0.18-0.41l0.15-0.47l0.12-0.52l0.08-0.54l0.05-0.56l0.01-0.59l-0.03-0.58l-0.06-0.54l-0.1-0.5l-0.14-0.46l-0.17-0.41
	l-0.19-0.34l-0.22-0.28l-0.25-0.22l-0.26-0.17l-0.28-0.12l-0.3-0.07l-0.31-0.02l-0.46,0.04l-0.48,0.1l-0.49,0.17L102.41,18.84z
	 M101.05,31.77l0.09-3.01l0.07-3.92l0.04-3.98l0-3.18l0.98-0.3l0.76-0.19l0.65-0.1l0.66-0.04l0.5,0.02l0.47,0.09l0.44,0.15l0.4,0.21
	l0.36,0.29l0.32,0.38l0.28,0.47l0.24,0.57l0.2,0.63l0.14,0.67l0.09,0.71l0.03,0.75l-0.01,0.53l-0.03,0.52l-0.06,0.52l-0.08,0.51
	l-0.11,0.49l-0.14,0.46l-0.16,0.44l-0.18,0.41l-0.21,0.37l-0.23,0.33l-0.26,0.28l-0.28,0.23l-0.29,0.18l-0.31,0.13l-0.33,0.08
	l-0.35,0.03l-0.42-0.03l-0.4-0.11l-0.37-0.17l-0.31-0.22l-0.27-0.26l-0.22-0.29l-0.22-0.38l-0.26-0.53l-0.03,3.91l-0.01,1.38
	l0.01,0.97l-0.59-0.01L101.05,31.77z M91.47,21.17l3.95-0.05l-0.02-0.55l-0.04-0.41l-0.07-0.35l-0.11-0.36l-0.15-0.34l-0.2-0.29
	l-0.24-0.23l-0.28-0.17l-0.32-0.1l-0.34-0.03l-0.37,0.04l-0.35,0.12l-0.32,0.19l-0.28,0.25l-0.24,0.3l-0.2,0.35l-0.15,0.36
	l-0.11,0.35l-0.08,0.4L91.47,21.17z M96.01,25.82l-0.15,1.37l-0.6,0.21l-0.51,0.13l-0.47,0.07l-0.47,0.03l-0.41-0.02l-0.39-0.05
	l-0.36-0.09l-0.35-0.12L92,27.17l-0.3-0.22l-0.28-0.28l-0.25-0.33l-0.22-0.38l-0.19-0.41l-0.16-0.43l-0.13-0.46l-0.09-0.48
	l-0.07-0.49l-0.04-0.51l-0.02-0.52l0.02-0.72l0.06-0.7l0.11-0.67l0.16-0.64l0.21-0.6l0.26-0.53l0.3-0.46l0.35-0.4l0.4-0.32
	l0.22-0.13l0.24-0.1l0.51-0.14l0.56-0.05l0.3,0.01l0.29,0.05l0.29,0.08l0.28,0.11l0.26,0.15l0.25,0.18l0.22,0.21l0.2,0.25l0.18,0.28
	l0.16,0.31l0.14,0.34l0.11,0.38l0.09,0.4l0.07,0.42l0.04,0.44l0.02,0.45l-0.03,0.7L91.42,22l-0.02,0.83l0.03,0.51l0.06,0.48
	l0.1,0.47l0.13,0.44l0.17,0.41l0.2,0.35l0.24,0.3l0.27,0.25l0.3,0.19l0.32,0.14l0.34,0.08l0.36,0.02l0.45-0.04l0.5-0.12l0.54-0.2
	L96.01,25.82z M84.76,27.32l-0.05-0.73l-0.06-0.76l0.51,0.29l0.49,0.2l0.47,0.12l0.45,0.04l0.42-0.05l0.18-0.06l0.16-0.08l0.15-0.1
	l0.13-0.12l0.11-0.14l0.09-0.16l0.12-0.36l0.03-0.36l-0.05-0.41l-0.14-0.4l-0.11-0.2l-0.15-0.22l-0.72-0.86l-0.83-0.99l-0.26-0.36
	l-0.22-0.37l-0.18-0.38l-0.13-0.38l-0.08-0.39l-0.03-0.39l0.01-0.31l0.05-0.31l0.08-0.3l0.11-0.3l0.15-0.28l0.18-0.24l0.21-0.21
	l0.24-0.17l0.27-0.13l0.29-0.09l0.31-0.06l0.33-0.02l0.39,0.01l0.42,0.04l0.43,0.08l0.45,0.11l0.09,1.41l-0.37-0.19l-0.38-0.13
	l-0.37-0.08l-0.37-0.02l-0.38,0.04l-0.35,0.12l-0.16,0.09l-0.14,0.11l-0.11,0.12l-0.09,0.14l-0.11,0.32l-0.04,0.35l0.02,0.23
	l0.04,0.22l0.08,0.22l0.12,0.24l0.15,0.25l0.18,0.24l0.78,0.92l0.5,0.58l0.31,0.41l0.2,0.33l0.17,0.34l0.14,0.34l0.1,0.34l0.05,0.34
	l0.02,0.35l-0.01,0.34l-0.05,0.33l-0.08,0.32l-0.12,0.31l-0.15,0.28l-0.18,0.25l-0.22,0.22L88,27.36l-0.28,0.15l-0.3,0.1l-0.32,0.06
	l-0.33,0.02l-0.31-0.01l-0.36-0.04l-0.66-0.12L84.76,27.32z M78.16,19.19l0.11-1.29l0.75-0.27l0.64-0.17l0.58-0.09l0.57-0.03
	l0.58,0.03l0.54,0.12l0.25,0.09l0.23,0.12l0.21,0.14l0.19,0.17l0.16,0.19l0.13,0.2l0.1,0.21l0.08,0.23l0.09,0.49l0.03,0.52
	l-0.04,2.29L83.3,25.1l-0.01,2.43l-0.59-0.01l-0.61,0.03l0.1-2.69l0.06-3.19l-0.34,0.38l-0.26,0.21l-0.32,0.18l-0.68,0.3l-0.72,0.32
	l-0.41,0.22l-0.31,0.22l-0.24,0.23l-0.2,0.25l-0.15,0.25l-0.1,0.26l-0.06,0.33l-0.02,0.34l0.02,0.26l0.04,0.24l0.07,0.22l0.1,0.2
	l0.12,0.18l0.13,0.15l0.14,0.12l0.16,0.09l0.36,0.11l0.42,0.03l0.29-0.02l0.3-0.05l0.36-0.11l0.46-0.2l-0.1,0.49l-0.11,0.7
	l-0.44,0.12l-0.35,0.06l-0.58,0.04l-0.43-0.01l-0.38-0.06l-0.33-0.09l-0.28-0.13l-0.25-0.17l-0.21-0.22l-0.18-0.26l-0.15-0.3
	l-0.11-0.33l-0.08-0.34l-0.05-0.36l-0.02-0.37l0.02-0.43l0.06-0.39l0.1-0.36l0.13-0.32l0.18-0.31l0.24-0.31l0.29-0.28l0.3-0.23
	l0.33-0.2l0.38-0.2l0.54-0.23l0.78-0.3l0.5-0.21l0.36-0.21l0.15-0.11l0.13-0.13l0.21-0.33l0.09-0.2l0.06-0.19l0.04-0.4l-0.02-0.23
	l-0.04-0.22l-0.07-0.2l-0.1-0.18l-0.12-0.16l-0.13-0.13l-0.15-0.11l-0.16-0.08l-0.38-0.1l-0.44-0.03l-0.44,0.03l-0.45,0.09
	l-0.43,0.12l-0.36,0.14l-0.37,0.19L78.16,19.19z M71.09,19.21l-0.04,0.75l-0.02,1.02L71,22.3l0,0.71l0.03,0.71l0.08,0.67l0.07,0.32
	l0.09,0.3l0.12,0.29l0.15,0.27l0.16,0.25l0.18,0.22l0.19,0.18l0.21,0.15l0.21,0.12l0.22,0.08l0.22,0.05l0.22,0.01l0.31-0.04
	l0.29-0.1l0.27-0.16l0.26-0.23l0.24-0.29l0.21-0.35l0.18-0.41l0.15-0.47l0.12-0.52l0.08-0.54l0.05-0.56l0.01-0.59l-0.03-0.58
	l-0.06-0.54l-0.1-0.5L75,20.29l-0.17-0.4l-0.19-0.34l-0.22-0.28l-0.24-0.22l-0.26-0.17l-0.28-0.12l-0.3-0.07l-0.31-0.02l-0.47,0.04
	l-0.48,0.1l-0.49,0.17L71.09,19.21z M69.73,32.14l0.09-3.01l0.07-3.92l0.04-3.98l0-3.18l0.98-0.3l0.77-0.19l0.66-0.1l0.66-0.04
	l0.5,0.02l0.47,0.09l0.44,0.15l0.4,0.21l0.37,0.29l0.32,0.38l0.28,0.47l0.24,0.57l0.2,0.63l0.14,0.67l0.09,0.71l0.04,0.75
	l-0.01,0.53l-0.03,0.52l-0.06,0.52l-0.08,0.51l-0.11,0.49l-0.14,0.46l-0.16,0.44l-0.19,0.41l-0.21,0.37l-0.23,0.33l-0.25,0.28
	l-0.28,0.23l-0.3,0.18l-0.31,0.13l-0.33,0.08l-0.35,0.03l-0.42-0.03l-0.4-0.11l-0.37-0.17l-0.32-0.22l-0.27-0.26l-0.22-0.29
	l-0.22-0.38l-0.27-0.53l-0.03,3.91l-0.01,1.38l0.01,0.98l-0.59-0.02L69.73,32.14z M61.62,27.78l0.12-5.12l0.02-2.13l-0.01-1.84
	l-0.02-0.91l0.56,0l0.57-0.02l-0.03,1.64l0.23-0.54l0.2-0.39l0.2-0.29l0.22-0.23l0.25-0.18l0.29-0.13l0.31-0.09l0.32-0.03l0.28,0.02
	l0.27,0.07l0.06,1.43l-0.39-0.12l-0.35-0.04l-0.19,0.01l-0.18,0.04l-0.33,0.15l-0.29,0.25l-0.26,0.34l-0.22,0.43l-0.18,0.51
	l-0.11,0.5l-0.08,0.63l-0.05,0.98l-0.03,1.55l0.01,2.82l0.01,0.66l-0.59-0.01L61.62,27.78z M55.38,21.6l3.95-0.04L59.31,21
	l-0.04-0.41l-0.07-0.35l-0.11-0.36l-0.16-0.34l-0.2-0.29l-0.24-0.24l-0.28-0.17l-0.32-0.1l-0.34-0.03l-0.37,0.04l-0.35,0.12
	l-0.32,0.19l-0.28,0.25L56,19.61l-0.2,0.35l-0.16,0.37l-0.11,0.35l-0.08,0.4L55.38,21.6z M59.92,26.25l-0.15,1.37l-0.6,0.21
	l-0.51,0.13l-0.47,0.07l-0.47,0.02l-0.41-0.01l-0.39-0.05l-0.36-0.09l-0.35-0.13l-0.32-0.17l-0.3-0.23l-0.28-0.28l-0.25-0.34
	l-0.23-0.38l-0.19-0.41l-0.16-0.43l-0.13-0.46l-0.09-0.48l-0.07-0.49l-0.04-0.5l-0.02-0.52l0.02-0.72l0.06-0.69l0.11-0.67l0.16-0.64
	l0.21-0.6l0.25-0.53l0.3-0.46l0.35-0.4l0.4-0.32l0.22-0.13l0.24-0.1l0.51-0.14l0.56-0.05l0.3,0.01l0.29,0.05l0.29,0.08l0.28,0.11
	l0.26,0.15l0.24,0.18l0.22,0.21l0.2,0.25l0.18,0.28l0.15,0.31l0.14,0.35l0.11,0.37l0.09,0.4l0.07,0.42l0.04,0.44l0.02,0.45
	l-0.03,0.69l-5.07,0.06l-0.02,0.83l0.03,0.5l0.06,0.49l0.1,0.46l0.13,0.44l0.17,0.41l0.2,0.35l0.24,0.3l0.27,0.25l0.3,0.19
	l0.32,0.14l0.34,0.08l0.36,0.02l0.45-0.04l0.5-0.12l0.54-0.2L59.92,26.25z M46.67,32.52l-0.12-1.41l0.32,0.19l0.3,0.12l0.27,0.06
	l0.22,0.02l0.26-0.04l0.25-0.11l0.22-0.16l0.17-0.21l0.16-0.27l0.16-0.36l0.35-0.94l0.18-0.57l0.17-0.64l-1.49-5.97l-1.09-4.27
	l0.65,0.01l0.61-0.03L48.44,19l0.34,1.48L49.83,25l0.35,1.65l0.72-2.73l1.33-4.84l0.11-0.45l0.17-0.74l0.59,0.02l0.62-0.03
	l-1.21,4.11l-2.37,8.16l-0.24,0.72l-0.22,0.53l-0.18,0.32l-0.19,0.27l-0.17,0.2l-0.19,0.17l-0.25,0.16l-0.28,0.12l-0.32,0.08
	l-0.32,0.03l-0.27-0.01l-0.27-0.04L46.67,32.52z M40.8,19.63l0.11-1.29l0.74-0.26l0.64-0.17l0.58-0.09l0.57-0.03l0.58,0.03
	l0.54,0.11l0.25,0.09l0.23,0.12l0.21,0.14l0.19,0.17l0.16,0.19l0.13,0.2l0.1,0.21l0.07,0.23l0.09,0.49l0.03,0.52l-0.04,2.28
	l-0.07,2.96l-0.01,2.43l-0.59-0.01l-0.61,0.03l0.1-2.69l0.06-3.19l-0.34,0.38l-0.26,0.21l-0.32,0.18l-0.68,0.3l-0.72,0.32
	l-0.41,0.22l-0.31,0.22l-0.24,0.23l-0.2,0.25l-0.15,0.25l-0.09,0.26l-0.06,0.32l-0.02,0.34l0.02,0.26l0.04,0.24l0.07,0.22l0.1,0.2
	l0.11,0.18l0.13,0.15l0.14,0.12l0.16,0.09l0.36,0.11l0.42,0.03l0.28-0.02l0.3-0.05l0.36-0.11l0.46-0.2l-0.1,0.49l-0.11,0.7
	l-0.44,0.12l-0.35,0.06l-0.58,0.04l-0.43-0.02l-0.38-0.06l-0.33-0.09l-0.28-0.13l-0.24-0.17l-0.21-0.22l-0.18-0.26l-0.14-0.3
	l-0.12-0.33l-0.08-0.34l-0.05-0.36l-0.02-0.37L40,25.15l0.06-0.39l0.1-0.36l0.13-0.32l0.18-0.31l0.25-0.31l0.29-0.28l0.3-0.23
	l0.33-0.2l0.39-0.2l0.53-0.23l0.78-0.3l0.5-0.21l0.36-0.21l0.15-0.11l0.13-0.13l0.22-0.33l0.09-0.19l0.06-0.2l0.04-0.4l-0.02-0.23
	l-0.04-0.22l-0.07-0.2l-0.1-0.18l-0.12-0.16l-0.13-0.13l-0.15-0.11l-0.16-0.08l-0.38-0.1l-0.44-0.03l-0.44,0.03l-0.45,0.08
	l-0.42,0.12l-0.36,0.14l-0.37,0.19L40.8,19.63z"/>
</svg>
