<?xml version="1.0" encoding="UTF-8"?>
<svg xmlns="http://www.w3.org/2000/svg" viewBox="0 0 6594.46 2706.64">
  <defs>
    <style>
      .cls-1, .cls-2, .cls-3, .cls-4, .cls-5, .cls-6 {
        stroke-width: 0px;
      }

      .cls-1, .cls-5, .cls-6 {
        fill-rule: evenodd;
      }

      .cls-7 {
        isolation: isolate;
      }

      .cls-2 {
        fill: #fff;
      }

      .cls-3 {
        fill: #201f1f;
      }

      .cls-4, .cls-5 {
        fill: #fcfcfc;
      }

      .cls-6 {
        fill: #999;
      }
    </style>
  </defs>
  <g id="Shape_2" data-name="Shape 2" class="cls-7">
    <g id="Shape_2-2" data-name="Shape 2">
      <rect class="cls-3" width="6594.46" height="2706.64"/>
    </g>
  </g>
  <g id="Corona">
    <g id="_7c6IID" data-name="7c6IID">
      <g>
        <path class="cls-5" d="M3409.2,2047.98c.52-4.32,4.23-8.08,9.88-8.53,5.75-.46,11.58.25,17.37.17,1.68-.02,4.04-.49,4.92-1.64,7.74-10.11,18.85-13.11,30.53-14.83,4.2-.62,8.52-.44,12.79-.63v5c-18.43,14.65-34.66,31.2-44.01,53.26-3.42,8.07-6.07,16.53-8.3,25.02-1.07,4.08-2.62,5.23-6.68,5.21-42.33-.14-84.66-.09-127-.09-18.67,0-37.33-.02-56,.05-2.98.01-4.83-.35-5.54-4-4.27-21.76-14.32-40.74-28.95-57.24-6.27-7.07-13.41-13.38-19.92-20.25-1.4-1.48-1.81-3.9-2.68-5.89,2.14-.4,4.4-1.45,6.41-1.08,7.14,1.29,14.56,2.21,21.18,4.93,5.29,2.18,9.55,6.82,14.32,10.29,1.23.89,2.65,2.14,3.99,2.15,4.46.02,8.91-.44,13.37-.75,6.8-.46,12.33,1.68,15.81,7.99,3.39-5.58,1.93-10.51-3.55-12.85-4.69-2-7.14-7.62-5.91-13.54,1.04-5,4.6-7.59,9.99-7.91,4.97-.29,9.79.12,11.76,5.28,1.78,4.67,2.14,9.66-1.59,14.13-.74.88-.51,3.73.35,4.6,8.4,8.51,18.69,14.14,30.66,13.04,11.89-1.1,18.71-10.01,23.21-20.41,1.97-4.54.73-5.61-4.36-6.01-4.49-.36-9.37-.54-13.25-2.46-4.21-2.1-5.56-11.4-3.7-16.94,1.46-4.33,5.62-6.67,12.05-6.82.79-.02,1.58-.23,2.14-.32.45-6.39-.21-12.81,1.55-18.47,2.54-8.17,6.62-15.91,10.5-23.6,1.74-3.45,5.61-3.29,7.56.19,6.78,12.05,14.03,24.04,11.26,38.88-.55,2.96,1.22,3.27,3.51,3.35,6.49.22,9.95,2.68,11.59,8.06,1.81,5.91-.13,14.56-4.93,16.59-3.9,1.65-8.68,1.42-13.09,1.54-3.67.1-4.74,1.61-4.09,4.99,2.04,10.54,16.99,22.7,27.52,21.7,9.33-.88,17.52-4.97,24.72-10.98,3.15-2.63,3.68-5.23,1.25-9.01-3.59-5.58-1.68-13.62,3.25-16.39,4.71-2.64,13.4-.8,16.16,3.41,4.09,6.25,1.25,14.57-5.62,17.65-1.5.67-3.12,3.22-3.03,4.81.16,2.81-2.56,7.01,2.66,8.28-1.22,5.75,4.03,14.54,11.04,17.74,1.69.78,4.73.95,5.87-.06,1.15-1.01,1.33-4,.83-5.83-1.44-5.32-7.85-9.76-13.5-10.22-1.47-.12-2.88-1.02-4.31-1.57ZM3260.53,2049.91c-10.17-.9-16.81,3.29-18.27,11.24-.26,1.4.06,3.6.99,4.35.96.78,3.27.82,4.5.2,6.56-3.26,9.95-9.1,12.78-15.79Z"/>
        <path class="cls-5" d="M3234.7,2136.51c-1.05-4.09-2.71-8.14-3-12.29-.37-5.34,3.01-8.14,8.33-8.14,61.61.01,123.21.04,184.82-.03,4.06,0,8.04.06,9.52,4.49,1.44,4.28,2.09,8.78-1.98,12.42-1.09.97-1.8,2.36-2.68,3.55h-195Z"/>
      </g>
    </g>
  </g>
  <g id="banner">
    <g id="Xub5TR">
      <g>
        <path class="cls-6" d="M4410.16,988.94c-4.52-1.78-8.98-3.74-13.57-5.29-19.91-6.74-39.81-13.52-59.81-19.99-19.62-6.34-39.33-12.43-59.05-18.44-15.25-4.65-30.56-9.13-45.9-13.48-13.47-3.81-27.02-7.31-40.53-10.99-12.2-3.32-24.33-6.87-36.58-9.98-10.8-2.74-21.74-4.95-32.59-7.51-8.94-2.11-17.81-4.52-26.76-6.59-8.63-2-17.34-3.66-25.99-5.61-6.72-1.52-13.37-3.33-20.08-4.86-6.24-1.42-12.52-2.62-18.78-3.93-7.69-1.6-15.36-3.3-23.08-4.79-7.41-1.42-14.89-2.51-22.3-3.95-11.8-2.29-23.87-3.76-34.55-9.91-9.02-5.19-14.48-12.89-13.91-23.51.43-8,2.1-15.92,3.22-23.88.68-4.88,1.32-9.77,2.03-14.64.59-4.05,1.09-8.13,1.93-12.14,2.88-13.62,5.6-27.28,8.96-40.78,2.9-11.66,14.22-21.89,27.73-21.52,11.17.3,21.77,2.86,32.53,5.14,7.67,1.62,15.46,2.7,23.22,3.86,5.21.77,10.44,1.4,15.68,1.84,18.2,1.52,26.37-10.29,30.25-22.67,3.11-9.96,4.95-20.3,7.5-30.44,2.79-11.07,5.89-22.07,8.57-33.17,1.61-6.66,2.43-13.51,4.04-20.18,2.02-8.39,4.59-16.65,6.71-25.03,1.56-6.17,2.7-12.46,4.18-18.66,3.17-13.29,5.56-26.92,13.51-38.47,4.47-6.48,11.02-9.88,18.93-10.42,12.87-.89,25.19,1.95,37.55,5.14,11.12,2.87,22.54,4.61,33.7,7.36,15.01,3.7,29.88,7.95,44.83,11.84,12.07,3.14,24.22,5.99,36.28,9.17,10.83,2.86,21.59,5.95,32.36,9.01,13.94,3.95,27.89,7.84,41.78,11.98,20.06,5.98,40.13,11.95,60.07,18.3,27.58,8.79,55.08,17.84,82.56,26.96,10.52,3.49,21.12,6.93,31.24,11.39,5.46,2.41,9.99,6.94,14.98,10.45,1.3.92,2.76,1.61,4.15,2.4v11c-1.62.93-3.42,1.66-4.83,2.84-2.14,1.79-3.75,4.32-6.05,5.81-8.36,5.41-16.84,10.66-25.42,15.71-23.35,13.75-46.81,27.3-70.15,41.07-19.48,11.49-38.97,22.96-58.2,34.85-8.64,5.34-14.51,13.16-15.72,23.67-1.01,8.76,1.52,17.11,4.12,25.23,6.2,19.37,13.05,38.53,19.5,57.82,9.05,27.07,18.35,54.08,26.76,81.35,2.66,8.64,3.78,18.28-5.98,24.58-.55.36-.69,1.37-1.02,2.07h-18Z"/>
        <path class="cls-6" d="M2093.16,661.94c3.38-2.6,6.42-5.92,10.19-7.65,10.85-4.97,21.81-9.85,33.08-13.75,22.18-7.67,44.56-14.76,66.92-21.88,21.69-6.9,43.46-13.54,65.19-20.28,12.74-3.95,25.43-8.09,38.25-11.78,13.43-3.88,26.98-7.28,40.46-10.98,12.19-3.34,24.28-7.01,36.52-10.14,12.99-3.32,26.12-6.14,39.16-9.26,9.89-2.37,19.73-4.97,29.63-7.3,9.72-2.28,19.45-4.52,29.24-6.46,7.39-1.47,14.88-2.53,22.34-3.6,14.08-2,27.41,11.56,30.2,22.18,3.38,12.85,6.54,25.76,9.81,38.64,2.85,11.27,5.85,22.5,8.53,33.8,2.14,9.04,3.75,18.21,5.83,27.27,1.9,8.28,4.13,16.48,6.18,24.73,1.58,6.36,3.08,12.74,4.69,19.09,2.82,11.15,5.6,22.5,16.14,29.18,3.46,2.19,7.88,3.5,11.99,3.9,10.26,1.02,20.29-.7,30.35-3.18,10.3-2.54,20.95-3.75,31.46-5.38,5.34-.83,10.72-1.46,16.11-1.87,15.96-1.23,25.74,10.22,28.75,21.85,3.02,11.68,4.93,23.65,7.43,35.47,1.65,7.83,3.92,15.56,5.12,23.45,1.87,12.35,5.8,24.62,3.9,37.26-1.61,10.72-9.04,17.61-18.73,20.85-10.22,3.42-21.02,5.16-31.58,7.55-7.65,1.73-15.32,3.37-23.01,4.94-9.32,1.91-18.68,3.61-27.98,5.58-6.89,1.46-13.7,3.26-20.57,4.83-8.47,1.94-16.97,3.8-25.45,5.69-8.62,1.92-17.27,3.76-25.87,5.79-8.6,2.03-17.15,4.27-25.73,6.38-8.59,2.11-17.21,4.1-25.78,6.26-10.04,2.53-20.07,5.11-30.06,7.81-11.58,3.13-23.12,6.4-34.66,9.65-10.91,3.07-21.83,6.15-32.71,9.32-14.54,4.24-29.11,8.37-43.55,12.9-19.26,6.04-38.43,12.36-57.61,18.66-16.01,5.26-31.98,10.65-47.94,16.03-.51.17-.82.96-1.22,1.46h-20c-1.04-1.05-2.11-2.08-3.13-3.16-4.08-4.3-7.03-9.53-5.52-15.32,3.3-12.72,7.22-25.29,11.36-37.77,5.53-16.7,11.62-33.21,17.26-49.87,5.5-16.28,10.8-32.63,16.05-48.99,2.76-8.61,6.18-17.17,7.63-26.02,2.46-15-4.09-26.49-16.8-34.43-11.12-6.94-22.33-13.73-33.61-20.41-20.01-11.86-40.08-23.63-60.16-35.37-17.08-9.98-34.33-19.67-51.26-29.91-5.98-3.62-11.23-8.46-16.81-12.75v-13Z"/>
        <path class="cls-6" d="M4125.54,373.04c-2.81,12.43-5.66,24.86-8.41,37.3-2.01,9.1-3.79,18.26-5.88,27.34-2.72,11.8-5.71,23.55-8.5,35.34-2.11,8.93-3.95,17.94-6.13,26.85-2.26,9.2-4.88,18.3-7.18,27.49-1.39,5.55-2.45,11.19-3.73,16.78-1.61,6.99-3.33,13.96-4.96,20.95-1.38,5.9-2.67,11.82-4.04,17.72-2.21,9.58-4.48,19.14-6.67,28.72-2.07,9.08-3.82,18.24-6.15,27.24-3.71,14.3-5.36,29.24-12.78,42.43-7,12.42-16.64,16.3-29.49,15.08-13.39-1.27-26.72-3.38-39.97-5.72-13.72-2.43-27.28-5.76-40.97-8.34-8.38-1.58-16.92-2.33-25.34-3.72-8.9-1.47-17.73-3.4-26.63-4.88-8.58-1.43-17.21-2.5-25.81-3.81-6.51-.99-12.99-2.11-19.49-3.13-4.23-.66-8.47-1.26-12.72-1.84-9.29-1.27-18.57-2.58-27.88-3.73-10.3-1.27-20.66-2.16-30.94-3.63-9.77-1.39-19.45-3.45-29.22-4.95-6.03-.92-12.14-1.37-18.22-1.98-11.51-1.15-23.03-2.28-34.54-3.37-7.07-.67-14.17-1.13-21.23-1.91-8.04-.89-16.05-2.02-24.07-3.05-.49-.06-.98-.25-1.47-.28-10.59-.62-21.17-1.3-31.77-1.8-14.93-.71-29.88-1.09-44.8-1.99-13.73-.83-27.51-1.56-41.13-3.37-29.79-3.98-59.75-3.41-89.65-3.73-67.64-.73-135.29-.95-202.94-1.04-21.48-.03-42.98.71-64.44,1.64-16.24.71-32.44,2.3-48.66,3.47-16.04,1.16-32.07,2.41-48.12,3.39-12.77.78-25.59.79-38.32,1.94-12.81,1.16-25.51,3.45-38.29,4.98-7.38.88-14.84,1.16-22.25,1.86-10.54,1-21.06,2.15-31.59,3.22-7.24.74-14.5,1.32-21.72,2.21-6.67.83-13.31,1.97-19.96,2.97-4.56.69-9.11,1.57-13.7,2.02-7.74.77-15.53,1.04-23.25,1.93-6.68.77-13.3,2.13-19.95,3.21-4.22.69-8.43,1.49-12.67,2.02-9.65,1.2-19.35,2.02-28.96,3.47-8.76,1.33-17.4,3.44-26.14,4.92-8.4,1.43-16.89,2.36-25.3,3.74-8.58,1.41-17.12,3.1-25.68,4.65-7.6,1.37-15.21,2.65-22.8,4.06-7.9,1.47-15.78,3.09-23.67,4.58-7.41,1.4-14.83,2.72-22.25,4.05-5.5.99-11,1.91-16.49,2.92-12.52,2.3-26.11-1.54-34.26-13.86-5.29-8-7.68-17.07-9.65-26.37-1.93-9.12-4.57-18.09-6.71-27.16-2.13-9.05-3.97-18.17-6.06-27.23-1.47-6.36-3.21-12.65-4.71-19-1.42-6.03-2.62-12.11-4.05-18.14-1.61-6.8-3.39-13.55-5.05-20.33-1.45-5.89-2.84-11.8-4.25-17.7-1.48-6.2-3.02-12.38-4.41-18.6-1.64-7.34-3.09-14.72-4.71-22.06-1.41-6.39-2.92-12.75-4.43-19.12-2.1-8.91-4.17-17.83-6.39-26.71-2.17-8.7-4.64-17.34-6.73-26.06-1.6-6.67-2.83-13.44-4.2-20.16-1.04-5.13-1.79-10.33-3.13-15.38-2.42-9.14,2.51-25.62,12.85-29.97,9.04-3.8,18.68-6.26,28.16-8.91,7.4-2.07,14.94-3.68,22.48-5.23,6.91-1.42,13.91-2.44,20.85-3.75,8.05-1.52,16.09-3.16,24.13-4.74,4.03-.79,8.06-1.64,12.1-2.36,12.92-2.3,25.84-4.68,38.8-6.77,9.25-1.49,18.6-2.37,27.85-3.86,8.09-1.3,16.09-3.12,24.15-4.63,4.2-.79,8.42-1.53,12.66-2.06,6.05-.76,12.15-1.17,18.19-2.01,5.36-.75,10.67-1.91,16-2.86,4.21-.75,8.4-1.65,12.63-2.16,6.4-.77,12.84-1.18,19.24-1.91,8.85-1,17.67-2.14,26.51-3.21,5.73-.7,11.46-1.39,17.19-2.08,13.59-1.64,27.18-3.29,40.78-4.88,1.98-.23,3.99-.17,5.98-.28,9.93-.56,19.9-.7,29.76-1.8,10.79-1.21,21.46-3.46,32.22-4.97,6.39-.9,12.84-1.47,19.29-1.81,14.27-.75,28.56-1.03,42.82-1.95,9.88-.64,19.71-2.06,29.56-3.12,1.16-.12,2.32-.2,3.48-.26,11.43-.62,22.86-1.27,34.29-1.85,23.08-1.17,46.14-2.73,69.23-3.34,21.82-.58,43.84,1.6,65.44-.63,26.34-2.72,52.58-1.78,78.86-2.16,25.66-.37,51.45-1.64,76.96.36,37.63,2.96,75.23,1.52,112.83,2.54,13.97.38,27.94.8,41.88,1.64,14.89.9,29.74,2.34,44.61,3.51,14.68,1.16,29.36,2.3,44.04,3.4,15.87,1.2,31.77,2.02,47.6,3.62,11.62,1.17,23.12,3.56,34.73,4.98,8.05.98,16.19,1.13,24.27,1.85,11.19,1,22.36,2.19,33.54,3.3,6.07.6,12.17,1.05,18.21,1.86,6.52.88,12.98,2.23,19.5,3.15,6.05.85,12.14,1.49,18.23,2.08,6.91.67,13.86.96,20.75,1.83,5.37.67,10.66,2,15.99,2.97,4.21.77,8.42,1.61,12.67,2.1,6.73.78,13.51,1.1,20.22,1.97,6.18.8,12.28,2.15,18.44,3.14,8.11,1.3,16.26,2.4,24.37,3.72,5.66.92,11.29,2.12,16.94,3.12,4.37.78,8.76,1.42,13.13,2.21,12.44,2.23,24.86,4.59,37.31,6.73,8.25,1.41,16.59,2.35,24.82,3.83,7.25,1.3,14.4,3.19,21.63,4.6,7.71,1.5,15.57,2.37,23.2,4.22,9.44,2.29,19.14,4.33,27.94,8.24,10.64,4.73,16.92,13.32,14.81,26.11.51.05,1.02.09,1.53.14Z"/>
      </g>
    </g>
  </g>
  <g id="Marco">
    <g id="Marco_2" data-name="Marco 2">
      <g id="XrlyDl">
        <path class="cls-5" d="M3867.66,2443.02c1.25-1.16,2.29-2.86,3.77-3.4,18.27-6.65,33.17-17.86,45.94-32.42,8.04-9.16,15.01-18.79,17.48-30.87,3.08-15.07,5.07-30.13,2.69-45.73-1.41-9.25-2.76-18.36-6.68-26.8-9.94-21.38-27.3-34.68-48.47-43.75-12.86-5.51-26.28-7.56-40.2-7.7-17.3-.18-34.62-.44-51.88-1.51-10.65-.66-21.36-2.23-31.78-4.58-13.59-3.06-23.81-14.3-21.33-31.16,1.1-7.49,9.6-16.06,17.59-17.21,7.69-1.11,15.48-2.18,23.22-2.18,154.32,0,308.63.18,462.95.24,41.33.01,82.65-.49,123.98-.35,26.86.09,51.85-6.72,75.34-19.24,16.15-8.61,30.27-20.16,42.23-33.89,13.1-15.05,22.64-32.33,27.76-51.85,2.26-8.62,4.9-17.13,7.24-25.73.47-1.73.49-3.62.49-5.43.02-221.32.02-442.63.01-663.95,0-14.78,8.37-22.93,22.98-23.58,11.25-.5,22.35-2.67,32.84-7.08,12.53-5.27,25.42-9.87,37.4-16.2,13.25-7,22.83-18.77,32.86-29.64,13.75-14.9,23.05-32.49,29.17-51.77,1.04-3.29,1.53-6.75,2.47-10.07.33-1.14,1.27-2.11,1.94-3.15v-65c-.68-1.08-1.68-2.08-1.98-3.26-1.69-6.72-2.8-13.61-4.85-20.22-6.1-19.7-14.44-38.33-28.52-53.79-15.71-17.26-34.02-29.84-57.88-33.38-11.87-1.76-23.44-1.69-34.97,1.06-13.7,3.27-24.89,10.91-34.36,21.13-15.29,16.49-20.97,35.27-13.17,57.13,8.86,24.85,29.11,38.07,55.36,35.07,16.93-1.94,28.32-13.12,37.69-26.25,3.1-4.34,4.48-9.9,6.65-14.9,1.71-3.94,2.8-8.34,5.27-11.73,3.95-5.43,12.16-3.98,18.3,3.19,10.92,12.75,17.12,27.87,18.23,44.38.86,12.66-.45,25.5-1.34,38.22-.73,10.47-5.07,19.8-10.47,28.73-10.13,16.76-24.48,29.18-40.47,39.93-16.5,11.09-34.79,17.03-54.65,16.92-9.18-.05-18.39-1.56-27.51-2.92-14.19-2.11-27.18-7.53-38.53-16.27-15.8-12.18-28.51-27.45-40.71-43.05-17.29-22.1-30.6-46.71-43.95-71.29-12.3-22.65-24.5-45.38-37.75-67.47-11.55-19.24-24.87-37.37-40.31-53.78-14.62-15.54-30.72-29.08-51.36-36.03-6.16-2.07-12.49-3.63-18.75-5.42h-25c-4.97,1.52-10.04,2.76-14.89,4.6-26.51,10.06-43.3,29.03-50.11,56.43-6.96,27.98,9.99,61.6,38.95,68.8,19.21,4.78,36.97,1.79,52.2-11.21,6.42-5.47,9.88-13.23,12.2-21.38,4.92-17.27.01-32.3-10.25-46.19-4.19-5.67-5.32-10.61-2.47-13.09,4.29-3.72,8.71-1.58,12.85.78,12.76,7.28,20.68,18.98,28.01,31.13,16.91,28.06,25.46,59.4,35.68,90.16,8.9,26.78,19.37,53.03,29.25,79.48,7.94,21.26,20.14,40.15,33.8,58.03,17.46,22.85,39.9,39.22,66.91,49.33,7.27,2.72,15.53,4.94,18.7,12.96,2.38,6.03,4.21,12.75,4.22,19.16.24,116.81.16,233.62.18,350.43,0,48.66.14,97.31.15,145.97,0,49.32.5,98.64-.4,147.94-.42,23.09-5.58,45.7-21.1,63.96-12.96,15.24-27.04,29.65-47.37,35.13-11.44,3.08-22.86,5.85-34.98,5.84-196.63-.16-393.26-.22-589.88.11-15.58.03-31.67.26-46.38,6.9-14.84,6.69-26.48,16.95-32.87,32.42-1.19,2.89-2.92,5.56-4.4,8.33v19c1.31,2.66,2.96,5.21,3.86,8.01,6.14,18.9,18.4,32.65,35.82,41.6,19.76,10.16,41.73,13.87,62.77,20.24,13.69,4.15,27.31,8.32,39.38,16.43,18.74,12.59,25.58,32.06,20.96,52.21-4.46,19.48-29.54,35.56-50.37,30.42-17.6-4.35-26.84-15.96-32.68-31.71-.86-2.33-.87-5.14-2.21-7.08-1.56-2.26-4.07-5.17-6.32-5.32-2.52-.16-6.57,1.83-7.58,4-2.48,5.27-4.36,11.09-5.08,16.86-1.39,11.18,1.12,22.04,4.61,32.68,8.1,24.75,23.43,42.54,48.57,51.11,1.63.56,2.85,2.34,4.26,3.55h61Z"/>
      </g>
    </g>
    <g id="Marco_2_copy" data-name="Marco 2 copy">
      <g id="XrlyDl-2" data-name="XrlyDl">
        <path class="cls-5" d="M2801.16,2443.02c-1.25-1.16-2.29-2.86-3.77-3.4-18.27-6.65-33.17-17.86-45.94-32.42-8.04-9.16-15.01-18.79-17.48-30.87-3.08-15.07-5.07-30.13-2.69-45.73,1.41-9.25,2.76-18.36,6.68-26.8,9.94-21.38,27.3-34.68,48.47-43.75,12.86-5.51,26.28-7.56,40.2-7.7,17.3-.18,34.62-.44,51.88-1.51,10.65-.66,21.36-2.23,31.78-4.58,13.59-3.06,23.81-14.3,21.33-31.16-1.1-7.49-9.6-16.06-17.59-17.21-7.69-1.11-15.48-2.18-23.22-2.18-154.32,0-308.63.18-462.95.24-41.33.01-82.65-.49-123.98-.35-26.86.09-51.85-6.72-75.34-19.24-16.15-8.61-30.27-20.16-42.23-33.89-13.1-15.05-22.64-32.33-27.76-51.85-2.26-8.62-4.9-17.13-7.24-25.73-.47-1.73-.49-3.62-.49-5.43-.02-221.32-.02-442.63-.01-663.95,0-14.78-8.37-22.93-22.98-23.58-11.25-.5-22.35-2.67-32.84-7.08-12.53-5.27-25.42-9.87-37.4-16.2-13.25-7-22.83-18.77-32.86-29.64-13.75-14.9-23.05-32.49-29.17-51.77-1.04-3.29-1.53-6.75-2.47-10.07-.33-1.14-1.27-2.11-1.94-3.15v-65c.68-1.08,1.68-2.08,1.98-3.26,1.69-6.72,2.8-13.61,4.85-20.22,6.1-19.7,14.44-38.33,28.52-53.79,15.71-17.26,34.02-29.84,57.88-33.38,11.87-1.76,23.44-1.69,34.97,1.06,13.7,3.27,24.89,10.91,34.36,21.13,15.29,16.49,20.97,35.27,13.17,57.13-8.86,24.85-29.11,38.07-55.36,35.07-16.93-1.94-28.32-13.12-37.69-26.25-3.1-4.34-4.48-9.9-6.65-14.9-1.71-3.94-2.8-8.34-5.27-11.73-3.95-5.43-12.16-3.98-18.3,3.19-10.92,12.75-17.12,27.87-18.23,44.38-.86,12.66.45,25.5,1.34,38.22.73,10.47,5.07,19.8,10.47,28.73,10.13,16.76,24.48,29.18,40.47,39.93,16.5,11.09,34.79,17.03,54.65,16.92,9.18-.05,18.39-1.56,27.51-2.92,14.19-2.11,27.18-7.53,38.53-16.27,15.8-12.18,28.51-27.45,40.71-43.05,17.29-22.1,30.6-46.71,43.95-71.29,12.3-22.65,24.5-45.38,37.75-67.47,11.55-19.24,24.87-37.37,40.31-53.78,14.62-15.54,30.72-29.08,51.36-36.03,6.16-2.07,12.49-3.63,18.75-5.42h25c4.97,1.52,10.04,2.76,14.89,4.6,26.51,10.06,43.3,29.03,50.11,56.43,6.96,27.98-9.99,61.6-38.95,68.8-19.21,4.78-36.97,1.79-52.2-11.21-6.42-5.47-9.88-13.23-12.2-21.38-4.92-17.27-.01-32.3,10.25-46.19,4.19-5.67,5.32-10.61,2.47-13.09-4.29-3.72-8.71-1.58-12.85.78-12.76,7.28-20.68,18.98-28.01,31.13-16.91,28.06-25.46,59.4-35.68,90.16-8.9,26.78-19.37,53.03-29.25,79.48-7.94,21.26-20.14,40.15-33.8,58.03-17.46,22.85-39.9,39.22-66.91,49.33-7.27,2.72-15.53,4.94-18.7,12.96-2.38,6.03-4.21,12.75-4.22,19.16-.24,116.81-.16,233.62-.18,350.43,0,48.66-.14,97.31-.15,145.97,0,49.32-.5,98.64.4,147.94.42,23.09,5.58,45.7,21.1,63.96,12.96,15.24,27.04,29.65,47.37,35.13,11.44,3.08,22.86,5.85,34.98,5.84,196.63-.16,393.26-.22,589.88.11,15.58.03,31.67.26,46.38,6.9,14.84,6.69,26.48,16.95,32.87,32.42,1.19,2.89,2.92,5.56,4.4,8.33v19c-1.31,2.66-2.96,5.21-3.86,8.01-6.14,18.9-18.4,32.65-35.82,41.6-19.76,10.16-41.73,13.87-62.77,20.24-13.69,4.15-27.31,8.32-39.38,16.43-18.74,12.59-25.58,32.06-20.96,52.21,4.46,19.48,29.54,35.56,50.38,30.42,17.6-4.35,26.84-15.96,32.68-31.71.86-2.33.87-5.14,2.21-7.08,1.56-2.26,4.07-5.17,6.32-5.32,2.52-.16,6.57,1.83,7.59,4,2.48,5.27,4.36,11.09,5.08,16.86,1.39,11.18-1.12,22.04-4.61,32.68-8.1,24.75-23.43,42.54-48.57,51.11-1.63.56-2.85,2.34-4.26,3.55h-61Z"/>
      </g>
    </g>
  </g>
  <g id="Marquesitas">
    <g>
      <path class="cls-4" d="M2330.33,1721.86v-313.17h11.39l103.95,148.23,103.66-148.23h24.53v313.17h-48.76v-191.24l-85.26,121.93-84.97-121.93v191.24h-24.53Z"/>
      <path class="cls-4" d="M2622.33,1721.86v-243.44c0-19.21,4.82-35.63,14.45-49.27,9.64-13.64,21.07-20.46,34.31-20.46h48.76c13.24,0,24.62,6.89,34.16,20.67,9.54,13.78,14.31,30.14,14.31,49.06v243.44h-48.47v-139.05h-48.76v139.05h-48.76ZM2671.1,1547.73h48.76v-69.32c0-9.74-2.39-18.02-7.15-24.84-4.77-6.82-10.56-10.23-17.37-10.23s-12.31,3.41-17.08,10.23c-4.77,6.82-7.15,15.1-7.15,24.84v69.32Z"/>
      <path class="cls-4" d="M2817.09,1721.86v-313.17h97.53c13.24,0,24.62,6.89,34.16,20.67,9.54,13.78,14.31,30.14,14.31,49.06v18.79c0,15.59-3.7,30.55-11.1,44.89-7.4,14.34-19.86,21.5-37.38,21.5h24.24c6.62,0,12.31,3.41,17.08,10.23,4.77,6.83,7.15,15.1,7.15,24.84v123.18h-48.47v-104.39c0-9.46-2.39-17.6-7.15-24.43-4.77-6.82-10.56-10.23-17.37-10.23h-24.24v139.05h-48.76ZM2865.86,1547.73h24.24c6.81,0,12.6-3.41,17.37-10.23,4.77-6.82,7.15-14.96,7.15-24.43v-34.66c0-9.74-2.39-18.02-7.15-24.84-4.77-6.82-10.56-10.23-17.37-10.23h-24.24v104.39Z"/>
      <path class="cls-4" d="M3097.12,1721.86h-36.5c-13.24,0-24.67-6.82-34.31-20.46-9.64-13.64-14.45-30.06-14.45-49.27v-173.71c0-19.21,4.82-35.63,14.45-49.27,9.64-13.64,21.07-20.46,34.31-20.46h48.76c13.24,0,24.62,6.89,34.16,20.67,9.54,13.78,14.31,30.14,14.31,49.06v173.71c0,41.2-16.16,64.45-48.47,69.73h48.47v34.66h-36.5c-14.21,0-22.29-11.55-24.24-34.66ZM3060.62,1478.42v173.71c0,9.47,2.38,17.68,7.15,24.64,4.77,6.96,10.46,10.44,17.08,10.44s12.6-3.48,17.37-10.44c4.77-6.96,7.15-15.17,7.15-24.64v-173.71c0-9.74-2.39-18.02-7.15-24.84-4.77-6.82-10.56-10.23-17.37-10.23s-12.31,3.41-17.08,10.23c-4.77,6.82-7.15,15.1-7.15,24.84Z"/>
      <path class="cls-4" d="M3304.15,1408.69h48.47v243.44c0,18.93-4.77,35.28-14.31,49.06-9.54,13.78-20.93,20.67-34.16,20.67h-48.76c-13.24,0-24.67-6.82-34.31-20.46-9.64-13.64-14.45-30.06-14.45-49.27v-243.44h48.76v243.44c0,9.47,2.38,17.68,7.15,24.64,4.77,6.96,10.46,10.44,17.08,10.44s12.6-3.48,17.37-10.44c4.77-6.96,7.15-15.17,7.15-24.64v-243.44Z"/>
      <path class="cls-4" d="M3401.38,1721.86v-313.17h121.76v34.66h-73v104.39h48.76v35.07h-48.76v104.39h73v34.66h-121.76Z"/>
      <path class="cls-4" d="M3693.38,1478.42h-24.24c-2.14-23.38-9.83-35.08-23.07-35.08-8.57,0-14.99,2.92-19.27,8.77-4.29,5.85-6.42,14.62-6.42,26.31,0,8.63,2.34,16.85,7.01,24.64l51.68,82.68c9.54,15.31,14.31,31.74,14.31,49.27v17.12c0,18.93-4.77,35.28-14.31,49.06-9.54,13.78-21.02,20.67-34.46,20.67h-24.24c-16.16,0-28.32-5.77-36.5-17.33-8.18-11.55-12.26-29.02-12.26-52.4h24.53v5.85c0,9.47,2.53,16.7,7.59,21.71,5.06,5.01,10.61,7.52,16.64,7.52,8.56,0,14.75-2.99,18.54-8.98,3.8-5.98,5.7-14.68,5.7-26.1,0-8.91-2.34-17.12-7.01-24.64l-51.68-82.68c-9.54-15.03-14.31-31.45-14.31-49.27v-17.12c0-18.93,4.77-35.28,14.31-49.06,9.54-13.78,21.02-20.67,34.46-20.67h24.24c30.56,0,46.81,23.25,48.76,69.73Z"/>
      <path class="cls-4" d="M3766.37,1721.86v-313.17h48.47v313.17h-48.47Z"/>
      <path class="cls-4" d="M3912.37,1721.86v-278.51h-48.76v-34.66h146v34.66h-48.76v278.51h-48.47Z"/>
      <path class="cls-4" d="M4033.85,1721.86v-243.44c0-19.21,4.82-35.63,14.45-49.27,9.64-13.64,21.07-20.46,34.31-20.46h48.76c13.24,0,24.62,6.89,34.16,20.67,9.54,13.78,14.31,30.14,14.31,49.06v243.44h-48.47v-139.05h-48.76v139.05h-48.76ZM4082.61,1547.73h48.76v-69.32c0-9.74-2.39-18.02-7.15-24.84-4.77-6.82-10.56-10.23-17.37-10.23s-12.31,3.41-17.08,10.23c-4.77,6.82-7.15,15.1-7.15,24.84v69.32Z"/>
      <path class="cls-4" d="M4350.37,1478.42h-24.24c-2.14-23.38-9.83-35.08-23.07-35.08-8.57,0-14.99,2.92-19.27,8.77-4.28,5.85-6.42,14.62-6.42,26.31,0,8.63,2.34,16.85,7.01,24.64l51.68,82.68c9.54,15.31,14.31,31.74,14.31,49.27v17.12c0,18.93-4.77,35.28-14.31,49.06-9.54,13.78-21.02,20.67-34.46,20.67h-24.24c-16.16,0-28.32-5.77-36.5-17.33-8.18-11.55-12.26-29.02-12.26-52.4h24.53v5.85c0,9.47,2.53,16.7,7.59,21.71,5.06,5.01,10.61,7.52,16.64,7.52,8.56,0,14.75-2.99,18.54-8.98,3.8-5.98,5.69-14.68,5.69-26.1,0-8.91-2.34-17.12-7.01-24.64l-51.68-82.68c-9.54-15.03-14.31-31.45-14.31-49.27v-17.12c0-18.93,4.77-35.28,14.31-49.06,9.54-13.78,21.02-20.67,34.46-20.67h24.24c30.56,0,46.82,23.25,48.76,69.73Z"/>
    </g>
  </g>
  <g id="est">
    <g>
      <path class="cls-2" d="M3170.81,2275.37h-33.27v10.14c0,2.77.81,5.18,2.45,7.21,1.63,2.04,3.58,3.06,5.84,3.06h8.39c5.53,0,8.29-3.42,8.29-10.27h8.29c-1.27,13.61-6.79,20.41-16.58,20.41h-16.69c-4.53,0-8.44-2-11.74-5.99-3.3-3.99-4.95-8.8-4.95-14.42v-30.55c0-5.54,1.65-10.31,4.95-14.3,3.3-3.99,7.21-5.99,11.74-5.99h16.69c4.53,0,8.43,2,11.69,5.99,3.26,3.99,4.9,8.76,4.9,14.3v20.41ZM3137.54,2265.22h16.69v-10.27c0-2.77-.82-5.15-2.45-7.15-1.63-2-3.61-3-5.94-3s-4.21,1-5.84,3c-1.63,2-2.45,4.38-2.45,7.15v10.27Z"/>
      <path class="cls-2" d="M3226.56,2254.96h-8.29c-.73-6.76-3.36-10.14-7.89-10.14-2.93,0-5.13.71-6.59,2.14-1.47,1.43-2.2,3.52-2.2,6.29,0,2.93,4.03,7.05,12.09,12.34,6.59,4.32,10.39,7.9,11.39,10.76,1,2.85,1.5,5.91,1.5,9.17,0,5.62-1.63,10.43-4.9,14.42-3.26,3.99-7.19,5.99-11.79,5.99h-8.29c-11.12,0-16.68-6.8-16.68-20.41h8.39c.66,6.84,3.26,10.27,7.79,10.27,3,0,5.23-.71,6.69-2.14,1.46-1.42,2.2-3.56,2.2-6.42s-4.03-6.92-12.09-12.22c-6.59-4.32-10.41-7.9-11.44-10.75-1.03-2.85-1.55-5.91-1.55-9.17,0-5.62,1.65-10.43,4.95-14.42,3.3-3.99,7.21-5.99,11.74-5.99h8.29c10.46,0,16.02,6.76,16.69,20.29Z"/>
      <path class="cls-2" d="M3248.94,2214.26h16.58v20.41h8.39v10.14h-8.39v40.7c0,3.34.9,5.89,2.7,7.64,1.8,1.75,3.43,2.63,4.9,2.63h.8v10.14h-8.39c-4.53,0-8.43-2-11.69-5.99-3.26-3.99-4.9-8.8-4.9-14.42v-40.7h-8.39v-10.14h8.39v-20.41Z"/>
      <path class="cls-2" d="M3287.9,2305.92v-20.41h16.69v20.41h-16.69Z"/>
      <path class="cls-2" d="M3349.34,2234.67h-8.39c1.33-13.61,6.89-20.41,16.68-20.41h16.68c4.53,0,8.43,2.02,11.69,6.05,3.26,4.03,4.9,8.82,4.9,14.36v5.01c0,7.09-5.36,16.25-16.08,27.5l-1.1,1.1c-10.73,11.24-16.09,20.09-16.09,26.52v.98h33.27v10.14h-49.95v-10.14c0-7.09,5.39-16.25,16.18-27.5l1.1-1.1c10.72-11.24,16.08-20.41,16.08-27.5v-5.01c0-2.85-.83-5.28-2.5-7.27-1.67-2-3.63-2.99-5.89-2.99h-8.29c-5.13,0-7.89,3.42-8.29,10.27Z"/>
      <path class="cls-2" d="M3421.68,2214.26h16.68c4.53,0,8.43,2.02,11.69,6.05,3.26,4.03,4.9,8.82,4.9,14.36v50.84c0,5.54-1.63,10.33-4.9,14.36-3.26,4.03-7.16,6.05-11.69,6.05h-16.68c-4.53,0-8.44-2-11.74-5.99-3.3-3.99-4.95-8.8-4.95-14.42v-50.84c0-5.62,1.65-10.43,4.95-14.42,3.3-3.99,7.21-5.99,11.74-5.99ZM3438.26,2232.83c-1.2-5.62-3.96-8.43-8.29-8.43-2.27,0-4.21,1-5.84,2.99-1.63,2-2.45,4.42-2.45,7.27v34.59l16.58-36.42ZM3421.88,2287.22c.4,2.77,1.28,4.89,2.65,6.36,1.36,1.47,3.18,2.2,5.45,2.2s4.31-1.02,5.94-3.06c1.63-2.04,2.45-4.44,2.45-7.21v-34.59l-16.48,36.3Z"/>
      <path class="cls-2" d="M3485.72,2305.92v-71.25h-8.29v-10.27l16.59-10.14h8.39v91.66h-16.68Z"/>
      <path class="cls-2" d="M3533.08,2214.26h49.95v10.14h-33.27v20.41h16.68c4.53,0,8.43,2,11.69,5.99,3.26,3.99,4.9,8.8,4.9,14.42v20.29c0,5.62-1.63,10.43-4.9,14.42-3.26,3.99-7.16,5.99-11.69,5.99h-16.68c-9.79,0-15.35-6.8-16.68-20.41h8.39c.4,6.84,3.16,10.27,8.29,10.27h8.29c2.33,0,4.31-1,5.94-2.99,1.63-2,2.45-4.42,2.45-7.27v-20.29c0-2.85-.82-5.27-2.45-7.27-1.63-2-3.61-2.99-5.94-2.99h-24.98v-40.7Z"/>
    </g>
  </g>
  <g id="Las_hijas" data-name="Las hijas">
    <g id="_3d58F2" data-name="3d58F2">
      <g>
        <path class="cls-1" d="M3961.39,550.38c-9.45-2.29-18-6.48-25.78-12.25-1.29-.96-3.21-3.45-3.08-3.59,1.87-2,3.91-3.94,6.24-5.36.71-.44,2.83.38,3.6,1.25,9.04,10.13,20.51,13.02,33.39,10.96,7.02-1.12,11.32-5.84,13.54-12.52,2.28-6.88.89-13.03-4.47-17.72-4.08-3.58-8.8-6.45-13.36-9.46-4.15-2.74-8.68-4.95-12.65-7.92-10.77-8.05-5.33-19.75,3.7-23.2,7.12-2.72,14.57-3.04,21.48-.23,8.37,3.41,16.27,7.98,24.38,12.05v2c-2.21,1.38-4.35,2.9-6.64,4.12-4.51,2.42-3.78-2.77-5.73-4.09-.96-.65-1.79-1.65-2.84-1.97-6.61-2.04-13.16-4.49-19.93-5.66-3.85-.67-9.03-.18-10.48,4.68-1.37,4.59,3.09,6.43,6.07,8.68.92.69,2.03,1.12,3.01,1.74,6.01,3.79,12.1,7.46,17.98,11.44,8.24,5.58,11.41,13.52,9.91,23.3-1.62,10.56-7.3,17.95-17.38,21.79-1.66.63-3.3,1.31-4.95,1.97h-16Z"/>
        <path class="cls-1" d="M3880.95,519.37c11.54,2.33,22.41,4.52,33.47,6.75.97-2.42,1.67-4.25,2.44-6.05,1.73-4.05,5.36-5.67,9.28-4.07,4.14,1.68,4.55,4.57,3.08,8.52-4.77,12.82-6.09,14.01-19.65,11.57-12.59-2.27-25-5.48-37.52-8.15-3.56-.76-7.24-.91-10.81-1.65-3.32-.69-7-1.74-6.17-6.25.82-4.4,4.37-4.95,8.17-4.42,1.31.18,2.59.5,4.57.89,6.8-17.6,13.58-35.16,20.53-53.14-2-.49-3.99-.41-5.03-1.37-1.64-1.52-3.59-3.73-3.6-5.65,0-1.42,2.66-3.27,4.51-4.16,1.31-.63,3.27-.14,4.89.14,11.57,2.03,23.16,4,34.68,6.29,5.2,1.03,10.38,2.46,15.36,4.26,6.2,2.24,7.1,4.2,5.21,10.59-.85,2.87-1.87,6.38-4.02,7.97-1.65,1.22-6.06.87-7.66-.56-1.83-1.63-1.9-5.22-2.74-7.97.46-.5.92-.99,1.38-1.49-6.4-1.32-12.76-2.99-19.22-3.87-10.94-1.49-10.97-1.28-14.89,9.03-.7,1.83-1.37,3.68-2.29,6.16,7.18,1.52,13.91,3.05,20.7,4.27.86.16,2.19-1.13,3-2.03,3.06-3.38,6.52-3.17,9.86-.88,3.54,2.43,2.1,5.12.25,8.15-1.52,2.49-2.27,5.52-2.98,8.4-.89,3.62-3.24,4.8-6.61,4.71-3.32-.09-5.57-1.37-6.56-4.92-.41-1.45-2.07-3.19-3.49-3.59-4.96-1.38-10.04-2.41-15.13-3.13-1.25-.18-3.52.97-3.98,2.07-3.12,7.51-5.88,15.17-9.07,23.58Z"/>
        <path class="cls-1" d="M3732.58,505.29c6.54,10.39,14.81,17.99,27.92,18,2.99,0,4.17,1.07,3.59,3.75-.53,2.45.4,6.16-4.35,5.65-10.73-1.17-19.8-5.67-27.03-13.59-2.89-3.17-4.95-7.11-7.77-10.36-1.33-1.54-3.5-3.1-5.41-3.27-13.6-1.22-25.31-5.89-35.01-15.98-16.46-17.14-13.7-46.99,7.84-60.7,21.91-13.94,55.95-6.93,69.9,14.56,13.18,20.29,4.75,48-17.52,57.41-3.8,1.61-7.74,2.9-12.17,4.54ZM3720.96,496.62c-4.25-5.03-7.91-9.15-11.3-13.49-.94-1.2-1.09-3.03-1.6-4.57,1.69-.24,3.58-1.07,5.04-.59,2.12.71,4.35,2,5.79,3.69,3,3.52,6.04,7.19,8.08,11.29,1.92,3.84,4.26,4.16,7.59,2.85,8.57-3.36,16.54-8.09,20.51-16.53,2.56-5.45,4.25-12.26,3.54-18.12-2.52-20.53-22-33.97-43.2-31.4-15.18,1.84-29.79,11.25-31.79,27.9-2.64,22.01,18.44,39.32,37.36,38.97Z"/>
        <path class="cls-1" d="M3484.92,403.8c.67,4.48.93,7.8,1.69,11,2.38,10,4.96,19.95,7.85,31.48,1.96-5.26,3.45-9.1,4.84-12.98,2.23-6.26,4.4-12.55,6.6-18.83.44-1.26.94-2.5,1.25-3.79.42-1.77.43-5.01,1.05-5.12,2.69-.48,5.57-.21,8.32.18.72.1,1.63,1.59,1.79,2.55.85,5.29,1.07,10.71,2.28,15.91,4.08,17.66,8.48,35.26,12.77,52.88.23.97.64,1.91.74,2.89.22,2.16.3,4.35.44,6.52-3.85-.54-7.7-1.06-11.52-1.74-.13-.02,0-1.73.07-2.64.15-1.86.85-3.83.46-5.55-3.52-15.23-7.22-30.42-10.9-45.62-.29-1.21-.75-2.38-1.45-4.55-4.27,12.08-8.23,23.13-12.05,34.22-.58,1.69-.18,5.02-.79,5.16-2.84.64-5.88.62-8.81.39-.81-.06-2.01-1.59-2.16-2.58-.75-4.78-.85-9.69-1.85-14.4-1.69-7.93-3.88-15.76-5.86-23.61-.49.07-.95.04-.99.16-6.09,16.86-12.17,33.72-18.21,50.6-.69,1.92-.85,5.4-1.8,5.6-2.8.59-5.93.15-8.82-.45-.72-.15-1.74-2.7-1.36-3.64,2.76-6.88,6.16-13.51,8.76-20.45,5.71-15.25,11.06-30.64,16.56-45.97.11-.31.27-.61.35-.93.57-2.23.68-6.09,1.77-6.39,3.15-.87,6.69-.31,8.97-.31Z"/>
        <path class="cls-1" d="M3232.61,402.71c14.5-1.13,26.56.15,37.26,6.82,4.53,2.82,9.37,6.34,12.03,10.77,12.57,20.94,5.02,48.01-21.57,57.27-13.45,4.68-27.51,4.22-41.45,4.56-4.83.12-5.47-1.44-3.33-5.62.56-1.1.85-2.47.83-3.71-.29-20.46-.65-40.91-1-61.37-.01-.66.03-1.35-.12-1.99-1.51-6.15-1.53-6.3,5.03-6.68,4.81-.28,9.64-.05,12.32-.05ZM3226,474.81c9.1-1.02,17.13-1.3,24.86-3.01,5.2-1.15,10.46-3.62,14.82-6.71,15.24-10.81,16.76-35.35,3.17-46.08-12.89-10.18-27.86-10.15-42.85-9v64.81Z"/>
        <path class="cls-1" d="M3624.52,453.61c-.57,3.56-1.03,5.62-1.21,7.71-.66,7.62-1.29,15.25-1.79,22.89-.11,1.58-.02,3.42.69,4.77,1.91,3.64.03,4.69-3.01,4.57-3.51-.14-6.99-.81-9.51-1.13,1.29-8.84,2.66-16.55,3.5-24.33,1.66-15.37,3.03-30.78,4.51-46.17.09-.98.29-2.02.09-2.96-1.21-5.92-1.22-5.89,4.89-5.22,8.27.91,16.67,1.13,24.78,2.79,5.18,1.06,10.72,3.24,14.71,6.57,10.7,8.93,8.26,23.49-4.48,29.05-4.2,1.83-8.81,2.74-14.15,4.34,3.45,7.12,6.58,14.4,10.43,21.26,2.9,5.18,6.79,9.8,10.11,14.76.64.96,1.1,2.45.84,3.49-.17.66-1.83,1.26-2.85,1.3-4.56.2-8.25-.87-10.59-5.6-5.6-11.31-11.37-22.56-17.74-33.45-1.33-2.27-5.52-2.88-9.22-4.64ZM3627.28,421.07c-.87,8.4-1.75,15.95-2.31,23.53-.06.81,1.68,2.5,2.62,2.53,6.28.15,12.66.62,18.82-.27,7.83-1.13,12.2-5.35,12.5-10.24.3-4.96-4.01-10.07-11.48-12.07-6.21-1.66-12.71-2.24-20.14-3.48Z"/>
        <path class="cls-1" d="M3840.65,444.31c2.76-2.64,10.57-2.83,12.71-.38.31.35.62.84.65,1.29.55,6.98,1.04,13.97,1.59,20.95.93,11.55-1.15,22.55-6.32,32.9-8.21,16.44-24.85,23.47-42.77,19.1-25.98-6.33-33.58-25.77-29.14-49.55,1.9-10.2,5.53-19.86,11.68-28.4.39-.54.85-1.06,1.09-1.67.67-1.68,1.34-4.9,1.84-4.87,3.6.24,7.16,1.12,10.72,1.81-.36,1.54-.21,3.55-1.15,4.53-12.29,12.8-17.48,28.35-15.55,45.55,2.06,18.33,18.19,28.33,36.5,24.48,9.08-1.91,15.19-7.05,18.92-15.3,6.38-14.12,6.52-28.68,2.7-43.42-.61-2.35-2.18-4.46-3.48-7.03Z"/>
        <path class="cls-1" d="M2903.33,454.85c12.09-1.48,23.27-2.84,35.86-4.38-1.73-8.32-3.32-15.94-4.91-23.55-.07-.32-.43-.69-.34-.91.34-.85.73-2.3,1.23-2.36,3.42-.4,6.87-.53,10.31-.56.12,0,.32,1.9.38,2.92.27,4.93.28,9.89.8,14.79,1.81,17.03,3.79,34.05,5.72,51.07.13,1.14.02,2.61.68,3.33,3.89,4.29,1.17,5.2-2.7,5.63-2.76.3-5.54.55-8.47.84,2.6-14.87-2.43-28.58-2.76-43.61-11.88,1.34-23.15,2.62-35.23,3.99,1.47,12.75,2.85,24.91,4.32,37.06.11.9.81,1.74,1.27,2.59.24.43.84.88.77,1.22-.18.88-.54,2.39-1,2.46-3.39.51-6.82.83-10.25.94-.48.02-1.42-1.42-1.45-2.21-.21-5.7.11-11.43-.39-17.09-1.44-16.4-3.15-32.78-4.84-49.16-.16-1.58-.55-3.46-1.54-4.57-2.86-3.21-1.31-4.28,1.92-4.83,1.47-.25,2.98-.3,4.45-.55,3.61-.61,4.54-.07,4.31,4.36-.38,7.18,1.08,14.47,1.84,22.59Z"/>
        <path class="cls-1" d="M3126.26,487.38c-4.09-.89-11.68-2.51-19.25-4.25-.64-.15-1.68-1.35-1.55-1.65,1.06-2.52,1.99-5.26,3.74-7.25.66-.75,3.73-.25,5.08.63,9.71,6.33,29.15,5.15,37.72-2.52,8.43-7.54,7.88-22.08-1.67-28.11-4.51-2.85-10.04-4.18-15.24-5.79-6.02-1.87-12.42-2.68-18.21-5.04-8.75-3.56-10.66-13.11-4.2-20.04,8.44-9.05,19.42-10.11,30.91-8.57,5.1.68,10.15,1.73,15.22,2.63,3.37.6,4.1,2.52,2.49,5.37-2.49,4.41-5.59,4.97-9.42,1.89-.63-.51-1.41-.97-2.19-1.15-8.77-2.04-17.6-2.51-25.87,1.49-2.38,1.15-5.06,4.4-5.12,6.75-.04,1.78,3.58,4.41,6.06,5.33,4.32,1.61,9.05,2.06,13.55,3.24,4.15,1.09,8.19,2.62,12.34,3.73,19.4,5.17,22.23,32.49,7.3,44.46-6.89,5.52-16.79,8.83-31.68,8.84Z"/>
        <path class="cls-1" d="M2822.13,438.69c4.31,0,8.63-.02,12.94,0,2.93.02,4.07,1.82,3.07,4.26-.78,1.91-2.4,3.56-3.89,5.08-2.44,2.47-3.51-.85-5.25-1.29-3.78-.97-7.97-1.94-11.68-1.24-6.24,1.18-12.35,3.35-18.24,5.78-1.54.64-3.05,3.94-2.75,5.71.29,1.71,2.71,3.72,4.6,4.35,3.43,1.12,7.16,1.31,10.76,1.89,6.05.98,12.07,2.14,18.14,2.92,18.79,2.41,26.33,29.14,11.71,43.35-10.38,10.09-23.35,12.85-37.37,11.65-3.97-.34-7.95-.85-11.82-1.73-1.03-.23-2.54-2.3-2.36-3.24,1.12-5.96,4-7.29,9.47-4.8,9.69,4.42,28.26.75,35.53-7.03,8.44-9.03,5.9-24.18-5.56-28.81-6.17-2.49-13.22-2.85-19.89-4.1-4.57-.86-9.31-1.12-13.71-2.49-8.12-2.52-11.55-10.95-6.58-17.89,3.11-4.34,7.96-8.27,12.89-10.27,6.12-2.48,13.13-2.78,19.75-4.02.07.64.15,1.28.22,1.91Z"/>
        <path class="cls-1" d="M3573.27,453.18c-4.92-1.96-7.41,1.41-9.47,6.49-2.69,6.62-6.08,12.95-8.96,19.49-.65,1.48-.84,3.4-.59,5.01.46,2.94-.65,4.15-3.43,3.97-2.66-.17-5.4-.18-7.9-.94-.9-.27-2.06-2.93-1.64-3.8,2.65-5.49,5.99-10.65,8.59-16.16,7.25-15.34,14.25-30.79,21.35-46.2.62-1.36,1.3-2.71,1.8-4.12.62-1.74.81-4.88,1.67-5.05,2.66-.55,5.6-.19,8.34.28.77.13,1.64,1.78,1.83,2.84.47,2.69.21,5.54.91,8.15,5.19,19.61,10.53,39.18,15.87,58.75.43,1.58,1.28,3.04,1.88,4.58.56,1.43,1.04,2.88,1.55,4.33-1.38.36-2.75.88-4.15,1.03-1.65.18-3.33.05-5,.04-3.08-.02-4.94-.85-3.45-4.51.39-.96.19-2.29-.09-3.36-2.38-9.01-4.72-18.03-7.43-26.94-.42-1.37-2.5-2.64-4.08-3.14-2.01-.64-4.28-.47-7.6-.74ZM3577.65,429.37c-2.79,6.03-4.96,10.69-7.36,15.87,4.01.34,7.45.63,11.57.98-1.42-5.67-2.62-10.5-4.21-16.84Z"/>
        <path class="cls-1" d="M3065.26,411.69c2.63.07,6.2-1.03,4.71,4.15-.3,1.04.68,2.5,1.2,3.71,8.54,19.66,17.08,39.32,25.67,58.96.59,1.35,1.55,2.54,2.29,3.83.76,1.33,1.45,2.7,2.17,4.05-1.47.57-2.89,1.33-4.41,1.67-1.78.4-3.66.7-5.44.51-1.08-.11-2.64-1.01-2.98-1.93-2.41-6.42-4.51-12.96-6.8-19.43-.72-2.03-1.56-4.04-2.56-5.95-1.42-2.72-2.72-7.31-4.61-7.61-4.96-.77-10.22.25-15.33.84-.69.08-1.43,1.68-1.75,2.7-2.66,8.57-5.23,17.17-7.79,25.77-.28.94-.83,2.23-.45,2.88,3.47,5.77-.68,5.53-4.38,5.77-1.66.11-3.48.83-4.91.35-1.2-.41-2.97-2.48-2.73-3.27,3.44-11.22,7.29-22.31,10.8-33.5,3.48-11.1,6.67-22.28,9.99-33.43.38-1.28,1.32-2.74,1-3.81-1.92-6.25,2.37-5.96,6.32-6.24ZM3065.87,430.78c-.36.03-.71.06-1.07.09-1.45,5.02-2.9,10.05-4.54,15.74,4.3-.38,7.76-.69,11.78-1.04-2.31-5.54-4.24-10.17-6.17-14.79Z"/>
        <path class="cls-1" d="M2725.03,536.65c-.54-.93-2.03-2.29-1.84-3.35,1.86-10.25,4.16-20.41,6.03-30.66,2.36-12.93,4.45-25.91,6.65-38.87.19-1.15.37-2.3.47-3.46.15-1.77-.28-4.81.43-5.09,2.7-1.08,5.75-1.36,8.7-1.72.43-.05,1.22.99,1.49,1.67,1.26,3.1,2,6.49,3.65,9.35,9.9,17.14,19.99,34.18,30.05,51.23.84,1.42,1.96,2.68,2.94,4.03.89,1.22,1.77,2.45,2.66,3.67-1.42.69-2.79,1.51-4.27,2.05-1.56.57-3.24,1.29-4.81,1.17-1.28-.09-3.05-1.02-3.61-2.1-1.54-2.99-2.25-6.42-3.86-9.36-3.52-6.42-7.47-12.6-11.08-18.97-1.23-2.17-2.41-2.94-5.11-2.43-13.97,2.62-13.96,2.52-16.22,16.83-.78,4.93-1.75,9.82-2.6,14.74-.2,1.14-.75,2.65-.25,3.41,4.3,6.55-1.09,6.04-4.8,6.79-1.14.23-2.27.51-4.63,1.05ZM2752.72,486.69c-3.07-5.44-5.74-10.16-9.08-16.07-1.04,6.86-1.85,12.14-2.77,18.21,4.35-.79,7.8-1.41,11.85-2.14Z"/>
        <path class="cls-1" d="M3305.37,472.43h39.54c1.87,6.44.73,8.11-6.27,8.11-13.66,0-27.33.03-40.99-.01-5.01-.01-5.52-1-3.29-5.49.49-.98.75-2.16.78-3.26.39-18.63.78-37.25,1.05-55.88.06-3.85.48-7.59-2.74-11.07-2.44-2.64.64-3.55,2.97-3.57,8.17-.07,16.33-.04,24.5-.04,4.5,0,9.01-.17,13.49.11,1.34.09,3.47,1.26,3.7,2.28.44,1.95-.12,4.17-.53,6.22-.07.37-1.62.92-2.11.67-9.54-4.99-19.57-.32-29.67-2.41v13.34c6.36,0,12.76-.06,19.16.05,1.3.02,3.65.55,3.71,1.04.28,2.54.08,5.16-.3,7.7-.04.25-2.48.24-3.79.17-6.11-.29-12.21-.63-19.18-1v43.04Z"/>
        <path class="cls-1" d="M2998.8,497.19c-7.34-.56-14.25-1.53-19.48-7.05-4.4-4.63-4.95-10.77-1.44-16.02,3.48-5.21,10.41-7.72,15.78-5.03,1.75.88,2.55,3.65,3.79,5.56-1.81.42-3.67.7-5.42,1.29-2.58.87-6.13,1.26-7.38,3.12-1.88,2.79.28,5.61,3.08,7.42,6.75,4.38,21.59,3.1,27.36-2.43,3.71-3.56,4.22-8.23,3.87-12.94-1.15-15.44-2.43-30.87-3.79-46.3-.18-2.08-.77-4.26-1.73-6.09-1.46-2.77-.6-4.13,2.13-4.63,2.12-.39,4.3-.68,6.45-.62,3.12.07,4.06,1.56,2.74,4.62-.67,1.56-.96,3.47-.81,5.17,1.35,15.26,2.91,30.5,4.28,45.76,1.3,14.48-6.63,24.38-21.76,27.25-2.61.49-5.29.66-7.66.95Z"/>
        <path class="cls-1" d="M3362.73,472.51c12.3,0,24.54-.08,36.77.12,1.24.02,3.38,1.67,3.49,2.75.34,3.1-.3,6.1-4.62,6.01-9.15-.19-18.29-.35-27.44-.44-7.08-.07-14.16-.01-21.22-.01,5.15-15.75,1.39-30.91,3.09-45.71.75-6.59.71-13.29.62-19.93-.04-3.51-1.18-6.99-1.33-10.51-.05-1.11,1.26-2.86,2.36-3.3,1.44-.57,3.27-.12,4.94-.11,5.55.05,5.06-.06,3.92,5.38-.91,4.32-.54,8.93-.55,13.42-.05,17.44-.02,34.88-.02,52.34Z"/>
        <path class="cls-1" d="M2677.8,540.41c12.25-3.47,24.02-6.89,35.87-10.02,1.1-.29,3.39.94,3.9,2.04,1.21,2.62,1,5.4-2.51,6.33-4.82,1.27-9.69,2.37-14.55,3.49-9.24,2.13-18.47,4.25-27.72,6.33-1.72.39-3.49.56-4.23.68-2.06-19.28-7.8-37.34-11.68-55.75-1.3-6.19-3.69-12.15-5.43-18.25-.21-.73.33-2.32.86-2.5,2.96-.98,6.01-1.77,9.09-2.27.44-.07,1.56,1.7,1.71,2.71.32,2.2-.16,4.54.33,6.67,4.27,18.98,8.66,37.92,13.05,56.88.22.94.65,1.83,1.32,3.66Z"/>
        <path class="cls-1" d="M2962.02,499.76c-.37-.94-1.29-2.4-1.48-3.94-.28-2.22.17-4.52-.04-6.76-1.32-14.07-2.57-28.16-4.18-42.2-.84-7.35-2.37-14.61-3.5-21.93-.14-.88.18-2.61.47-2.65,3.5-.47,7.04-.76,10.57-.91.29-.01,1.1,1.5.9,1.98-3.15,7.46.15,14.73.74,22.01,1.21,14.91,3.1,29.76,4.72,44.64.05.5.09,1,.2,1.48,1.79,7.67,1.24,8.35-8.41,8.28Z"/>
        <path class="cls-1" d="M3912.48,455.98c-1.3-1.34-4.02-2.89-4.61-5.02-.93-3.36,1.96-4.93,5-5.46,9.64-1.7,19.29-3.39,28.96-4.94,3.62-.58,6.99.31,7.55,4.5.54,4.13-2.56,5.1-6.01,5.65-9.83,1.57-19.63,3.34-30.89,5.27Z"/>
      </g>
    </g>
  </g>
</svg>